<?xml version="1.0" encoding="UTF-8"?>
<svg id="svg859" xmlns="http://www.w3.org/2000/svg" version="1.1" xmlns:cc="http://creativecommons.org/ns#" xmlns:dc="http://purl.org/dc/elements/1.1/" xmlns:rdf="http://www.w3.org/1999/02/22-rdf-syntax-ns#" xmlns:svg="http://www.w3.org/2000/svg" viewBox="0 0 145.83 52.78">
  <!-- Generator: Adobe Illustrator 29.8.5, SVG Export Plug-In . SVG Version: 2.1.1 Build 2)  -->
  <defs>
    <style>
      .st0 {
        fill: #32bcad;
      }

      .st1 {
        fill: #939598;
      }
    </style>
  </defs>
  <g id="layer1">
    <path class="st1" d="M60.25,49.53c-.5,0-.9-.4-.9-.9v-29.25c0-5.87,4.78-10.65,10.65-10.65h8.64c5.85.02,10.61,4.79,10.61,10.65v6.23c0,5.87-4.78,10.65-10.65,10.65h-12.2c-.5,0-.9-.4-.9-.9s.4-.9.9-.9h12.2c4.88,0,8.85-3.97,8.85-8.85v-6.23c0-4.86-3.95-8.82-8.81-8.83h-8.64c-4.88-.01-8.84,3.95-8.84,8.83v29.25c0,.5-.4.9-.9.9Z"/>
    <path class="st1" d="M98.51,36.38c-.5,0-.9-.4-.9-.9V13.62c0-1.71-1.39-3.1-3.1-3.1h-3.75c-.5,0-.9-.4-.9-.9s.4-.9.9-.9h3.75c2.7,0,4.9,2.2,4.9,4.9v21.85c0,.5-.4.9-.9.9Z"/>
    <path id="path2364" class="st0" d="M97.7,6.24l-1.7-1.7c-.42-.42-.42-1.11,0-1.53l1.7-1.7c.42-.42,1.11-.42,1.53,0l1.7,1.7c.42.42.42,1.11,0,1.53l-1.7,1.7c-.42.42-1.1.42-1.53,0"/>
    <path class="st1" d="M125.24,22.15c-1.01,0-1.96-.39-2.68-1.11l-8.69-8.69c-1.19-1.19-2.77-1.85-4.46-1.85h-3.72c-.5,0-.9-.4-.9-.9s.4-.9.9-.9h3.72c2.17,0,4.2.84,5.73,2.37l8.69,8.69c.37.37.87.58,1.4.58s1.03-.21,1.4-.58l8.66-8.66c1.53-1.53,3.57-2.37,5.73-2.37h3.02c.5,0,.9.4.9.9s-.4.9-.9.9h-3.02c-1.68,0-3.27.66-4.46,1.85l-8.66,8.66c-.71.71-1.66,1.11-2.68,1.11Z"/>
    <path class="st1" d="M109.41,36.19h-3.72c-.5,0-.9-.4-.9-.9s.4-.9.9-.9h3.72c1.68,0,3.27-.66,4.46-1.85l8.69-8.69c.71-.71,1.66-1.11,2.68-1.11s1.96.39,2.68,1.11l8.66,8.66c1.19,1.19,2.77,1.85,4.46,1.85h3.02c.5,0,.9.4.9.9s-.4.9-.9.9h-3.02c-2.17,0-4.2-.84-5.73-2.37l-8.66-8.66c-.37-.37-.87-.58-1.4-.58s-1.03.21-1.4.58l-8.69,8.69c-1.53,1.53-3.57,2.37-5.73,2.37Z"/>
    <path id="path2376" class="st0" d="M38.1,40.84c-1.86,0-3.62-.73-4.94-2.04l-7.13-7.13c-.5-.5-1.37-.5-1.87,0l-7.16,7.16c-1.32,1.32-3.07,2.04-4.94,2.04h-1.4l9.03,9.03c2.82,2.82,7.39,2.82,10.21,0l9.06-9.06h-.86Z"/>
    <path id="path2380" class="st0" d="M12.07,15.62c1.86,0,3.62.73,4.94,2.04l7.16,7.16c.52.52,1.36.52,1.87,0l7.13-7.13c1.32-1.32,3.07-2.04,4.94-2.04h.86l-9.05-9.06c-2.82-2.82-7.39-2.82-10.21,0l-9.03,9.03h1.4Z"/>
    <path id="path2384" class="st0" d="M46.45,23.13l-5.47-5.47c-.12.05-.25.08-.39.08h-2.49c-1.29,0-2.55.52-3.45,1.43l-7.13,7.13c-.67.67-1.54,1-2.42,1s-1.75-.33-2.42-1l-7.16-7.16c-.91-.91-2.17-1.43-3.45-1.43h-3.06c-.13,0-.25-.03-.37-.07l-5.49,5.49c-2.82,2.82-2.82,7.39,0,10.21l5.49,5.49c.12-.04.24-.07.37-.07h3.06c1.29,0,2.55-.52,3.45-1.43l7.16-7.16c1.29-1.29,3.55-1.29,4.84,0l7.13,7.13c.91.91,2.17,1.43,3.45,1.43h2.49c.14,0,.27.03.39.08l5.47-5.47c2.82-2.82,2.82-7.39,0-10.21"/>
    <path id="path2388" class="st1" d="M67.68,46.14c-.4,0-.87.1-1.34.2v1.78c.32.12.69.17,1.04.17.89,0,1.32-.3,1.32-1.09,0-.74-.35-1.07-1.02-1.07M66.04,49.45v-3.53h.25l.03.15c.41-.1.99-.22,1.39-.22.33,0,.65.05.91.27.31.25.4.65.4,1.09,0,.46-.15.89-.57,1.13-.29.16-.68.23-1.04.23s-.71-.06-1.07-.16v1.04h-.3Z"/>
    <path id="path2392" class="st1" d="M71.27,46.13c-.89,0-1.29.28-1.29,1.07s.39,1.1,1.29,1.1,1.29-.28,1.29-1.06-.39-1.11-1.29-1.11M72.42,48.3c-.3.21-.69.28-1.15.28s-.86-.07-1.15-.28c-.33-.23-.46-.61-.46-1.08s.13-.85.46-1.09c.29-.21.69-.28,1.15-.28s.85.07,1.15.28c.33.24.46.62.46,1.08s-.13.86-.46,1.09"/>
    <path id="path2396" class="st1" d="M76.65,48.51l-1-2.14h-.02l-.98,2.14h-.27l-1.06-2.58h.33l.88,2.17h.02l.96-2.17h.28l.99,2.17h.02l.86-2.17h.32l-1.06,2.58h-.27Z"/>
    <path id="path2400" class="st1" d="M79.91,46.12c-.83,0-1.11.37-1.16.9h2.32c-.03-.59-.33-.9-1.16-.9M79.9,48.58c-.5,0-.82-.07-1.07-.29-.3-.26-.4-.64-.4-1.07s.14-.85.48-1.1c.29-.2.64-.26,1.01-.26.33,0,.72.04,1.03.25.37.25.44.69.44,1.19h-2.65c.01.53.18,1,1.19,1,.48,0,.92-.08,1.33-.15v.27c-.43.08-.9.16-1.36.16"/>
    <path id="path2404" class="st1" d="M82.25,48.51v-2.58h.25l.03.15c.55-.14.8-.22,1.28-.22h.04v.29h-.07c-.4,0-.65.06-1.22.2v2.16h-.3Z"/>
    <path id="path2408" class="st1" d="M85.59,46.12c-.83,0-1.11.37-1.16.9h2.32c-.03-.59-.33-.9-1.16-.9M85.58,48.58c-.5,0-.82-.07-1.07-.29-.3-.26-.4-.64-.4-1.07s.14-.85.48-1.1c.29-.2.64-.26,1.01-.26.33,0,.72.04,1.03.25.37.25.44.69.44,1.19h-2.65c.01.53.18,1,1.19,1,.48,0,.92-.08,1.33-.15v.27c-.43.08-.9.16-1.36.16"/>
    <path id="path2412" class="st1" d="M90.37,46.3c-.32-.12-.69-.17-1.04-.17-.89,0-1.32.3-1.32,1.09,0,.75.35,1.07,1.02,1.07.4,0,.87-.1,1.34-.2v-1.79ZM90.42,48.51l-.03-.15c-.41.1-.99.23-1.39.23-.33,0-.65-.05-.91-.27-.31-.25-.4-.65-.4-1.09s.15-.89.57-1.13c.29-.17.68-.23,1.04-.23s.71.06,1.07.16v-1.18h.3v3.67h-.25Z"/>
    <path id="path2416" class="st1" d="M95.09,46.14c-.4,0-.87.1-1.34.2v1.78c.33.12.69.18,1.04.18.89,0,1.32-.3,1.32-1.09,0-.74-.35-1.07-1.02-1.07M95.86,48.35c-.29.16-.68.23-1.04.23-.38,0-.77-.07-1.15-.19l-.02.12h-.2v-3.67h.3v1.23c.41-.09.97-.21,1.36-.21.33,0,.65.05.91.27.31.25.4.65.4,1.09,0,.46-.15.89-.57,1.13"/>
    <path id="path2420" class="st1" d="M96.83,49.5v-.28c.15.01.29.03.38.03.37,0,.6-.11.81-.53l.1-.2-1.35-2.58h.35l1.15,2.23h.02l1.1-2.23h.34l-1.45,2.9c-.27.53-.55.7-1.08.7-.12,0-.25-.01-.37-.03"/>
    <path id="path2424" class="st1" d="M103.89,47.03h-1v.9h1.01c.69,0,.95-.08.95-.45,0-.4-.36-.45-.96-.45M103.71,45.57h-.82v.92h.82c.68,0,.95-.08.95-.46,0-.41-.34-.45-.96-.45M105.26,48.26c-.37.23-.81.24-1.62.24h-1.53v-3.5h1.49c.7,0,1.13.01,1.49.22.26.15.36.39.36.69,0,.37-.15.61-.55.78v.02c.45.1.74.33.74.83,0,.34-.12.56-.37.71"/>
    <path id="path2428" class="st1" d="M108.69,47.42c-.3-.03-.61-.04-.93-.04-.53,0-.71.11-.71.35,0,.22.15.35.56.35.34,0,.74-.08,1.08-.15v-.5ZM108.84,48.51l-.02-.15c-.44.11-.95.22-1.4.22-.28,0-.57-.04-.78-.19-.19-.14-.29-.36-.29-.62,0-.29.13-.56.43-.7.27-.13.63-.14.97-.14.27,0,.63.01.93.04v-.05c0-.4-.27-.54-.99-.54-.28,0-.62.01-.95.05v-.52c.36-.03.77-.05,1.11-.05.45,0,.91.04,1.2.24.3.21.35.5.35.88v1.53h-.57Z"/>
    <path id="path2432" class="st1" d="M112.78,48.51v-1.43c0-.47-.24-.64-.67-.64-.32,0-.71.08-1.05.16v1.9h-.72v-2.58h.59l.03.16c.45-.12.96-.23,1.38-.23.32,0,.64.05.88.27.2.18.28.44.28.81v1.58h-.72Z"/>
    <path id="path2436" class="st1" d="M115.53,48.58c-.33,0-.7-.05-.96-.27-.32-.26-.41-.66-.41-1.09,0-.41.13-.85.53-1.1.32-.21.72-.26,1.13-.26.3,0,.59.02.91.05v.55c-.26-.03-.57-.05-.82-.05-.68,0-1.01.21-1.01.81,0,.56.24.8.8.8.33,0,.71-.06,1.08-.13v.53c-.4.08-.84.16-1.26.16"/>
    <path id="path2440" class="st1" d="M118.91,46.4c-.68,0-.99.21-.99.8s.3.84.99.84.98-.21.98-.8-.29-.84-.98-.84M120.15,48.31c-.32.21-.73.27-1.24.27s-.93-.06-1.24-.27c-.36-.23-.49-.62-.49-1.09s.13-.86.49-1.09c.31-.21.73-.27,1.24-.27s.92.06,1.24.27c.36.23.48.63.48,1.09s-.13.86-.48,1.09"/>
    <path id="path2444" class="st1" d="M124.79,48.58c-.43,0-.9-.07-1.26-.36-.42-.35-.55-.88-.55-1.46,0-.52.16-1.13.71-1.49.42-.28.95-.33,1.48-.33.39,0,.79.03,1.22.06v.63c-.37-.03-.83-.06-1.19-.06-1,0-1.42.38-1.42,1.19s.39,1.19,1.13,1.19c.48,0,1.02-.1,1.56-.21v.62c-.54.11-1.11.22-1.69.22"/>
    <path id="path2448" class="st1" d="M128.59,46.31c-.6,0-.83.21-.87.61h1.74c-.02-.42-.27-.61-.86-.61M128.48,48.58c-.42,0-.81-.05-1.09-.29-.31-.25-.41-.64-.41-1.08,0-.39.13-.83.49-1.09.32-.22.72-.27,1.13-.27.37,0,.8.04,1.12.26.41.29.45.74.45,1.27h-2.45c.02.39.22.65.95.65.45,0,.95-.07,1.37-.13v.51c-.5.08-1.04.17-1.55.17"/>
    <path id="path2452" class="st1" d="M133.37,48.51v-1.43c0-.47-.24-.64-.67-.64-.32,0-.71.08-1.05.16v1.9h-.72v-2.58h.59l.03.16c.45-.12.96-.23,1.38-.23.32,0,.64.05.88.27.2.18.28.44.28.81v1.58h-.72Z"/>
    <path id="path2456" class="st1" d="M136.14,48.58c-.35,0-.66-.1-.84-.37-.13-.18-.19-.43-.19-.78v-.97h-.52v-.54h.52l.08-.78h.64v.78h1.02v.54h-1.02v.83c0,.2.02.37.07.49.08.17.25.24.47.24.17,0,.37-.03.52-.05v.52c-.23.05-.51.09-.75.09"/>
    <path id="path2460" class="st1" d="M137.54,48.51v-2.58h.59l.03.16c.48-.13.83-.23,1.28-.23.02,0,.05,0,.09,0v.61c-.08,0-.18,0-.25,0-.35,0-.62.04-1.01.13v1.91h-.72Z"/>
    <path id="path2464" class="st1" d="M142.14,47.42c-.3-.03-.61-.04-.93-.04-.53,0-.71.11-.71.35,0,.22.15.35.56.35.34,0,.74-.08,1.08-.15v-.5ZM142.3,48.51l-.02-.15c-.44.11-.95.22-1.4.22-.28,0-.57-.04-.78-.19-.19-.14-.29-.36-.29-.62,0-.29.13-.56.43-.7.27-.13.63-.14.97-.14.27,0,.63.01.93.04v-.05c0-.4-.27-.54-.99-.54-.28,0-.62.01-.95.05v-.52c.36-.03.77-.05,1.11-.05.45,0,.91.04,1.2.24.3.21.35.5.35.88v1.53h-.57Z"/>
    <path id="path2466" class="st1" d="M143.79,44.84h.72v3.67h-.72v-3.67Z"/>
  </g>
</svg>