<?xml version="1.0" encoding="UTF-8"?>
<svg id="Layer_1" xmlns="http://www.w3.org/2000/svg" version="1.1" viewBox="0 0 301 298.8">
  <!-- Generator: Adobe Illustrator 29.8.6, SVG Export Plug-In . SVG Version: 2.1.1 Build 1)  -->
  <defs>
    <style>
      .st0 {
        fill: #d29f53;
      }

      .st1 {
        fill: #fff;
      }

      .st2 {
        fill: #050505;
      }
    </style>
  </defs>
  <circle class="st2" cx="150.3" cy="149.2" r="142.8"/>
  <path class="st0" d="M150.3,6.4c78.9,0,142.8,63.9,142.8,142.8s-63.9,142.8-142.8,142.8S7.5,228.1,7.5,149.2,71.4,6.4,150.3,6.4M150.3,1.5c-39.5,0-76.5,15.4-104.4,43.2C18,72.6,2.7,109.7,2.7,149.1s15.4,76.5,43.2,104.4c27.9,27.9,65,43.3,104.4,43.3s76.5-15.4,104.4-43.2c27.9-27.9,43.2-65,43.2-104.4s-15.4-76.5-43.2-104.4C226.8,16.9,189.7,1.6,150.3,1.5h0Z"/>
  <circle class="st2" cx="150.3" cy="149.2" r="109.3"/>
  <path class="st0" d="M248.5,149.2c0,54.2-44,98.1-98.1,98.1s-98.1-44-98.1-98.1,44-98.1,98.1-98.1,98.1,44,98.1,98.1h0ZM150.3,55.6c-51.7,0-93.6,41.9-93.6,93.6s41.9,93.6,93.6,93.6,93.6-41.9,93.6-93.6-41.9-93.6-93.6-93.6h0Z"/>
  <path class="st2" d="M252.5,149.5l.4-8.1c.2-2.9-1.1-5.8-3.3-7.6-.1-.1-.3-.2-.4-.3l-1.9-2c-4.1-4.4-8.4-8.9-12.5-13.3-.8-2.6-1.6-5.2-2.4-7.8l-.9-3c-.2-.6-.4-1.2-.7-1.7-.1-.8-.4-1.7-.7-2.5-1.8-3.8-4.9-6.4-8.7-7.1-3.1-.6-6.2.2-8.7,2.1-.6-2.2-1.8-3.9-2.6-4.9-.2-.3-.5-.6-.8-1.1,0,0-.1,0-.2-.2.4-1.4.9-2.9,1.6-4.3l.4-.4c5.8-4.9,11.5-9.8,16.7-14.8,2.2-2.1,4-4.4,5.5-6.4.6-.8,1.2-1.5,1.8-2.2,3-3.7,2.8-9-.5-12.4l-1.2-1.3c-1.7-1.8-4.1-2.8-6.6-2.8h0c-2.5,0-4.9,1-6.6,2.7s-2.1,2.2-3.2,3.3c-2.2,2.3-4.4,4.5-6.5,6.4-1.2,1-2.4,2-3.7,3-3.3-3.8-6.5-7.3-9.9-10.9l-3.3-3.4c-6.8-7.1-13.9-14.5-21.5-21.3-11.9-10.6-28.5-12.1-42.5-3.6-1.2.7-2.2,1.7-3,2.9-1.3-.1-2.6,0-3.9.5,0,0-.3,0-.4.1-1,.3-2.6.8-4.3,1.8l-1.2.8c-5.7,3.6-11.7,7.4-17.5,11.2-15.4,10.2-20.9,29-13.3,45.5,1,2.2,1.9,4.6,2.8,7.2.6,1.7,1.2,3.4,1.9,5.2,2.8,7,5.6,14.1,8.4,21.2l3.4,8.6c.5,1.2,1.2,2.3,2.1,3.2,1.3,3.3,2.8,7,4.5,11-.9-.5-1.9-.9-3-1.1-1.4-.3-2.8-.5-4.2-.7-2.9-.5-5.6-.9-8.2-1.6-.2-.2-.5-.4-.8-.6-.6-.5-1.3-1-2.1-1.5-2.3-1.5-5.1-1.9-7.7-1.1s-4.8,2.7-5.9,5.2c-1.6,3.6-1.2,7.8,1.1,11.1,4.6,6.6,15.3,7.8,22.4,7.8s3,0,4.1-.1c1.7-.1,3.3-.7,4.6-1.6,1.9,4.8,4.6,8.7,6.8,11.9l3,4.7c-.6,1.1-1.2,2.2-1.8,3.4-1.1,2.4-2.4,3.9-4.3,5.1-8,5-15.9,10.4-23.5,16.1-.3.2-.6.4-.9.6-1.9,1.3-5,3.5-7,7.2-.9.7-1.6,1.4-2.2,2.2-1.3.9-2.5,2.2-3.4,3.9-1,1.6-2,3.1-3.1,4.8l-1.3,2c-.9,1.4-1.4,2.9-1.5,4.5,0,.3-.2.5-.3.8-.8,1.6-1.5,3.4-2,5.5-1,4.5-2,8.9-2.9,13.3-.4,1.7-.7,3.3-1.1,5-.6,2.6,0,5.4,1.7,7.5s4.1,3.5,6.8,3.7l25.3,1.8c3.2.2,6.2-1.2,8.1-3.7,1.6,0,3.2.2,4.8.2,1.5,2.8,4.3,4.7,7.5,4.9l48.8,3.5h.7c2.3,0,4.5-.8,6.1-2.3,1-.8,1.7-1.8,2.2-3,1-.5,1.8-1.2,2.6-2.1,4.9-.1,12-.4,17.6-1.4,2.1,1.4,4.2,1.7,5.6,1.8h0c3,0,7.1-1.2,10.2-7,.3-.6.7-1.3,1-2,.2.4.5.8.7,1.2,1.8,2.9,4.8,4.5,8,4.5s3.2-.4,4.7-1.3c.9-.5,1.8-1.1,2.5-1.6s1.7-1.1,2-1.3c4.5-1.2,10-4.5,10.8-12.9.7-7.2-.6-13.6-2.6-19.5,4.3-18.5,12-47.7,10.5-64.9,1.5-1.6,2.4-3.6,2.6-5.9h0l.4-.3h0Z"/>
  <path class="st1" d="M124.2,165c-3.4-4.8-6.7-9.7-7.3-15.8.8,1.8,1.5,3.5,2.3,5.3l.6-.2c-.4-2.7-.7-5.4-1-8l.9-.4c1,.6,1.9,1.3,3.3,2.2-2-7.1,5.5-5.7,7.1-9.6.3,0,.7,0,1,.1.5,1.9,1,3.8,1.3,4.9-1.6,1.3-3.4,2.1-3.6,3.2-.5,2.9,2,6.9,4.4,8,.7.3,1.3.7,1.9,1.2,2.7,2.6,5.8,4.8,4.9,9.5-1.1,5.4,2.4,9.8,4.7,14.2,1.8,3.4,5.1,6.1,7.8,9.1.3-.2.5-.4.8-.5-2.4-5.4-4.8-10.9-7.2-16.3.3-.1.6-.3.9-.4,2.8,1.9,3.8,4.9,4.9,7.9,3.1,8,6.4,15.9,11.9,22.5,1.8,2.1,4.1,3.8,6.2,5.6,1.1.9,2.2,1.8,3.1,3-17.6-8.7-29.2-23.2-37.9-40.5-.2,0-.5.2-.7.3,0,.9-.2,1.7-.1,2.5.3,1.7-.8,2.2-1.8,3.3-2.1,2.2-3.6,5.1-5.1,7.9-2,3.9-3.5,8.1-5.7,11.9-4.3,7.4-7,15.3-7.4,24,0,2.5,0,4.1,3.6,4.5,4.7.5,9.3,2.5,13.9,4,3.8,1.2,7.6,2.6,11.4,3.9,4.3,1.4,8.8,2.5,12.9,4.3s6.9,5.2,8.2,9.7c.5,1.6,1.2,3.2,2.1,5.2,1-1.7,1.7-2.8,2.8-4.8,1,2.7,1.7,4.7,2.6,6.9h-3.7c0,1.4-.1,2.8-.2,4.2-16.3-1.2-32.5-2.4-48.8-3.5-.7-5.9,1.1-11.1,3.8-16.3-5.2,1.3-7.3,6.1-11.2,9.3-1.4-4-3.1-7.7-3.8-11.6-.7-3.9-.3-8.1-.4-12.1-3.3,5.3-3.9,11.2-4.5,17.5-4.1-2-6.1-5.5-7.3-9.4-1.1-3.7-2-7.5-3-11.3-1.5,6.4-.5,12.6,1.9,18.7-.5.3-1,.6-1.5.9-1.4-2.2-2.8-4.5-4.1-6.7-.3.2-.6.4-.8.6,1.3,5.5,2.6,11,7.7,14.8,1.2.9,1.9,2.7,2.9,4-8.4-.6-16.9-1.2-25.3-1.8,1.3-6,2.5-12.1,3.9-18.1.4-1.8,1.4-3.5,2.4-6,.6,2,1,3.1,1.5,4.6,1.2-2.7,1.7-4.8-1.3-6.4,1.6-2.4,3-4.7,4.4-6.9.3-.4.6-1.1.9-1.1,1.4-.2,3.8.8,2.2-2.3,0,0,1-.6,1.5-.9,0,.4.2.8.4,1.2,0-.2.3-.4.3-.5,0-4.1,3.4-5.8,5.9-7.6,7.4-5.5,15.1-10.7,22.9-15.7,3.6-2.3,6-5.2,7.8-9,1.3-2.7,2.8-5.2,4.2-7.8-2-3.1-4.1-6.3-6.2-9.5,1.3,1.3,2.7,2.6,4.3,4.1.3-1.8.5-3.1.8-5.1,1.3,2.1,2.2,3.7,3.1,5.2.5-.3.9-.5,1.4-.8-4.6-6.3-6.8-14.1-12.6-19.8-.5,1-.7,2-.6,2.9.3,2,.8,4,1.2,5.9.2.9.4,1.9,1,2.5,1.4,1.5,1.9,3.2,1.5,5.1h-.3v.1ZM86.6,219.2c-.5-.2-1.1-.4-1.6-.6-.7,1.9-1.4,3.8-2.1,5.8.4.1.8.3,1.2.5.8-1.9,1.7-3.7,2.5-5.7h0Z"/>
  <path class="st1" d="M243.3,149c-5.2-7.8-10.5-15.6-15.7-23.4-.4,0-.8.2-1.1.2,1.4,7.4,1.6,14.6-2.6,21.1-2.8-2.3-3.2-5.2-1.1-7.9,3.5-4.3,3-13.6-.7-17.7-.9-.9-1.3-2.3-1.9-3.5.2,0,.4-.3.6-.4.8.5,1.7,1.1,3.2,2.1-1-3.7-1.8-6.6-2.5-9.4.4,0,.7-.2,1.1-.3,1.1,3.8,2.3,7.6,3.5,11.3.3.8.6,1.7,1.2,2.4,5.1,5.5,10.4,11,15.5,16.5.3.3.6.5.9.8,0,2.7-.3,5.4-.4,8.2h0Z"/>
  <path class="st1" d="M190.2,161.6c-2.1,1.2-4,1.8-5.3,3-3.8,3.6-8.2,2.5-9.6-2.8-1.8-6.8-3.1-13.8-5.1-20.5-1.5-5.1-3.7-10-5.6-15.3,6.4-5.5,13.4-11.4,20.4-17.3,1.2-1.1,2.5-2.1,3.8-3.1,4-2.8,8.1-5.6,12.5-8.6,1.1,1.7,2,2.6,2.2,3.5,1.6,7,6.5,12.3,9.7,18.4,1.4,2.6,2.3,5.5,3,8.3,2.1,8.9,3.9,17.9,5.8,26.8,1.4,6.6,1,13.3-.4,19.8-1.5,7-3.5,14-6,20.7-3.6,9.7-15.6,15.7-24.5,12.5-1.6-.6-3.5-2-4.2-3.5-1.2-2.3.8-3.9,2.6-4.8,3.2-1.8,6.6-3.2,9.8-5,.9-.5,1.5-1.6,2.2-2.5-1.1-.6-2.1-1.5-3.2-1.8-.8-.2-1.7.5-2.6.7-3.4,1-6.8,2.1-10.3,2.8-1.1.2-2.8-.7-3.5-1.6-1-1.3-.9-2.9,1.4-3h.3c5-3.9,12.2-3.4,16.8-8.3.7-.8,1.9-1.1,2.9-1.5.8-.3,1.8-.5,2.6-.8.2,0,.4-.4.7-.8-1.1-1.7-2.2-1.8-4.1-1-3.9,1.6-7.9,3.1-12,4.3-3.7,1.1-7.5,1.9-11.3,2.8-.3-.4-.7-.7-1-1.1,1.3-2.9,2.6-5.7,4.1-9.2.5,1.4.5,2.3,1,2.9s1.4.9,2.1,1.4c.3-.9.7-1.8.7-2.7s-.6-1-1-1.5c-2.8-3.7-2.4-5.1,2.2-6.8,2.5-.9,2.7-1.2,2.4-4.5h.5v.1ZM207.9,117.3c-1.7-1.1-3-2.1-4.4-2.8-1-.5-2.3-.8-3.4-.9-1.2,0-2.5,0-3.7.2-4.6.6-9.2,1.2-13.7,1.8-.4,0-.7.4-1,.6-4.1,2.3-5,6.1-4.6,10.1,1.9,1.2,3.6,2.4,5.6,3.6.3-1.6.5-2.7.7-3.6,1.8-.9,3.6-1.7,5.8-2.7-1.6,2.4-2.8,4.1-4,6,4.1,1.1,3.7-3.6,6.1-4.3,3.5,4,5.7,3.6,8.4-.9,2.5-.2,4.6-.5,6.7-.7-2.1-2.9-4.4-3.7-7.3-3.5-2.6.2-5.2,0-7.8,0,2.5-1.4,5-2.2,7.6-2.7,1.2-.2,2.6,0,3.7.5,2.4,1.2,4,.6,5.3-.7h0Z"/>
  <path class="st1" d="M153,148.2c-1.8-.3-2.8-.5-4.2-.8.6-1.2,1.1-2.1,1.5-3.1-1.1,0-2.2,0-3.2.1l-.4-1c1.2-.5,2.5-1,3.7-1.5s2.4-.9,3.5-1.6c.8-.5,1.4-1.9,2-1.9,1.8,0,3.8.3,5.4,1.1.8.4,1.1,2,1.3,3.2.1,1-.2,2.1-.6,3-2,4.7-.4,9.1,1.5,13.4,1.1,2.6,1.4,5.1.7,7.9-.8,2.9-1.2,5.9-2,8.7-.3.9-1.4,1.8-2.3,2-.6.1-1.8-.8-2.3-1.5-2.6-3.9-5.1-7.8-7.4-11.9-.9-1.5-.9-3.6-1.1-5.4s.2-1.9,0-2.8c-.9-3.4-.2-6.1,3.9-7.9h0Z"/>
  <path class="st1" d="M223.2,178.1c-.5,4.2-.5,8.6-1.5,12.6-3.5,14-7.6,27.8-11,41.8-1.4,5.8-3.8,11-6.5,16.2-1.4,2.6-2.4,2.8-3.8.2-1.9-3.7-3.5-7.6-4.4-11.6-.4-1.7.9-4.6,2.4-5.7,7.3-5.5,11-13.3,14-21.5,3.3-9.2,6.1-18.5,9-27.9.4-1.4.5-2.9.8-4.4.4,0,.7.1,1.1.2h-.1v.1Z"/>
  <path class="st1" d="M222.2,203.7c4.5,11.5,11.9,22,10.7,35.2-.3,2.8-1.2,4.1-4,4.8-2.4.7-4.5,2.5-6.8,3.8-5.4-8.8-1.7-18.1-1.5-27.3,0-3.1.3-6.2.4-9.3.1-2.4.3-4.8.4-7.2h.8Z"/>
  <path class="st2" d="M150.3,6.5C71.3,6.5,7.3,70.5,7.3,149.5s64,143,143,143,143-64,143-143S229.3,6.5,150.3,6.5h0ZM150.3,261.7c-61.6,0-111.5-49.9-111.5-111.5s49.9-111.5,111.5-111.5,111.5,49.9,111.5,111.5-49.9,111.5-111.5,111.5h0Z"/>
  <path class="st1" d="M221.5,106.9c-3.9,3.5-2.1,8.3-2.2,12.8-5-3.8-4.7-11-1.6-14,1.3-1.3,2.8-.8,3.8,1.2h0Z"/>
  <path class="st1" d="M217.8,125.4c4.5,2.7,4.4,6.3,3.7,10.5-3.1-3-3.1-6.6-3.7-10.5Z"/>
  <path class="st1" d="M104.5,150.6c-11.7.8-20.1-2.2-18.6-5.7,1.6,1,3.2,2.6,5,3.1,4.4,1.1,8.9,1.7,13.6,2.6h0Z"/>
  <path class="st1" d="M134.2,31.3c10.1-6.1,22.5-5.5,31.5,2.6,8.5,7.6,16.3,16,24.3,24.2,5.1,5.3,9.9,11,15.2,16.9,3.6-2.7,7.6-5.3,11.2-8.4s6.8-6.8,10.2-10.2c.4.4.8.9,1.2,1.3-2.1,2.6-4,5.5-6.5,7.8-5.3,5-10.7,9.8-16.3,14.4-6.2,5.2-12.4,10.4-19,15-12.1,8.6-24.4,16.8-36.7,25.1-.5.4-1.2.5-2,.9,2.7-6.8,8.2-10.1,13.8-13.5,7-4.3,13.6-9.4,20.3-14.1,2.3-1.6,4.5-3.4,6.6-5.3-11.2,3.8-20,12.7-32.4,15.5.2-3.7,1.1-6.8,3.5-8.4,7.5-5.1,15.2-10,23-14.6,2.9-1.7,6.5-2.3,9.7-3.5,1.1-.4,2.1-1.2,3.1-1.8-.2-.5-.5-.9-.8-1.4-3.9.2-8-.3-11.7.7-7.8,2.2-14.1,0-19.6-5.6-3.7-3.9-8.1-6.2-13-8.1-8.8-3.4-17.2-7.7-23.5-15.2-1.1-1.3-2.6-2.2-4-3.3,2.7,1.2,5.5,2.2,8.1,3.6,4.4,2.2,8.7,3.7,13.6,2.5,3.6-.9,7.5-1,11.1-2,3.6-.9,7.4-1.9,10.5-3.9,3.3-2,2.5-5.7-.9-7.7-2.1-1.2-4.2-2.6-6.2-4-2.6-1.8-5.2-3.1-8.6-2.3-5.2,1.2-10.6,2-15.9,2.9h.2v-.1Z"/>
  <path class="st1" d="M86.6,219.2c-.8,1.9-1.7,3.7-2.5,5.6-.4-.1-.8-.3-1.2-.5.7-1.9,1.4-3.8,2.1-5.8.5.2,1.1.4,1.6.7h0Z"/>
  <path class="st1" d="M125.6,35.5c-1.3.8-2.7,1.6-4,2.5-.9.6-1.8,1.4-3,2.4,1.7.8,2.9,1.3,4,1.8-4.9-1.5-9.1,0-12.6,3.4-3.7,3.6-7.6,7.1-11.1,11-5.7,6.4-5.9,13.8-2.4,21.4,2.8,5.9,6,11.6,9.1,17.4.3.6,1.4.9,2.2,1.1,5.1,4.5,3.2,11.3,5.7,17.2,1.1-1.8,2-3.3,3.4-5.6.7,3.1,4,4.7,1.8,7.9,0,.2.6,1,1.1,1.7-2.7,2.2-5.4,4.5-8.6,7.2-4-10.1-8-19.9-11.9-29.8-1.7-4.2-3-8.7-4.9-12.8-5.9-12.9-1.1-26.5,10-33.9,6.1-4.1,12.3-8,18.5-11.9.8-.5,1.9-.7,2.8-1h-.1Z"/>
  <path class="st0" d="M28.8,164.7c-1.2.8-2.5,1.6-3.6,2.5-1.9,1.6-4.3,2.1-6.5,1-2.1-1-3.4-3.4-3.1-5.6.3-2.3,2.1-4.3,4.5-4.8,2-.4,3.7.3,5.2,1.6,1.1.9,2.2,1.6,3.4,2.4.1-.1.2-.2.3-.3-.4-.5-.8-1-1.2-1.5-2-2.4-1.9-5.5.4-7.5,2.2-1.9,5.7-1.8,7.9.2s2.2,5,.2,7.3c-.6.8-1.3,1.5-1.8,2.4,3.4-.3,6.6-.7,8.6-3.9v9.2c-1.1-.7-2.4-1.9-3.8-2.5s-3.2-.9-4.8-1.3c0,.1,0,.3-.2.4.6.7,1.2,1.4,1.9,2,1.9,1.9,2.3,4.4.9,6.5-1.3,2.1-4.1,3.2-6.7,2.4-2.5-.8-4.3-3.1-3.9-5.7.2-1.1.9-2.2,1.5-3.2.3-.5.7-.9,1.1-1.3l-.3-.3h0Z"/>
  <path class="st0" d="M58.7,93.8c-2,3-3.8,5.8-5.7,8.9-.2-3.6-2.7-5.9-5.5-8.4.4,2.3,0,4-1.2,5.6-2.6,3.5-7.3,3.3-9.5-.8-.9-1.5-1.4-3.3-1.8-5-.4-1.7-.6-3.4-.9-5.1-.3-1.7-.5-3.4-.8-4.8,3.1-.9,6.6-1.9,10.1-2.6,1.9-.4,3.9-.6,5.8-.4,3.6.4,5.5,3.4,4.6,6.5-.7,2.5-2.4,4-5.3,4.8,3.5,1.3,6.6,2.6,10.2,1.3h0Z"/>
  <path class="st0" d="M42.7,133.1c-7.9-.2-11.5.7-17.7,4.7-1.4-7.2-2.9-10.5-7.8-16.9,8.1-.2,11.7-1.1,18.2-4.3.7,7.2,2.3,10.5,7.3,16.5h0Z"/>
  <path class="st0" d="M76.7,70.9c-3.8-1.4-7.8-2.7-11.9-4-2.7-.8-5.2-2-7.4-3.9-3.5-3-3.6-8.3,0-10.5,2.2-1.3,4.4-1,6.6.3.4.3.8.5,1.3.9-.2-.8-.3-1.5-.4-2.2-.2-2.7,1.4-5.1,3.9-5.9s5.5.3,7.2,2.5c1.6,2.2,2.1,4.6,2,7.2,0,1.8-.2,3.5-.4,5.2-.4,3.6-.8,7.1-.9,10.4h0Z"/>
  <path class="st0" d="M254.9,215.9l-.4.2c.1.5.4,1.1.4,1.6,0,1.2.3,2.5,0,3.5-.8,2.4-3.4,3.8-6,3.3-2.6-.4-4.7-2.7-4.9-5.1-.2-2.5,1.2-4.6,3.8-5.4.9-.3,1.7-.6,2.5-1v-.5c-1.6-.3-3.2-.9-4.8-1-1.6,0-3.2.4-4.5.6,1.3-2.5,2.7-5.2,4.1-8.3.4,3.7,3.1,5.6,6,7.3,0-1-.3-2-.6-2.9-.8-2.9.6-5.6,3.5-6.4,2.8-.8,6,.6,7.2,3.3,1.2,2.8,0,5.7-3,6.9-.6.2-1.2.5-1.7.8,0,.2,0,.3.1.4,1.4-.2,2.8-.3,4.1-.7,1.9-.5,3.7-.3,5.3.9,2,1.5,2.7,4.1,1.9,6.3-.8,2.1-3,3.6-5.3,3.6s-4.4-1.4-5.4-3.8c-.6-1.3-1.3-2.5-2.1-3.8h0l-.2.2h0Z"/>
  <path class="st0" d="M259.6,139c2.6,2.9,6,3.1,9.7,3.4-2.3-2-3.1-4.2-2.6-6.7.6-3.2,3.6-5.1,7-3.8,1.8.7,3.5,1.7,5,2.9,2.9,2.2,5.5,4.6,7.9,6.8-.9,1.2-1.9,2.6-2.8,4-1,1.4-2,2.9-3.1,4.2s-2.4,2.7-3.8,3.7c-3.9,2.6-8.1.8-8.9-3.5-.3-1.9,0-3.6,1.4-5.5-3.7,1-6.8,1.9-8.7,5.1-.3-3.6-.7-6.9-1.2-10.5h.1v-.1Z"/>
  <path class="st0" d="M270.4,169.8c4.4,5.8,7.2,8.2,14.4,12-7.2,3.6-10,5.9-14.5,11.6-3.8-6.3-6.6-8.7-13.8-12,7.2-3.2,10-5.5,13.9-11.6Z"/>
  <path class="st0" d="M253.7,110.6c1.2-3,2.5-6.4,3.8-9.8.6-1.6,1.2-3.3,2-4.9,1.1-2.3,2.6-4.3,5-5.5s5.6-.9,7.5,1c1.9,1.8,2.2,4.7.9,7-.4.6-.8,1.1-1.3,1.8.6,0,1.1-.2,1.6-.2,2.5-.2,4.6.5,6,2.6,2.3,3.6,0,8.3-4.6,9.4-2.9.7-5.6.6-8.4.2-4.2-.6-8.5-1.2-12.4-1.7h-.1v.1Z"/>
</svg>