<?xml version="1.0" encoding="UTF-8"?>
<svg id="Layer_1" xmlns="http://www.w3.org/2000/svg" version="1.1" viewBox="0 0 48.17 50">
  <!-- Generator: Adobe Illustrator 29.8.4, SVG Export Plug-In . SVG Version: 2.1.1 Build 6)  -->
  <defs>
    <style>
      .st0 {
        fill: #fe000c;
      }

      .st1 {
        fill: #f60;
      }

      .st2 {
        fill: #fff;
      }

      .st3 {
        fill: #006546;
      }
    </style>
  </defs>
  <rect class="st3" width="48.17" height="50"/>
  <path class="st2" d="M30.07,45.08v1.88h-11.55v-1.88h-8.74c-.86,0-1.55-.89-1.55-1.99L4.57,6.08c-.03-1.08.82-1.97,1.89-2,0,0,0,0,.01,0h35.33c1.08.03,1.93.92,1.9,1.99l-3.62,37.01c0,1.1-.69,1.99-1.55,1.99h-8.47Z"/>
  <path class="st1" d="M11,9.5h23.66c-2.33.87-9.42,5.67-11.19,8.9h-12.44l-.03-8.9Z"/>
  <path class="st0" d="M29.85,35.01c-.34,3.22-.35,7.15-.35,11.27h-10.25c-.02-3.76.15-7.53.51-11.27h10.1Z"/>
  <polygon class="st3" points="10.25 27.62 13.99 27.62 13.99 29.1 12.35 29.1 12.35 30.35 13.99 30.35 13.99 31.6 12.35 31.6 12.35 32.85 13.99 32.85 13.99 34.28 10.25 34.28 10.25 27.62"/>
  <polygon class="st3" points="18.96 27.62 22.71 27.62 22.71 29.1 21.07 29.1 21.07 30.35 22.71 30.35 22.71 31.6 21.07 31.6 21.07 32.85 22.71 32.85 22.71 34.28 18.96 34.28 18.96 27.62"/>
  <polygon class="st3" points="28.57 27.62 32.32 27.62 32.32 29.1 30.67 29.1 30.67 30.35 32.32 30.35 32.32 31.6 30.67 31.6 30.67 32.85 32.32 32.85 32.32 34.28 28.57 34.28 28.57 27.62"/>
  <polygon class="st3" points="16.8 32.85 18.44 32.85 18.44 34.28 14.7 34.28 14.7 27.62 16.8 27.62 16.8 32.85"/>
  <polygon class="st3" points="23.09 27.62 24.14 34.28 26.85 34.28 28.12 27.62 26.55 27.62 25.73 32.12 24.93 27.62 23.09 27.62"/>
  <rect class="st3" x="33.2" y="27.62" width="2.03" height="6.66"/>
  <path class="st3" d="M35.23,29.6c.11-.74,1.15-.54,1.15-.12v4.8h2.03v-5.65c0-1.2-1.69-1.68-3.16-.63"/>
  <path class="st0" d="M30.81,26.68c.21-2.55,3.68-6.71,7.08-7.81v-9.84c-9.3,4.17-15.36,10.46-16.67,17.62l9.59.02Z"/>
  <path class="st3" d="M33.5,37.84c-.52.52-1.38.52-1.9,0s-.52-1.38,0-1.9c.52-.52,1.37-.52,1.9,0,.26.25.4.59.4.95,0,.36-.14.7-.4.95M31.73,36.07c-.45.45-.45,1.19,0,1.64.45.45,1.19.45,1.64,0,.45-.45.45-1.19,0-1.64-.22-.22-.51-.34-.82-.34-.31,0-.6.12-.82.34M32.53,36.14c.14,0,.27.01.4.05.15.06.24.21.23.38,0,.12-.05.23-.14.29-.06.04-.14.06-.21.07.1.01.19.06.25.14.05.07.08.15.08.23v.22s0,.05.01.08v.02h-.25s0,0,0-.01c0,0,0-.01,0-.02v-.16c.02-.13-.04-.26-.14-.34-.09-.04-.19-.06-.29-.05h-.21v.58h-.25v-1.47h.51ZM32.81,36.39c-.1-.04-.21-.06-.32-.05h-.23v.53h.25c.08,0,.17,0,.25-.03.1-.03.16-.13.15-.23.01-.08-.03-.17-.1-.21"/>
</svg>