<?xml version="1.0" encoding="UTF-8"?>
<svg id="Capa_1" xmlns="http://www.w3.org/2000/svg" version="1.1" viewBox="0 0 120 54.94">
  <!-- Generator: Adobe Illustrator 29.8.4, SVG Export Plug-In . SVG Version: 2.1.1 Build 6)  -->
  <defs>
    <style>
      .st0 {
        fill: #fff;
      }

      .st1 {
        fill: #2d417e;
      }

      .st2 {
        fill: #ff671e;
      }
    </style>
  </defs>
  <path class="st0" d="M27.53,1.19c-6.81,0-12.83,4.46-14.82,10.99L0,53.94h92.47c6.81,0,12.83-4.46,14.82-10.99L120,1.19H27.53ZM37.69,51.32H3.52L15.32,12.57c1.59-5.2,6.38-8.76,11.83-8.76h25.01l-1.64,5.37-1.57,5.19-6.96,22.86-4.29,14.12v-.03ZM106.31,37.21l-1.63,5.34c-1.59,5.2-6.38,8.76-11.83,8.76h-50.26l4.29-14.12,6.96-22.86,1.57-5.19,1.64-5.37h59.41l-10.17,33.41v.03Z"/>
  <path class="st1" d="M86.78,25.28h6.87l2.64-8.6-9.51,8.6ZM86.78,25.28h6.87l2.64-8.6-9.51,8.6ZM86.78,25.28h6.87l2.64-8.6-9.51,8.6ZM86.78,25.28h6.87l2.64-8.6-9.51,8.6ZM57.06,3.81l-1.64,5.37-1.57,5.19-6.96,22.86-4.29,14.12h50.26c5.45,0,10.25-3.56,11.83-8.76l1.63-5.34L116.49,3.83h-59.41v-.03ZM79.01,42.12c-.16.56-1.66,5.51-1.86,6.19s-.27.87-.52.87h-4.01l2.44-8.21s1.09-.09,1.68-.09c2.34,0,2.41.68,2.26,1.24h0ZM91.03,45.25l2.56,3.86s-.77.31-2.47.31-2.34-.31-2.77-.95-.79-1.26-.79-1.26l-2.34,1.98h-4.76l5.05-3.93c.08-.07.1-.18.05-.27l-2.2-3.62s1.08-.51,2.95-.51,2.07.74,2.21,1.12.4,1.3.4,1.3c0,0,1-1.08,1.43-1.47s1.35-.95,2.78-.95,2.59.47,2.59.47l-4.67,3.64c-.08.07-.1.18-.04.27h.01ZM93.64,25.28l2.64-8.6-9.51,8.6h6.87ZM86.78,25.28h6.87l2.64-8.6-9.51,8.6ZM86.78,25.28h6.87l2.64-8.6-9.51,8.6Z"/>
  <path class="st2" d="M27.14,3.81c-5.45,0-10.25,3.56-11.83,8.76L3.51,51.32h34.16l4.29-14.12,6.96-22.86,1.57-5.19,1.64-5.37h-25.01v.03Z"/>
  <path class="st0" d="M26.27,14.35h6.97l-8.45,22.86h5.6l8.34-22.86.75-2.08c.55-1.51-.57-3.11-2.17-3.11h-15.08s0,3.72,2.72,4.9c.42.18.88.27,1.34.27h-.01Z"/>
  <path class="st0" d="M98.71,25.28l3.36-10.92,1.24-4.02.35-1.16h-6.12l-5.77,5.19-12.17,10.92-.36.33c-1.81,1.63-.66,4.62,1.77,4.62h11.13l-2.15,6.98h5.07l2.15-6.98h5.28c0-5.16-3.76-4.95-3.76-4.95h0ZM93.64,25.28h-6.87l9.51-8.6-2.64,8.6Z"/>
  <path class="st0" d="M75.66,37.21h-17.54c-2.18,0-3.16-2.74-1.47-4.12l.78-.64,12.69-10.36h.01s0-.01.01-.01h0c.34-.27,2.18-1.78,2.76-2.25h0c.64-.53,1.66-2.17,1.66-3.33s-.38-1.64-1.55-2.11c-.55-.22-1.26-.35-2.18-.35s-1.31.13-1.89.35c-1.13.43-2.05,1.2-2.74,2.03-.48.59-.85,1.18-1.08,1.73h-5.01s.07-.26.21-.7c.23-.7.7-1.85,1.48-3.07,1.59-2.44,4.51-5.19,9.62-5.19s7.63,2.87,8.28,5.05l.04.13c.33,1.16.29,2.08.29,2.24,0,.46-.13,3.72-3.21,6.31-.03.03-.05.04-.08.07l-11.44,9.49h6.35s3.37-.23,3.95,4.76h.05Z"/>
  <path class="st0" d="M79.01,42.12c-.16.56-1.66,5.51-1.86,6.19s-.27.87-.52.87h-4.01l2.44-8.21s1.09-.09,1.68-.09c2.34,0,2.41.68,2.26,1.24h0Z"/>
  <path class="st0" d="M52.73,49.24c-.25,0-.31-.12-.21-.36s3.3-7.66,3.38-7.79,1.08-.2,2.17-.2,1.83.01,2.17,1.16,1.11,3.45,1.11,3.45c0,0,2.98-3.15,3.54-3.75s1.09-.85,2.72-.85,1.91.01,1.91.29-1.35,7.54-1.42,7.83-.34.23-.42.23h-3.37c-.21,0-.33-.12-.23-.52s.75-3.65.75-3.65l-2.76,2.65h-2.73c-.16,0-.27-.25-.39-.6s-.79-1.98-.79-1.98c0,0-1.56,3.77-1.64,3.93s-.23.18-.55.18h-3.26v-.03Z"/>
  <path class="st0" d="M91.03,45.25l2.56,3.86s-.77.31-2.47.31-2.34-.31-2.77-.95-.79-1.26-.79-1.26l-2.34,1.98h-4.76l5.05-3.93c.08-.07.1-.18.05-.27l-2.2-3.62s1.08-.51,2.95-.51,2.07.74,2.21,1.12.4,1.3.4,1.3c0,0,1-1.08,1.43-1.47s1.35-.95,2.78-.95,2.59.47,2.59.47l-4.67,3.64c-.08.07-.1.18-.04.27h.01Z"/>
</svg>