<?xml version="1.0" encoding="UTF-8"?>
<svg id="Capa_1" xmlns="http://www.w3.org/2000/svg" version="1.1" viewBox="0 0 128.13 50">
  <!-- Generator: Adobe Illustrator 29.8.4, SVG Export Plug-In . SVG Version: 2.1.1 Build 6)  -->
  <defs>
    <style>
      .st0 {
        fill: #009845;
      }

      .st1 {
        fill: #ffa400;
      }
    </style>
  </defs>
  <path class="st0" d="M103.99,26.1c-.34,1.3-2.9,4.94-7.4,4.94s-8.39-3.76-8.39-8.42,3.49-8.39,8.79-8.39,7.24,3.17,7.24,5.36c0,4.85-5.64,5.43-9.68,4.75,1.08,3.08,5.18,3.39,8.94,1.3.13-.09.28-.13.4-.04s.19.21.09.49h.01ZM94.31,21.63c2.74.25,4.09-.77,4.09-2.44s-.68-1.54-1.64-1.47c0,0,0,.03-.03.03h-.09c-.21.03-.49.13-.74.28-1.02.62-1.47,2.1-1.6,3.61h0Z"/>
  <path class="st0" d="M66.09,29.54c0,.47-.38.84-.83.84h-4.76c-.45,0-.82-.42-.82-.87.06-1.84.23-6.7.23-8.41,0-4.9-2.09-3.85-1.81-4.68.34-.98,2-2.19,3.73-2.19s3.66,1.23,4.13,3.36c.83-2.04,2.38-3.36,3.89-3.36s3.42,1.23,3.42,3.45-1.76,3.98-3.85,3.98-1.45-.43-1.55-.62c-.19-.28-.06-.49-.06-1.11,0-.96-.19-1.36-.64-1.36-.89,0-1.05,1.57-1.05,3.49v7.48h-.03Z"/>
  <path class="st0" d="M81.59,29.54c0,.47-.38.84-.83.84h-4.76c-.47,0-.83-.42-.83-.87.06-1.84.23-6.7.23-8.41,0-4.9-2.09-3.85-1.81-4.68.34-.98,2-2.19,3.73-2.19s3.66,1.23,4.13,3.36c.83-2.04,2.38-3.36,3.89-3.36s3.42,1.23,3.42,3.45-1.76,3.98-3.85,3.98-1.45-.43-1.55-.62c-.18-.28-.06-.49-.06-1.11,0-.96-.19-1.36-.64-1.36-.89,0-1.05,1.57-1.05,3.49v7.48h-.01Z"/>
  <path class="st0" d="M12.21,22.8l-1.81-8.94c-.55,2.25-1.2,6.13-1.79,8.94h3.61-.01ZM1.43,30.38c-.45,0-.84-.38-.84-.83s.03-.21.05-.3c1.17-3.65,5-15.61,5-15.64,1.26-3.24-.4-3.3-.15-4,.4-1.21,2.62-2.13,4.41-2.13s4.53,1.47,5.73,4.85c1.11,3.12,4.42,14.1,5.35,17.16v.04c0,.45-.37.87-.83.87h-5.49c-.39,0-.71-.28-.81-.64v-.03l-.65-2.77h-5.45c-.2,1.07-.42,2.08-.54,2.66-.04.43-.39.77-.83.77H1.46"/>
  <path class="st0" d="M32.56,22.61c0-2.32-.81-4.17-2.32-4.17s-2.32,1.85-2.32,4.17.81,4.19,2.32,4.19,2.32-1.88,2.32-4.19h0ZM27.27,30.38h-4.5c-.57,0-.91-.37-.91-.82V10.16h0c.05-.86-.5-.98-.35-1.44.24-.73,1.52-1.26,2.62-1.26s2.81.87,3.58,2.91c.15.39.24.72.33,1.25.11.68.05,3.74.05,5.87,1.02-1.91,2.66-3.3,4.75-3.3,3.89,0,6.02,4.29,6.02,8.42s-2.13,8.36-6.17,8.36-3.64-1.21-4.6-2.93v1.51c0,.45-.37.82-.82.83h-.03.03Z"/>
  <path class="st0" d="M121.54,15.9c.03,2.33.08,8.95.08,12.29.19,5.34-2.81,9.15-8.51,9.15s-6.57-3.02-6.94-4.19c-.49-1.51-.19-1.79.15-1.73.74.13,1.64,2.47,5.09,2.47s3.88-1.66,3.98-3.51v-3.08c-1.27,2.66-3.36,3.58-5,3.58s-4.23-2-4.23-5.09v-4.62c0-4.9-2.34-3.85-2.06-4.68.34-.98,2-2.19,3.73-2.19,2.49,0,4.53,1.79,4.53,4.68v5.79c0,3.08,2.9,2,2.96-1.6v-8.11c0-.15.13-.15.13-.15h5.23c.48,0,.86.38.86.86v.14h.03Z"/>
  <path class="st0" d="M48.1,26.83c-1.51,0-2.32-1.85-2.32-4.17s.81-4.19,2.32-4.19,2.32,1.88,2.32,4.19-.81,4.17-2.32,4.17h0ZM56.62,15.75c0-.48-.47-.86-.93-.86h-5.34s-.15.04-.15.19v2.13c-.96-1.73-2.47-2.93-4.6-2.93-4.04,0-6.19,4.13-6.19,8.36s2.15,8.41,6.04,8.41,3.83-1.49,4.87-3.49c.4,2.19,2.06,3.51,4.19,3.51s3.39-1.21,3.7-2.19c.31-.83-1.79.21-1.79-4.68s.14-6.61.19-8.45h0Z"/>
  <g>
    <path class="st0" d="M123.71,28.38h.83c.14,0,.25.03.34.06.16.08.25.23.25.43s-.03.2-.08.26c-.04.08-.1.13-.19.16.08.03.13.06.16.11s.05.13.06.23v.24c0,.08,0,.13.03.15,0,.05.04.09.08.11v.04h-.3s0-.04-.03-.06v-.45c-.03-.13-.06-.2-.14-.24-.05-.03-.11-.04-.21-.04h-.54v.78h-.25v-1.83.04h-.01ZM124.51,29.21c.11,0,.2-.03.26-.06.06-.05.1-.13.1-.25s-.05-.21-.14-.26c-.05-.03-.11-.04-.19-.04h-.59v.62h.55Z"/>
    <path class="st0" d="M124.38,30.96c-.89,0-1.61-.73-1.61-1.61s.72-1.61,1.61-1.61,1.62.73,1.62,1.61-.73,1.61-1.62,1.61ZM124.38,27.94c-.77,0-1.4.63-1.4,1.41s.63,1.4,1.4,1.4,1.41-.63,1.41-1.4-.63-1.41-1.41-1.41Z"/>
  </g>
  <path class="st1" d="M123.44,2.48c0-.62-.5-1.12-1.12-1.12s-1.12.5-1.12,1.12.04.31.09.45c-.58.77-2.87,2.58-4.12,3.55h0c-.15.14-.35.23-.57.23s-.57-.15-.71-.4v-.03c-.67-1.2-1.86-3.36-2.42-4.19.33-.19.55-.55.55-.97,0-.62-.5-1.12-1.12-1.12s-1.12.5-1.12,1.12.2.74.52.94c-.54.83-1.73,2.96-2.39,4.16v.04c-.15.25-.43.43-.73.43s-.33-.05-.47-.14l-.06-.05c-1.31-1.01-3.83-3.01-4.24-3.7,0-.03-.04-.05-.05-.08.09-.16.14-.35.14-.54,0-.62-.5-1.12-1.12-1.12s-1.12.5-1.12,1.12.4,1.01.92,1.1c.37,2.06,2,9.52,2,9.52,1.64-.96,4.92-1.73,7.39-1.74l.62.03c2.47,0,5.74.78,7.38,1.74,0,0,1.5-6.82,1.94-9.23.52-.1.89-.55.89-1.1h.04Z"/>
  <g>
    <g>
      <path class="st0" d="M108.12,45.67h.53c.09,0,.16.01.21.04.1.05.16.14.16.28s0,.13-.04.16-.06.08-.11.1c.05.03.08.04.1.08.03.03.04.08.04.15v.25s.03.06.05.08v.03h-.19v-.31c0-.08-.04-.13-.09-.15s-.08-.03-.14-.03h-.34v.49h-.15v-1.15h-.04ZM108.62,46.2c.08,0,.13-.01.16-.04.04-.03.06-.09.06-.16s-.03-.14-.09-.16c-.04-.01-.08-.03-.13-.03h-.37v.39h.35Z"/>
      <path class="st0" d="M108.54,47.31c-.57,0-1.02-.45-1.02-1.02s.45-1.02,1.02-1.02,1.02.45,1.02,1.02-.45,1.02-1.02,1.02ZM108.54,45.39c-.49,0-.88.4-.88.89s.4.88.88.88.89-.4.89-.88-.4-.89-.89-.89Z"/>
    </g>
    <g>
      <g>
        <path class="st0" d="M20.59,41.11h-2.12v1.86h1.9v1.06h-1.9v2.32h2.17v1.17h-3.58v-7.59h3.63l-.11,1.17h.01Z"/>
        <path class="st0" d="M21.45,47.53v-7.81h1.41v7.81h-1.41Z"/>
        <path class="st0" d="M27.69,47.63c-.63,0-1.25-.23-1.25-.23v-1.15s.79.25,1.13.25.74-.18.74-.62-.24-.5-.52-.65l-.39-.21c-.35-.2-1.02-.59-1.02-1.57s.91-1.76,1.94-1.76,1.13.24,1.13.24v1.1s-.54-.23-1.11-.23-.62.21-.62.55.26.5.59.68l.44.25c.42.23.89.65.89,1.55,0,1.51-1.03,1.83-1.99,1.83v-.03h.01Z"/>
        <path class="st0" d="M33.55,47.53l-.18-.44s-.55.55-1.26.55-1.62-.26-1.62-1.79v-4.07h1.41v4.07c0,.49.19.59.45.59.45,0,.96-.35.96-.35v-4.32h1.41v5.74h-1.17Z"/>
        <path class="st0" d="M38.19,47.63c-.39,0-.82-.14-.82-.14v2.09h-1.41v-7.81h1.13l.2.42s.47-.52,1.22-.52,1.79.25,1.79,2.92-1.36,3.05-2.12,3.05h0ZM38.19,42.77c-.48,0-.82.34-.82.34v3.4s.38.1.63.1c.4,0,.89-.21.89-2s-.26-1.83-.71-1.83h0Z"/>
        <path class="st0" d="M45.06,45.13h-2.71c0,1.21.48,1.39.98,1.39s1.44-.23,1.44-.23v1.12s-.67.24-1.44.24c-1.12,0-2.38-.23-2.38-2.98s1.03-2.98,2.17-2.98,2,.67,1.95,2.98v.47h-.01ZM43.12,42.63c-.52,0-.76.25-.76,1.6h1.33c0-1.12-.09-1.6-.58-1.6Z"/>
        <path class="st0" d="M48.2,42.96c-.47,0-.79.31-.79.31v4.26h-1.41v-5.74h1.13l.2.59s.21-.71.99-.71.53.11.53.11v1.28s-.28-.11-.65-.11Z"/>
        <path class="st0" d="M55.15,47.53l-.18-.43s-.42.54-1.21.54-1.95-.19-1.95-2.98,1.52-2.98,2.17-2.98.87.33.87.33v-2.28h1.41v7.81h-1.12.01ZM54.86,42.99s-.28-.2-.67-.2-.96.13-.96,1.88.39,1.89.84,1.89.78-.31.78-.31v-3.24h0Z"/>
        <path class="st0" d="M61.31,45.13h-2.71c0,1.21.48,1.39.98,1.39s1.44-.23,1.44-.23v1.12s-.67.24-1.44.24c-1.12,0-2.38-.23-2.38-2.98s1.03-2.98,2.17-2.98,2,.67,1.95,2.98v.47h-.01ZM59.35,42.63c-.52,0-.76.25-.76,1.6h1.33c0-1.12-.09-1.6-.58-1.6Z"/>
        <path class="st0" d="M70.26,47.53v-4.29c0-.26-.05-.35-.35-.35s-.89.35-.89.35v4.31h-1.41v-4.29c0-.26-.05-.35-.35-.35s-.89.35-.89.35v4.31h-1.41v-5.74h1.11l.28.48s.59-.59,1.31-.59,1.02.19,1.26.67c.39-.35.84-.67,1.4-.67,1.03,0,1.37.54,1.37,1.45v4.41h-1.41v-.03h0Z"/>
        <path class="st0" d="M73.62,40.97c-.45,0-.81-.37-.81-.82s.35-.82.81-.82.81.37.81.82-.35.82-.81.82ZM72.91,47.53v-5.74h1.41v5.74h-1.41Z"/>
        <path class="st0" d="M80.15,47.63c-.71,0-2.15-.23-2.15-2.95s1.65-3.01,2.3-3.01,1.06.24,1.06.24v1.12s-.58-.24-1.02-.24-.93.28-.93,1.9.39,1.8.84,1.8,1.11-.25,1.11-.25v1.16s-.5.24-1.21.24h0Z"/>
        <path class="st0" d="M83.93,47.63c-1.18,0-2.3-.53-2.3-2.98s1.12-2.98,2.3-2.98,2.3.55,2.3,2.98-1.13,2.98-2.3,2.98ZM83.93,42.66c-.59,0-.89.4-.89,1.99s.4,1.99.89,1.99.89-.29.89-1.99-.31-1.99-.89-1.99Z"/>
        <path class="st0" d="M87.11,47.53v-7.81h1.41v7.81h-1.41Z"/>
        <path class="st0" d="M91.68,47.63c-1.18,0-2.3-.53-2.3-2.98s1.12-2.98,2.3-2.98,2.3.55,2.3,2.98-1.13,2.98-2.3,2.98ZM91.68,42.66c-.59,0-.89.4-.89,1.99s.4,1.99.89,1.99.89-.29.89-1.99-.31-1.99-.89-1.99Z"/>
        <path class="st0" d="M97.82,47.53v-4.08c0-.4-.06-.57-.43-.57s-1.08.35-1.08.35v4.28h-1.41v-5.74h1.11l.28.49s.63-.59,1.52-.59,1.44.44,1.44,1.5v4.36h-1.42Z"/>
        <path class="st0" d="M101.18,40.97c-.45,0-.81-.37-.81-.82s.35-.82.81-.82.81.37.81.82-.35.82-.81.82ZM100.48,47.53v-5.74h1.41v5.74h-1.41Z"/>
        <path class="st0" d="M105.6,47.53l-.21-.45s-.38.57-1.08.57-1.55-.21-1.55-1.85,1.22-1.9,1.89-1.9h.72v-.54c0-.37-.14-.57-.71-.57s-1.46.33-1.46.33v-1.1s.86-.34,1.79-.34,1.79.31,1.79,1.65v4.21h-1.17ZM105.35,44.75h-.5c-.49.03-.69.23-.69,1.01s.21.86.49.86.71-.28.71-.28v-1.59h0Z"/>
      </g>
      <polygon class="st0" points="31.82 40.9 33.01 39.22 34.73 39.22 33.19 40.9 31.82 40.9"/>
    </g>
  </g>
</svg>