<?xml version="1.0" encoding="UTF-8"?>
<svg id="svg2" xmlns="http://www.w3.org/2000/svg" version="1.1" xmlns:cc="http://creativecommons.org/ns#" xmlns:dc="http://purl.org/dc/elements/1.1/" xmlns:inkscape="http://www.inkscape.org/namespaces/inkscape" xmlns:rdf="http://www.w3.org/1999/02/22-rdf-syntax-ns#" xmlns:sodipodi="http://sodipodi.sourceforge.net/DTD/sodipodi-0.dtd" xmlns:svg="http://www.w3.org/2000/svg" viewBox="0 0 252.98 50">
  <!-- Generator: Adobe Illustrator 29.8.4, SVG Export Plug-In . SVG Version: 2.1.1 Build 6)  -->
  <defs>
    <style>
      .st0 {
        fill: #00874d;
      }

      .st1 {
        fill: #1d1d1b;
      }
    </style>
  </defs>
  <sodipodi:namedview id="namedview28" bordercolor="#666666" borderopacity="1.0" fit-margin-bottom="0" fit-margin-left="0" fit-margin-right="0" fit-margin-top="0" inkscape:current-layer="svg2" inkscape:cx="1484.8846" inkscape:cy="88.269231" inkscape:pagecheckerboard="0" inkscape:pageopacity="0.0" inkscape:pageshadow="2" inkscape:window-height="1017" inkscape:window-maximized="1" inkscape:window-width="1920" inkscape:window-x="1912" inkscape:window-y="-8" inkscape:zoom="0.25490196" pagecolor="#ffffff" showgrid="false"/>
  <g id="g14">
    <g id="g20">
      <path id="path22" class="st0" d="M1.48,45.74C2.8,43.8,31.1,2.99,31.84,1.83s1.96-2.24,3.33-.25c1.37,2,2.04,3.18,2.86,4.43.96,1.47-.96,3.06-2.29,1.39-1.5-1.9-1.78-3.91-3.47-1.07-1.57,2.64-7.69,11.21-9.06,13.26-1.03,1.54-1.1,4.57-.39,6.87.53,1.71,1.5,2.91,2.06,3.6.48.59.23,1.35-.53,2.37-.72.96-11.25,16.56-11.25,16.56H2.53c-2.26,0-2.23-1.5-1.04-3.26"/>
    </g>
    <g id="g24">
      <path id="path26" class="st0" d="M15.85,49c.32-.11,22.95-33.22,24.42-35.43s3.74-.82,2.41,1.45c-1.76,3.01-7.7,11.96-8.86,13.67-1.05,1.55-1.17,3.93-.79,5.72.45,2.09,1.47,3.86,2.99,5.04l-6.55,9.55h-13.62Z"/>
    </g>
    <g id="g28">
      <path id="path30" class="st0" d="M32.68,49c14.61-21.53,14.73-21.94,16.25-23.89,1.27-1.63,3.35-.25,2.29,1.5-1.08,1.76-7.9,11.71-8.87,13.19-1.16,1.76-.86,6.19,2.29,6.17,3.38-.02,17.83-.12,17.83-.12,0,0-4.99-6.95-6.25-9.15-1.34-2.34,1.18-3.16,2.3-1.68.72.96,6.38,9.25,7.65,10.92,1.02,1.35.54,3.06-1.03,3.06,0,0-32.45,0-32.45,0Z"/>
    </g>
    <g id="g32">
      <path id="path34" class="st1" d="M184.97,48.86l5.52-36.34h4.5l12.01,25.22,12.37-25.24h4.1l4.96,36.34h-8.43l-2.51-23.92-11.63,23.94h-2.05l-11.51-23.35-2.5,23.35h-4.84Z"/>
    </g>
    <g id="g36">
      <path id="path38" class="st1" d="M231.34,48.86V13.58c0-.56.56-1.05,1.1-1.05h19.07v2.99c0,.68-.68,1.16-1.21,1.16h-10.53v11.16h11.73v3.01c-.01.64-.59,1.02-1.2,1.03-.46.01-10.65,0-10.65,0v12.88h11.87v3.2c0,.76-.61.9-1.38.9h-18.81Z"/>
    </g>
    <g id="g40">
      <path id="path42" class="st1" d="M117.01,48.86V13.58c0-.56.56-1.05,1.1-1.05h19.07v2.99c0,.68-.68,1.16-1.21,1.16h-10.53v11.16h11.73v3.01c-.01.64-.59,1.02-1.2,1.03-.46.01-10.65,0-10.65,0v16.98h-8.32Z"/>
    </g>
    <g id="g44">
      <path id="path46" class="st1" d="M141.6,48.86V13.58c0-.56.56-1.05,1.1-1.05h7.64v36.34h-8.74Z"/>
    </g>
    <g id="g48">
      <path id="path50" class="st1" d="M166.97,29.56c2.82-1.24,4.57-3.72,4.57-6.9,0-4.04-2.44-6.1-4.44-6.81-1.13-.41-3.94-.41-3.94-.41v14.69s2.67-.06,3.81-.56M163.36,48.86h-8.98V13.58c0-.56.56-1.05,1.1-1.05h13.03c2.6,0,10.88-.45,10.81,9.45-.04,4.59-3.33,8.16-8.24,8.94,1.08,1.64,11.1,17.95,11.1,17.95h-6.86c-2.34,0-3.2-1.66-4.2-3.18-1-1.52-7.85-13.74-7.85-13.74l.08,16.91Z"/>
    </g>
    <g id="g52">
      <path id="path54" class="st1" d="M90.49,35.18h9.61l-4.81-12.33-4.91,12.33M101.2,38.48h-12.16l-4.17,10.39h-4.71l15.2-36.34h4l14.64,36.34h-6.19c-2.34,0-3.43-2.71-3.83-3.74-.39-1.04-2.78-6.65-2.78-6.65"/>
    </g>
  </g>
</svg>