<?xml version="1.0" encoding="UTF-8"?>
<svg id="Capa_2" xmlns="http://www.w3.org/2000/svg" version="1.1" viewBox="0 0 423.81 50">
  <!-- Generator: Adobe Illustrator 29.8.4, SVG Export Plug-In . SVG Version: 2.1.1 Build 6)  -->
  <defs>
    <style>
      .st0 {
        fill: #e1251b;
      }
    </style>
  </defs>
  <path class="st0" d="M111.37,21.15c0,.54,0,2.2-3.46,2.2h-18.73v-7.83h18.73c3.46,0,3.46,1.66,3.46,2.2v3.43ZM89.18,30.04h18.73c1.64,0,2.4.24,2.74.43.62.39.94,1.2.94,2.4v2.72c0,1.2-.31,2.01-.93,2.39-.49.29-1.42.44-2.74.44h-18.74v-8.38ZM115.19,26.74c3.1-.88,4.67-2.92,4.67-6.08v-4.39c0-4.88-2.85-7.35-8.47-7.35h-31.19v36.73h28.98c7.28,0,10.97-2.5,10.97-7.42v-4.6c0-3.61-1.66-5.93-4.95-6.89"/>
  <path class="st0" d="M156.79,30.54h-14.49l7.38-13.47,7.11,13.47ZM154.22,8.92h-8.53l-20.79,36.73h9.24l4.18-7.88h22.35l4.31,7.88h10.29l-20.96-36.54-.09-.19Z"/>
  <path class="st0" d="M215.77,28.2c0,.72.09,2.45.27,5.16-.89-.92-2.03-1.96-3.42-3.13l-25.31-21.22-.11-.09h-6.23v36.73h8.3v-19.83c0-1.24-.08-2.8-.24-4.62.72.75,1.48,1.46,2.28,2.12l26.42,22.24.11.09h6.23V8.92h-8.3v19.27Z"/>
  <path class="st0" d="M270.56,38.14h-26.85v-22.05h26.86v22.05ZM270.38,8.92h-26.5c-3.57,0-5.96.6-7.3,1.84s-2.01,3.55-2.01,7.05v18.96c0,3.49.66,5.8,2.01,7.05s3.72,1.84,7.3,1.84h26.5c3.57,0,5.96-.61,7.3-1.84s2.01-3.55,2.01-7.05v-18.96c0-3.49-.66-5.79-2.01-7.05s-3.73-1.84-7.3-1.84"/>
  <path class="st0" d="M299.45,15.81h18.45c1.53,0,2.23.2,2.53.37.59.35.87,1.05.87,2.13v4.36c0,1.08-.29,1.78-.86,2.13-.31.17-1.01.39-2.54.39h-18.45v-9.37ZM321.67,32.06c5.62,0,8.47-2.48,8.47-7.35v-8.43c0-4.88-2.85-7.35-8.47-7.35h-31.21v36.73h8.98v-13.6h7.42l14.39,13.49.11.11h13.21l-16.61-13.6h3.71Z"/>
  <polygon class="st0" points="337.08 16.09 353.61 16.09 353.61 45.66 362.73 45.66 362.73 16.09 379.33 16.09 379.33 8.92 337.08 8.92 337.08 16.09"/>
  <polygon class="st0" points="395.66 38.14 395.66 29.97 412.72 29.97 412.72 23.08 395.66 23.08 395.66 15.81 423.46 15.81 423.46 8.92 386.54 8.92 386.54 45.66 423.81 45.66 423.81 38.14 395.66 38.14"/>
  <path class="st0" d="M33.22,24.39l6.18-16.93v16.93c.91.03,1.83.06,2.74.06,16.94,0,30.69-4.54,30.69-10.65S59.09,2.73,42.15,2.73,11.46,7.69,11.46,13.79c0,5,9.19,9.22,21.77,10.57v.02Z"/>
  <path class="st0" d="M32.76,25.65c-16.31.26-29.35,5.12-29.35,11.07,0,4.95,9.04,9.15,21.48,10.55l7.87-21.62h0Z"/>
  <path class="st0" d="M39.43,25.64v21.63c14.42-.9,25.39-5.09,25.39-10.55s-10.97-10.18-25.39-11.08Z"/>
</svg>