<?xml version="1.0" encoding="UTF-8"?>
<svg id="Layer_1" xmlns="http://www.w3.org/2000/svg" version="1.1" viewBox="0 0 160.39 50">
  <!-- Generator: Adobe Illustrator 29.8.4, SVG Export Plug-In . SVG Version: 2.1.1 Build 6)  -->
  <defs>
    <style>
      .st0 {
        fill: #004679;
        fill-rule: evenodd;
      }
    </style>
  </defs>
  <path class="st0" d="M83.38,7.36c-1.03,0-2.06,0-3.08,0-.1,0-.2,0-.3,0-.3.03-.51.26-.49.56,0,.15.06.3.13.43.73,1.38,1.46,2.75,2.2,4.12,6.15,11.5,12.29,23,18.44,34.51.22.41.43.82.66,1.22.22.38.65.51,1.03.33.2-.1.31-.27.41-.46,1.11-2.08,2.22-4.15,3.32-6.22,5.32-9.96,10.65-19.93,15.97-29.89.66-1.23,1.31-2.46,1.97-3.68.28-.52-.1-.94-.52-.94-2.18.02-4.35,0-6.53,0-.33,0-.57.14-.73.43-.07.13-.13.25-.2.38-4.42,8.41-8.83,16.81-13.25,25.22-.06.11-.11.22-.18.32-.32.42-.94.42-1.26,0-.07-.09-.12-.19-.17-.29-.72-1.36-1.43-2.72-2.14-4.08-3.76-7.14-7.51-14.29-11.27-21.44-.2-.37-.47-.55-.89-.55-1.04.01-2.08,0-3.12,0Z"/>
  <path class="st0" d="M155.17,42.64c1.02,0,2.03,0,3.05,0,.1,0,.2,0,.3,0,.39-.04.62-.4.49-.77-.04-.11-.1-.22-.16-.33-2.76-5.16-5.52-10.32-8.27-15.49-4.29-8.03-8.58-16.05-12.86-24.08-.05-.09-.09-.18-.15-.26-.31-.45-.95-.45-1.27-.01-.06.09-.11.19-.16.29-2.91,5.44-5.82,10.89-8.73,16.33-4.14,7.74-8.27,15.49-12.41,23.23-.05.09-.1.17-.14.27-.16.39.07.78.49.82.1,0,.2,0,.3,0,1.25,0,2.5,0,3.75,0,.81,0,1.61-.02,2.42,0,.47.01.78-.17.96-.6,0-.01.01-.02.02-.03,3.59-6.83,7.18-13.67,10.77-20.5.88-1.67,1.76-3.34,2.63-5.01.16-.31.39-.52.74-.52.37,0,.61.2.77.53.12.24.25.47.37.7,4.35,8.28,8.71,16.56,13.05,24.84.22.41.5.6.97.59,1.03-.02,2.06,0,3.08,0Z"/>
  <path class="st0" d="M29.97,26.4c.1.04.15.07.21.09,2.82,1.1,4.66,3.12,5.62,5.96.52,1.55.66,3.15.56,4.77-.07,1.17-.24,2.33-.58,3.45-.9,2.92-2.77,5.01-5.52,6.31-1.33.63-2.72,1.02-4.17,1.27-1.53.27-3.07.36-4.62.36-6.34,0-12.68,0-19.03,0-.13,0-.27,0-.4,0-.42-.03-.69-.29-.73-.71,0-.1,0-.2,0-.3,0-13.07,0-26.14,0-39.21,0-.01,0-.02,0-.03-.05-.67.32-1.01.99-1,6.74.01,13.48,0,20.22,0,2.14,0,4.2.39,6.12,1.34,2.66,1.31,4.52,3.33,5.38,6.19.7,2.31.67,4.62-.15,6.9-.69,1.93-1.9,3.45-3.71,4.46-.06.04-.12.08-.21.15ZM15.62,42.65c1.86,0,3.71,0,5.57,0,.95,0,1.9-.06,2.84-.21.94-.16,1.85-.41,2.7-.86,1.41-.74,2.32-1.87,2.67-3.44.3-1.36.25-2.72-.11-4.07-.38-1.41-1.24-2.42-2.57-3.03-.44-.2-.9-.36-1.37-.49-1.39-.37-2.81-.46-4.23-.46-3.98,0-7.95,0-11.93,0-.08,0-.15,0-.23,0-.5.02-.8.31-.84.8,0,.09,0,.18,0,.26,0,3.49,0,6.98,0,10.47,0,.13,0,.27.03.4.07.34.34.59.69.62.11.01.22,0,.33,0,2.15,0,4.31,0,6.46,0ZM15.52,13.32h0c-2.11,0-4.22.01-6.33-.01-.75,0-1.08.34-1.08,1.07.02,2.9,0,5.81,0,8.71,0,.11,0,.22,0,.33.04.39.32.67.71.71.08,0,.15,0,.23,0,3.93,0,7.86,0,11.8,0,1.14,0,2.27-.14,3.35-.53,1.34-.48,2.37-1.32,2.93-2.65.6-1.42.69-2.89.36-4.38-.23-1.03-.84-1.81-1.77-2.33-.28-.15-.57-.29-.87-.4-1.09-.39-2.23-.52-3.39-.52-1.99-.01-3.98,0-5.96,0Z"/>
  <path class="st0" d="M72.66,26.4c.09.04.13.06.18.08,2.9,1.13,4.77,3.22,5.72,6.16.44,1.38.57,2.81.52,4.25-.05,1.28-.22,2.55-.6,3.78-.88,2.86-2.69,4.93-5.37,6.24-1.37.67-2.82,1.08-4.32,1.34-1.51.26-3.02.36-4.55.36-6.38,0-12.75,0-19.13,0-.14,0-.29,0-.43-.01-.35-.04-.61-.29-.65-.64-.01-.11-.01-.22-.01-.33,0-13.09,0-26.19,0-39.28,0-.1,0-.2,0-.3.04-.4.32-.67.72-.69.09,0,.18,0,.27,0,6.74,0,13.48,0,20.22,0,2.03,0,4,.36,5.85,1.21,2.46,1.13,4.28,2.89,5.33,5.41.59,1.42.82,2.9.78,4.44-.03,1.35-.28,2.66-.82,3.9-.74,1.69-1.88,3.03-3.5,3.94-.06.03-.12.08-.21.15ZM58.32,42.65c1.75,0,3.49,0,5.24,0,.91,0,1.81-.02,2.71-.14,1.01-.14,2-.37,2.92-.81,1.48-.7,2.48-1.82,2.87-3.43.35-1.46.3-2.92-.13-4.35-.37-1.26-1.16-2.2-2.35-2.77-.49-.24-1.02-.43-1.55-.58-1.36-.37-2.76-.46-4.17-.46-4.02,0-8.04,0-12.06-.01-.55,0-1.06.26-1,1.01,0,.02,0,.04,0,.07,0,3.48,0,6.96,0,10.44,0,.13,0,.27.02.4.06.36.34.61.7.65.11,0,.22,0,.33,0,2.15,0,4.31,0,6.46,0ZM58.22,13.32h0c-2.11,0-4.22,0-6.33,0-.1,0-.2,0-.3,0-.44.03-.74.33-.76.76,0,.1,0,.2,0,.3,0,2.9,0,5.81,0,8.71,0,.1,0,.2,0,.3.03.4.31.7.71.75.12.01.24,0,.36,0,3.61,0,7.22,0,10.84,0,.64,0,1.28-.02,1.92-.06.79-.05,1.55-.21,2.29-.48,1.47-.54,2.53-1.51,3.05-3.01.42-1.21.5-2.46.28-3.73-.17-.96-.63-1.76-1.42-2.35-.39-.29-.83-.51-1.29-.67-1.1-.38-2.24-.51-3.39-.52-1.99-.01-3.98,0-5.96,0Z"/>
  <path class="st0" d="M83.38,7.36c1.04,0,2.08,0,3.12,0,.43,0,.7.17.89.55,3.75,7.15,7.51,14.29,11.27,21.44.71,1.36,1.43,2.72,2.14,4.08.05.1.1.2.17.29.32.42.93.43,1.26,0,.07-.1.13-.21.18-.32,4.42-8.41,8.83-16.81,13.25-25.22.07-.13.13-.25.2-.38.16-.29.4-.43.73-.43,2.18,0,4.35,0,6.53,0,.42,0,.8.42.52.94-.66,1.22-1.31,2.45-1.97,3.68-5.32,9.96-10.65,19.93-15.97,29.89-1.11,2.07-2.22,4.15-3.32,6.22-.1.19-.21.36-.41.46-.38.18-.81.05-1.03-.33-.23-.4-.44-.82-.66-1.22-6.15-11.5-12.29-23-18.44-34.51-.73-1.37-1.47-2.75-2.2-4.12-.07-.13-.13-.29-.13-.43-.02-.3.2-.53.49-.56.1-.01.2,0,.3,0,1.03,0,2.06,0,3.08,0Z"/>
  <path class="st0" d="M155.17,42.64c-1.03,0-2.06-.01-3.08,0-.47,0-.75-.18-.97-.59-4.35-8.28-8.7-16.56-13.05-24.84-.12-.23-.25-.47-.37-.7-.16-.33-.4-.53-.77-.53-.36,0-.58.21-.74.52-.87,1.67-1.76,3.34-2.63,5.01-3.59,6.83-7.18,13.67-10.77,20.5,0,0-.01.02-.02.03-.18.43-.49.61-.96.6-.81-.02-1.61,0-2.42,0-1.25,0-2.5,0-3.75,0-.1,0-.2,0-.3,0-.42-.04-.65-.43-.49-.82.04-.09.09-.18.14-.27,4.14-7.74,8.27-15.49,12.41-23.23,2.91-5.44,5.82-10.89,8.73-16.33.05-.1.1-.2.16-.29.32-.44.96-.43,1.27.01.06.08.1.17.15.26,4.29,8.03,8.58,16.05,12.86,24.08,2.76,5.16,5.52,10.32,8.27,15.49.06.11.12.21.16.33.13.37-.1.73-.49.77-.1.01-.2,0-.3,0-1.02,0-2.03,0-3.05,0Z"/>
</svg>