<?xml version="1.0" encoding="UTF-8"?>
<svg id="Capa_1" xmlns="http://www.w3.org/2000/svg" version="1.1" xmlns:xlink="http://www.w3.org/1999/xlink" viewBox="0 0 149.13 50">
  <!-- Generator: Adobe Illustrator 29.8.4, SVG Export Plug-In . SVG Version: 2.1.1 Build 6)  -->
  <defs>
    <style>
      .st0 {
        fill: #fd0;
      }

      .st1 {
        fill: #fff;
      }

      .st2, .st3 {
        fill: none;
      }

      .st4 {
        fill: #e30613;
      }

      .st5, .st6 {
        fill: #e42313;
      }

      .st7 {
        fill: #f9fafb;
      }

      .st8 {
        fill: #ffdf00;
      }

      .st9 {
        fill: #2ea836;
      }

      .st10 {
        fill: #db0f16;
      }

      .st10, .st6 {
        stroke: #e42313;
        stroke-width: .52px;
      }

      .st3 {
        isolation: isolate;
        opacity: .5;
        stroke: #1d1d1b;
        stroke-width: .26px;
      }

      .st11 {
        clip-path: url(#clippath);
      }
    </style>
    <clipPath id="clippath">
      <path class="st2" d="M7.86.46h133.72c3.34,0,6.06,2.7,6.06,6.05h0v36.09c0,3.34-2.71,6.05-6.05,6.05H7.86c-3.35,0-6.06-2.71-6.06-6.06V6.52c0-3.34,2.71-6.05,6.05-6.06Z"/>
    </clipPath>
  </defs>
  <g class="st11">
    <g>
      <rect class="st9" x="2.57" y="-.83" width="144.32" height="49.47"/>
      <path class="st0" d="M131.92,19.54l9.23,10.88s1.25,1.03,1.25-.86v-3.42c0-1.29.12-2.6,0-3.88-.13-1.41-.92-2.83-1.7-3.98s-1.89-2.68-3.15-3.43c0,0-1.11-.68-2.68,1.18s-2.95,3.53-2.95,3.53"/>
      <path class="st4" d="M122.18,29.99l.83-.98,2.15-2.56c.94-1.12,1.89-2.23,2.83-3.35,1-1.19,2.02-2.37,3.02-3.55,1.08-1.26,2.16-2.51,3.25-3.76.73-.83,1.71-2.24,3.02-1.61.59.29,1.79,1.67,1.99,1.7,0-.07-1.29-1.52-1.56-1.83l-3.98-4.63-.49-.57s-1.45-1.76-3.21,0-5.96,7.06-5.96,7.06c0,0-3.1,4.14-3.32,5.51-.19,1.19-.1,2.46-.09,3.66,0,1.31.05,2.59.07,3.89,0,.88.58,2.06,1.44,1.05"/>
      <path class="st10" d="M31.71,44.15c-10.1.12-22.79-.9-29.17-4.49v6.78l144.33-.05.02-2.24c-3.65,0-103.19-.13-115.18,0Z"/>
      <path class="st8" d="M49.38,39.64s-31.05.61-46.83-27.07l.02,24.75c3.71,2.75,13.94,4.59,29.08,4.61,12.16,0,114.2-.04,115.24-.03v-2.26H49.38Z"/>
      <path class="st8" d="M131.92,19.54l9.23,10.88s1.25,1.03,1.25-.86v-3.42c0-1.29.12-2.6,0-3.88-.13-1.41-.92-2.83-1.7-3.98s-1.89-2.68-3.15-3.43c0,0-1.11-.68-2.68,1.18s-2.95,3.53-2.95,3.53"/>
      <path class="st5" d="M122.18,29.99l.83-.98,2.15-2.56c.94-1.12,1.89-2.23,2.83-3.35,1-1.19,2.02-2.37,3.02-3.55,1.08-1.26,2.16-2.51,3.25-3.76.73-.83,1.71-2.24,3.02-1.61.59.29,1.79,1.67,1.99,1.7,0-.07-1.29-1.52-1.56-1.83l-3.98-4.63-.49-.57s-1.45-1.76-3.21,0-5.96,7.06-5.96,7.06c0,0-3.1,4.14-3.32,5.51-.19,1.19-.1,2.46-.09,3.66,0,1.31.05,2.59.07,3.89,0,.88.58,2.06,1.44,1.05"/>
      <path class="st6" d="M31.71,44.15c-10.1.12-22.79-.9-29.17-4.49v6.78l144.33-.05.02-2.24c-3.65,0-103.19-.13-115.18,0Z"/>
      <path class="st8" d="M49.38,39.64s-31.05.61-46.83-27.07l.02,24.75c3.71,2.75,13.94,4.59,29.08,4.61,12.16,0,114.2-.04,115.24-.03v-2.26H49.38Z"/>
      <path class="st1" d="M70.71,15.2h2.98l3.52,10.84h-2.67l-.68-2.32h-3.43l-.72,2.31h-2.47l3.46-10.84ZM72.2,17.44h-.03l-1.17,4.24h2.29l-1.1-4.24Z"/>
      <path class="st1" d="M84.92,26.04h-2.14v-1.49h-.03c-.37,1.04-1.38,1.72-2.48,1.68-1.86,0-2.6-1.55-2.6-3.23v-5.05h2.35v3.91c0,1.52.44,2.04,1.08,2.04.97,0,1.47-.79,1.47-2.53v-3.42h2.35v8.09Z"/>
      <path class="st1" d="M90.87,20.18c-.26-.08-.53-.11-.8-.09-1.1,0-1.71.95-1.71,2.53v3.42h-2.35v-8.09h2.14v1.49h.03c.4-1.03.98-1.67,2.01-1.67.27,0,.54.04.8.09l-.12,2.33Z"/>
      <path class="st1" d="M96.29,20.18c-.26-.08-.53-.11-.8-.09-1.1,0-1.71.95-1.71,2.53v3.42h-2.35v-8.09h2.14v1.49h.03c.4-1.02.98-1.67,2.01-1.67.27,0,.53.04.8.09l-.12,2.33Z"/>
      <path class="st1" d="M98.67,22.81c.13,1.12.85,1.55,2,1.55.74,0,1.46-.22,2.07-.62v1.97c-.78.35-1.63.53-2.49.51-2.25,0-3.96-1.57-3.96-4.24s1.53-4.22,3.65-4.22c2.52,0,3.44,2.13,3.44,4.53v.51h-4.71ZM101.26,21.22c0-.93-.37-1.69-1.31-1.69-.85,0-1.26.76-1.31,1.69h2.62Z"/>
      <path class="st1" d="M109.09,20.18c-.26-.08-.53-.11-.8-.09-1.1,0-1.71.95-1.71,2.53v3.42h-2.35v-8.09h2.14v1.49h.04c.4-1.03.98-1.67,2.01-1.67.27,0,.54.04.8.09l-.13,2.33Z"/>
      <path class="st1" d="M114.11,26.04c0-.44-.05-.86-.05-1.27h-.03c-.54,1.01-1.19,1.46-2.16,1.46-1.34,0-2.55-.79-2.55-2.55,0-2.47,2.26-2.76,3.52-2.76.37,0,.73.04,1.09.11,0-1.1-.7-1.4-1.56-1.4-.77-.02-1.52.19-2.17.6l-.04-1.89c.85-.4,1.78-.6,2.72-.57,1.74,0,3.24.88,3.24,3.35v3.02c0,.64.04,1.28.13,1.91h-2.16ZM112.49,24.35c.88,0,1.45-.96,1.45-1.91-.3,0-.66-.05-.98-.05-.8,0-1.42.29-1.42,1.08,0,.48.38.88.86.89.04,0,.07,0,.11,0"/>
      <path class="st1" d="M27.36,26.1v-11.26h2.32c.75-.04,1.48.17,2.1.59.58.45.95,1.18.94,2.26,0,1.25-.44,2.12-1.34,2.5.98.38,1.64,1.31,1.62,2.62,0,1.23-.42,2.06-1.11,2.58-.76.5-1.66.75-2.56.7h-1.97ZM29.36,24.85c.58.03,1.16-.11,1.67-.39.45-.29.76-.76.77-1.59,0-.94-.33-1.4-.79-1.67-.56-.26-1.18-.37-1.79-.33h-.66v3.98h.8ZM29.45,19.63c.48.03.96-.09,1.38-.33.39-.27.68-.71.69-1.55,0-.75-.28-1.14-.63-1.37-.37-.2-.78-.3-1.2-.28h-1.09v3.52h.85Z"/>
      <path class="st1" d="M37.04,17.61c1.01-.03,1.97.48,2.5,1.35.53.9.8,1.94.77,2.99.03,1.05-.24,2.09-.77,3-.53.86-1.48,1.37-2.49,1.35h0c-1.01.02-1.96-.49-2.49-1.35-.54-.9-.81-1.94-.77-3-.03-1.05.24-2.09.77-3,.53-.85,1.47-1.36,2.47-1.34ZM37.04,25.15c.63,0,1.21-.35,1.51-.9.73-1.44.73-3.13,0-4.57-.45-.84-1.5-1.15-2.33-.7-.3.16-.54.4-.7.7-.72,1.44-.72,3.13,0,4.57.3.55.88.9,1.51.89h0Z"/>
      <path class="st1" d="M43.73,26.29c-.91,0-1.75-.49-2.19-1.28-.51-.94-.75-2-.71-3.06,0-1.23.19-2.29.66-3.08.45-.81,1.32-1.29,2.24-1.26.6,0,1.17.23,1.59.66.13.13.25.28.36.43v-4.66h1.13v12.07h-1.13v-.85c-.41.67-1.14,1.07-1.92,1.04h-.03M43.86,25.14c.66,0,1.09-.41,1.4-1.04.56-1.38.56-2.92,0-4.3-.3-.62-.74-1.03-1.4-1.04-.64,0-1.21.39-1.44.98-.28.7-.41,1.44-.38,2.19-.02.75.11,1.49.38,2.19.21.61.79,1.02,1.44,1.02h0Z"/>
      <path class="st1" d="M48.39,25.03c-.51-.79-.71-1.86-.71-3.08-.04-1.09.24-2.16.8-3.1.46-.76,1.28-1.23,2.17-1.25.9-.02,1.73.46,2.16,1.25.47.88.69,1.87.66,2.87v.66h-4.58c0,.68.18,1.35.53,1.93.32.52.89.84,1.51.83.63-.03,1.24-.22,1.78-.56l.25-.19v1.41l-.09.04c-.63.3-1.31.45-2,.46h0c-.99.05-1.92-.43-2.46-1.27M52.25,21.23c0-.58-.12-1.16-.37-1.68-.2-.48-.67-.79-1.19-.79-.55.02-1.05.34-1.31.83-.3.5-.47,1.06-.5,1.64h3.37Z"/>
      <path class="st1" d="M56.69,29.49c-.71-.02-1.41-.17-2.06-.44l-.11-.04.09-1.35.22.13c.57.34,1.22.53,1.88.54,1.01,0,1.5-.41,1.8-1.11.24-.71.35-1.46.33-2.21-.38.69-1.11,1.11-1.89,1.09-.98,0-1.88-.54-2.32-1.42-.43-.85-.65-1.79-.63-2.74,0-1.23.2-2.29.66-3.08.45-.81,1.32-1.29,2.24-1.26.78,0,1.39.13,1.95.81v-.61h1.13v7.49c.05,1.03-.2,2.06-.73,2.95-.57.83-1.53,1.31-2.53,1.26h0M56.98,24.95c.62,0,1.19-.38,1.44-.95.3-.64.45-1.34.44-2.05.04-.8-.1-1.59-.41-2.32-.25-.55-.81-.9-1.41-.87-.64,0-1.21.39-1.44.98-.28.7-.41,1.44-.38,2.19-.02.72.12,1.44.42,2.09.22.54.74.9,1.33.92h.02Z"/>
      <path class="st1" d="M61.22,25.36c-.27-.45-.42-.96-.41-1.48,0-1.39.64-2.17,1.49-2.55s1.89-.41,2.76-.41h0v-.25c.04-.51-.08-1.01-.33-1.46-.25-.32-.64-.49-1.05-.45-.67,0-1.33.21-1.86.63l-.25.19v-1.35l.08-.05c.63-.34,1.32-.54,2.04-.57.85,0,1.49.24,1.91.77s.58,1.31.59,2.37v3.53c-.01.55,0,1.11.06,1.66l.02.17h-1.13v-.87c-.46.65-1.2,1.05-1.99,1.06h0c-.76.05-1.49-.3-1.92-.93M62.96,22.36c-.61.23-.99.83-.94,1.48-.03.37.1.74.36,1,.24.2.55.31.87.29.69.05,1.34-.37,1.57-1.03.19-.55.27-1.13.25-1.71v-.34h-.1c-.68-.03-1.37.07-2.01.29"/>
      <polygon class="st1" points="41.65 31.63 42.42 31.63 42.42 34.38 43.77 34.38 43.77 35.02 41.65 35.02 41.65 31.63"/>
      <path class="st1" d="M46.26,34.43c0,.2,0,.4.04.59h-.69l-.05-.25h0c-.18.2-.44.31-.7.3-.42.02-.77-.3-.79-.71,0-.01,0-.03,0-.04,0-.66.57-.94,1.45-.94v-.03c0-.13-.07-.33-.45-.33-.24,0-.47.07-.68.18l-.14-.49c.3-.15.62-.23.96-.22.82,0,1.08.48,1.08,1.06l-.02.87ZM45.52,33.86c-.4,0-.71.1-.71.39,0,.15.11.28.26.29.01,0,.03,0,.04,0,.18,0,.34-.11.4-.28,0-.04,0-.09,0-.13v-.27Z"/>
      <path class="st1" d="M49.74,34.97c-.22.08-.45.12-.68.11-.66.06-1.25-.42-1.31-1.08,0-.06,0-.12,0-.18,0-.72.49-1.31,1.41-1.31.2,0,.4.03.58.1l-.12.57c-.13-.06-.28-.08-.43-.08-.35-.01-.65.26-.66.61,0,.02,0,.05,0,.07-.02.36.25.67.61.69.02,0,.04,0,.06,0,.15,0,.3-.02.44-.08l.09.57Z"/>
      <path class="st1" d="M52.23,34.43c0,.2,0,.4.04.59h-.69l-.05-.25h-.02c-.18.2-.44.31-.7.3-.42.02-.77-.3-.8-.72,0-.01,0-.02,0-.04,0-.66.58-.94,1.45-.94v-.03c0-.13-.07-.33-.45-.33-.24,0-.47.07-.68.18l-.14-.49c.3-.15.62-.23.96-.22.82,0,1.08.48,1.08,1.06v.87ZM51.49,33.86c-.4,0-.71.1-.71.39,0,.15.11.28.26.29.01,0,.03,0,.04,0,.18,0,.34-.11.4-.28,0-.04,0-.09,0-.13l.02-.27Z"/>
      <path class="st1" d="M52.84,33.35c0-.31,0-.57-.02-.79h.66l.03.33h0c.16-.25.44-.4.74-.39.29-.01.56.15.68.42h0c.09-.12.2-.23.33-.3.14-.08.3-.12.47-.12.48,0,.83.33.83,1.07v1.45h-.74v-1.33c0-.36-.12-.56-.36-.56-.16,0-.31.11-.36.27-.02.06-.03.13-.03.19v1.44h-.74v-1.38c0-.31-.11-.52-.36-.52-.16,0-.31.12-.36.27-.02.06-.04.13-.03.2v1.43h-.74l.02-1.66Z"/>
      <path class="st1" d="M57.17,33.39c0-.33,0-.6-.02-.83h.66l.04.33h0c.19-.26.5-.41.82-.4.54,0,1.02.47,1.02,1.26,0,.89-.57,1.31-1.12,1.31-.25.01-.48-.09-.64-.28h0v1.22h-.77v-2.61ZM57.94,33.97c0,.05,0,.11,0,.16.05.21.23.36.45.36.33,0,.53-.28.53-.69s-.18-.69-.52-.69c-.22,0-.41.17-.46.39,0,.05,0,.09,0,.14v.33Z"/>
      <path class="st1" d="M60.79,34.03c.02.33.33.48.69.48.23,0,.46-.03.68-.1l.1.52c-.28.11-.59.16-.89.15-.84,0-1.31-.48-1.31-1.26-.04-.68.48-1.27,1.16-1.31.03,0,.05,0,.08,0,.79,0,1.1.62,1.1,1.23,0,.1,0,.21-.03.31h-1.59ZM61.69,33.51c.03-.25-.15-.47-.39-.5-.01,0-.02,0-.04,0-.27.02-.48.23-.48.5h.91Z"/>
      <path class="st1" d="M63.99,35.08c-.66.04-1.24-.47-1.27-1.13,0-.04,0-.09,0-.13-.04-.68.47-1.27,1.15-1.31.05,0,.11,0,.16,0,.66-.03,1.22.47,1.26,1.13,0,.04,0,.09,0,.13.04.68-.47,1.27-1.15,1.31-.05,0-.1,0-.15,0h0ZM63.99,34.53c.3,0,.49-.29.49-.74,0-.36-.14-.74-.49-.74s-.5.37-.5.74c0,.42.18.73.5.73h0Z"/>
      <path class="st1" d="M65.77,33.35c0-.31,0-.57-.02-.79h.66l.03.33h.02c.17-.25.46-.4.76-.4.5,0,.88.33.88,1.06v1.46h-.77v-1.35c0-.33-.11-.53-.39-.53-.18,0-.34.12-.39.29-.02.06-.03.13-.02.19v1.42h-.76v-1.67Z"/>
      <path class="st1" d="M70.77,34.43c0,.2,0,.4.04.59h-.69l-.05-.25h0c-.18.2-.44.31-.7.3-.42.02-.77-.3-.8-.72,0-.01,0-.02,0-.04,0-.66.58-.94,1.45-.94v-.03c0-.13-.07-.33-.45-.33-.24,0-.47.07-.68.18l-.14-.49c.3-.15.62-.23.96-.22.82,0,1.08.48,1.08,1.06l-.02.87ZM70.03,33.86c-.4,0-.71.1-.71.39,0,.15.11.28.26.29.01,0,.03,0,.04,0,.18,0,.34-.11.4-.28,0-.04,0-.09,0-.13v-.27Z"/>
      <path class="st1" d="M74.78,31.45v2.84c0,.28,0,.57.02.73h-.68l-.03-.36h0c-.16.27-.46.43-.77.41-.58,0-1.05-.5-1.05-1.27,0-.83.51-1.31,1.1-1.31.25-.02.5.08.66.28h0v-1.33h.76ZM74.02,33.61s0-.09,0-.14c-.04-.22-.23-.37-.45-.37-.35,0-.53.31-.53.7s.21.68.52.68c.22,0,.41-.15.45-.37,0-.06,0-.11,0-.17v-.32Z"/>
      <path class="st1" d="M75.99,34.03c.03.33.33.48.69.48.23,0,.46-.03.68-.1l.1.52c-.28.11-.59.16-.89.15-.84,0-1.31-.48-1.31-1.26-.04-.68.48-1.27,1.16-1.31.03,0,.05,0,.08,0,.8,0,1.1.62,1.1,1.23,0,.1,0,.21-.03.31h-1.59ZM76.89,33.51c.03-.24-.14-.47-.39-.5-.01,0-.03,0-.04,0-.27.02-.47.24-.48.5h.9Z"/>
      <rect class="st1" x="79.71" y="31.45" width=".77" height="3.58"/>
      <path class="st1" d="M82.22,35.08c-.66.04-1.24-.47-1.27-1.13,0-.04,0-.09,0-.13-.04-.68.47-1.27,1.15-1.31.05,0,.11,0,.16,0,.66-.03,1.22.48,1.25,1.14,0,.04,0,.09,0,.13.04.68-.47,1.27-1.15,1.31-.05,0-.11,0-.16,0h.02ZM82.24,34.53c.3,0,.49-.3.49-.74,0-.36-.14-.73-.49-.73s-.5.37-.5.74c0,.42.18.74.5.74h0Z"/>
      <path class="st1" d="M83.99,34.36c.2.11.43.17.66.18.23,0,.33-.08.33-.2s-.08-.19-.35-.29c-.51-.17-.71-.45-.71-.74,0-.46.4-.81,1-.81.24,0,.47.05.69.15l-.13.52c-.17-.08-.35-.13-.53-.14-.19,0-.29.08-.29.2s.1.18.4.29c.47.15.66.4.66.75,0,.46-.36.8-1.06.8-.28,0-.55-.06-.8-.18l.15-.54Z"/>
      <path class="st1" d="M87.19,33.39c0-.33,0-.59-.02-.83h.66l.04.33h0c.19-.26.5-.41.82-.4.54,0,1.02.47,1.02,1.26,0,.89-.57,1.31-1.12,1.31-.25.01-.48-.09-.64-.28h0v1.23h-.77v-2.61ZM87.96,33.97c0,.05,0,.11,0,.16.05.21.23.36.45.36.33,0,.53-.28.53-.69s-.18-.69-.52-.69c-.22,0-.41.17-.46.39,0,.05,0,.09,0,.14v.34Z"/>
      <path class="st1" d="M90.21,33.37c0-.36,0-.6-.02-.81h.66l.03.46h.02c.09-.29.35-.5.66-.51.05,0,.11,0,.16.02v.72c-.07-.01-.14-.02-.21-.02-.25-.02-.47.14-.52.39,0,.06,0,.12,0,.17v1.24h-.77v-1.65Z"/>
      <path class="st1" d="M92.68,34.03c.02.33.33.47.69.47.23,0,.46-.03.68-.1l.1.52c-.28.11-.59.16-.89.16-.84,0-1.31-.49-1.31-1.26-.04-.68.48-1.27,1.16-1.31.03,0,.05,0,.08,0,.79,0,1.09.62,1.09,1.23,0,.1,0,.21-.02.31h-1.59ZM93.58,33.51c.03-.24-.15-.47-.39-.5-.01,0-.03,0-.04,0-.27.01-.48.23-.48.5h.91Z"/>
      <path class="st1" d="M96.59,34.97c-.22.08-.45.12-.69.11-.66.06-1.24-.42-1.31-1.07,0-.06,0-.13,0-.19,0-.72.49-1.31,1.41-1.31.2,0,.4.03.59.1l-.12.57c-.14-.05-.28-.08-.43-.08-.35-.01-.65.26-.66.61,0,.02,0,.05,0,.07-.02.36.25.67.61.69.02,0,.04,0,.06,0,.15,0,.3-.02.44-.08l.1.56Z"/>
      <path class="st1" d="M97.39,32.24c-.23-.02-.4-.21-.38-.44.02-.23.21-.4.44-.38.21.02.38.19.38.41,0,.22-.18.41-.4.41-.01,0-.02,0-.03,0h0ZM97.02,32.57h.77v2.46h-.77v-2.46Z"/>
      <path class="st1" d="M99.52,35.08c-.66.04-1.24-.47-1.27-1.13,0-.04,0-.09,0-.13-.04-.68.47-1.27,1.15-1.31.05,0,.11,0,.16,0,.66-.03,1.22.48,1.25,1.14,0,.04,0,.09,0,.13.04.68-.47,1.27-1.15,1.31-.05,0-.11,0-.16,0h.02ZM99.54,34.53c.3,0,.49-.3.49-.74,0-.36-.14-.73-.49-.73s-.5.37-.5.74c0,.42.18.74.5.74h0Z"/>
      <path class="st1" d="M101.3,34.36c.2.11.43.17.66.18.23,0,.33-.08.33-.2s-.08-.19-.36-.29c-.51-.17-.71-.45-.7-.74,0-.46.39-.81,1-.81.24,0,.47.05.69.15l-.13.52c-.17-.08-.35-.13-.53-.14-.19,0-.29.08-.29.2s.1.18.4.29c.47.15.66.4.66.75,0,.46-.36.8-1.06.8-.28,0-.55-.06-.8-.18l.15-.54Z"/>
      <path class="st1" d="M104.51,31.45h.77v1.41h0c.18-.23.46-.36.75-.35.59,0,1.02.49,1.01,1.24,0,.89-.56,1.33-1.12,1.33-.3.02-.59-.14-.74-.4h0l-.03.33h-.66c0-.16.02-.46.02-.73v-2.83ZM105.27,33.98s0,.09,0,.13c.05.21.23.36.45.36.33,0,.53-.25.53-.69,0-.38-.17-.69-.53-.69-.22,0-.4.16-.45.38,0,.05,0,.09,0,.14v.36Z"/>
      <path class="st1" d="M109.57,34.43c0,.2,0,.4.04.59h-.69l-.05-.25h0c-.18.2-.44.31-.7.3-.42.02-.77-.29-.8-.71,0-.01,0-.03,0-.04,0-.66.57-.94,1.45-.94v-.03c0-.13-.07-.33-.45-.33-.24,0-.47.07-.68.18l-.14-.49c.3-.15.62-.23.96-.22.82,0,1.08.49,1.08,1.06v.87ZM108.83,33.86c-.4,0-.71.1-.71.39,0,.15.11.28.26.29.01,0,.03,0,.04,0,.18,0,.34-.11.4-.28.01-.04.02-.09.02-.13v-.27Z"/>
      <path class="st1" d="M109.69,35.5c.17,0,.33-.05.46-.16.11-.11.15-.31.15-.8v-1.97h.76v2.17c.05.39-.08.78-.35,1.07-.27.21-.61.32-.95.3l-.08-.61ZM110.67,32.22c-.23-.02-.4-.21-.38-.44.02-.23.21-.4.44-.38.21.02.38.19.38.41,0,.22-.17.41-.39.41-.01,0-.03,0-.04,0Z"/>
      <path class="st1" d="M112.78,35.08c-.66.04-1.24-.47-1.27-1.13,0-.04,0-.09,0-.13-.05-.68.46-1.26,1.14-1.31.06,0,.11,0,.17,0,.66-.03,1.22.48,1.26,1.14,0,.04,0,.08,0,.12.04.68-.47,1.27-1.15,1.31-.05,0-.1,0-.15,0h0ZM112.78,34.53c.3,0,.49-.3.49-.74,0-.36-.14-.73-.49-.73s-.5.37-.5.74c0,.42.18.74.5.74h0Z"/>
      <path class="st1" d="M114.55,34.36c.2.11.43.17.66.18.23,0,.33-.08.33-.2s-.08-.19-.36-.29c-.51-.17-.71-.45-.7-.74,0-.46.39-.81,1-.81.24,0,.47.05.69.15l-.13.52c-.16-.08-.35-.13-.53-.14-.19,0-.29.08-.29.2s.1.18.4.29c.47.15.66.4.66.75,0,.46-.36.8-1.07.8-.27,0-.55-.06-.79-.18l.15-.54Z"/>
      <path class="st1" d="M70.71,15.2h2.98l3.52,10.84h-2.67l-.68-2.32h-3.43l-.72,2.31h-2.47l3.46-10.84ZM72.2,17.44h-.03l-1.17,4.24h2.29l-1.1-4.24Z"/>
      <path class="st1" d="M84.92,26.04h-2.14v-1.49h-.03c-.37,1.04-1.38,1.72-2.48,1.68-1.86,0-2.6-1.55-2.6-3.23v-5.05h2.35v3.91c0,1.52.44,2.04,1.08,2.04.97,0,1.47-.79,1.47-2.53v-3.42h2.35v8.09Z"/>
      <path class="st1" d="M90.87,20.18c-.26-.08-.53-.11-.8-.09-1.1,0-1.71.95-1.71,2.53v3.42h-2.35v-8.09h2.14v1.49h.03c.4-1.03.98-1.67,2.01-1.67.27,0,.54.04.8.09l-.12,2.33Z"/>
      <path class="st1" d="M96.29,20.18c-.26-.08-.53-.11-.8-.09-1.1,0-1.71.95-1.71,2.53v3.42h-2.35v-8.09h2.14v1.49h.03c.4-1.02.98-1.67,2.01-1.67.27,0,.53.04.8.09l-.12,2.33Z"/>
      <path class="st1" d="M98.67,22.81c.13,1.12.85,1.55,2,1.55.74,0,1.46-.22,2.07-.62v1.97c-.78.35-1.63.53-2.49.51-2.25,0-3.96-1.57-3.96-4.24s1.53-4.22,3.65-4.22c2.52,0,3.44,2.13,3.44,4.53v.51h-4.71ZM101.26,21.22c0-.93-.37-1.69-1.31-1.69-.85,0-1.26.76-1.31,1.69h2.62Z"/>
      <path class="st1" d="M109.09,20.18c-.26-.08-.53-.11-.8-.09-1.1,0-1.71.95-1.71,2.53v3.42h-2.35v-8.09h2.14v1.49h.04c.4-1.03.98-1.67,2.01-1.67.27,0,.54.04.8.09l-.13,2.33Z"/>
      <path class="st1" d="M114.11,26.04c0-.44-.05-.86-.05-1.27h-.03c-.54,1.01-1.19,1.46-2.16,1.46-1.34,0-2.55-.79-2.55-2.55,0-2.47,2.26-2.76,3.52-2.76.37,0,.73.04,1.09.11,0-1.1-.7-1.4-1.56-1.4-.77-.02-1.52.19-2.17.6l-.04-1.89c.85-.4,1.78-.6,2.72-.57,1.74,0,3.24.88,3.24,3.35v3.02c0,.64.04,1.28.13,1.91h-2.16ZM112.49,24.35c.88,0,1.45-.96,1.45-1.91-.3,0-.66-.05-.98-.05-.8,0-1.42.29-1.42,1.08,0,.48.38.88.86.89.04,0,.07,0,.11,0"/>
      <path class="st1" d="M27.36,26.1v-11.26h2.32c.75-.04,1.48.17,2.1.59.58.45.95,1.18.94,2.26,0,1.25-.44,2.12-1.34,2.5.98.38,1.64,1.31,1.62,2.62,0,1.23-.42,2.06-1.11,2.58-.76.5-1.66.75-2.56.7h-1.97ZM29.36,24.85c.58.03,1.16-.11,1.67-.39.45-.29.76-.76.77-1.59,0-.94-.33-1.4-.79-1.67-.56-.26-1.18-.37-1.79-.33h-.66v3.98h.8ZM29.45,19.63c.48.03.96-.09,1.38-.33.39-.27.68-.71.69-1.55,0-.75-.28-1.14-.63-1.37-.37-.2-.78-.3-1.2-.28h-1.09v3.52h.85Z"/>
      <path class="st1" d="M37.04,17.61c1.01-.03,1.97.48,2.5,1.35.53.9.8,1.94.77,2.99.03,1.05-.24,2.09-.77,3-.53.86-1.48,1.37-2.49,1.35h0c-1.01.02-1.96-.49-2.49-1.35-.54-.9-.81-1.94-.77-3-.03-1.05.24-2.09.77-3,.53-.85,1.47-1.36,2.47-1.34ZM37.04,25.15c.63,0,1.21-.35,1.51-.9.73-1.44.73-3.13,0-4.57-.45-.84-1.5-1.15-2.33-.7-.3.16-.54.4-.7.7-.72,1.44-.72,3.13,0,4.57.3.55.88.9,1.51.89h0Z"/>
      <path class="st1" d="M43.73,26.29c-.91,0-1.75-.49-2.19-1.28-.51-.94-.75-2-.71-3.06,0-1.23.19-2.29.66-3.08.45-.81,1.32-1.29,2.24-1.26.6,0,1.17.23,1.59.66.13.13.25.28.36.43v-4.66h1.13v12.07h-1.13v-.85c-.41.67-1.14,1.07-1.92,1.04h-.03M43.86,25.14c.66,0,1.09-.41,1.4-1.04.56-1.38.56-2.92,0-4.3-.3-.62-.74-1.03-1.4-1.04-.64,0-1.21.39-1.44.98-.28.7-.41,1.44-.38,2.19-.02.75.11,1.49.38,2.19.21.61.79,1.02,1.44,1.02h0Z"/>
      <path class="st1" d="M48.39,25.03c-.51-.79-.71-1.86-.71-3.08-.04-1.09.24-2.16.8-3.1.46-.76,1.28-1.23,2.17-1.25.9-.02,1.73.46,2.16,1.25.47.88.69,1.87.66,2.87v.66h-4.58c0,.68.18,1.35.53,1.93.32.52.89.84,1.51.83.63-.03,1.24-.22,1.78-.56l.25-.19v1.41l-.09.04c-.63.3-1.31.45-2,.46h0c-.99.05-1.92-.43-2.46-1.27M52.25,21.23c0-.58-.12-1.16-.37-1.68-.2-.48-.67-.79-1.19-.79-.55.02-1.05.34-1.31.83-.3.5-.47,1.06-.5,1.64h3.37Z"/>
      <path class="st1" d="M56.69,29.49c-.71-.02-1.41-.17-2.06-.44l-.11-.04.09-1.35.22.13c.57.34,1.22.53,1.88.54,1.01,0,1.5-.41,1.8-1.11.24-.71.35-1.46.33-2.21-.38.69-1.11,1.11-1.89,1.09-.98,0-1.88-.54-2.32-1.42-.43-.85-.65-1.79-.63-2.74,0-1.23.2-2.29.66-3.08.45-.81,1.32-1.29,2.24-1.26.78,0,1.39.13,1.95.81v-.61h1.13v7.49c.05,1.03-.2,2.06-.73,2.95-.57.83-1.53,1.31-2.53,1.26h0M56.98,24.95c.62,0,1.19-.38,1.44-.95.3-.64.45-1.34.44-2.05.04-.8-.1-1.59-.41-2.32-.25-.55-.81-.9-1.41-.87-.64,0-1.21.39-1.44.98-.28.7-.41,1.44-.38,2.19-.02.72.12,1.44.42,2.09.22.54.74.9,1.33.92h.02Z"/>
      <path class="st1" d="M61.22,25.36c-.27-.45-.42-.96-.41-1.48,0-1.39.64-2.17,1.49-2.55s1.89-.41,2.76-.41h0v-.25c.04-.51-.08-1.01-.33-1.46-.25-.32-.64-.49-1.05-.45-.67,0-1.33.21-1.86.63l-.25.19v-1.35l.08-.05c.63-.34,1.32-.54,2.04-.57.85,0,1.49.24,1.91.77s.58,1.31.59,2.37v3.53c-.01.55,0,1.11.06,1.66l.02.17h-1.13v-.87c-.46.65-1.2,1.05-1.99,1.06h0c-.76.05-1.49-.3-1.92-.93M62.96,22.36c-.61.23-.99.83-.94,1.48-.03.37.1.74.36,1,.24.2.55.31.87.29.69.05,1.34-.37,1.57-1.03.19-.55.27-1.13.25-1.71v-.34h-.1c-.68-.03-1.37.07-2.01.29"/>
      <rect class="st3" x="2.54" y="-.84" width="144.34" height="49.49"/>
    </g>
  </g>
  <path class="st1" d="M141.59,49.81H7.86c-3.74,0-6.77-3.03-6.77-6.77V6.96C1.09,3.22,4.12.2,7.86.19h133.72c3.74,0,6.78,3.03,6.78,6.77h0v36.08c0,3.74-3.03,6.76-6.76,6.77h0ZM7.86,1.63c-2.95,0-5.34,2.38-5.35,5.33v36.08c0,2.95,2.4,5.34,5.35,5.34h133.72c2.95,0,5.34-2.39,5.34-5.34V6.96c0-2.95-2.39-5.34-5.34-5.34H7.86Z"/>
  <path class="st7" d="M142.41,8.82c.01.5-.38.91-.87.92-.5.01-.91-.38-.92-.87s.38-.91.87-.92c.01,0,.02,0,.03,0,.49,0,.88.38.89.87,0,0,0,0,0,0ZM140.83,8.82c0,.38.29.69.67.7,0,0,.01,0,.02,0,.36,0,.66-.29.66-.65,0-.01,0-.03,0-.04,0-.37-.3-.68-.67-.68-.37,0-.68.3-.68.67h0s0,0,0,0ZM141.38,9.28h-.2v-.88c.11-.02.22-.02.33-.03.1-.01.21.01.3.07.06.04.09.11.09.19,0,.1-.08.19-.18.21h0c.09.03.12.1.15.21.01.07.03.15.06.21h-.21c-.03-.07-.06-.14-.07-.21,0-.09-.07-.13-.18-.13h-.1v.36ZM141.38,8.78h.1c.11,0,.2-.04.2-.13s-.06-.13-.19-.13c-.04,0-.07,0-.11,0v.26Z"/>
</svg>