<?xml version="1.0" encoding="UTF-8"?>
<svg id="Capa_1" xmlns="http://www.w3.org/2000/svg" version="1.1" viewBox="0 0 157.37 50">
  <!-- Generator: Adobe Illustrator 29.8.4, SVG Export Plug-In . SVG Version: 2.1.1 Build 6)  -->
  <defs>
    <style>
      .st0 {
        fill: #b55a52;
      }

      .st1 {
        fill: #fff;
      }

      .st2 {
        fill: #a83338;
      }
    </style>
  </defs>
  <g>
    <path class="st2" d="M59.5,37.24h-1.27l-.29-.89h-1.56l-.29.89h-1.28l1.79-4.9h1.15l1.74,4.9ZM56.7,35.27h.95l-.46-1.45-.48,1.45Z"/>
    <path class="st2" d="M61.25,37.24h-1.24v-4.9h1.24v1.87h1.72v-1.87h1.25v4.9h-1.25v-1.84h-1.72v1.84Z"/>
    <path class="st2" d="M67.5,37.32c-.73,0-1.34-.24-1.84-.73-.49-.49-.73-1.08-.73-1.8s.25-1.31.74-1.8,1.1-.74,1.82-.74,1.34.25,1.83.74.74,1.09.74,1.8-.25,1.31-.74,1.8c-.49.49-1.09.73-1.82.73ZM67.49,36.09c.36,0,.67-.12.92-.37.25-.25.37-.56.37-.93,0-.38-.14-.69-.39-.93-.25-.25-.55-.37-.9-.37s-.66.13-.91.38c-.25.25-.37.56-.37.93s.12.69.37.93c.25.25.55.37.91.37Z"/>
    <path class="st2" d="M74.78,37.24h-1.42l-.86-1.62h-.48v1.62h-1.24v-4.9h2.04c.59,0,1.03.16,1.34.46.3.3.46.69.46,1.16,0,.32-.08.61-.23.87s-.37.46-.67.59l1.06,1.82ZM72.8,33.47h-.79v1.06h.74c.25.01.42-.07.52-.26.1-.18.1-.37,0-.55-.1-.18-.25-.27-.47-.25Z"/>
    <path class="st2" d="M79.42,37.24h-1.42l-.86-1.62h-.48v1.62h-1.24v-4.9h2.04c.59,0,1.03.16,1.34.46.3.3.46.69.46,1.16,0,.32-.08.61-.23.87s-.37.46-.67.59l1.06,1.82ZM77.45,33.47h-.79v1.06h.74c.25.01.42-.07.52-.26.1-.18.1-.37,0-.55s-.25-.27-.47-.25Z"/>
    <path class="st2" d="M82.34,37.32c-.73,0-1.34-.24-1.84-.73-.49-.49-.73-1.08-.73-1.8s.25-1.31.74-1.8,1.1-.74,1.82-.74,1.34.25,1.83.74.74,1.09.74,1.8-.25,1.31-.74,1.8c-.49.49-1.09.73-1.82.73ZM82.34,36.09c.36,0,.67-.12.92-.37.25-.25.37-.56.37-.93,0-.38-.14-.69-.39-.93-.25-.25-.55-.37-.9-.37s-.66.13-.91.38c-.25.25-.37.56-.37.93s.12.69.37.93c.25.25.55.37.91.37Z"/>
    <path class="st2" d="M86.05,35.49c-.18,0-.34-.06-.46-.18s-.19-.27-.19-.45.06-.32.19-.44.28-.18.46-.18.32.06.44.18.18.27.18.44c0,.18-.06.33-.18.45s-.27.18-.44.18Z"/>
    <path class="st2" d="M89.7,37.31c-.72,0-1.31-.23-1.8-.7-.48-.47-.72-1.07-.72-1.81s.24-1.35.73-1.83c.49-.48,1.08-.72,1.8-.72.43,0,.83.09,1.2.26.37.17.67.41.9.71l-.79.83c-.38-.41-.79-.61-1.23-.61-.38,0-.69.13-.95.39-.25.26-.38.59-.38.97s.13.7.38.96c.26.25.57.38.94.38.49,0,.91-.21,1.26-.63l.82.79c-.23.3-.53.54-.91.74-.37.19-.79.28-1.25.28Z"/>
    <path class="st2" d="M96.44,37.24h-1.42l-.86-1.62h-.48v1.62h-1.24v-4.9h2.04c.59,0,1.03.16,1.34.46.3.3.46.69.46,1.16,0,.32-.08.61-.23.87s-.37.46-.67.59l1.06,1.82ZM94.47,33.47h-.79v1.06h.74c.25.01.42-.07.52-.26.1-.18.1-.37,0-.55-.1-.18-.25-.27-.47-.25Z"/>
    <path class="st2" d="M100.62,37.24h-3.53v-4.9h3.54v1.15h-2.29v.72h2.12v1.14h-2.12v.74h2.29v1.15h0Z"/>
    <path class="st2" d="M103.43,37.24h-1.98v-4.9h2c.76,0,1.36.22,1.79.66.43.44.65,1.04.65,1.8s-.22,1.35-.66,1.79c-.43.44-1.03.66-1.8.66ZM102.69,33.52v2.53h.79c.36,0,.63-.12.82-.36.2-.25.29-.55.29-.9s-.1-.65-.29-.89c-.19-.24-.46-.36-.82-.36h-.79Z"/>
    <path class="st2" d="M106.63,37.24v-4.9h1.25v4.9h-1.25Z"/>
    <path class="st2" d="M109.81,37.24v-3.71h-1.36v-1.19h3.96v1.19h-1.35v3.71h-1.25Z"/>
    <path class="st2" d="M115.16,37.32c-.73,0-1.34-.24-1.84-.73-.49-.49-.73-1.08-.73-1.8s.25-1.31.74-1.8,1.1-.74,1.82-.74,1.34.25,1.83.74.74,1.09.74,1.8-.25,1.31-.74,1.8c-.49.49-1.09.73-1.82.73ZM115.16,36.09c.36,0,.67-.12.92-.37.25-.25.37-.56.37-.93,0-.38-.14-.69-.39-.93-.25-.25-.55-.37-.9-.37s-.66.13-.91.38c-.25.25-.37.56-.37.93s.12.69.37.93c.25.25.55.37.91.37Z"/>
    <path class="st2" d="M118.87,35.49c-.18,0-.34-.06-.46-.18s-.19-.27-.19-.45.06-.32.19-.44c.13-.12.28-.18.46-.18s.32.06.44.18.18.27.18.44c0,.18-.06.33-.18.45s-.27.18-.44.18Z"/>
    <path class="st2" d="M121.85,37.32c-.82,0-1.48-.28-2-.85l.62-.91c.41.41.88.62,1.39.62.15,0,.29-.03.39-.1s.16-.15.16-.26c0-.15-.13-.28-.4-.38l-.44-.15c-.31-.11-.52-.2-.62-.25-.54-.29-.81-.71-.81-1.27,0-.43.17-.79.51-1.08.34-.29.78-.43,1.31-.43.67,0,1.25.21,1.74.62l-.58.94c-.15-.12-.33-.22-.54-.29-.22-.07-.42-.11-.6-.11-.16,0-.29.03-.39.09-.09.06-.14.14-.14.23,0,.14.13.26.39.36l.43.16c.24.08.43.15.56.21.62.26.93.69.93,1.29,0,.45-.18.83-.53,1.13-.35.29-.82.44-1.41.44Z"/>
    <path class="st2" d="M128.02,37.24h-3.53v-4.9h3.54v1.15h-2.29v.72h2.12v1.14h-2.12v.74h2.29v1.15h0Z"/>
    <path class="st2" d="M132.87,37.24h-1.42l-.86-1.62h-.48v1.62h-1.24v-4.9h2.04c.59,0,1.03.16,1.34.46.3.3.46.69.46,1.16,0,.32-.08.61-.23.87s-.37.46-.67.59l1.06,1.82ZM130.89,33.47h-.79v1.06h.74c.25.01.42-.07.52-.26.1-.18.1-.37,0-.55s-.25-.27-.47-.25Z"/>
    <path class="st2" d="M135.34,35.43l1.07-3.1h1.43l-1.95,4.9h-1.11l-1.98-4.9h1.44l1.09,3.1Z"/>
    <path class="st2" d="M138.34,37.24v-4.9h1.25v4.9h-1.25Z"/>
    <path class="st2" d="M142.83,37.31c-.72,0-1.31-.23-1.8-.7-.48-.47-.72-1.07-.72-1.81s.24-1.35.73-1.83c.49-.48,1.08-.72,1.8-.72.43,0,.83.09,1.2.26.37.17.67.41.9.71l-.79.83c-.38-.41-.79-.61-1.23-.61-.38,0-.69.13-.95.39-.25.26-.38.59-.38.97s.13.7.38.96c.26.25.57.38.94.38.49,0,.91-.21,1.26-.63l.82.79c-.23.3-.53.54-.91.74-.37.19-.79.28-1.25.28Z"/>
    <path class="st2" d="M145.57,37.24v-4.9h1.25v4.9h-1.25Z"/>
    <path class="st2" d="M150.09,37.32c-.73,0-1.34-.24-1.84-.73-.49-.49-.73-1.08-.73-1.8s.25-1.31.74-1.8,1.1-.74,1.82-.74,1.34.25,1.83.74.74,1.09.74,1.8-.25,1.31-.74,1.8c-.49.49-1.09.73-1.82.73ZM150.09,36.09c.36,0,.67-.12.92-.37.25-.25.37-.56.37-.93,0-.38-.14-.69-.39-.93-.25-.25-.55-.37-.9-.37s-.66.13-.91.38c-.25.25-.37.56-.37.93s.12.69.37.93c.25.25.55.37.91.37Z"/>
    <path class="st2" d="M154.91,37.32c-.82,0-1.48-.28-2-.85l.62-.91c.41.41.88.62,1.39.62.15,0,.29-.03.39-.1s.16-.15.16-.26c0-.15-.13-.28-.4-.38l-.44-.15c-.31-.11-.52-.2-.62-.25-.54-.29-.81-.71-.81-1.27,0-.43.17-.79.51-1.08.34-.29.78-.43,1.31-.43.67,0,1.25.21,1.74.62l-.58.94c-.15-.12-.33-.22-.54-.29-.22-.07-.42-.11-.6-.11-.16,0-.29.03-.39.09-.09.06-.14.14-.14.23,0,.14.13.26.39.36l.43.16c.24.08.43.15.56.21.62.26.93.69.93,1.29,0,.45-.18.83-.53,1.13-.35.29-.82.44-1.41.44Z"/>
  </g>
  <g>
    <path class="st2" d="M61.94,25.52c-1.93,0-3.52-.6-4.69-1.7-1.2-1.15-1.88-2.74-1.88-4.55,0-3.68,2.66-6.27,6.85-6.27,1.5,0,2.89.34,4.23.99v2.83c-1.35-.87-2.69-1.29-4.04-1.29-2.44,0-3.93,1.42-3.93,3.74s1.42,3.72,3.7,3.72c1.45,0,2.92-.51,4.37-1.52v2.83c-1.43.81-2.94,1.22-4.62,1.22Z"/>
    <path class="st2" d="M69.97,25.46c-1.58,0-2.39-.78-2.39-2.28,0-1.59,1.58-2.19,4.81-3.13.02-.09.02-.16.02-.23,0-.8-.53-1.15-1.61-1.15-.88,0-1.88.42-2.83,1.31l.03-2.04c1.01-.69,2.2-.99,3.65-.99,2.39,0,3.36.88,3.36,2.87v3.26c0,.34.07.51.34.51s.51-.09.81-.21v1.43c-.83.41-1.56.64-2.26.64-.83,0-1.29-.3-1.38-.9-.76.62-1.6.92-2.55.92ZM72.4,21.34c-1.5.53-2.21.9-2.21,1.65,0,.53.34.87.9.87.39,0,.83-.18,1.31-.51v-2Z"/>
    <path class="st2" d="M77.32,25.37v-8.27h2.58v8.2c0,2.53-.87,3.77-3.04,4.02l-.8-2.23c.83-.18,1.26-.74,1.26-1.72ZM78.61,13.07c.78,0,1.38.6,1.38,1.38s-.62,1.38-1.38,1.38-1.38-.6-1.38-1.38.6-1.38,1.38-1.38Z"/>
    <path class="st2" d="M83.66,25.46c-1.58,0-2.39-.78-2.39-2.28,0-1.59,1.58-2.19,4.81-3.13.02-.09.02-.16.02-.23,0-.8-.53-1.15-1.61-1.15-.88,0-1.88.42-2.83,1.31l.04-2.04c1.01-.69,2.2-.99,3.65-.99,2.39,0,3.36.88,3.36,2.87v3.26c0,.34.07.51.34.51s.51-.09.81-.21v1.43c-.83.41-1.56.64-2.26.64-.83,0-1.29-.3-1.38-.9-.77.62-1.6.92-2.55.92ZM86.08,21.34c-1.5.53-2.21.9-2.21,1.65,0,.53.34.87.9.87.39,0,.83-.18,1.31-.51v-2Z"/>
    <path class="st2" d="M97.29,14.74c1.22-1.15,2.76-1.72,4.67-1.72s3.47.57,4.69,1.72c1.24,1.19,1.89,2.73,1.89,4.53s-.65,3.35-1.89,4.51c-1.22,1.15-2.78,1.73-4.69,1.73s-3.45-.58-4.67-1.73c-1.24-1.17-1.89-2.73-1.89-4.51s.65-3.34,1.89-4.53ZM101.96,22.97c2,0,3.45-1.52,3.45-3.7s-1.45-3.72-3.45-3.72-3.45,1.54-3.45,3.72,1.45,3.7,3.45,3.7Z"/>
    <path class="st2" d="M110.06,13.21h2.57v4.5c.65-.53,1.4-.78,2.32-.78,2.37,0,3.86,1.65,3.86,4.28s-1.77,4.25-4.9,4.25c-1.15,0-2.41-.21-3.84-.64v-11.61h0ZM114.05,23.48c1.26,0,2.04-.87,2.04-2.26s-.78-2.26-2.04-2.26c-.48,0-.96.18-1.42.55v3.45c.44.35.9.53,1.42.53Z"/>
    <path class="st2" d="M120.22,13.21h2.58v12.09h-2.58v-12.09Z"/>
    <path class="st2" d="M126.56,25.46c-1.58,0-2.39-.78-2.39-2.28,0-1.59,1.58-2.19,4.81-3.13.02-.09.02-.16.02-.23,0-.8-.53-1.15-1.61-1.15-.88,0-1.88.42-2.83,1.31l.04-2.04c1.01-.69,2.2-.99,3.65-.99,2.39,0,3.36.88,3.36,2.87v3.26c0,.34.07.51.34.51s.51-.09.81-.21v1.43c-.83.41-1.56.64-2.26.64-.83,0-1.29-.3-1.38-.9-.77.62-1.6.92-2.55.92ZM128.99,21.34c-1.5.53-2.21.9-2.21,1.65,0,.53.34.87.9.87.39,0,.83-.18,1.31-.51v-2Z"/>
    <path class="st2" d="M133.01,18.9v-.55l3.35-3.63h.39v2.39h2.8v1.79h-2.8v3.03c0,1.13.2,1.58,1.24,1.58.48,0,.99-.14,1.56-.41l.02,1.93c-.81.3-1.65.46-2.48.46-2.21,0-2.9-1.12-2.9-3.58v-3.01h-1.17Z"/>
    <path class="st2" d="M144.85,16.95c2.71,0,4.51,1.79,4.51,4.27s-1.81,4.25-4.51,4.25-4.5-1.75-4.5-4.25,1.81-4.27,4.5-4.27ZM144.85,23.52c1.1,0,1.84-.88,1.84-2.3s-.76-2.32-1.84-2.32-1.84.9-1.84,2.32.74,2.3,1.84,2.3Z"/>
    <path class="st2" d="M150.39,23.04c1.12.51,2,.74,2.55.74.83,0,1.24-.21,1.24-.62,0-.44-.44-.65-1.29-1.01-1.61-.67-2.64-.99-2.64-2.62,0-1.54,1.24-2.58,3.17-2.58,1.03,0,1.93.21,2.8.65v1.81c-1.01-.53-1.86-.83-2.62-.83-.64,0-.97.23-.97.64,0,.51.85.71,2.3,1.35,1.19.51,1.72,1.19,1.72,2.28,0,1.66-1.19,2.64-3.36,2.64-1.1,0-2.05-.21-2.89-.62v-1.82h0Z"/>
  </g>
  <g>
    <path class="st2" d="M42.32,8.63c-1.34.45-3.71,1.54-6.74,4.17-3.38-3.09-7.89-4.98-12.83-4.98C12.23,7.82,3.7,16.34,3.7,26.86c0,3.85,1.14,7.43,3.1,10.42-.67.72-1.27,1.5-1.81,2.34-1.72-2.25-3.06-4.8-3.92-7.57-.35-9.92,4.47-17.95,11.1-23.2C21.07,1.82,31.29,2.76,36.77,4.05c2.07,1.25,3.94,2.79,5.55,4.58Z"/>
    <path class="st2" d="M44.36,30.81c-1.49,6.32-4.63,11.47-9.2,15.74-.03.02-.06.03-.09.05-.17-1.53-.54-3-1.1-4.37-.48-1.17-1.09-2.28-1.81-3.3-.89-1.26-1.96-2.39-3.17-3.35-.03-1.61.13-4.43,1.26-7.12.56-1.34,1.4-3.1,2.66-4.93,1.48-2.14,3.54-4.36,6.4-6.06,1.49-.89,3.2-1.63,5.17-2.15.72,3.36,1.4,9.08-.11,15.49Z"/>
    <path class="st2" d="M35.17,46.56s-.06.06-.09.08"/>
    <path class="st1" d="M45.08,12.35c-.8-1.33-1.72-2.57-2.76-3.72-1.34.45-3.71,1.54-6.74,4.17-3.38-3.09-7.89-4.98-12.83-4.98C12.23,7.82,3.7,16.34,3.7,26.86c0,3.85,1.14,7.43,3.1,10.42-.67.72-1.27,1.5-1.81,2.34.28.37.57.73.88,1.08.54-.77,1.16-1.49,1.85-2.13.2-.18.4-.36.6-.53,2.33-1.93,5.32-3.09,8.58-3.09,5.09,0,9.52,2.83,11.8,6.99.45.82.82,1.7,1.09,2.61.36,1.21.55,2.49.56,3.82,1.65-.42,3.23-1.02,4.72-1.76-.17-1.53-.54-3-1.1-4.37-.48-1.17-1.09-2.28-1.81-3.3-.89-1.26-1.96-2.39-3.17-3.35-.03-1.61.13-4.43,1.26-7.12.56-1.34,1.4-3.1,2.66-4.93,1.48-2.14,3.54-4.36,6.4-6.06,1.49-.89,3.2-1.63,5.17-2.15.62-.16,1.26-.31,1.94-.42-.4-.88-.84-1.73-1.34-2.55ZM26.75,34.08c-2.35-1.31-5.06-2.05-7.94-2.05-4.42,0-8.44,1.76-11.38,4.61-1.27-2.22-2-4.79-2-7.53,0,0-.41-7.06,5.47-11.79,2.24-1.78,5.35-4.07,10.25-4.07s8.37,2.65,9.85,4.54c0,0-5.15,7.02-4.25,16.29Z"/>
    <path class="st2" d="M26.75,34.08c-2.35-1.31-5.06-2.05-7.94-2.05-4.42,0-8.44,1.76-11.38,4.61-1.27-2.22-2-4.79-2-7.53,0,0-.41-7.06,5.47-11.79,2.24-1.78,5.35-4.07,10.25-4.07s8.37,2.65,9.85,4.54c0,0-5.15,7.02-4.25,16.29Z"/>
    <path class="st2" d="M30.35,48.37c-1.94.5-3.98.77-6.08.77-7.35,0-13.95-3.27-18.4-8.44.54-.77,1.16-1.49,1.85-2.13.2-.18.4-.36.6-.53,2.33-1.93,5.32-3.09,8.58-3.09,5.09,0,9.52,2.83,11.8,6.99.45.82.82,1.7,1.09,2.61.36,1.21.55,2.49.56,3.82Z"/>
    <path class="st0" d="M48.55,24.86c0,9.49-5.45,17.71-13.38,21.7,4.57-4.28,7.71-9.42,9.2-15.74,1.52-6.42.83-12.14.11-15.49.62-.16,1.26-.31,1.94-.42,1.37,3.04,2.13,6.41,2.13,9.96Z"/>
    <path class="st0" d="M36.77,4.05c-5.48-1.29-15.69-2.23-24.59,4.8C5.55,14.09.73,22.13,1.08,32.05c-.7-2.27-1.08-4.68-1.08-7.19C0,11.45,10.87.59,24.27.59c4.57,0,8.85,1.26,12.5,3.46Z"/>
  </g>
</svg>