<?xml version="1.0" encoding="UTF-8"?>
<svg id="Capa_1" xmlns="http://www.w3.org/2000/svg" version="1.1" viewBox="0 0 358.96 100">
  <!-- Generator: Adobe Illustrator 29.8.4, SVG Export Plug-In . SVG Version: 2.1.1 Build 6)  -->
  <defs>
    <style>
      .st0 {
        fill: #165797;
        fill-rule: evenodd;
      }

      .st1 {
        fill: #fff;
      }

      .st2 {
        fill: #e30613;
      }
    </style>
  </defs>
  <path class="st2" d="M144.3,66.45c-.7.27-1.51.52-2.43.73-.92.21-1.92.37-2.97.49-1.05.12-2.1.18-3.16.18-3.18,0-5.95-.66-8.27-1.94-2.33-1.29-4.13-3.2-5.41-5.73-1.27-2.51-1.92-5.63-1.93-9.32.01-2.96.42-5.52,1.23-7.71.8-2.18,1.92-3.99,3.34-5.42,1.44-1.42,3.09-2.49,4.98-3.19,1.89-.7,3.93-1.05,6.12-1.05,1.81.01,3.41.17,4.8.49,1.39.31,2.59.67,3.62,1.1l1.99-7.63c-.5-.26-1.24-.54-2.23-.82-.98-.29-2.2-.52-3.65-.72-1.44-.2-3.12-.3-5.01-.31-2.81,0-5.49.35-8.04,1.04-2.57.69-4.92,1.72-7.07,3.1-2.16,1.38-4.03,3.11-5.62,5.16-1.6,2.07-2.84,4.47-3.72,7.21-.89,2.75-1.33,5.83-1.35,9.26,0,3.64.55,6.96,1.62,9.95,1.07,2.99,2.65,5.57,4.73,7.74,2.09,2.17,4.65,3.84,7.71,5.02,3.05,1.18,6.55,1.78,10.51,1.79,1.81-.01,3.47-.1,4.97-.29,1.52-.18,2.83-.4,3.97-.69,1.13-.28,2.02-.56,2.69-.87l-1.44-7.57h0ZM181.06,53.85c.01-1.96-.22-3.82-.68-5.58-.48-1.77-1.28-3.34-2.41-4.72-1.13-1.37-2.67-2.46-4.62-3.24-1.95-.8-4.4-1.21-7.35-1.22-1.99.01-3.82.17-5.51.47-1.68.3-3.17.67-4.47,1.12-1.3.46-2.37.92-3.23,1.4l1.92,6.11c1.26-.71,2.68-1.29,4.3-1.74,1.62-.43,3.31-.67,5.08-.68,1.83.01,3.24.29,4.24.82.99.54,1.68,1.27,2.06,2.2.38.93.56,1.98.54,3.16-3.05,0-5.83.26-8.36.81-2.53.54-4.72,1.36-6.58,2.46-1.86,1.1-3.29,2.49-4.31,4.17-1.03,1.68-1.54,3.66-1.55,5.93,0,1.44.27,2.8.8,4.07.53,1.28,1.28,2.41,2.27,3.38.99.99,2.19,1.76,3.6,2.31,1.4.56,2.99.85,4.76.86,1.42,0,2.76-.18,4.03-.52,1.27-.34,2.41-.84,3.44-1.48,1.04-.66,1.93-1.45,2.66-2.39h.2l.62,3.69h9.1c-.14-.73-.24-1.55-.32-2.45-.08-.9-.14-1.86-.18-2.86-.03-1.02-.05-2.05-.05-3.09v-12.98h0ZM171.2,63.07c-.01,1.12-.23,2.08-.66,2.86-.42.78-.96,1.41-1.62,1.89-.66.48-1.36.83-2.08,1.04-.73.21-1.39.32-2.01.32-.86,0-1.64-.17-2.37-.51-.72-.33-1.3-.86-1.73-1.57-.45-.72-.67-1.63-.69-2.76.01-1.28.34-2.33.97-3.17.64-.83,1.48-1.47,2.56-1.94s2.26-.8,3.58-.99c1.31-.18,2.67-.28,4.05-.27v5.09h0ZM200.22,24.08h-10.13v51.15h10.13V24.08h0ZM219.8,30.12c-.01-.99-.24-1.86-.68-2.61-.46-.75-1.1-1.34-1.92-1.77-.81-.42-1.77-.64-2.87-.65-1.06.01-2,.22-2.81.65-.8.44-1.44,1.02-1.89,1.77-.47.75-.7,1.62-.71,2.61.01.96.24,1.82.68,2.58.46.75,1.08,1.35,1.89,1.78.81.43,1.75.66,2.83.67,1.06-.01,2-.21,2.82-.63.82-.41,1.47-1,1.94-1.74.47-.75.71-1.64.72-2.66h0ZM219.46,39.79h-10.13v35.43h10.13v-35.43h0ZM281.34,53.72c-.01-2.56-.31-4.76-.9-6.61-.59-1.85-1.43-3.37-2.5-4.55-1.06-1.19-2.3-2.07-3.73-2.63-1.43-.57-2.98-.85-4.64-.85-1.42-.01-2.78.18-4.12.57-1.32.39-2.59,1.02-3.79,1.89-1.21.87-2.34,2.02-3.39,3.46h-.14c-.5-1.22-1.22-2.27-2.16-3.15-.92-.88-2.03-1.56-3.31-2.04-1.28-.49-2.69-.72-4.26-.73-1.41.01-2.69.17-3.83.5-1.14.32-2.16.75-3.03,1.28-.89.53-1.65,1.12-2.31,1.76-.65.64-1.2,1.28-1.64,1.93h-.2l-.48-4.77h-8.63c.07,1.55.14,3.2.19,4.94.05,1.74.08,3.64.08,5.7v24.79h9.93v-21.35c.01-1.18.19-2.22.56-3.11.36-.9.84-1.64,1.44-2.24.59-.6,1.24-1.05,1.96-1.36.71-.3,1.43-.44,2.13-.44,1.31.01,2.37.36,3.17,1.03.79.67,1.37,1.57,1.72,2.71.35,1.14.52,2.41.51,3.83v20.93h9.93v-21.5c.01-1.24.18-2.3.54-3.19.35-.88.81-1.61,1.39-2.17.57-.56,1.21-.98,1.92-1.24.7-.27,1.4-.39,2.11-.39,1.35.01,2.42.36,3.23,1.06.82.7,1.41,1.68,1.78,2.95.37,1.26.55,2.75.54,4.45v20.04h9.93v-21.5h0ZM318.78,53.85c.01-1.96-.22-3.82-.68-5.58-.48-1.77-1.28-3.34-2.41-4.72-1.13-1.37-2.67-2.46-4.62-3.24-1.95-.8-4.4-1.21-7.35-1.22-1.98.01-3.82.17-5.51.47-1.68.3-3.17.67-4.47,1.12-1.3.46-2.37.92-3.23,1.4l1.92,6.11c1.25-.71,2.68-1.29,4.3-1.74,1.62-.43,3.31-.67,5.08-.68,1.83.01,3.24.29,4.24.82.99.54,1.68,1.27,2.06,2.2.38.93.56,1.98.54,3.16-3.05,0-5.83.26-8.36.81-2.53.54-4.72,1.36-6.58,2.46s-3.3,2.49-4.31,4.17c-1.03,1.68-1.54,3.66-1.55,5.93,0,1.44.28,2.8.8,4.07.53,1.28,1.28,2.41,2.27,3.38.99.99,2.19,1.76,3.6,2.31,1.4.56,2.99.85,4.76.86,1.43,0,2.76-.18,4.03-.52,1.27-.34,2.41-.84,3.44-1.48,1.04-.66,1.93-1.45,2.66-2.39h.2l.62,3.69h9.1c-.14-.73-.24-1.55-.32-2.45-.08-.9-.14-1.86-.18-2.86-.04-1.02-.05-2.05-.05-3.09v-12.98h0ZM308.93,63.07c-.01,1.12-.23,2.08-.66,2.86-.42.78-.96,1.41-1.62,1.89-.66.48-1.36.83-2.08,1.04-.73.21-1.39.32-2.01.32-.85,0-1.64-.17-2.37-.51-.72-.33-1.3-.86-1.73-1.57-.45-.72-.67-1.63-.69-2.76.01-1.28.34-2.33.97-3.17.64-.83,1.48-1.47,2.55-1.94,1.07-.47,2.26-.8,3.58-.99,1.31-.18,2.67-.28,4.05-.27v5.09h0ZM348.08,39.79l-3.42,6.36c-.48.92-.95,1.86-1.4,2.81-.46.94-.92,1.9-1.4,2.85h-.14c-.47-.89-.95-1.8-1.41-2.73-.48-.93-.98-1.89-1.53-2.87l-3.63-6.43h-11.23l11.29,17.49-11.57,17.94h10.81l3.56-6.87c.48-.92.96-1.84,1.43-2.78.48-.92.94-1.87,1.38-2.82h.14c.48.95.95,1.9,1.42,2.82.47.93.95,1.86,1.46,2.78l3.77,6.87h11.36l-11.5-18.32,11.36-17.11h-10.75Z"/>
  <path class="st0" d="M49.59,1.37c26.83,0,48.59,21.78,48.59,48.63s-21.76,48.63-48.59,48.63S1,76.85,1,50c0-26.85,21.76-48.63,48.59-48.63h0Z"/>
  <path class="st1" d="M74.08,30.42c-3.18-.47-6.41-.55-9.62-.78-11.94-.85-23.88-1.7-35.82-2.53-3.46-.24-4.56-1.19-5.42-4.62-.37-1.46-1.34-2.39-2.9-2.2-1.51.18-2.32,1.12-2.37,2.73-.13,4.44,2.83,8.1,7.69,8.97,2.91.53,5.91.62,8.88.84,10.3.74,20.61,1.45,30.91,2.18,2.48.18,4.96.41,7.44.64,1.26.12,1.87.88,1.75,2.1-.47,4.65-.96,9.3-1.51,13.94-.15,1.28-.98,2-2.36,2.08-3.21.19-6.42.48-9.64.66-8.01.46-16.01.89-24.31,1.34-.49-5.04-.9-9.98-1.5-14.91-.19-1.58-.56-3.29-1.39-4.6-1.53-2.42-4.47-3.08-7.1-2.01-2.74,1.11-4.05,3.76-3.65,7.19.49,4.15.96,8.3,1.35,12.46.18,1.87.95,3.77,2.33,5.12,1.49,1.45,3.19,1.81,5.18,2v3.75h-1.6c-4.06,0-7.35,3.3-7.35,7.36s3.29,7.35,7.35,7.35,7.35-3.29,7.35-7.35c0-.72-.11-1.42-.3-2.07h17.44c-.19.66-.3,1.35-.3,2.07,0,4.06,3.29,7.35,7.35,7.35s7.35-3.29,7.35-7.35c0-.76-.12-1.5-.33-2.19h.66c1.02,0,2.05,0,3.07,0,2.26-.02,3.56-1.05,3.51-2.77-.05-1.68-1.2-2.53-3.49-2.53-6.18,0-16.84.04-24.94.08l-11,.04v-3.96c0,.13,27.11-1.21,29.45-1.37,2.78-.19,6.1.05,8.62-1.34,1.88-1.03,3.57-3.35,3.57-5.57.68-4.92,1.21-9.87,1.55-14.83.27-3.9-2.03-6.7-5.9-7.27ZM31.31,54.97c-.01.28-.16.43-.44.45-.02,0-.05,0-.07,0-.34,0-.65-.19-.84-.46-.21-.3-.29-.67-.34-1.02,0-.05-.01-.1-.02-.14-.53-4.38-.66-8.85-1.08-13.23-.04-.37-.31-1.92.35-1.97.66-.05.9,1.41.94,1.76.36,2.94.65,5.88.94,8.83.09.9.2,1.8.31,2.7.1.84.2,1.69.25,2.54.01.18.02.37.01.56ZM30.44,74.66c-1.39,0-2.52-1.13-2.52-2.52s1.13-2.52,2.52-2.52,2.52,1.13,2.52,2.52c0,1.39-1.13,2.52-2.52,2.52ZM59.46,72.14s0-.06,0-.09c0-.06,0-.11.01-.17,0-.07.02-.15.03-.22,0,0,0,0,0-.01.14-.69.54-1.27,1.11-1.64h.04c.38-.23.83-.37,1.31-.37s.9.13,1.28.35h.04c.59.36,1.01.96,1.15,1.65,0,0,0,.01,0,.02.01.07.03.14.03.21,0,.06,0,.12.01.17,0,.03,0,.06,0,.08,0,0,0,0,0,.01s0,0,0,.01c0,1.39-1.13,2.52-2.52,2.52s-2.52-1.13-2.52-2.52c0,0,0,0,0-.01,0,0,0,0,0-.01Z"/>
</svg>