<?xml version="1.0" encoding="UTF-8"?>
<svg id="Layer_1" xmlns="http://www.w3.org/2000/svg" version="1.1" viewBox="0 0 53.3 50">
  <!-- Generator: Adobe Illustrator 29.8.4, SVG Export Plug-In . SVG Version: 2.1.1 Build 6)  -->
  <defs>
    <style>
      .st0 {
        fill: #3b393a;
      }

      .st1 {
        fill: #fff;
      }

      .st2 {
        fill: #e1251b;
      }
    </style>
  </defs>
  <g id="Layer_11" data-name="Layer_1">
    <path class="st1" d="M0,18.66s20.02,31.71,20.13,31.33,29.35-18.9,29.35-18.9L29.47-.11,0,18.66Z"/>
    <rect class="st2" x="3.19" y="9.01" width="32.89" height="15.67" transform="translate(-5.99 13.3) rotate(-32.76)"/>
    <rect class="st2" x="16.54" y="35.19" width="32.89" height="4.78" transform="translate(-15.09 23.82) rotate(-32.76)"/>
    <path class="st1" d="M14.03,19.96l-2.8,1.8-1.21-1.88c-.2-.36-.45-.68-.75-.96-.17-.09-.39-.07-.54.05-.2.1-.32.32-.28.54.14.4.34.79.59,1.13l3.24,5.03c.2.36.46.68.76.96.29.14.63.03.78-.26.04-.09.07-.19.06-.29-.15-.43-.37-.83-.63-1.2l-.89-1.35,2.8-1.8.27.42c.55.78.99,1.64,1.29,2.54.14.65.05,1.33-.25,1.92-.36.76-.93,1.39-1.65,1.82-.69.48-1.49.78-2.33.86-.67.06-1.34-.14-1.86-.56-.7-.64-1.31-1.39-1.79-2.21l-2.03-3.16c-.39-.58-.74-1.18-1.05-1.81-.2-.45-.29-.95-.24-1.44.04-.56.23-1.1.55-1.56.38-.55.87-1.01,1.44-1.35.69-.48,1.5-.77,2.34-.83.65-.05,1.3.13,1.83.51.67.59,1.24,1.29,1.69,2.06l.66,1.02Z"/>
    <path class="st1" d="M14.83,12.81l6.96,10.81-2.8,1.81-6.96-10.81,2.8-1.8Z"/>
    <path class="st1" d="M21.63,8.44l1.39,2.15-1.66,1.07,5.57,8.63-2.8,1.83-5.57-8.63-1.66,1.07-1.39-2.15,6.13-3.97Z"/>
    <path class="st1" d="M28.6,3.95l2.4,8.22,2.52,3.91-2.61,1.68-2.53-3.91-6.42-5.62,2.57-1.65c1.76,1.86,2.91,3.14,3.45,3.84-.57-1.28-1.22-2.88-1.95-4.79l2.58-1.66Z"/>
    <path class="st0" d="M20.62,33.07l-2.8,1.8-1.21-1.87c-.2-.36-.45-.68-.75-.96-.17-.09-.38-.07-.53.06-.21.09-.33.31-.28.53.14.4.34.79.59,1.13l3.24,5.03c.2.36.46.68.76.96.29.14.63.03.78-.26.04-.09.06-.18.06-.28-.15-.43-.37-.84-.64-1.2l-.88-1.37,2.8-1.81.27.42c.55.78.99,1.64,1.3,2.54.14.65.05,1.33-.25,1.92-.36.76-.94,1.39-1.66,1.82-.69.48-1.5.78-2.34.86-.67.06-1.34-.14-1.86-.56-.7-.65-1.31-1.39-1.79-2.21l-2.01-3.16c-.39-.58-.73-1.18-1.05-1.8-.2-.45-.29-.95-.25-1.44.04-.56.24-1.1.56-1.56.38-.55.87-1.01,1.44-1.35.69-.49,1.51-.78,2.35-.84.65-.05,1.3.13,1.83.51.67.6,1.23,1.29,1.69,2.06l.64,1.03Z"/>
    <path class="st0" d="M21.42,25.92l5.57,8.67,1.72-1.11,1.39,2.16-4.52,2.91-6.98-10.82,2.82-1.8Z"/>
    <path class="st0" d="M30.21,20.26l4.65,7.22c.38.57.73,1.16,1.03,1.78.17.42.23.88.18,1.33-.04.52-.23,1.01-.53,1.44-.36.5-.82.92-1.34,1.25-.58.39-1.23.66-1.92.78-.55.11-1.12.07-1.64-.12-.44-.16-.83-.43-1.13-.78-.29-.35-.83-1.13-1.61-2.35l-4.12-6.4,2.8-1.79,5.22,8.1c.18.32.4.61.66.86.13.1.31.1.44,0,.17-.08.25-.26.21-.44-.15-.38-.34-.74-.58-1.08l-5.13-7.98,2.8-1.8Z"/>
    <path class="st0" d="M31.29,19.57l2.8-1.8c.66-.46,1.38-.83,2.15-1.09.55-.16,1.13-.11,1.64.13.73.41,1.33,1.03,1.74,1.76.34.43.53.96.55,1.51-.11.52-.39.99-.8,1.33.56-.26,1.2-.31,1.78-.12.57.31,1.04.77,1.36,1.34l.64,1c.38.53.65,1.14.79,1.78.06.44-.06.89-.34,1.23-.62.64-1.34,1.19-2.11,1.63l-3.24,2.09-6.96-10.81ZM35.29,19.62l1.54,2.4.28-.19c.28-.18.41-.36.4-.55-.13-.45-.35-.87-.63-1.24-.14-.25-.32-.47-.54-.65-.12-.09-.27-.12-.41-.1-.22.08-.44.18-.63.32ZM37.91,23.7l1.92,3.01c.39-.27.6-.48.64-.68-.02-.34-.14-.66-.36-.93l-.65-1c-.3-.48-.53-.71-.69-.74-.32.02-.62.14-.87.34Z"/>
    <path class="st1" d="M21.58,43.12l1.81,2.79-.73.48-.75-1.17-.22.14.74,1.16-.73.48-1.79-2.81.73-.48.64,1,.21-.14-.64-1,.73-.44Z"/>
    <path class="st1" d="M24.57,43.5c.13.2.25.4.36.61.06.12.09.26.08.4,0,.14-.06.28-.14.4-.1.14-.22.26-.36.35-.14.09-.29.15-.45.18-.14.03-.29.02-.43-.03-.13-.05-.24-.13-.33-.23-.14-.19-.28-.39-.4-.59l-.31-.48c-.13-.2-.25-.4-.36-.61-.13-.26-.11-.56.06-.8.1-.14.22-.26.36-.35.14-.09.29-.15.45-.18.14-.03.29-.02.42.03.13.05.25.13.34.23.15.19.28.38.41.59l.3.48ZM23.26,43.06c-.05-.09-.11-.17-.18-.23-.04-.03-.08-.03-.12,0-.04.02-.06.06-.06.1.03.1.07.2.13.28l.83,1.3c.06.1.13.2.22.29.04.03.09.03.12,0,.05-.02.07-.08.05-.12-.05-.11-.11-.22-.18-.33l-.82-1.28Z"/>
    <path class="st1" d="M26.03,40.26l1.79,2.79-.63.41-1.21-1.88.96,2.04-.45.29-1.44-1.67,1.18,1.84-.63.41-1.79-2.79.96-.61.48.54.55.63-.67-1.41.92-.59Z"/>
    <path class="st1" d="M26.32,40.07l1.2-.78.36.57-.48.31.34.53.45-.29.34.53-.45.29.39.61.53-.34.35.56-1.25.81-1.79-2.79Z"/>
    <path class="st1" d="M31.36,39.27l.3.48-.12.25.54.31-.65.41-.18-.1c-.1.24-.26.45-.48.6-.17.12-.39.16-.59.1-.2-.06-.37-.2-.48-.38-.09-.12-.14-.27-.13-.42.02-.14.07-.28.16-.4-.26,0-.49-.14-.62-.36-.12-.17-.16-.39-.11-.59.07-.22.23-.41.43-.52.17-.13.39-.18.6-.14.2.03.38.15.48.33.12.19.16.42.11.64l.53.29.22-.5ZM30.82,40.45l-.48-.23c-.04.11-.03.24.03.34.03.05.08.1.13.12.05.01.11,0,.15-.03.07-.05.13-.12.16-.2ZM29.97,39.49c.02-.13,0-.26-.07-.37-.03-.04-.06-.07-.11-.09-.04-.02-.09-.02-.13,0-.03.02-.06.05-.06.09,0,.05.01.1.04.13.07.11.19.19.32.22h0Z"/>
    <path class="st1" d="M31.06,37.02l.72-.48c.17-.12.36-.21.55-.28.14-.04.29-.03.42.03.19.11.35.28.45.48.09.11.14.25.14.39-.03.13-.1.25-.21.34.15-.07.32-.08.48-.03.15.08.27.2.35.35l.17.26c.1.14.17.31.2.48.02.11-.02.23-.09.32-.16.16-.35.31-.55.42l-.83.54-1.81-2.82ZM32.09,37.02l.41.63.07-.04c.07-.05.1-.1.1-.14-.04-.12-.09-.23-.17-.32-.04-.07-.09-.12-.15-.16-.03-.02-.07-.03-.11-.03-.06.02-.11.04-.16.08h0ZM32.77,38.08l.48.78c.1-.07.15-.12.16-.17,0-.09-.04-.17-.1-.23l-.17-.26c-.08-.12-.13-.19-.18-.2-.07.01-.14.05-.2.1h0Z"/>
    <path class="st1" d="M34.65,34.71l1.2,1.86c.1.15.19.31.26.48.04.11.06.23.05.35-.01.13-.06.26-.13.37-.09.13-.21.24-.35.33-.14.1-.31.17-.48.2-.14.03-.29.02-.42-.03-.11-.04-.21-.11-.29-.21-.15-.2-.29-.4-.41-.61l-1.1-1.67.72-.48,1.35,2.09c.04.08.1.16.17.22.03.03.08.03.11,0,.04-.02.07-.06.06-.11-.04-.1-.09-.19-.15-.28l-1.29-2.04.71-.47Z"/>
    <path class="st1" d="M37.01,34.39l-.67.43-.13-.21c-.04-.07-.08-.12-.14-.17-.03-.02-.08-.02-.11,0-.04.02-.07.07-.06.12,0,.07.03.13.07.18.04.07.1.14.17.18.1.04.21.05.31.04.31-.03.61,0,.91.08.21.12.39.3.51.51.1.14.17.31.21.48,0,.15-.03.29-.12.41-.1.16-.24.29-.4.39-.17.11-.36.19-.57.21-.16.02-.32-.02-.45-.11-.15-.12-.28-.27-.37-.44l-.12-.18.67-.43.22.34c.04.07.09.13.16.18.04.03.09.03.13,0,.05-.03.07-.07.08-.12,0-.07-.04-.13-.08-.19-.11-.16-.2-.26-.27-.28-.16-.03-.32-.04-.48-.03-.18,0-.35,0-.53-.03-.1-.02-.2-.06-.29-.13-.12-.09-.22-.2-.29-.33-.11-.15-.19-.33-.22-.52,0-.14.03-.28.12-.4.1-.15.23-.28.39-.37.16-.11.34-.18.54-.22.14-.03.29,0,.41.06.15.12.27.26.36.43l.05.12Z"/>
    <path class="st1" d="M37.48,32.89l1.79,2.79-.72.48-1.8-2.79.73-.47Z"/>
    <path class="st1" d="M39.38,31.67l1.79,2.79-.63.41-1.19-1.02.81,1.27-.61.39-1.79-2.79.6-.39,1.21,1-.81-1.26.6-.39Z"/>
    <path class="st1" d="M39.69,31.48l1.21-.78.35.56-.48.31.34.53.45-.29.34.53-.45.29.4.61.53-.34.36.56-1.26.81-1.79-2.79Z"/>
    <path class="st1" d="M43.22,30.39l-.67.43-.13-.21c-.06-.1-.11-.15-.15-.17-.03-.02-.08-.02-.11,0-.04.02-.06.07-.06.12,0,.07.03.13.07.18.04.08.1.14.17.19.1.04.21.05.31.04.31-.03.61,0,.91.08.22.12.39.3.51.51.1.14.18.31.21.48,0,.14-.03.29-.12.41-.1.16-.24.29-.4.39-.17.12-.37.19-.57.21-.16.02-.32-.02-.45-.11-.15-.13-.27-.27-.37-.44l-.12-.18.67-.43.22.34c.04.07.09.14.16.18.04.02.09.02.13,0,.05-.02.09-.07.1-.13,0-.07-.03-.13-.07-.19-.11-.16-.2-.25-.28-.28-.16-.02-.32-.04-.48-.03-.18,0-.35,0-.53-.03-.1-.02-.2-.06-.29-.13-.12-.09-.22-.2-.29-.33-.11-.15-.19-.33-.22-.52,0-.14.03-.28.12-.4.1-.15.24-.27.39-.36.15-.11.32-.18.5-.22.14-.03.29,0,.41.06.15.12.27.27.37.43l.07.11Z"/>
    <path class="st1" d="M45.04,29.22l-.67.43-.13-.21c-.04-.07-.09-.12-.15-.17-.03,0-.07.01-.09.04-.04.02-.07.07-.07.12,0,.07.03.13.07.18.04.07.1.14.17.18.1.03.2.03.3,0,.31-.03.61,0,.91.08.21.12.39.3.51.51.11.14.18.31.21.48,0,.15-.03.29-.12.41-.22.32-.57.54-.96.6-.16.02-.32-.02-.45-.11-.15-.12-.28-.27-.37-.44l-.12-.18.67-.43.22.34c.04.07.09.13.16.18.09.02.18-.04.2-.13,0,0,0,0,0-.01,0-.07-.03-.14-.07-.19-.11-.16-.2-.26-.27-.28-.17-.02-.35-.03-.52-.01-.18,0-.35,0-.53-.03-.1-.02-.2-.06-.29-.13-.12-.09-.22-.2-.29-.33-.11-.15-.19-.33-.22-.52,0-.14.03-.28.12-.4.1-.15.23-.27.39-.36.16-.11.34-.19.54-.22.14-.03.29,0,.41.06.15.12.27.26.36.43l.07.11Z"/>
    <path class="st0" d="M49.2,27.99l.43-.28.92,1.44-.28.18-.62-.96s-.04-.07-.07-.12l-.07-.12.48,1.36-.29.19-1.04-1.02s.05.08.07.12l.08.12.62.96-.27.18-.92-1.44.43-.28.96.96-.42-1.29Z"/>
    <path class="st0" d="M50.68,27.4s.1-.06.16-.07c.08,0,.16.05.19.12.05.06.05.15,0,.22-.03.05-.08.09-.12.12l-.32.21-.25-.38.35-.21ZM50.58,27.12l-.68.44.92,1.44.29-.19-.36-.56.29-.19c.06-.04.13-.07.2-.06.07.03.13.08.16.15l.09.13s.06.08.09.12l.07.06.33-.21v-.03s-.08-.02-.11-.05c-.04-.04-.07-.08-.1-.12l-.06-.1c-.04-.08-.11-.15-.18-.2-.07-.02-.14-.02-.21,0,.06-.07.08-.16.08-.25-.01-.21-.15-.38-.35-.44-.06-.01-.13-.01-.2,0-.09,0-.19,0-.27.04v.02Z"/>
  </g>
</svg>