<?xml version="1.0" encoding="UTF-8"?>
<svg id="Layer_1" xmlns="http://www.w3.org/2000/svg" version="1.1" viewBox="0 0 128.55 50">
  <!-- Generator: Adobe Illustrator 29.8.4, SVG Export Plug-In . SVG Version: 2.1.1 Build 6)  -->
  <defs>
    <style>
      .st0 {
        fill: #fff;
      }

      .st1 {
        fill: #e1251b;
      }
    </style>
  </defs>
  <rect class="st0" x=".2" y=".19" width="123.46" height="49.61"/>
  <path class="st0" d="M123.86,50H0V0h123.86v50ZM.4,49.61h123.06V.4H.4v49.2Z"/>
  <rect class="st1" x="1.1" y="1.08" width="121.77" height="39.74"/>
  <path class="st0" d="M52.24,18.29c-2.39,0-4.04,1.91-4.03,4.19s1.66,4.18,4.05,4.17c1.62,0,2.85-.88,3.61-2.08l2.96,1.93c-1.41,2.32-3.94,3.72-6.65,3.68-4.5,0-7.82-3.35-7.84-7.69s3.3-7.7,7.8-7.71c2.91,0,5.34,1.35,6.7,3.63l-3.02,2c-.81-1.28-1.97-2.11-3.59-2.11M19.01,18.35c-2.39,0-4.03,1.91-4.03,4.19s1.66,4.18,4.05,4.18c1.62,0,2.85-.88,3.62-2.08l2.96,1.92c-1.41,2.32-3.94,3.72-6.65,3.68-4.5,0-7.82-3.35-7.84-7.69s3.31-7.7,7.81-7.71c2.91,0,5.34,1.35,6.7,3.63l-3.03,1.99c-.81-1.28-1.96-2.11-3.59-2.11M43.59,19.98c0,2.18-1.23,3.66-2.75,4.29l3.8,5.68h-4.52l-3.99-6.22v6.23h-3.83l-.03-14.86h4.78c4.18,0,6.52,1.64,6.52,4.91M103.22,22.13l5.26-7.16h-5.42l-4.86,6.86v-6.85h-4.75l.03,14.86h4.74v-6.85l8.45,10.86c-2.18,1.34-4.7,2.05-7.27,2.03-7.66.01-13.5-5.8-13.51-13.46-.02-7.66,5.81-13.49,13.46-13.51s13.5,5.8,13.51,13.46c.03,3.01-.94,5.95-2.75,8.36l-6.89-8.6ZM70.09,15h9.79v3.38h-5.95v2.46h5.68v3.12h-5.68v2.51h5.97v3.39l-9.79.02v-14.89ZM63.72,26.49h5.14v3.39l-9.04.02-.02-14.86h3.88l.04,11.46ZM37.2,22.69c1.51,0,2.59-.75,2.59-2.29s-1.02-2.19-2.58-2.19h-1.08v4.49h1.07ZM26.69,15.07h3.83l.03,14.86h-3.83l-.02-14.86Z"/>
  <path class="st1" d="M124.45,46.13h0c-.03-.79.58-1.46,1.37-1.5.79-.03,1.46.58,1.5,1.37,0,.04,0,.08,0,.12h0c.03.79-.58,1.46-1.37,1.5-.79.03-1.46-.58-1.5-1.37,0-.04,0-.08,0-.12ZM127.15,46.13h0c.03-.7-.51-1.3-1.21-1.33-.7-.03-1.3.51-1.33,1.21,0,.04,0,.08,0,.12h0c0,.7.55,1.27,1.25,1.28,0,0,.01,0,.02,0,.7,0,1.27-.58,1.27-1.28,0,0,0,0,0,0h0ZM125.28,45.35h.7c.35,0,.6.16.6.49,0,.21-.13.4-.33.46l.38.54h-.44l-.32-.47h-.23v.47h-.36v-1.5ZM125.96,46.07c.16,0,.25-.08.25-.21s-.1-.21-.25-.21h-.31v.42h.31Z"/>
  <rect class="st1" x="1.17" y="43.03" width="121.71" height="5.78"/>
</svg>