<?xml version="1.0" encoding="UTF-8"?>
<svg id="Capa_1" xmlns="http://www.w3.org/2000/svg" version="1.1" viewBox="0 0 151.57 50">
  <!-- Generator: Adobe Illustrator 29.8.4, SVG Export Plug-In . SVG Version: 2.1.1 Build 6)  -->
  <defs>
    <style>
      .st0 {
        fill: #fd0;
      }

      .st1 {
        fill: #fff;
      }

      .st2 {
        fill: #060607;
      }

      .st3 {
        fill: #e1251b;
      }

      .st4 {
        fill: #001689;
      }

      .st5 {
        fill: #fefefe;
      }
    </style>
  </defs>
  <path class="st1" d="M150.53,47.63c0,1.3-1.06,2.37-2.37,2.37H3.43c-1.3,0-2.37-1.06-2.37-2.37V2.37C1.06,1.06,2.13,0,3.43,0h144.73c1.3,0,2.37,1.06,2.37,2.37v45.27Z"/>
  <g>
    <path class="st4" d="M96.54,13.12c-.05-.09-.1-.17-.17-.25-.47-.57-1.14-.57-1.38-.57h-4.02c-.98,0-1.7.6-1.86,1.57l-.03.13-3.6,20.59c-.12.71.12,1.17.34,1.44.22.27.64.58,1.36.58h4.44s.04,0,.07,0c.94-.03,1.62-.63,1.78-1.57l2.17-12.39c.03-.2.09-.39.17-.57.43-.98,1.44-1.64,2.51-1.64.34,0,.5.08.71.17.22.11.52.25.92.25.1,0,.35-.05.45-.08,0,0-.12.03-.18.04.8-.12,1.45-.75,1.6-1.58,0,0,.84-4.8.84-4.8.02-.1.02-.19.02-.29,0-.81-.54-1.5-1.33-1.68-.58-.14-1.18-.18-1.59-.18-1.09,0-2.27.37-3.23.82ZM91.2,36.62s0,0,0,0c0,0,.08,0,.08,0-.01,0-.05,0-.08,0ZM91.2,36.62h0,0Z"/>
    <path class="st4" d="M85.76,36.09c-.19-.23-.39-.6-.39-1.12h0c0-.12.01-.25.04-.39h0l3.6-20.58.02-.13c.17-1.01.92-1.64,1.94-1.64h4.02c.25,0,.95,0,1.45.6h0c.05.06.1.13.14.2h0c.95-.44,2.11-.79,3.19-.79h0c.41,0,1.03.03,1.61.18h0c.84.19,1.4.91,1.4,1.76h0c0,.1,0,.2-.02.3h0s-.84,4.8-.84,4.81h0c-.15.87-.83,1.52-1.66,1.65h0s-.02,0-.02,0h0c-.09.02-.19.03-.26.03h0c-.42,0-.74-.15-.96-.26h0c-.2-.1-.34-.17-.67-.17h0c-1.04,0-2.02.64-2.43,1.6h0c-.08.18-.13.37-.17.56h0l-2.17,12.39c-.16.97-.89,1.6-1.86,1.63h0s-.06,0-.08,0h-4.45c-.74,0-1.18-.33-1.41-.61h0ZM91.62,36.54s.04,0,.07,0h0c.91-.03,1.55-.6,1.71-1.5h0l2.17-12.39c.03-.2.09-.4.18-.59h0c.44-1.01,1.48-1.69,2.58-1.69h0c.36,0,.54.08.74.18h0c.22.11.51.24.89.24h0c.08,0,.3-.04.41-.07h0s.02,0,.02,0h0s.02,0,.03,0h0c.67-.18,1.2-.74,1.33-1.47h0s.79-4.5.84-4.79h0s0-.01,0-.01h0c.02-.09.02-.19.02-.28h0c0-.77-.51-1.43-1.27-1.6h0c-.57-.14-1.17-.17-1.57-.17h0c-1.08,0-2.25.36-3.19.81h0s-.08,0-.1-.03h0c-.04-.08-.1-.16-.16-.24h0c-.45-.54-1.07-.54-1.32-.54h-4.02c-.95,0-1.62.57-1.78,1.51h0l-.03.13-3.6,20.58c-.02.13-.03.25-.03.36h0c0,.48.18.81.36,1.02h0c.21.25.6.55,1.29.56h4s0,0,.01,0h0s0,0,0,0h0s.05,0,.07,0h0s.03,0,.04,0h.31ZM96.54,13.12l.07-.04-.07.04h0Z"/>
  </g>
  <g>
    <path class="st4" d="M104.16,15.9c-.97,1.15-1.51,1.99-1.61,2.48,0,0,0,.02,0,.02-.05.27-.13,1.18.9,1.74-.01,0-.02-.01-.03-.02,0,0,2.22,1.29,2.85,1.65-1.94.8-3.56,2.22-4.54,4.11-.43.81-.73,1.7-.89,2.62l-.04.23c-.08.48-.13.95-.13,1.41,0,1.58.49,3.01,1.43,4.13,1.27,1.52,3.25,2.35,5.56,2.35h1.8c.85,0,1.75-.09,2.72-.48,0,0,0,.01.01.02.32.38.78.46,1.38.46h4.02s.05,0,.08,0c.94-.03,1.62-.63,1.78-1.56l2.33-13.34c.12-.66.17-1.31.17-1.92,0-1.98-.59-3.71-1.74-5.08-1.58-1.88-4.04-2.87-7.12-2.87-3.76,0-6.59,1.29-8.93,4.07ZM112.22,19.45c.58,0,1.06.18,1.34.51.21.25.27.55.27.82,0,.1-.01.19-.03.28h-3.9s-.08,0-.12,0c.89-1.06,1.73-1.62,2.43-1.62ZM116.07,36.62s0,0,0,0c0,0,.09,0,.09,0-.02,0-.05,0-.08,0ZM116.06,36.62h0,0Z"/>
    <path class="st4" d="M112.15,36.23c-.97.38-1.86.46-2.7.46h-1.8c-2.33,0-4.33-.84-5.62-2.38h0c-.95-1.14-1.45-2.59-1.45-4.18h0c0-.46.04-.94.13-1.43h0l.04-.23c.16-.93.46-1.82.9-2.64h0c.97-1.85,2.54-3.27,4.44-4.08h0c-.73-.43-2.56-1.49-2.71-1.57h0c-.79-.44-.94-1.1-.94-1.51h0c0-.13.01-.23.03-.3h0s0-.01,0-.02h0c.11-.53.65-1.36,1.63-2.51h0l.06.05-.06-.05c2.35-2.79,5.22-4.1,8.99-4.09h0c3.1,0,5.58,1,7.18,2.9h0c1.17,1.39,1.76,3.14,1.76,5.13h0c0,.62-.06,1.27-.18,1.94h0l-2.33,13.34c-.17.96-.89,1.6-1.86,1.63h0s-.06,0-.08,0h-4.02c-.58,0-1.07-.08-1.41-.46h0ZM117.59,36.54s.04,0,.07,0h0c.9-.03,1.55-.6,1.71-1.5h0l2.33-13.34c.12-.66.17-1.3.17-1.91h0c0-1.96-.58-3.67-1.72-5.03h0c-1.56-1.86-4-2.85-7.06-2.85h0c-3.74,0-6.54,1.28-8.87,4.04h0c-.97,1.15-1.5,1.99-1.59,2.45h0s0,0,0,.02h0c-.01.06-.02.15-.02.27h0c0,.37.12.95.84,1.36h0s0,0,0,0h0s.01,0,.02,0h0s.01,0,.02,0h0s0,0,0,0h0c.31.18,2.23,1.3,2.81,1.63h0s.04.04.04.07h0s-.02.06-.05.07h0c-1.92.79-3.53,2.2-4.5,4.07h0c-.43.81-.72,1.68-.88,2.59h0l-.04.23c-.08.48-.13.95-.13,1.4h0c0,1.56.49,2.97,1.41,4.08h0c1.26,1.5,3.2,2.32,5.5,2.32h1.8c.84,0,1.73-.09,2.69-.47h0s.07,0,.09.02h0s.02.02.02.02h0c.3.35.73.44,1.32.44h2.47s.01,0,.02,0h0s.06,0,.08,0h.01s0,0,0,0h0s0,0,0,0h0s0,0,0,0h0s0,0,0,0h0s0,0,0,0h0s0,0,0,0h0s0,0,0,0h0s1.4,0,1.4,0h0ZM109.72,21.1s0-.06.01-.09h0c.9-1.07,1.74-1.64,2.49-1.65h0v.16c-.63,0-1.41.49-2.25,1.45h3.77c0-.06.02-.13.02-.2h0c0-.26-.06-.53-.26-.77h0c-.26-.31-.71-.49-1.28-.49h0v-.16c.6,0,1.1.19,1.4.54h0c.23.27.29.59.29.87h0c0,.11-.01.2-.03.29h0s-.04.07-.08.07h-3.9s-.07,0-.12,0h0s-.06-.02-.07-.05h0Z"/>
  </g>
  <g>
    <path class="st4" d="M81.53,7.77h-2.06c-.98,0-1.69.6-1.86,1.56l-.05.25s0,.02,0,.02l-.13.72s-.17.9-.28,1.52h-2.49c-.96,0-1.68.59-1.86,1.55l-.03.15-.72,3.88s0-.03.01-.04c-.06.25-.06.49-.02.73,0,.01,0,.03,0,.04.12.6.63,1.31,1.69,1.31h1.37c-.29,1.64-1.27,7.25-1.27,7.25-.11.65-.17,1.29-.17,1.89,0,3.24,1.61,5.77,4.59,7.07,1.54.66,3.36.96,4.4.96,0,0,.15-.01.21-.02.85-.09,1.5-.68,1.65-1.54l.71-4.07c.02-.12.03-.23.03-.35,0-.42-.13-.8-.39-1.11-.31-.37-.77-.57-1.29-.57.03,0,.07,0,.1,0-.79-.06-1.36-.29-1.65-.66-.18-.23-.24-.52-.24-.78,0-.13.01-.26.03-.37,0,0,1.32-7.52,1.35-7.7h2.48s.03,0,.05,0c.01,0,.03,0,.03,0h0c.94-.03,1.63-.63,1.79-1.57l.7-4.02c.06-.35-.01-.91-.22-1.2-.21-.29-.52-.68-.87-.73l-.6-.09h-2.02c.16-.93.35-2.05.35-2.05.03-.14.04-.26.04-.38,0-.49-.19-.83-.37-1.05-.22-.27-.64-.59-1.36-.59h-1.64ZM83.43,36.6s-.08.01-.12.02c.02,0,.14-.02.17-.02,0,0-.03,0-.04,0Z"/>
    <path class="st4" d="M78.22,35.73c-3.01-1.31-4.64-3.87-4.64-7.14h0c0-.61.06-1.25.17-1.91h0s.95-5.41,1.25-7.15h-1.27c-1.1,0-1.65-.74-1.77-1.38h0s0-.03,0-.04h0c-.02-.11-.03-.22-.03-.33h0c0-.14.01-.27.04-.41h0l.72-3.86.03-.15c.19-.99.94-1.61,1.94-1.61h2.43c.11-.62.27-1.45.27-1.45h0l.13-.72h0s0-.02,0-.02h0s.05-.25.05-.25c.17-1,.93-1.63,1.94-1.63h2.06v.16h-2.06c-.94,0-1.61.57-1.78,1.5h0l-.05.25s0,.02,0,.03h0l-.13.71s-.17.9-.28,1.52h0s-.04.07-.08.07h-2.49c-.93,0-1.6.56-1.78,1.48h0l-.03.15-.71,3.82s0,.01,0,.02h0s0,0,0,0h0s0,.02,0,.03h0s0,.02,0,.02h0c-.02.12-.04.24-.04.35h0c0,.1,0,.2.03.3h0s0,.02,0,.04h0c.12.57.59,1.24,1.61,1.25h1.37s.05.01.06.03h0s.02.04.02.06h0c-.29,1.64-1.27,7.25-1.27,7.25h0c-.11.65-.17,1.28-.17,1.88h0c0,3.22,1.59,5.7,4.54,7h0c1.53.66,3.34.96,4.37.96h0s.15-.01.21-.02h0c.82-.09,1.43-.64,1.58-1.48h0l.71-4.07c.02-.11.03-.23.03-.33h0c0-.41-.13-.77-.37-1.05h0c-.28-.33-.67-.52-1.12-.54h0s0,0-.02,0h0s-.06,0-.09,0h0s-.02,0-.03,0h0c-.74-.08-1.28-.3-1.58-.68h0c-.2-.25-.25-.56-.25-.83h0c0-.14.02-.27.03-.38h0s.33-1.88.66-3.78h0c.33-1.9.67-3.83.69-3.92h0s.04-.07.08-.07h2.48s.02,0,.05,0h0s.01,0,.02,0h0c.91-.03,1.55-.6,1.71-1.5h0l.7-4.02c.01-.07.02-.16.02-.25h0c0-.31-.08-.69-.23-.89h0c-.21-.29-.51-.66-.82-.7h0l-.59-.09h-2.01s-.05-.01-.06-.03h0s-.02-.04-.02-.06h0c.16-.93.35-2.04.35-2.05h0c.02-.13.04-.25.04-.37h0c0-.46-.18-.79-.35-1h0c-.21-.26-.6-.56-1.3-.56h-1.64v-.16h1.64c.74,0,1.19.34,1.42.62h0c.19.23.39.59.39,1.1h0c0,.12-.01.26-.04.39h0s-.18,1.04-.34,1.95h1.94l.6.09c.4.07.71.48.92.77h0c.18.25.26.64.26.98h0c0,.1,0,.19-.02.28h0l-.7,4.02c-.16.97-.88,1.6-1.85,1.64h0s-.02,0-.03,0h0s-.04,0-.05,0h-2.41c-.13.77-1.34,7.64-1.34,7.64h0c-.02.11-.03.23-.03.36h0c0,.25.05.52.22.73h0c.26.33.79.56,1.55.62h0c.51.02.96.23,1.28.6h0c.27.32.41.72.41,1.16h0c0,.12-.01.24-.03.36h0l-.71,4.07c-.12.68-.53,1.19-1.11,1.45h0s.01,0,.02,0h0s0,0,0,0h0s.02.01.03.02h0s0,0,0,0h0s0,0,0,0h0s0,0,0,0h0s0,0,0,0h0s0,.02.01.03h0s0,.01,0,.02h0s0,0,0,0h0s0,0,0,0h0s0,0,0,0h0s0,.02-.02.03h0s-.02.02-.03.02h0s0,0,0,0h0s0,0,0,0h0s0,0,0,0h0s0,0-.01,0h0s-.05,0-.09.01h0s-.05,0-.07,0h0s0,0,0,0h0s0,0,0,0h0s0,0,0,0h0s0,0,0,0h0s0,0,0,0h0s0,0,0,0h0s0,0,0,0h0s-.05-.04-.05-.07h0c-.11.03-.23.05-.36.06h0c-.06,0-.21.02-.21.02h0c-1.06,0-2.88-.3-4.44-.97h0Z"/>
  </g>
  <path class="st4" d="M37.03,19.78h0s-.09.35-.11.4c-.02.1-.03.19-.03.29,0,.39.13.76.38,1.06.33.4.83.62,1.4.62h5.63c.95,0,1.73-.62,1.9-1.51,0,0,0,0,0-.01.13-.72-.16-1.94-.94-2.87-.54-.65-1.54-1.42-3.19-1.42-2.86,0-4.63,2.33-5.04,3.45Z"/>
  <g>
    <path class="st4" d="M32.42,17.79c-.55,1-.92,2.02-1.1,3.04l-1.03,5.87c-.48,2.76.08,5.26,1.58,7.05,1.58,1.88,4.04,2.88,7.1,2.88h0c4,0,6.91-1.44,9.44-4.67,0,0,.36-.46.36-.46.65-.87.8-1.21.86-1.54.02-.1.03-.2.03-.29,0-.6-.34-1.16-.91-1.48,0,0-2.05-1.11-2.76-1.49h3.05s.03,0,.05,0c.02,0,.03,0,.03,0h0c.94-.03,1.62-.63,1.79-1.57l.67-3.83c.43-2.45-.26-5.04-1.85-6.93-1.62-1.93-4.03-2.99-6.79-2.99-5.17,0-8.89,3.46-10.52,6.43ZM42.69,26.69s-.06.06-.08.1c-.02.03-.03.05-.05.08-.82,1.38-1.78,2.14-2.71,2.14-.52,0-.93-.17-1.21-.5-.22-.26-.33-.6-.33-.99,0-.12.01-.24.03-.37,0,0,.06-.33.08-.46.46,0,2.17,0,4.27,0ZM50.56,31.95h0Z"/>
    <path class="st4" d="M38.98,36.7c-3.08,0-5.56-1-7.16-2.9h0c-1.17-1.39-1.77-3.2-1.77-5.22h0c0-.61.06-1.25.17-1.89h0l1.03-5.87c.18-1.03.55-2.06,1.11-3.07h0c1.63-2.98,5.38-6.47,10.59-6.47h0c2.77,0,5.21,1.07,6.85,3.02h0c1.29,1.54,1.99,3.53,1.99,5.54h0c0,.49-.04.97-.13,1.46h0l-.67,3.83c-.16.97-.88,1.6-1.85,1.63h-.03s-.04,0-.06,0h-2.74c.86.46,2.48,1.34,2.48,1.34h0c.6.33.95.92.95,1.55h0c0,.1,0,.21-.03.31h0c-.06.35-.23.71-.88,1.57h0l-.36.46c-2.53,3.24-5.48,4.7-9.49,4.7h0s0,0-.01,0h0ZM32.49,17.83c-.54.99-.91,2.01-1.09,3.02h0l-1.03,5.87c-.11.64-.17,1.26-.17,1.87h0c0,1.99.59,3.76,1.73,5.12h0c1.56,1.86,3.99,2.85,7.04,2.85h0c3.98,0,6.85-1.43,9.37-4.64h0l.36-.46c.65-.86.79-1.19.85-1.51h0c.02-.09.03-.19.03-.28h0c0-.57-.32-1.1-.87-1.41h0s-2.05-1.11-2.76-1.49h0s-.05-.05-.04-.09h0s.04-.06.08-.06h3.05s.02,0,.05,0h0s.01,0,.02,0h0s0,0,0,0h0c.9-.03,1.54-.6,1.7-1.5h0l.67-3.83c.08-.47.12-.95.12-1.43h0c0-1.97-.69-3.93-1.96-5.44h0c-1.61-1.91-3.99-2.96-6.73-2.96h0c-5.13,0-8.83,3.44-10.45,6.38h0l-.07-.04.07.04h0ZM38.58,28.56c-.23-.28-.35-.64-.35-1.04h0c0-.12.01-.25.03-.38h0s.06-.33.08-.46h0s.04-.07.08-.07h4.27v.08-.08s.06.02.07.05h0s.01.06,0,.08h0s-.06.07-.08.09h0s-.03.05-.05.07h0c-.83,1.39-1.8,2.18-2.77,2.18h0c-.53,0-.97-.18-1.26-.53h0ZM38.42,27.16c-.02.12-.03.24-.03.35h0c0,.37.11.69.31.94h0c.26.3.65.47,1.15.47h0c.88,0,1.82-.73,2.64-2.11h0s.02-.04.03-.05h-4.03c-.03.15-.07.4-.07.4h0Z"/>
  </g>
  <g>
    <path class="st4" d="M51.93,10.88c-.98,0-1.72.59-1.87,1.5-.02.09-.03.18-.03.27,0,.29.08.56.16.77l.14.36s.02.05.05.1c0,0,4.56,8.42,5.21,9.63-.75,1.16-6.34,9.72-6.34,9.72-.04.07-.08.14-.11.22l-.02.05-.12.29c-.08.23-.15.48-.15.76,0,.08,0,.16.02.25,0,0,0,.02,0,.03.16.9.9,1.49,1.87,1.49h5.56c.67,0,1.26-.39,1.55-1.01-.03.06-.06.12-.1.17,0,0,1.22-1.84,2.25-3.39,1.38,2.68,4.62,8.97,4.65,9.02.02.04.08.17.08.17.01.03,0,.01.02.04,0,0,.02.04.04.07.31.57.89.91,1.55.91h49.77c.71,0,1.3-.39,1.6-1.03.04-.08.07-.17.09-.26,0,0,.56-2.46.57-2.48.07-.21.11-.42.11-.62,0-.58-.27-1.11-.78-1.46-.51-.35-1.02-.34-1.43-.34h-44.34c-.54-1.02-5.91-11.19-6.53-12.38.75-1.15,6.37-9.73,6.37-9.73.03-.05.06-.1.09-.15.15-.3.32-.66.32-1.11,0-.11-.01-.22-.03-.34-.16-.9-.89-1.48-1.87-1.48h-5.56c-.7,0-1.31.39-1.6,1.01.03-.06.06-.12.1-.17,0,0-1.26,1.9-2.29,3.47-.88-1.56-1.91-3.39-1.91-3.39-.01-.02.06.11.05.09,0,0-.18-.28-.22-.35-.32-.43-.82-.69-1.35-.69h-5.57ZM67.14,40.15s0,0,0,0h0ZM58.82,11.53s.02.04.03.04c.01.02.03.03.04.04,0,0-.07-.09-.07-.09ZM58.89,11.62h0s0,0,0,0ZM72.16,12.39s0,0,0,.01c0,0,0-.02,0-.03,0,0,0,0,0,.01ZM50.2,13.42h0ZM64.8,41.38h0ZM64.82,41.42s-.01-.02-.02-.04c0,0,0,0,0,0,0,0,.03.04.03.04Z"/>
    <path class="st4" d="M66.35,42.37c-.67,0-1.26-.34-1.59-.9h0s0,0,0,0h0l-.02-.04s0,0,0-.02h0s-.03-.05-.03-.05h0s-.01-.02-.02-.04h0s-.06-.13-.08-.17h0s-3.17-6.15-4.58-8.89h0c-.9,1.36-1.92,2.9-2.13,3.22h0c-.32.58-.91.94-1.56.94h-5.56c-1,0-1.78-.61-1.95-1.55h0s0-.02,0-.03h0c-.01-.09-.02-.18-.02-.26h0c0-.3.08-.56.16-.79h0l.12-.3.02-.05c.03-.08.07-.16.12-.23h0s5.47-8.38,6.31-9.68h0c-.36-.67-1.63-3.02-2.83-5.23h0c-1.22-2.26-2.36-4.36-2.36-4.36h0s-.03-.05-.05-.1h0l-.14-.36c-.08-.22-.16-.49-.16-.8h0c0-.09,0-.19.03-.29h0c.16-.95.94-1.57,1.95-1.56h0v.16c-.95,0-1.64.56-1.79,1.43h0c-.02.09-.02.17-.02.26h0c0,.28.08.53.15.74h0l.14.36s.02.04.04.09h0s4.56,8.42,5.21,9.63h0s.01.06,0,.08h0c-.38.58-1.96,3.01-3.45,5.3h0c-1.49,2.29-2.89,4.43-2.89,4.43h0c-.04.06-.08.13-.11.2h0l-.02.05-.12.29c-.08.22-.15.47-.15.74h0c0,.08,0,.16.02.23h0s0,.02,0,.03h0c.16.87.85,1.42,1.79,1.42h5.56c.56,0,1.08-.29,1.38-.78h0s0-.02.01-.03h0s.05-.08.07-.11h0s.02-.03.02-.05h0s0,0,0,0h0s.02-.02.03-.03h0s0,0,0,0h0s0,0,0,0h0c.34-.52,1.29-1.94,2.12-3.19h0s.04-.04.07-.04h0s.05.02.07.04h0c1.38,2.68,4.62,8.97,4.65,9.02h0s.08.17.08.17h0s0,0,.02.04h0s.02.04.04.07h0c.3.54.85.87,1.48.87h49.77c.68,0,1.24-.37,1.52-.98h0c.04-.08.06-.16.08-.25h0s.56-2.46.57-2.49h0c.07-.2.11-.4.11-.59h0c0-.55-.26-1.06-.74-1.39h0c-.41-.29-.82-.32-1.18-.32h0c-.07,0-.13,0-.2,0h-44.34s-.06-.02-.07-.04h0c-.54-1.02-5.9-11.19-6.53-12.38h0s-.01-.06,0-.08h0c.75-1.15,6.37-9.73,6.37-9.73h0s.06-.1.08-.15h0c.15-.3.32-.64.32-1.08h0c0-.1-.01-.21-.03-.33h0c-.16-.86-.85-1.41-1.79-1.42h-5.56c-.59,0-1.12.29-1.43.78h0s0,.02-.01.02h0s-.06.1-.08.15h0s0,0,0,.01h0s-.02.03-.03.04h0s0,0,0,0h0s0,0,0,0h0s0,0,0,0h0s0,0,0,0h0s0,0,0,0h0c-.35.53-1.33,2.01-2.16,3.26h0s-.04.04-.07.04h0s-.05-.02-.07-.04h0c-.75-1.33-1.62-2.87-1.85-3.28h0s0,0,0,0h0s0,0,0,0h0s0,0,0,0h0s0,0,0,0h0s-.18-.28-.22-.34h0c-.31-.41-.79-.66-1.29-.66h-5.56v-.16h5.56c.52,0,1.02.24,1.36.65h0s0,0,0,0h0,0s0,0,0,0h0s.01.01.02.02h0s0-.01-.01-.01h0s0,0,0,0h0s0,0,0,0h0s0,0,0,0h0s.01.02.02.03h0s.03.04.04.05h0s0,0,0,0h0s0,0,0,0h0s0,0,0,0h0s.01.03.01.04h0s.06.1.09.15h0s0,0,0,0h0s.02.01.02.02h0s0,0,0,0h0s0,0,0,0h0s0,0,0,0h0s0,0,0,0c.03.06.99,1.76,1.84,3.27h0c.91-1.38,1.97-2.98,2.18-3.3h0c.32-.58.93-.94,1.61-.94h5.56c1,0,1.76.6,1.94,1.52h0s0,0,0,.01h0s0,0,0,0c0,0,0,.02,0,.03h0s0,0,0,.01h0c.02.11.03.22.03.33h0c0,.48-.18.85-.33,1.15h0c-.03.05-.06.11-.09.16h0s-5.5,8.4-6.34,9.69h0c.71,1.35,5.85,11.08,6.49,12.3h22.54c10.94,0,21.75,0,21.74,0h0c.07,0,.13,0,.2,0h0c.38,0,.83.04,1.27.35h0c.53.36.81.92.81,1.52h0c0,.21-.05.43-.12.64h0s-.57,2.48-.57,2.48h0c-.02.1-.05.19-.1.28h0c-.31.66-.93,1.07-1.67,1.07h-49.77ZM59.05,12s-.01,0-.02,0h0s.01,0,.02,0h0ZM59,11.97s0,0,0-.01h0s0,0,0,.01h0ZM59.15,11.91s0,0,0,0h0s0,0,0,0h0s0,0,0,0h0ZM59.14,11.89s0,0,0,0h0s0,0,0,0h0ZM58.89,11.5h0s0,0,0,0h0ZM58.89,11.5h0s0,0,0,0h0s0,0,0,0h0s0,0,0,0h0s0,0,0,0h0ZM58.86,11.46s0,0,0,0h0s0,0,0,0h0ZM67.07,40.19h0s0,0,0,0h0s0-.08.02-.1h0s.08-.02.11,0h0v.02s.01,0,.01,0h0s0,0,0,0c.02.04,0,.09-.03.11h0s-.03.01-.04.01h0s-.05-.01-.07-.04h0ZM67.08,40.2l.05-.05-.05.05h0ZM67.14,40.15h0s0,0,0,0h0ZM58.88,11.47s0,0,0,0h0s0,0,0,0h0s0,0,.01.01h0s0,0,0,0h0Z"/>
  </g>
  <path class="st1" d="M39.93,19.81c.58-.62,1.32-1.06,2.22-1.06s1.42.47,1.74,1.06h-3.96Z"/>
  <path class="st1" d="M108.72,28.22c.02-.13.19-.29.28-.3h3.73c-.67.59-1.54,1.1-2.22,1.1h-1.94c.05-.26.16-.8.16-.8Z"/>
  <g>
    <path class="st3" d="M91.65,35.19c.31,0,.47-.15.53-.47l2.17-12.4c.05-.3.14-.6.26-.88h0c.63-1.44,2.09-2.44,3.72-2.44.99,0,1.34.43,1.63.43.01,0,.02,0,.03,0,.23-.01.48-.2.54-.52l.84-4.78c.04-.24-.07-.42-.3-.47-.36-.09-.83-.14-1.3-.14-1.52,0-3.28.9-3.84,1.42-.11.09-.16.14-.36.14s-.34-.19-.29-.47l.11-.66c.07-.38-.07-.43-.4-.43h-4.02c-.33,0-.5.14-.56.47l-.03.15h0l-3.59,20.57c-.06.33.06.47.39.47h4.44s.02,0,.03,0h0Z"/>
    <path class="st2" d="M91.62,35.67h-4.44c-.19,0-.4-.03-.6-.18h0c-.21-.16-.28-.42-.28-.62h0c0-.08,0-.16.02-.23h0l3.6-20.57.03-.15c.04-.23.13-.47.34-.64h0c.2-.17.46-.23.69-.23h4.02c.12,0,.23,0,.38.04h0c.14.03.34.15.44.35h0c.06.12.08.24.08.35h0c0,.09,0,.17-.02.25h0l-.07.42c.36-.28.89-.58,1.53-.85h0c.74-.31,1.61-.55,2.46-.55h0c.5,0,.99.05,1.41.16h0c.19.04.37.15.49.31h0c.12.16.18.35.18.54h0c0,.05,0,.11-.01.16h0s-.84,4.79-.84,4.79c-.09.51-.49.85-.92.9h0s-.07.01-.11.01h0c-.19,0-.32-.06-.43-.11h0c-.11-.05-.2-.1-.3-.14h0c-.21-.09-.46-.17-.89-.17h0c-1.43,0-2.74.89-3.29,2.15h0c-.11.24-.19.5-.23.77h0l-2.17,12.39c-.04.22-.13.45-.32.63h0c-.19.17-.43.23-.64.24h0s-.03,0-.05,0h0ZM91.65,35.32v-.12s0,.11,0,.11h0ZM91.61,34.72s.02,0,.03,0h0s.05,0,.06,0h0s.01-.04.02-.07h0l2.17-12.4c.06-.34.16-.67.3-.98h0c.7-1.61,2.33-2.72,4.15-2.72h0c.49,0,.88.1,1.16.21h0c.23.09.41.19.47.21h0s.08-.03.1-.13h0l.83-4.73c-.3-.07-.71-.11-1.12-.11h0c-.66,0-1.44.2-2.1.48h0c-.66.27-1.22.62-1.43.82h-.02c-.05.06-.12.13-.25.19h0c-.13.06-.28.08-.41.08h0c-.22,0-.43-.1-.57-.26h0c-.14-.16-.21-.37-.21-.58h0c0-.06,0-.13.02-.2h0l.09-.53h-3.93s-.06,0-.07,0h0s-.01.04-.02.08h0l-.03.15-3.58,20.49h4.34Z"/>
  </g>
  <g>
    <path class="st3" d="M86.73,13.08c-.06,0-.12-.03-.2-.03h-3.12c-.33,0-.45-.14-.39-.47l.54-3.12c.06-.33-.06-.47-.39-.47h-3.7c-.33,0-.5.14-.56.47l-.05.26h0s-.13.73-.13.73l-.4,2.13c-.06.32-.22.46-.53.47,0,0-.02,0-.03,0h-3.12c-.33,0-.5.14-.56.47l-.03.16h0l-.72,3.87c-.02.09-.02.17,0,.23h0c.03.16.15.24.39.24h2.47s.06,0,.09.01h0c.25.03.35.17.3.46l-1.45,8.33c-.6,3.45.62,6.2,3.65,7.52,1.32.57,2.97.85,3.87.85,0,0,.02,0,.03,0h0c.27-.01.47-.15.53-.47l.71-4.07c.05-.29-.06-.48-.34-.48-2.43-.19-3.35-1.65-3.06-3.36l1.37-7.8.09-.53c.06-.33.23-.47.56-.47h3.12s.02,0,.03,0c.3-.01.47-.15.52-.47,0,0,.7-4.03.7-4.03,0,0,.14-.41-.19-.44Z"/>
    <path class="st2" d="M78.59,34.78c-1.34-.58-2.37-1.45-3.06-2.53h0c-.69-1.08-1.03-2.37-1.03-3.77h0c0-.56.05-1.14.16-1.74h0l1.44-8.25h-2.38c-.17,0-.34-.02-.52-.13h0c-.18-.1-.3-.31-.33-.49h0c0-.07-.01-.13-.01-.19h0c0-.07,0-.15.02-.23h0l.72-3.87.03-.15c.04-.22.14-.46.34-.63h0c.2-.17.46-.23.69-.23h3.09s.03,0,.05,0h0s.05,0,.06,0h0s.01-.04.02-.08h0l.4-2.13.13-.72s0-.04.02-.06h0l.04-.22c.04-.22.13-.47.34-.64h0c.2-.17.46-.22.69-.22h3.7c.19,0,.4.03.6.18h0c.21.16.29.42.28.62h0c0,.08,0,.16-.02.23h0l-.53,3.04h3.03c.13,0,.22.02.24.03h0s-.04.47-.04.47l-.03.4.03-.4.04-.47c.19,0,.42.12.53.29h0c.11.17.13.32.13.43h0c0,.14-.03.23-.04.29h0s0,.01,0,.02h0s-.01.07-.02.13h0c-.02.11-.05.27-.08.46h0c-.07.38-.15.88-.24,1.39h0c-.18,1.01-.35,2.02-.35,2.01h0c-.04.22-.13.46-.32.63h0c-.19.16-.42.23-.63.24h0s-.04,0-.07,0h-3.12s-.06,0-.07,0h0s-.01.04-.02.08h0l-.09.53-1.37,7.8c-.03.18-.05.35-.05.52h0c0,.61.2,1.12.61,1.51h0c.41.39,1.07.69,2.05.77h0c.2,0,.43.07.59.24h0c.17.18.22.4.22.58h0c0,.07,0,.13-.02.2h0l-.71,4.07c-.04.24-.16.47-.35.63h0c-.18.16-.41.22-.62.23h0s-.03,0-.05,0h0c-.99,0-2.66-.29-4.06-.89h0ZM76.86,17.8c.16.16.22.38.21.56h0c0,.08,0,.15-.02.22h0l-1.46,8.33c-.1.55-.14,1.07-.14,1.57h0c0,1.26.3,2.35.88,3.27h0c.58.91,1.45,1.65,2.64,2.17h0c1.22.53,2.84.81,3.66.81h0s.04,0,.06,0h0s.03,0,.04,0h0s0,0,0,0h0s.01-.03.02-.06h0l.7-4c-1.1-.1-1.96-.46-2.55-1.02h0c-.61-.58-.9-1.37-.9-2.2h0c0-.23.02-.45.06-.68h0l1.37-7.8.09-.53c.04-.23.13-.47.34-.64h0c.21-.17.46-.23.69-.22h3.09s.04,0,.06,0h0s.04,0,.05,0h0s.01-.04.02-.07h0s.17-1,.35-2h0c.15-.83.29-1.68.34-1.94h-3.03c-.19,0-.4-.03-.6-.18h0c-.2-.16-.29-.42-.28-.62h0c0-.08,0-.16.02-.23h0l.53-3.04h-3.61s-.06,0-.07,0h0s-.01.04-.02.08h0l-.05.26s0,.04-.01.06h0l-.12.67-.4,2.13c-.04.22-.13.45-.33.62h0c-.18.16-.42.22-.63.23h0s-.04,0-.07,0h-3.12s-.06,0-.07,0h0s-.01.04-.02.09h0l-.03.15-.7,3.78h2.38s.09,0,.12,0h0s.03,0,.03,0h0c.16.02.36.07.51.23h0ZM86.69,13.55v-.06s0,.06,0,.06h0Z"/>
  </g>
  <g>
    <path class="st3" d="M44.9,20.3c-.04.23-.26.42-.6.42h-5.63c-.33,0-.49-.19-.44-.42,0-.05.02-.1.05-.16.27-.76,1.64-2.58,3.79-2.58,2.37,0,2.93,2.17,2.83,2.74M37.14,26.26l.09-.53c.06-.33.23-.47.56-.47h11.26s.02,0,.03,0h0c.31,0,.47-.15.52-.47l.67-3.83c.69-3.92-1.99-8.37-7.33-8.37-4.19,0-7.69,2.69-9.36,5.74h0c-.48.87-.8,1.76-.95,2.63l-1.03,5.87c-.86,4.92,1.99,8.37,7.38,8.37,4.12,0,6.5-1.75,8.39-4.16.12-.15.23-.3.34-.44,0-.03,0-.06,0-.09,0,.03,0,.06,0,.09.33-.45.59-.84.62-.98.03-.14-.05-.28-.22-.38l-3.24-1.75c-.35-.19-.61-.33-.75-.33s-.3.09-.43.28c-1.21,2.03-2.62,2.79-3.84,2.79-1.94,0-3.13-1.56-2.81-3.4l.1-.56Z"/>
    <path class="st2" d="M38.98,35.67c-2.46,0-4.47-.7-5.87-1.97h0c-1.4-1.27-2.14-3.09-2.14-5.2h0c0-.57.05-1.15.16-1.76h0l1.03-5.87c.16-.93.51-1.87,1-2.78h0c1.74-3.18,5.36-5.98,9.77-5.98h0c2.51,0,4.52.95,5.86,2.38h0c1.35,1.43,2.05,3.33,2.05,5.23h0c0,.44-.04.88-.11,1.31h0l-.67,3.83c-.04.22-.13.45-.32.63h0c-.18.16-.42.23-.62.24h0s-.05,0-.08,0h-11.26s-.06,0-.07,0h0s-.01.04-.02.08h0l-.09.53-.47-.08.46.08-.1.56c-.03.17-.05.34-.05.51h0c0,.67.24,1.25.65,1.66h0c.41.41.99.67,1.74.67h0c1.02,0,2.28-.62,3.44-2.56h0l.02-.03c.19-.27.46-.48.82-.48h0c.22,0,.34.07.5.14h0c.15.07.3.16.48.25h0l3.24,1.75c.25.13.47.41.47.73h0s0,.09-.01.14h0c-.03.13-.06.2-.11.29h0c-.04.08-.1.17-.16.26h0c-.12.19-.27.4-.44.63h0s0,0,0,0h0c-.11.14-.22.29-.34.44h0c-.97,1.24-2.09,2.33-3.51,3.11h0c-1.42.78-3.13,1.24-5.25,1.24h0s0,0,0,0h0ZM34,18.55c-.45.83-.76,1.68-.9,2.49h0l-1.03,5.87c-.1.55-.14,1.09-.14,1.59h0c0,1.9.65,3.42,1.83,4.5h0c1.18,1.08,2.94,1.72,5.23,1.72h0c1.99,0,3.53-.42,4.81-1.12h0c1.27-.7,2.3-1.69,3.22-2.87h0c.08-.1.16-.2.24-.31h0c.02-.15.12-.28.26-.35h0c.07-.1.14-.2.2-.29h0c.05-.07.08-.13.11-.18h0l-3.17-1.71c-.22-.13-.42-.22-.51-.26h0s-.03.03-.05.05h0c-1.25,2.11-2.81,3.01-4.24,3.01h0c-.98,0-1.83-.36-2.42-.96h0c-.59-.6-.92-1.43-.92-2.33h0c0-.22.02-.45.06-.67h0l.1-.56h0l.09-.53c.04-.23.13-.46.34-.64h0c.2-.17.46-.23.68-.22h11.22s.03,0,.05,0h0s.04,0,.05,0h0s.01-.04.02-.07h0l.67-3.83c.07-.38.1-.76.1-1.15h0c0-1.67-.62-3.34-1.79-4.59h0c-1.18-1.25-2.89-2.08-5.17-2.09h-.02c-3.98,0-7.34,2.58-8.93,5.49h0ZM44.31,21.19h-5.63c-.23,0-.45-.06-.64-.21h0c-.19-.15-.29-.39-.29-.61h0s0-.1.01-.15h0c.02-.09.04-.17.07-.24h0c.18-.49.62-1.16,1.33-1.77h0c.71-.6,1.69-1.12,2.9-1.12h0c1.24,0,2.12.55,2.62,1.21h0c.51.66.69,1.37.7,1.86h0c0,.08,0,.15-.02.22h0l-.47-.08.47.08c-.08.48-.54.81-1.04.81h0s-.01,0-.02,0h0ZM44.24,20.25h.07c.11,0,.13-.03.13-.04h0s0-.03,0-.06h0c0-.23-.13-.82-.5-1.28h0c-.37-.46-.91-.84-1.87-.85h0c-.94,0-1.71.4-2.29.89h0c-.55.46-.92,1.03-1.04,1.33h5.5Z"/>
  </g>
  <g>
    <path class="st0" d="M63.88,23.56l6.79-10.38c.15-.3.22-.45.18-.65-.04-.25-.22-.4-.57-.4h-5.56c-.2,0-.33.1-.4.25l-3.48,5.27-2.97-5.27s-.04-.07-.07-.1c-.07-.11-.18-.17-.31-.17h-5.56c-.35,0-.53.15-.57.4-.02.09.02.22.07.36.03.09.07.19.11.28l5.59,10.32-6.77,10.38c-.04.1-.08.19-.11.29-.05.14-.08.27-.07.36.05.25.22.4.57.4h5.56c.15,0,.28-.1.35-.25l3.49-5.27,5.69,11.05.09.2s0,.02.01.02c.08.14.2.23.39.23h49.77c.17,0,.31-.08.4-.26l.57-2.49c.07-.36.09-.54-.12-.68-.17-.12-.33-.11-.66-.1h-44.93c-.12,0-.21-.05-.28-.12l-7.2-13.66Z"/>
    <path class="st2" d="M65.87,41.21c-.14-.09-.25-.21-.32-.35h0s0-.01,0-.02h0s-.01-.03-.01-.03l-.09-.19-5.32-10.32-3.03,4.57c-.13.26-.41.49-.76.49h-5.56c-.24,0-.48-.05-.68-.2h0c-.2-.15-.32-.38-.36-.6h0s0-.09,0-.12h0c0-.2.05-.33.1-.48h0c.04-.11.08-.21.12-.3h0l.04-.08,6.62-10.15-5.45-10.07-.02-.03c-.05-.11-.09-.22-.12-.31h0c-.05-.14-.1-.27-.11-.48h0s0-.09.01-.13h0c.03-.21.15-.45.35-.59h0c.2-.15.44-.2.68-.2h5.56c.29,0,.54.16.68.36h0c.04.05.08.11.11.17h0l2.59,4.59,3.04-4.6c.07-.13.17-.25.3-.34h0c.15-.1.33-.15.51-.14h5.56c.24,0,.48.05.68.2h0c.2.15.32.38.35.58h0c.01.06.02.12.02.19h0c0,.15-.04.29-.08.41h0c-.05.12-.1.22-.16.34h0l-.03.05-6.64,10.15,7,13.28h44.87c.07,0,.13,0,.19,0h0c.12,0,.23,0,.36.03h0c.13.03.27.08.38.16h0c.11.07.22.18.29.32h0c.07.14.09.28.09.4h0c0,.16-.03.29-.06.45h0s-.57,2.5-.57,2.5l-.03.09c-.07.16-.19.31-.34.4h0c-.15.09-.32.13-.48.13h-49.77c-.17,0-.34-.04-.48-.13h0ZM66.38,40.42h0s0,0,0,0h0ZM72.44,40.4h43.64l.54-2.38c.02-.09.03-.16.03-.21h0s-.08,0-.16,0h0c-.05,0-.11,0-.18,0h-44.98c-.22-.01-.43-.11-.58-.26h0s-.06-.07-.09-.12h0l-7.2-13.66.42-.22.4.26-.4-.26-.42.22c-.08-.15-.07-.34.02-.48h0l6.78-10.36c.05-.11.09-.19.11-.24h0c.02-.06.02-.07.02-.07h0s0,0,0-.02h0s-.05,0-.1,0h-5.55l-.02.04-3.48,5.27c-.09.14-.25.22-.41.21h0c-.16,0-.31-.1-.4-.24h0l-2.97-5.27v-.03s-.02,0-.02,0h0s-5.51,0-5.51,0c-.04,0-.07,0-.09,0h0s.02.07.04.12h0c.03.08.06.16.09.24h0l5.58,10.31c.08.15.07.34-.02.48h0l-6.75,10.34c-.03.08-.07.16-.09.22h0s-.03.09-.04.12h0s.05,0,.09,0h5.5l.02-.04,3.5-5.27c.09-.14.25-.22.42-.21h0c.17,0,.32.11.39.26h0l5.69,11.05v.02s.09.17.09.17h6.08ZM70.39,12.6h0ZM51.81,12.6h0s0,0,0,0h0Z"/>
  </g>
  <path class="st3" d="M91.65,34.73c.31,0,.47-.15.53-.47l2.17-12.39c.05-.31.14-.6.26-.88h0c.63-1.44,2.09-2.44,3.72-2.44.99,0,1.34.43,1.63.43.01,0,.02,0,.03,0,.23-.01.48-.2.54-.52l.84-4.78c.04-.24-.07-.43-.3-.47-.36-.09-.83-.14-1.3-.14-1.52,0-3.28.9-3.84,1.42-.11.09-.16.14-.36.14s-.34-.19-.29-.47l.11-.66c.07-.38-.07-.43-.4-.43h-4.02c-.33,0-.5.14-.56.47l-.03.15h0l-3.59,20.57c-.06.33.06.47.39.47h4.44s.02,0,.03,0h0Z"/>
  <path class="st3" d="M86.73,12.62c-.06-.02-.12-.03-.2-.03h-3.12c-.33,0-.45-.14-.39-.47l.54-3.12c.06-.33-.06-.47-.39-.47h-3.7c-.33,0-.5.14-.56.47l-.05.26h0s-.13.73-.13.73l-.4,2.13c-.06.32-.22.46-.53.47,0,0-.02,0-.03,0h-3.12c-.33,0-.5.14-.56.47l-.03.16h0l-.72,3.87c-.02.09-.02.17,0,.23h0c.03.16.15.24.39.24h2.47s.06,0,.09.01h0c.25.03.35.17.3.46l-1.45,8.33c-.6,3.45.62,6.2,3.65,7.52,1.32.57,2.97.85,3.87.85,0,0,.02,0,.03,0h0c.27-.01.47-.15.53-.47l.71-4.07c.05-.29-.06-.47-.34-.47-2.43-.19-3.35-1.65-3.06-3.36l1.37-7.8.09-.53c.06-.33.23-.47.56-.47h3.12s.02,0,.03,0c.3,0,.47-.15.52-.47,0,0,.7-4.03.7-4.03.08-.44-.19-.44-.19-.44Z"/>
  <path class="st3" d="M44.9,19.83c-.04.23-.26.42-.6.42h-5.63c-.33,0-.49-.19-.44-.42,0-.05.02-.1.05-.16.27-.76,1.64-2.58,3.79-2.58,2.37,0,2.93,2.17,2.83,2.74M37.14,25.79l.09-.53c.06-.33.23-.47.56-.47h11.26s.02,0,.03,0h0c.31-.01.47-.15.52-.47l.67-3.83c.69-3.92-1.99-8.37-7.33-8.37-4.19,0-7.69,2.69-9.36,5.74h0c-.48.87-.8,1.76-.95,2.63l-1.03,5.87c-.86,4.92,1.99,8.37,7.38,8.37,4.12,0,6.5-1.75,8.39-4.16.12-.15.23-.3.34-.44,0-.03,0-.06,0-.09,0,.03,0,.06,0,.09.33-.45.59-.84.62-.98.03-.14-.05-.28-.22-.38l-3.24-1.75c-.35-.19-.61-.33-.75-.33s-.3.09-.43.28c-1.21,2.03-2.62,2.79-3.84,2.79-1.94,0-3.13-1.56-2.81-3.41l.1-.56Z"/>
  <path class="st0" d="M63.88,23.09l6.79-10.38c.15-.3.22-.45.18-.65-.04-.25-.22-.4-.57-.4h-5.56c-.2,0-.33.1-.4.25l-3.48,5.27-2.97-5.27s-.04-.07-.07-.1c-.07-.11-.18-.17-.31-.17h-5.56c-.35,0-.53.15-.57.4-.02.09.02.22.07.36.03.09.07.19.11.29l5.59,10.32-6.77,10.38c-.04.1-.08.19-.11.29-.05.14-.08.27-.07.36.05.25.22.4.57.4h5.56c.15,0,.28-.1.35-.25l3.49-5.27,5.69,11.05.09.2s0,.01.01.02c.08.14.2.23.39.23h49.77c.17,0,.31-.08.4-.26l.57-2.49c.07-.37.09-.54-.12-.68-.17-.12-.33-.11-.66-.1h-44.93c-.12,0-.21-.05-.28-.12l-7.2-13.66Z"/>
  <path class="st3" d="M145.17,27.46h.56c-6.99,0-13.16,3.47-16.91,8.77-.19.29-1.21,1.81-1.37,1.91-3.79,4.71-9.61,7.73-16.13,7.73H41.01c-6.58,0-12.45-3.07-16.24-7.86-.14-.09-1.01-1.39-1.08-1.5-3.73-5.46-10-9.04-17.11-9.04h-.12s-3,0-3,0c0,0-.1,1.37,0,11.51.1,10.14,9.89,9.2,9.89,9.2l124.02-.12s11.39.12,11.39-9.07c0-6.76,0-11.51,0-11.51h-3.6Z"/>
  <path class="st4" d="M137.73,2.19c-32.86.13-115.03.14-124.02-.02C2.32,1.96,3.46,10.86,3.46,10.86v12.01h3.13c7.13,0,13.41-3.6,17.13-9.08.06-.1,1.02-1.54,1.21-1.65,3.8-4.68,9.59-7.67,16.08-7.67h70.31c6.51,0,12.31,3,16.11,7.7.16.09,1.21,1.64,1.4,1.95,3.75,5.29,9.91,8.74,16.88,8.75h3.06v-10.94s.7-9.79-11.04-9.74Z"/>
  <g>
    <path class="st3" d="M113.33,28.7c-.75.88-1.93,1.53-3.01,1.53h-1.8c-.76,0-1.17-.62-1.04-1.37l.12-.7h0c.13-.72.8-1.33,1.51-1.33h5.02l-.13.76c-.14.39-.37.77-.67,1.11ZM117.61,35.19c.31,0,.47-.15.53-.47l2.33-13.34c.86-4.92-2-8.33-7.39-8.33-3.64,0-6,1.33-7.92,3.6-.59.71-1.27,1.64-1.32,1.89h0c-.03.14.05.24.22.33l3.26,1.89c.17.09.34.23.53.23.14,0,.3-.09.43-.29,1.48-1.99,2.79-2.7,3.92-2.7,1.94,0,3.21,1.37,2.89,3.22l-.1.57c-.05.27-.21.46-.53.47,0,0-.02,0-.03,0h-4.54c-2.96,0-5.11,1.55-6.45,4.11-.36.68-.62,1.42-.76,2.23l-.04.24c-.66,3.78,1.25,6.34,4.99,6.34h1.8c.9,0,1.89-.28,3.03-.85.16-.1.31-.14.45-.14.23,0,.29.23.22.61-.05.28.08.38.41.38h4.02s.02,0,.03,0Z"/>
    <path class="st2" d="M117.59,35.67h-4.02c-.14,0-.27,0-.42-.06h0c-.15-.05-.32-.17-.4-.35h0c-.06-.12-.07-.23-.07-.33h0c0-.05,0-.1.01-.15h0c-1.17.59-2.24.89-3.23.9h-1.8c-1.72,0-3.13-.51-4.11-1.47h0c-.98-.96-1.49-2.33-1.49-3.92h0c0-.48.05-.98.14-1.51h0l.04-.23c.15-.86.42-1.65.81-2.37h0c.7-1.34,1.62-2.44,2.78-3.19h0c1.15-.76,2.53-1.17,4.09-1.17h4.51s.03,0,.04,0h0s.05,0,.06,0h0s0,0,0,0h0s.01-.03.02-.06h0l.1-.57c.03-.17.04-.33.04-.48h0c0-.66-.24-1.18-.66-1.56h0c-.42-.38-1.03-.62-1.8-.62h0c-.47,0-.98.14-1.58.53h0c-.59.38-1.25,1.01-1.96,1.97h0c-.18.27-.46.48-.82.48h0c-.22,0-.38-.08-.5-.14h0c-.12-.06-.2-.12-.26-.15h-.01s-3.26-1.9-3.26-1.9c-.1-.06-.21-.12-.3-.23h0c-.1-.11-.18-.29-.17-.46h0c0-.05,0-.1.01-.14h0c.05-.2.11-.3.2-.46h0c.09-.15.2-.32.33-.5h0c.26-.37.58-.78.89-1.15h0c1.97-2.35,4.52-3.78,8.28-3.76h0c2.46,0,4.47.69,5.87,1.95h0c1.4,1.26,2.14,3.07,2.14,5.18h0c0,.57-.05,1.15-.16,1.76h0l-2.33,13.34c-.04.22-.13.45-.32.62h0c-.19.17-.43.23-.64.24h0s-.03,0-.05,0h0ZM117.62,35.31v-.12s0,.1,0,.1v.02h0ZM117.57,34.72s.02,0,.03,0h0s.05,0,.06,0h0s.01-.04.02-.07h0l2.33-13.34c.1-.56.14-1.09.14-1.6h0c0-1.89-.65-3.4-1.83-4.47h0c-1.19-1.07-2.94-1.7-5.23-1.7h0c-3.53.01-5.7,1.24-7.55,3.43h0c-.27.32-.56.7-.8,1.02h0c-.15.2-.28.4-.35.53h0l3.18,1.85c.14.08.23.14.28.17h0s.04-.04.06-.07h0c.76-1.04,1.5-1.75,2.21-2.22h0c.71-.47,1.42-.68,2.09-.68h0c.97,0,1.82.31,2.44.87h0c.62.56.97,1.36.97,2.26h0c0,.21-.02.43-.06.64h0l-.1.57c-.03.21-.13.43-.3.6h0c-.17.16-.41.25-.64.26h0s-.05,0-.07,0h-4.54c-1.4,0-2.57.36-3.57,1.02h0c-1,.66-1.82,1.62-2.46,2.85h0c-.34.63-.58,1.33-.71,2.09h0l-.04.23c-.08.47-.12.92-.12,1.34h0c0,1.4.43,2.49,1.2,3.24h0c.77.75,1.92,1.2,3.45,1.2h1.8c.79,0,1.72-.25,2.81-.79h0c.21-.12.44-.2.68-.2h0c.2-.01.46.11.58.3h0c.12.19.14.36.14.52h0c0,.06,0,.11,0,.17h3.92ZM107.4,30.24c-.27-.3-.41-.69-.41-1.1h0c0-.12.01-.24.03-.36h0l.12-.7h0c.09-.48.34-.9.69-1.21h0c.35-.31.79-.51,1.29-.51h5.02c.14,0,.27.06.36.17h0c.09.11.13.25.1.39h0l-.13.76-.02.08c-.16.45-.42.88-.76,1.27h0c-.84.96-2.09,1.69-3.37,1.7h-1.81c-.44,0-.84-.17-1.11-.47h0ZM108.07,28.23l-.12.71c-.01.07-.02.13-.02.19h0c0,.21.07.36.16.46h0c.09.1.21.16.43.16h1.8c.89,0,1.99-.58,2.65-1.37h0l.36.31-.36-.31c.26-.3.45-.62.57-.93h0l.03-.16h-4.45c-.21,0-.46.1-.66.28h0c-.2.18-.34.42-.38.65h0Z"/>
  </g>
  <path class="st3" d="M113.33,28.23c-.75.88-1.93,1.53-3.01,1.53h-1.8c-.76,0-1.17-.62-1.04-1.37l.12-.7h0c.13-.72.8-1.33,1.51-1.33h5.02l-.13.76c-.14.39-.37.77-.67,1.12ZM117.61,34.73c.31,0,.47-.15.53-.47l2.33-13.34c.86-4.92-2-8.33-7.39-8.33-3.64,0-6,1.32-7.92,3.6-.59.71-1.27,1.64-1.32,1.89h0c-.03.14.05.24.22.34l3.26,1.89c.17.09.34.23.53.23.14,0,.3-.09.43-.28,1.48-1.99,2.79-2.7,3.92-2.7,1.94,0,3.21,1.37,2.89,3.22l-.1.57c-.05.27-.21.46-.53.47,0,0-.02,0-.03,0h-4.54c-2.96,0-5.67,1.55-7.02,4.11-.36.68-.62,1.42-.76,2.23l-.04.24c-.66,3.78,1.82,6.34,5.56,6.34h1.8c.9,0,1.89-.28,3.03-.85.16-.1.31-.14.45-.14.23,0,.29.23.22.61-.05.28.08.38.41.38h4.02s.02,0,.03,0Z"/>
  <g>
    <path class="st5" d="M122.78,34.28c0,.7-.57,1.28-1.28,1.28s-1.28-.57-1.28-1.28.57-1.28,1.28-1.28c.7,0,1.28.57,1.28,1.28Z"/>
    <path class="st4" d="M121.54,32.85c.83,0,1.48.65,1.48,1.45s-.65,1.46-1.49,1.46-1.49-.64-1.49-1.46.66-1.45,1.49-1.45h0ZM121.52,33.14c-.64,0-1.11.52-1.11,1.16s.48,1.16,1.13,1.16c.64,0,1.11-.51,1.11-1.16s-.47-1.16-1.11-1.16h0ZM121.3,35.05h-.34v-1.44c.13-.03.32-.05.56-.05.27,0,.4.04.5.11.08.06.14.18.14.31,0,.17-.12.29-.3.35v.02c.14.04.22.16.27.35.04.22.07.31.11.35h-.36c-.04-.05-.07-.18-.11-.35-.03-.16-.12-.23-.3-.23h-.16v.57h0ZM121.31,34.24h.16c.19,0,.34-.06.34-.21,0-.13-.1-.22-.31-.22-.09,0-.15,0-.19.02v.42Z"/>
  </g>
</svg>