<?xml version="1.0" encoding="UTF-8"?>
<svg id="Layer_1" xmlns="http://www.w3.org/2000/svg" version="1.1" viewBox="0 0 88.3 50">
  <!-- Generator: Adobe Illustrator 29.8.4, SVG Export Plug-In . SVG Version: 2.1.1 Build 6)  -->
  <defs>
    <style>
      .st0, .st1 {
        fill: #0e4d93;
      }

      .st2, .st3 {
        fill: #fff;
      }

      .st3, .st4, .st1 {
        fill-rule: evenodd;
      }

      .st4, .st5 {
        fill: #e12726;
      }

      .st6 {
        fill: #0b4f90;
      }
    </style>
  </defs>
  <g id="Layer_2">
    <path class="st2" d="M31.29,43.73c-.09,0-.17,0-.27,0-.77.07-1.47.5-1.9,1.15l.1-.42.17-.69h-1.66l-.1.42-.35,1.41v.04c-.11.63-.37,1.39-1.01,1.39-.21,0-.28-.06-.28-.27.03-.27.08-.54.15-.81l.36-1.5.16-.68h-3.27l-.09.19c-.27-.16-.62-.25-1.1-.25h-.28c-1.16.13-2.34,1.12-2.34,2.76,0,1.25.81,2.05,2.07,2.05.14,0,.29,0,.43-.03h.03l-.2.79-.17.69h1.67l.1-.42,1.01-4.13.04-.16c.06-.26.13-.52.21-.77l.1-.29-.36,1.48v.04c-.02.1-.04.2-.07.31-.07.26-.11.53-.12.8,0,1,.75,1.69,1.82,1.69.2,0,.4-.03.6-.08v.02h1.61l.06-.49c.04-.27.09-.53.16-.79.03-.14.07-.28.09-.42.14,1.08,1,1.76,2.27,1.76h.14c.42-.01.84-.1,1.24-.24l.33-.12.03-.35.03-.42.05-.6h.41l.09-.44c.07-.29.11-.58.12-.87-.01-1.03-.86-1.76-2.08-1.76ZM22.74,45.76c0,.44-.27,1.16-.86,1.27-.06.01-.12.02-.18.02-.23,0-.47-.07-.47-.55,0-.43.22-1.16.83-1.26h.04s.08,0,.13,0c.33,0,.52.2.52.53h0ZM30.88,45.33c.08-.05.17-.08.27-.09.05,0,.09,0,.14,0,.12,0,.24.03.34.1h-.75,0ZM31.96,46.86c-.29.12-.59.19-.9.2h-.07c-.37,0-.54-.11-.61-.24h1.7l-.11.04Z"/>
    <path class="st2" d="M39.76,46.78l.57-2.3.17-.69h-1.67l-.1.42-.35,1.41v.04c-.09.52-.34,1.39-1.02,1.39-.19,0-.27-.04-.27-.28.02-.27.06-.54.14-.8l.37-1.5.17-.69h-1.66l-.1.42-.37,1.5v.02s0,.02,0,.02c-.02.1-.04.19-.06.29-.07.27-.1.55-.11.83,0,1,.75,1.69,1.82,1.69.19,0,.38-.02.56-.07h0s1.63,0,1.63,0l.05-.5c.04-.28.09-.55.16-.82.03-.13.06-.26.09-.4Z"/>
    <path class="st2" d="M16.2,43.66c-1.42,0-2.09.61-2.29,1.26-.14-.51-.53-.9-1.09-1.11l.66-.75.81-.92h-2.63l-.16.26-.59.95-.04.05-.26.36c-.13.02-.25.05-.38.08l-.33.09-.07.33-.17.78-.14.64c-.09.07-.18.15-.26.23l.67-2.77.17-.69h-2.91l-.16.25-1.41,2.2-.25-1.97-.06-.49h-2.78l-.1.43-1.21,4.94-.17.68h2.23l.1-.42.32-1.29.17,1.24.07.48h1.82l.16-.26.79-1.24-.2.82-.17.68h2.3l.1-.42.17-.68c.19.71.86,1.16,1.8,1.16.21,0,.43-.03.64-.08v.02h2l.07-.3.14.07c.55.27,1.17.3,1.59.3,1.47,0,2.41-.69,2.41-1.76,0-.66-.41-1.05-.82-1.29.08.02.16.05.26.09l.53.19.18-.54.24-.7.19-.55-.57-.16c-.44-.13-.91-.19-1.37-.18ZM14.81,46.72c-.18-.04-.35-.11-.51-.2l-.49-.26c.04-.21.07-.37.1-.49.15.47.56.76.9.95Z"/>
    <path class="st2" d="M86.59,48.4l.32-.35c.12-.19.18-.41.19-.63-.02-.71-.6-1.27-1.31-1.26-.2,0-.39.04-.57.13v-.07s.05-.15.05-.15c.06-.24.1-.48.1-.72,0-1.02-.86-1.7-2.14-1.7-.15,0-.29,0-.43.02h-.06c-.37.02-.75.08-1.11.17l-.33.09-.07.33-.16.78-.14.64c-.06.05-.13.1-.18.16l.34-1.41.06-.25h0l.11-.42.23-.9.18-.69h-2.29l-.11.42-.22.9-.11.44-.13-.04c-.41-.12-.84-.18-1.27-.17-1.19,0-2.15.52-2.65,1.35-.15-.85-.96-1.41-2.11-1.41-.16,0-.32,0-.47.02h-.03c-.37.02-.74.08-1.1.17l-.33.09-.07.33-.16.78-.13.64s-.09.07-.14.11c.04-.17.07-.34.07-.51,0-.93-.75-1.6-1.78-1.6-.47,0-.92.13-1.3.4-.29-.25-.71-.4-1.22-.4-.19,0-.38.02-.56.06h-2.1c-.13-.03-.26-.04-.4-.04-.18,0-.36.02-.54.06v-.02h-2.17l-.07.47c-.06.39-.09.57-.21,1.08l-.18.71c.06-.22.08-.44.09-.66,0-1.17-1.08-1.7-2.15-1.7-.16,0-.32.01-.46.02h-.02c-.37.02-.75.08-1.11.17l-.18.04.18-.75.16-.68h-4.29l-.1.42-1.21,4.94-.17.7h2.3l.1-.42.41-1.71h1.53c-.08.2-.12.41-.12.63,0,.92.76,1.56,1.84,1.56.23,0,.45-.03.67-.08v.02h4.14l.1-.42.36-1.47c.21-.87.49-.94.83-.94.06,0,.13,0,.19.02l.06.02-.48,2.11-.16.68h2.2l.1-.43.4-1.67c.17-.69.38-.82.5-.84-.02.14-.06.33-.09.47l-.44,1.79-.17.68h2.24l.1-.43.36-1.52c.16-.64.33-.95.57-1-.02.14-.05.27-.09.4-.02.07-.04.15-.05.22l-.4,1.64-.17.68h2.24l.1-.42.11-.45c.26.57.9.93,1.72.93.21,0,.41-.02.62-.07h0s2.06.01,2.06.01l.07-.47c.03-.23.08-.47.14-.73l.07-.28c.26.92,1.11,1.51,2.29,1.51.34,0,.68-.05,1.01-.14l-.03.11h2.24l.1-.42.14-.57c.23.64.89,1.06,1.76,1.06.21,0,.41-.02.61-.07h0s2.08,0,2.08,0l.03-.24s.07.06.1.09v.05h.06c.48.36,1.14.36,1.61,0h0ZM78.4,46.23l-.62.29c-.19.09-.4.14-.62.14-.43,0-.43-.22-.43-.3,0-.44.35-.81.79-.82.02,0,.04,0,.06,0,.18,0,.36.03.52.11l.39.2-.09.38ZM55.54,45.66h0s.04-.15.04-.15l-.03.15ZM55.78,44.48h-1.88l.04-.14h1.87l-.03.14Z"/>
    <path class="st2" d="M46.89,43.73c-.17,0-.34,0-.5.02-.3.04-.6.1-.89.19l-.33.1-.06.35-.07.48-.12.83c-.11.08-.21.16-.3.26.05-.21.07-.41.08-.63,0-.96-.73-1.6-1.82-1.6-.22,0-.44.02-.65.07v-.02h-1.6l-.09.44-.08.38c-.04.22-.09.44-.13.65l-.62,2.55-.17.68h1.66l.1-.42.39-1.62c.31-1.22.85-1.22,1.06-1.22.27,0,.27.1.27.17-.02.31-.07.62-.16.92l-.05.18-.32,1.31-.16.68h1.67l.1-.42.16-.65c.19.67.86,1.12,1.75,1.12.19,0,.38-.01.57-.06.05,0,.1-.02.15-.04v.04h1.53l.05-.49c.03-.34.09-.67.17-1v-.05s.19-.73.19-.73c.08-.29.12-.59.13-.9,0-.93-.79-1.59-1.92-1.59ZM46.53,46.7c.11,0,.21-.02.3-.02-.1.17-.28.3-.48.33h-.03c-.06.01-.13.02-.19.02-.1,0-.19-.01-.28-.06.02-.13.37-.23.68-.27h0Z"/>
    <path class="st0" d="M42.87,44.29c-.63,0-1.04.2-1.41.7.07-.21.11-.42.14-.64h-.52c-.07.34-.14.7-.21,1.04l-.62,2.55h.53l.39-1.62c.19-.72.59-1.64,1.6-1.64.51,0,.83.28.83.72,0,.41-.13.84-.22,1.23l-.32,1.31h.53l.34-1.4c.18-.71.23-.99.23-1.21,0-.65-.48-1.04-1.27-1.04Z"/>
    <polygon class="st0" points="12.16 43.72 13.07 42.69 11.98 42.69 11.37 43.65 11.33 43.72 11.37 43.72 12.16 43.72"/>
    <path class="st0" d="M31.29,44.29c-.08,0-.15,0-.22,0-1.19.12-1.87,1.21-1.87,2.19s.65,1.52,1.73,1.52h.14c.36-.01.71-.08,1.04-.21l.03-.42c-.34.14-.71.22-1.08.23h-.09c-.78,0-1.23-.4-1.23-1.11,0-.08.01-.16.03-.24h2.92c.06-.25.1-.5.1-.76,0-.72-.61-1.21-1.52-1.21ZM32.24,45.88h-2.39c.18-.66.64-1.11,1.22-1.19.07-.01.15-.01.22-.01.58,0,1,.35,1,.86,0,.12-.02.23-.05.34Z"/>
    <path class="st0" d="M38.92,45.76c-.13.74-.51,1.85-1.57,1.85-.52,0-.82-.31-.82-.84.02-.31.07-.62.15-.93l.37-1.5h-.52l-.37,1.5c-.06.33-.17.66-.17,1.03,0,.68.49,1.13,1.27,1.13.59,0,1.09-.27,1.35-.74h.04c-.09.22-.15.45-.18.68h.49c.05-.43.17-.85.26-1.28l.58-2.31h-.53l-.35,1.41Z"/>
    <path class="st0" d="M27.82,45.76c-.12.74-.5,1.85-1.55,1.85-.52,0-.84-.31-.84-.84,0-.22.05-.42.17-.93l.36-1.5h-.53l-.36,1.5c-.05.33-.18.66-.18,1.03,0,.68.5,1.13,1.27,1.13.6,0,1.1-.27,1.37-.74h.02c-.09.22-.14.45-.16.68h.49c.05-.43.17-.85.26-1.28l.57-2.31h-.53l-.35,1.41Z"/>
    <path class="st0" d="M11.84,44.2c-.16,0-.31.01-.46.02-.34.02-.67.07-1,.16l-.17.78c.37-.17.76-.27,1.17-.29h.16c.57,0,.89.22.89.61,0,.07,0,.14-.02.22-.24,0-.46-.01-.69-.01-.11,0-.22,0-.33.01-.92.05-1.97.35-1.97,1.31,0,.62.51,1.01,1.3,1.01.23,0,.45-.04.66-.11.3-.11.57-.3.76-.56,0,.02-.01.04-.01.05-.09.16-.09.37-.12.55h.9c.1-.44.52-2.4.52-2.6,0-.7-.61-1.14-1.58-1.14ZM11.37,47.31c-.11.03-.22.04-.33.05-.33,0-.55-.17-.55-.43,0-.43.43-.6.89-.66.17-.02.35-.03.53-.03h.36c-.11.57-.44.95-.89,1.07h0Z"/>
    <path class="st0" d="M14.4,45.36c0,.91,1.48,1.01,1.48,1.51,0,.27-.31.44-.75.44-.38-.01-.76-.11-1.09-.3l-.25.75c.4.2.89.24,1.34.24,1.13,0,1.86-.46,1.86-1.21,0-.97-1.49-1-1.49-1.48,0-.26.31-.42.83-.42.29,0,.58.07.85.18l.24-.7c-.4-.12-.81-.17-1.22-.17-1.11,0-1.8.44-1.8,1.16Z"/>
    <path class="st0" d="M23.55,45.12c-.3-.58-.54-.83-1.35-.83-.07,0-.14,0-.22,0-1.21.13-1.84,1.22-1.84,2.22,0,.94.57,1.5,1.51,1.5.11,0,.22,0,.33-.02.41-.06.78-.3,1-.65h.03c-.06.19-.24.66-.24.84l-.31,1.28h.53l1.01-4.13c.07-.33.16-.66.26-.98h-.51c-.1.25-.17.5-.2.77ZM21.98,47.58c-.09.02-.19.03-.28.03-.64,0-1.02-.41-1.02-1.11,0-.73.41-1.67,1.3-1.81.08-.01.16-.02.24-.02.63,0,1.07.44,1.07,1.09,0,.72-.45,1.66-1.31,1.82h0Z"/>
    <path class="st0" d="M7.51,43.01l-1.62,2.51c-.26.38-.48.8-.63,1.23h-.05c0-.5-.03-.99-.1-1.48l-.28-2.26h-1.85l-1.2,4.93h1.09l1.01-4.14h.06c.02.48.06.96.13,1.44l.37,2.7h1.02l2.33-3.68c.1-.15.19-.3.27-.46h.07c-.12.43-.33.85-.39,1.29l-.69,2.85h1.15l1.2-4.94h-1.9Z"/>
    <path class="st0" d="M83.22,44.2c-.15,0-.3.01-.46.02-.34.02-.68.07-1,.16l-.16.78c.37-.17.76-.27,1.17-.29h.16c.57,0,.89.22.89.61,0,.07,0,.14-.02.22-.22,0-.45-.01-.68-.01-.11,0-.23,0-.34.01-.93.05-1.97.35-1.97,1.31,0,.62.52,1.01,1.3,1.01.23,0,.46-.04.67-.11.3-.11.57-.3.76-.56,0,.02,0,.04,0,.05-.08.16-.09.37-.13.55h.91c.03-.26.08-.52.15-.78l.24-1.07c.09-.44.12-.55.12-.75,0-.69-.62-1.14-1.59-1.14ZM82.77,47.31c-.1.03-.21.04-.32.05-.33,0-.57-.17-.57-.43,0-.43.45-.6.89-.66.18-.02.35-.03.53-.03h.35c-.11.57-.43.95-.88,1.07Z"/>
    <polygon class="st0" points="78.56 47.94 79.66 47.94 80.54 44.29 79.43 44.29 78.56 47.94"/>
    <polygon class="st0" points="79.79 42.72 79.57 43.61 80.71 43.61 80.94 42.72 79.79 42.72"/>
    <path class="st0" d="M77.59,44.99c.27,0,.53.05.77.18l.28-.76c-.36-.11-.73-.15-1.11-.15-1.44,0-2.46.88-2.46,2.14,0,.95.7,1.56,1.81,1.56.35,0,.7-.06,1.03-.16l.11-.78c-.27.13-.56.19-.85.19-.6,0-.98-.33-.98-.85-.01-.75.58-1.37,1.33-1.38.02,0,.04,0,.07,0Z"/>
    <path class="st0" d="M86,47.35s.06-.1.06-.16c0-.05-.01-.09-.04-.13-.04-.05-.11-.08-.17-.08h-.37v.86h.12v-.44s.09,0,.14,0l.03.05.24.4h.13l-.27-.44c.05,0,.1-.02.14-.06ZM85.76,47.3h-.17v-.21h.25c.05,0,.1.04.1.09,0,0,0,.01,0,.02,0,.06-.02.08-.11.1h-.06Z"/>
    <path class="st0" d="M85.78,46.71c-.39.03-.68.37-.65.76.03.39.37.68.76.65.37-.03.65-.33.65-.7-.02-.4-.36-.72-.76-.7ZM85.78,48.04c-.35-.03-.61-.33-.58-.67.03-.35.33-.61.67-.58.33.02.58.3.58.63-.01.36-.31.64-.67.63Z"/>
    <polygon class="st0" points="53.5 43.78 55.51 43.78 55.69 43.01 52.54 43.01 51.33 47.94 52.49 47.94 53 45.81 54.93 45.81 55.11 45.03 53.19 45.03 53.5 43.78"/>
    <path class="st0" d="M57.82,44.2c-.15,0-.3.01-.44.02-.34.02-.68.07-1.01.16l-.16.78c.37-.17.76-.27,1.17-.29h.16c.56,0,.88.22.88.61,0,.07,0,.14-.01.22-.23,0-.46-.01-.69-.01-.11,0-.22,0-.33.01-.94.05-1.97.35-1.97,1.31,0,.62.51,1.01,1.29,1.01.23,0,.46-.04.68-.11.3-.11.57-.3.76-.56,0,.02-.01.04-.01.05-.07.18-.11.36-.12.55h.89c.05-.26.1-.52.16-.78l.24-1.07c.1-.44.12-.55.12-.75,0-.69-.61-1.14-1.59-1.14ZM57.38,47.31c-.11.03-.22.04-.33.05-.33,0-.55-.17-.55-.43,0-.43.44-.6.89-.66.18-.02.35-.03.53-.03h.36c-.12.57-.44.95-.89,1.07h0Z"/>
    <path class="st0" d="M72.77,44.2c-.16,0-.31.01-.46.02-.34.02-.67.07-1,.16l-.16.78c.37-.17.76-.27,1.16-.29h.16c.57,0,.89.22.89.61,0,.07,0,.15-.02.22-.22,0-.46-.01-.68-.01-.12,0-.23,0-.34.01-.92.05-1.96.35-1.96,1.31,0,.62.51,1.01,1.3,1.01.23,0,.45-.04.66-.11.31-.11.57-.3.76-.56,0,.02-.01.04-.01.05-.06.18-.1.37-.13.55h.91c.04-.26.09-.52.14-.78l.25-1.07c.09-.44.12-.55.12-.75,0-.69-.62-1.14-1.59-1.14ZM72.31,47.31c-.1.03-.21.04-.32.05-.33,0-.57-.17-.57-.43,0-.43.45-.6.89-.66.18-.02.36-.03.54-.03h.35c-.11.57-.43.95-.89,1.07Z"/>
    <path class="st0" d="M46.89,44.29c-.14,0-.29,0-.43.02-.27.03-.54.09-.8.17l-.07.48c.28-.12.58-.21.88-.26.12-.02.24-.02.36-.02.57,0,.92.27.92.68,0,.13-.01.26-.04.38-.17-.02-.34-.02-.51-.02-.25,0-.49.01-.74.04-.84.1-1.7.4-1.7,1.25,0,.58.51.98,1.26.98.15,0,.3,0,.44-.04.36-.07.64-.26.94-.59-.03.2-.11.36-.11.58h.47c.04-.37.1-.74.19-1.11l.19-.75c.06-.25.1-.51.11-.76,0-.62-.55-1.03-1.36-1.03ZM46.46,47.56c-.11.03-.22.04-.33.04-.51,0-.84-.23-.84-.61,0-.55.59-.76,1.17-.84.27-.03.55-.04.76-.04.12,0,.26.01.4.01-.14.63-.43,1.29-1.16,1.43Z"/>
    <path class="st0" d="M68.62,44.23c-.58-.02-1.12.27-1.43.76-.02-.52-.52-.76-1.09-.76s-.95.19-1.25.59c0-.02,0-.04.02-.04.03-.16.06-.33.09-.49h-1.03c-.05.35-.13.7-.22,1.04l-.6,2.61h1.08l.4-1.68c.12-.49.37-1.27,1.11-1.27.31,0,.5.17.5.44-.02.24-.06.47-.11.7l-.44,1.8h1.09l.36-1.52c.13-.53.38-1.43,1.17-1.43.31,0,.5.16.5.42,0,.31-.1.6-.17.89l-.4,1.64h1.09l.39-1.62c0-.36.18-.7.18-1.05,0-.63-.5-1.04-1.23-1.04Z"/>
    <path class="st0" d="M63.39,44.29c-.11-.03-.23-.04-.34-.04-.58,0-.98.22-1.33.76.03-.24.11-.48.14-.72h-1.05c-.06.42-.1.61-.21,1.12l-.62,2.53h1.1l.36-1.47c.24-.96.64-1.36,1.37-1.36.13,0,.26.01.38.06l.21-.88Z"/>
    <path class="st2" d="M78.34,12.73c.05,0,.11.01.16.01.67,0,1.21-.5,1.21-1.11s-.54-1.11-1.21-1.11-1.21.49-1.21,1.11c0,.26.1.52.28.71-7.93-3.92-19.95-6.41-33.4-6.41C20.3,5.94.95,13.79.95,23.48s19.35,17.54,43.22,17.54,43.22-7.86,43.22-17.54c0-4.05-3.38-7.78-9.05-10.75Z"/>
    <path class="st4" d="M86.33,23.46c0,9.18-18.87,16.6-42.15,16.6S2.02,32.65,2.02,23.46,20.9,6.85,44.18,6.85s42.15,7.44,42.15,16.61Z"/>
    <path class="st4" d="M51.45,11.97l-.7-.68-.66.33.5.55-.82.3s-.74-.45-1.51-1.02-1.93-1.55-2.17-2.44c-.58-2.16.16-2.96,1.22-3.65,1.11-.75,3.14-.96,3.14-.96,0,0-1.11,1.56-.24,3.9.71,1.87,2.36,3.35,2.36,3.35l-1.13.31Z"/>
    <path class="st4" d="M58.54,9.25c-.08.44-.4,1.69-.4,1.69l-1.33.05-.3-.78-1,.05.28.7-1.58.26s-.83-.56-1.47-1.95c-.65-1.41-.84-3.01-.16-3.9.64-.81,1.45-1.48,3.41-1.08,1.75.36,2.28,1.35,2.5,2.15.36,1.27.12,2.35.04,2.81Z"/>
    <path class="st4" d="M65.97,11.03l-1.58-.15.28-.83-1-.06-.31.78-1.32-.04s-.33-1.25-.41-1.7-.31-1.53.05-2.8c.22-.78.75-1.79,2.5-2.14,1.95-.39,2.78.27,3.41,1.09.69.88.5,2.48-.15,3.89-.65,1.39-1.48,1.97-1.48,1.97Z"/>
    <path class="st4" d="M74.15,8.82c-.24.88-1.38,1.86-2.17,2.43s-1.53,1.03-1.53,1.03l-.8-.3.51-.54-.68-.34-.69.68-1.15-.3s1.64-1.48,2.37-3.36c.89-2.33-.25-3.89-.25-3.89,0,0,2.05.21,3.17.96,1.05.7,1.8,1.49,1.22,3.65Z"/>
    <path class="st3" d="M76.31,4.28c-.74-.76-1.84-1.24-3.2-1.37-.58-.06-1.37.03-2.13.13-1.07.14-2.02.35-2.02.35-.35-.27-.73-.49-1.13-.67-.48-.22-.99-.35-1.52-.39-.52-.03-1.04,0-1.55.11-.97.2-1.74.6-2.33.9-.89.45-1.92,1.41-1.92,1.41v-2.34h.8v-.95h-.85v-.78h-1.28v.71h-.81v1.01h.81v2.32s-1.57-1.19-2.4-1.61c-.44-.21-.9-.38-1.37-.51-.79-.22-1.64-.37-2.28-.3-.26.04-.52.1-.78.17-.59.19-1.13.51-1.59.93,0,0-.62-.2-1.54-.41-.26-.06-.55-.11-.86-.17-1.91-.35-3.45.32-4.09,1.09-.42.52-1.1,1.48-1.14,2.81v.18c0,.24.04.48.08.72.35,1.87,2.4,3.42,3.08,3.97.5.41,2.11,1.3,2.92,1.74l.47.25v1.84s.78.55,2.66,1.05c1,.26,2.02.45,3.05.57,1.5.18,3.01.25,4.51.22,1.62-.01,3.23-.12,4.83-.33,1.04-.13,2.06-.32,3.07-.58,1.7-.43,2.44-.85,2.44-.85l.02-1.88s.27-.13.69-.37c.79-.43,1.56-.91,2.3-1.42,1.5-1.07,2.81-2.29,3.41-3.85.22-.52.34-1.08.36-1.64v-.28c-.01-.67-.27-1.31-.74-1.79ZM52.36,11.72l-.92.24-.71-.68-.66.33.51.55-.81.31s-.22-.13-.54-.35c-.28-.18-.62-.41-.99-.67-.78-.57-1.91-1.55-2.15-2.44-.6-2.16.16-2.96,1.21-3.65.54-.36,1.3-.6,1.93-.74.4-.1.81-.17,1.22-.22,0,0-1.11,1.56-.23,3.89.55,1.47,1.66,2.69,2.14,3.15.07.08.14.15.22.21l-.22.07ZM58.53,9.25c-.07.44-.4,1.69-.4,1.69l-1.32.04-.3-.76-1,.05.28.7-.38.06-1.21.2s-.83-.56-1.48-1.95c-.15-.31-.27-.64-.37-.97-.27-.95-.31-1.89,0-2.57.06-.13.13-.25.22-.36.55-.73,1.27-1.34,2.82-1.17.19.01.38.04.57.08,1.75.36,2.28,1.35,2.5,2.15.36,1.26.13,2.34.05,2.81h0ZM65.96,11.03l-1.21-.12-.37-.03.27-.83-1.01-.06-.3.78-1.33-.04s-.31-1.25-.39-1.7-.31-1.53.04-2.8c.23-.8.75-1.79,2.51-2.14.21-.04.39-.07.58-.09,1.55-.16,2.27.44,2.83,1.18.09.12.17.25.24.39.28.67.25,1.56,0,2.46-.1.36-.23.71-.39,1.04-.65,1.38-1.47,1.97-1.47,1.97ZM74.13,8.82c-.24.89-1.38,1.87-2.16,2.44-.36.26-.71.5-1,.68-.32.21-.54.35-.54.35l-.8-.3.49-.54-.66-.34-.69.68-.94-.26-.2-.04.2-.18c.45-.45,1.59-1.68,2.16-3.18.89-2.33-.24-3.9-.24-3.9.41.05.82.12,1.23.22.65.15,1.4.38,1.93.75,1.05.69,1.81,1.49,1.22,3.65h0Z"/>
    <path class="st1" d="M78.69,11.59c.05-.05.08-.11.08-.18,0-.06-.02-.11-.05-.16-.05-.06-.13-.09-.21-.08h-.44v1.02h.14v-.53h.18l.03.07.29.47h.16l-.32-.54c.06,0,.11-.01.16-.05ZM78.42,11.53h-.21v-.25h.3c.08.01.12.05.12.14,0,.06-.05.1-.14.11h-.08Z"/>
    <path class="st1" d="M78.44,10.84c-.49,0-.9.37-.9.83s.4.83.9.83.91-.37.91-.83-.4-.83-.91-.83ZM78.44,12.41c-.42.01-.77-.32-.8-.74,0-.4.36-.73.8-.73s.81.33.81.73-.36.74-.81.74Z"/>
    <path class="st1" d="M57.92,5.11c-.39-.42-1-.77-1.92-.96-.21-.03-.41-.07-.6-.09-.71-.07-1.25.01-1.69.2-.56.23-.94.61-1.27,1.04,0,.01-.02.02-.02.04-.12.17-.22.36-.29.55-.13.37-.18.76-.15,1.15.01.35.06.69.15,1.03.07.31.17.61.29.9.05.13.11.25.16.37.66,1.42,1.52,2.01,1.52,2.01l.06.03h.06s1.18-.2,1.18-.2l.39-.07.18-.04-.07-.15-.21-.53.69-.04.26.68.04.09h.11l1.32-.06h.12l.02-.1s.32-1.24.4-1.7c0-.02.02-.07.02-.08.09-.49.29-1.56-.06-2.78-.12-.49-.36-.93-.7-1.3ZM58.39,9.15c-.02.06-.02.05-.02.08-.07.37-.28,1.27-.36,1.57l-1.11.05-.27-.66-.04-.11h-.11s-1,.06-1,.06h-.19s.06.18.06.18l.05.13.16.43-.16.03-1.16.19c-.19-.14-.85-.72-1.38-1.86-.2-.4-.35-.82-.44-1.26-.08-.3-.12-.61-.14-.92-.02-.36.03-.72.14-1.06.06-.19.15-.36.26-.52.31-.4.66-.74,1.15-.95.39-.16.9-.24,1.56-.16.17.01.35.05.54.08.84.17,1.38.48,1.75.86.31.33.53.74.65,1.18.32,1.16.14,2.18.05,2.67Z"/>
    <path class="st1" d="M52.42,11.32c-.08-.08-.18-.19-.29-.3-.54-.59-1.33-1.59-1.78-2.76-.85-2.26.22-3.77.22-3.78l.18-.24-.31.03c-.38.04-.77.11-1.14.2-.66.15-1.5.39-2.08.78-.55.36-1.02.75-1.28,1.34s-.31,1.34,0,2.46c.1.39.38.81.73,1.19.44.49.94.94,1.48,1.32.44.31.85.61,1.15.78.24.15.39.25.39.25l.06.04.08-.04.81-.3.2-.07-.14-.15-.38-.42.39-.2.62.6.07.06.08-.03.66-.17.29-.08.19-.05.25-.07-.18-.16s-.1-.09-.26-.25ZM52.14,11.64l-.65.17-.63-.62-.08-.08-.11.06-.66.32-.17.08.13.14.37.4-.55.21c-.09-.06-.25-.17-.48-.32-.26-.17-.61-.41-.95-.66-.53-.37-1.01-.79-1.45-1.27-.31-.35-.57-.74-.66-1.09-.28-1.05-.24-1.75,0-2.29.23-.52.66-.88,1.18-1.21.53-.36,1.29-.59,1.91-.73.36-.08.66-.14.87-.17-.28.55-.79,1.94-.1,3.77.53,1.38,1.54,2.55,2.07,3.1.06.06.11.11.15.15l-.15.06Z"/>
    <path class="st1" d="M77.18,5.86c-.05-.63-.32-1.22-.76-1.68-.41-.42-.89-.75-1.43-.97-.6-.24-1.23-.39-1.87-.44-.59-.06-1.42.02-2.21.13-.87.13-1.67.29-1.91.33-.3-.22-.63-.41-.97-.57-.09-.04-.18-.09-.28-.14-.46-.2-.94-.32-1.44-.36-.52-.03-1.05,0-1.57.11-.25.05-.5.12-.75.2-.57.2-1.12.44-1.65.72-.63.32-1.32.89-1.68,1.22v-1.88h.65s.15,0,.15,0v-1.21h-.86v-.79h-1.57v.72h-.83v1.28h.83v1.89c-.48-.35-1.55-1.12-2.17-1.43-.47-.22-.95-.4-1.45-.54-.19-.04-.36-.09-.54-.13-.62-.14-1.25-.22-1.75-.16-.23.03-.47.08-.69.15-.1.02-.19.05-.29.09-.52.19-.99.47-1.41.83-.21-.06-.73-.21-1.43-.37-.28-.05-.57-.13-.89-.19-.8-.15-1.63-.12-2.42.08-.82.22-1.46.63-1.83,1.07-.36.43-.66.92-.86,1.44-.19.46-.29.95-.31,1.45v.2c.02.24.04.49.09.73.35,1.82,2.21,3.32,3,3.95.04.04.08.07.12.11.54.44,2.35,1.42,3.1,1.83.11.05.21.1.26.13v1.83h.01v.05l.03-.02h0c.21.14.43.27.66.37.28.12.65.28,1.12.43.36.12.79.25,1.3.37.49.13.98.23,1.47.31.51.08,1.06.16,1.66.23.52.05,1.07.1,1.65.13.52.02,1.06.04,1.64.04.53,0,1.08,0,1.66-.02h.04c.56-.01,1.1-.05,1.61-.08.6-.04,1.16-.09,1.68-.15s.98-.13,1.43-.2l.19-.03h.04s.04-.01.04-.01c.75-.12,1.41-.26,1.96-.4.11-.03.2-.05.28-.07,1.61-.43,2.31-.83,2.31-.83l.08-.04v-.07l.02-1.81c.09-.04.25-.13.47-.25.85-.46,1.66-.96,2.45-1.52.74-.51,1.43-1.1,2.06-1.75.6-.62,1.07-1.35,1.39-2.15.31-.79.43-1.52.36-2.16ZM50.26,15.54l-.32-.17.32-.14.19-.08.14-.05v.6s-.32-.17-.32-.17ZM49.85,15.06v-1.38l.25-.08.35-.12v1.32l-.35.15-.25.11ZM51.82,16.17c-.33-.1-.63-.2-.88-.3v-.74s.44.16.44.16l.44.17v.71ZM50.79,14.69v-1.3l.46-.14.46-.15v1.3s-.45.14-.45.14l-.46.15ZM53.17,16.52c-.27-.06-.52-.12-.75-.18-.08-.02-.16-.04-.24-.07v-.76l.5.1.49.1v.8ZM54.77,16.81c-.45-.07-.87-.14-1.26-.22v-.8l.64.11.62.1v.81ZM56.5,16.99l-.69-.07-.67-.08v-.8l.67.07.69.06v.82ZM58.1,17.1c-.18,0-.36-.01-.53-.02h-.11s-.63-.05-.63-.05v-.84l.63.03.64.04v.85ZM59.76,17.11h-1.31v-.87s.64,0,.64,0l.66.02v.85ZM61.41,17.06l-.65.03-.63.02h-.03v-.89l.66-.02.65-.03v.88ZM63.06,16.95l-.65.05-.65.04v-.89l.65-.04.65-.03v.86ZM64.79,16.77l-.69.08-.69.08v-.86s.69-.07.69-.07l.69-.08v.86ZM66.37,16.49l-.62.12-.62.12v-.85s.62-.1.62-.1l.64-.09-.02.8ZM67.8,16.16l-.52.13-.54.13v-.8s.54-.13.54-.13l.53-.13v.8ZM67.28,15.19c-.45.1-.95.21-1.52.3-.51.08-1.06.16-1.65.23-.52.06-1.08.1-1.68.15-.53.04-1.07.05-1.65.08-.32.01-.64.01-.97.03h-.69c-.58,0-1.12-.01-1.64-.03-.59-.02-1.14-.05-1.65-.1-.6-.06-1.15-.13-1.66-.2-.55-.08-1.04-.17-1.47-.27-.44-.1-.87-.22-1.3-.36-.11-.03-.22-.08-.32-.11l.19-.06c.37-.12.81-.24,1.3-.37.45-.11.95-.21,1.5-.3.52-.09,1.07-.17,1.68-.24.52-.07,1.07-.12,1.66-.16.53-.04,1.09-.08,1.66-.08.29-.01.58-.01.88-.03h.82c.58,0,1.15.03,1.68.05.59.03,1.15.08,1.67.12.61.08,1.18.15,1.68.24.58.1,1.08.2,1.53.32.52.14.97.28,1.35.4h0c-.39.13-.84.25-1.38.39ZM52.05,14.33v-1.33l.51-.11.51-.11v1.3l-.51.12-.51.13ZM53.42,14v-1.32l.63-.1.64-.1v1.31l-.64.11-.63.1ZM55.05,13.75v-1.36l.68-.08.66-.09v1.38l-.66.07-.68.08ZM56.78,13.57v-1.4l.62-.04.62-.05v1.4l-.62.05-.62.04ZM58.4,13.45v-1.39h.66s.67-.03.67-.03v1.39h-.67s-.66.03-.66.03ZM60.07,13.42v-1.39h1.36s-.03,1.39-.03,1.39h-1.33ZM61.77,13.45v-1.4s.65.05.65.05l.66.05-.03,1.35-.64-.03-.65-.02ZM63.41,13.51v-1.34l.69.08.69.08v1.34l-.69-.08-.69-.08ZM65.17,12.39l.61.11.62.1v1.33l-.62-.1-.6-.1v-1.34ZM66.79,14.01v-1.31l.52.14.53.13v1.31l-.53-.13-.51-.13ZM69.03,15.8l-.9.29v-.81l.91-.28v.8ZM68.18,14.38v-1.33l.91.28v1.34s-.91-.29-.91-.29ZM69.35,15.62l.02-.61.74.37-.75.25ZM69.35,14.72l.05-1.3.77.32.03,1.34-.84-.36ZM76.54,7.93c-.32.77-.78,1.47-1.36,2.06-.61.64-1.28,1.21-2,1.72-.73.51-1.49.98-2.27,1.41-.43.23-.69.37-.7.37h0c-.2-.09-.54-.23-1.02-.4-.62-.21-1.25-.39-1.88-.53-.44-.12-.97-.22-1.53-.31-.52-.09-1.07-.18-1.68-.24-.52-.06-1.08-.1-1.67-.15-.53-.04-1.09-.06-1.68-.07-.28,0-.57-.01-.87-.01-.27,0-.55.01-.83.01-.56.02-1.12.05-1.66.09-.58.05-1.14.1-1.66.18-.59.08-1.15.18-1.68.27s-1.04.22-1.5.34c-.48.11-.92.22-1.3.34-.48.14-.87.27-1.15.38-.12.04-.21.08-.29.11h-.04c-.15-.11-.31-.2-.47-.27-.81-.44-2.4-1.31-2.9-1.71-.02-.02-.07-.06-.12-.1-.76-.61-2.58-2.07-2.9-3.79-.14-.74-.08-1.51.2-2.22.21-.5.48-.96.83-1.37.33-.39.92-.77,1.68-.98.74-.19,1.52-.21,2.27-.07.35.07.67.14.95.2.86.19,1.41.37,1.41.37l.1.03.07-.07c.37-.33.8-.6,1.27-.78.09-.04.18-.07.29-.11.24-.08.48-.13.73-.16.44-.04,1.05.02,1.64.15.2.05.42.11.61.16.45.13.88.29,1.3.48.81.42,2.37,1.58,2.39,1.59l.23.19v-2.75h-.81v-.74h.82v-.71h.76s.2-.01.2-.01v.79h.85v.66h-.64s-.15,0-.15,0v2.83l.27-.24s1.01-.94,1.87-1.38c.52-.29,1.06-.52,1.61-.72.21-.07.43-.13.64-.18.51-.11,1.03-.14,1.54-.11.51.04,1,.17,1.46.37.11.05.2.1.28.14.29.14.56.31.81.51l.07.06.07-.02s.91-.2,1.92-.33c.77-.11,1.6-.2,2.17-.13.61.05,1.21.19,1.78.43.5.21.95.51,1.33.9.4.41.64.94.69,1.51.05.6-.06,1.28-.35,2.04Z"/>
    <path class="st1" d="M67.76,8.71c.12-.3.21-.62.28-.93.07-.31.11-.62.13-.94.02-.37-.02-.74-.13-1.09-.06-.21-.15-.41-.28-.59-.01-.02-.03-.04-.05-.06-.33-.42-.71-.82-1.27-1.05-.54-.21-1.12-.27-1.69-.19-.21.02-.41.05-.61.09-.91.17-1.51.53-1.89.95-.35.36-.59.81-.72,1.29-.35,1.24-.15,2.28-.06,2.8,0,.02.01.06.01.07.08.46.39,1.7.4,1.7l.02.1h.12s1.32.06,1.32.06h.12l.04-.09.26-.66.69.03-.22.65-.04.16.18.02.38.04,1.19.11.11-.04s.87-.59,1.52-2.01c.06-.13.13-.27.18-.41ZM65.91,10.88l-1.16-.11-.17-.02.17-.51.04-.15.06-.18h-.19s-.99-.06-.99-.06h-.12l-.05.09-.25.67-1.11-.04c-.08-.31-.3-1.21-.37-1.58-.01-.04,0,0-.01-.08-.19-.88-.18-1.8.04-2.68.12-.44.35-.84.65-1.17.35-.37.9-.7,1.75-.87.19-.04.37-.06.54-.08.66-.07,1.16,0,1.57.17.49.21.84.57,1.15.96.13.17.23.37.29.58.09.32.13.66.11,1-.02.28-.05.56-.11.84-.11.47-.26.92-.47,1.35-.53,1.16-1.2,1.72-1.37,1.86h0Z"/>
    <path class="st1" d="M73,5.05c-.6-.39-1.42-.64-2.09-.79-.64-.14-1.14-.2-1.14-.2l-.32-.03.17.25s1.09,1.52.22,3.78c-.45,1.18-1.27,2.19-1.8,2.77-.11.13-.2.23-.28.32-.08.08-.16.15-.24.22l-.17.17.24.07.17.05.28.08.68.18.1.02.06-.06.62-.61.4.2-.4.43-.12.15.19.07.81.3.07.04.07-.05s.15-.09.39-.24c.3-.2.72-.47,1.15-.78.54-.39,1.04-.83,1.49-1.31.33-.39.61-.8.73-1.2.3-1.11.26-1.88,0-2.46s-.74-.97-1.28-1.33ZM73.98,8.78c-.09.35-.34.73-.66,1.08-.44.48-.92.91-1.44,1.29-.35.25-.69.48-.96.65-.23.15-.4.27-.49.31l-.54-.2.38-.42.11-.13-.16-.08-.68-.33-.09-.05-.09.08-.63.62-.68-.19-.12-.03s.08-.08.12-.13c.53-.53,1.55-1.71,2.09-3.12.7-1.83.18-3.21-.1-3.77.22.04.53.09.89.16.64.15,1.39.39,1.91.73s.94.7,1.18,1.22.27,1.25-.02,2.3Z"/>
    <path class="st2" d="M76.99,4.88c-.43-.98-1.33-1.72-2.58-2.16-.64-.22-1.42-.33-2.33-.33-1.07.01-2.13.14-3.17.36-.49-.41-1.43-.94-3.05-.96-1.46,0-2.77.5-3.79,1.06,0-.03,0-.06,0-.1v-1.4c-.01-.2-.12-.38-.29-.47-.17-.1-.37-.08-.55-.08v-.26C61.21.26,60.97.02,60.67,0h-1.45c-.11,0-.22.04-.31.11-.14.1-.23.27-.24.44v.26c-.17,0-.34,0-.51.05-.21.08-.34.28-.33.5v1.4s0,.06,0,.1c-1.02-.55-2.34-1.05-3.81-1.06-1.64.02-2.59.58-3.04.96-1.04-.23-2.11-.35-3.18-.36-.91,0-1.69.11-2.33.33-1.25.44-2.15,1.18-2.58,2.16-.44,1.01-.39,2.18.17,3.49.57,1.34,1.67,2.64,3.27,3.84.86.65,1.78,1.21,2.75,1.69v1.12s0,.28,0,.32c0,.08.03.16.08.22.19.21.44.34.91.57h.02c.3.14.66.29,1.15.45h.04c.36.12.78.26,1.25.37.46.12.96.22,1.49.31.5.08,1.05.16,1.65.22.54.05,1.09.1,1.64.13.47.02,1.03.04,1.61.04h.43c.36,0,.76,0,1.21-.02h.04c.55-.01,1.09-.05,1.59-.08.62-.04,1.19-.1,1.67-.15.46-.05.92-.12,1.4-.2.06,0,.13-.02.19-.03.02,0,.04,0,.06,0h.03c.7-.11,1.36-.25,1.97-.4.04-.01.08-.02.12-.03l.16-.04c.6-.15,1.18-.34,1.76-.57.18-.07.36-.15.54-.24.15-.06.28-.16.38-.28.1-.13.08-.38.08-.57v-1.03c1.06-.49,2.06-1.1,2.99-1.8,1.6-1.21,2.7-2.5,3.27-3.84.56-1.31.62-2.49.17-3.5ZM61.31,3.31l-.02.02v-.02h.02ZM58.61,3.31v.02l-.03-.02h.03Z"/>
    <polygon class="st2" points="69.68 15.13 68.95 15.37 68.96 14.78 69.68 15.13"/>
    <polygon class="st2" points="68.64 14.77 68.63 15.54 67.75 15.82 67.75 15.04 68.64 14.77"/>
    <polygon class="st2" points="67.43 15.11 67.43 15.88 66.92 16.01 66.39 16.13 66.4 15.36 66.92 15.24 67.43 15.11"/>
    <polygon class="st2" points="66.05 15.44 66.04 16.2 65.43 16.31 64.83 16.43 64.82 15.61 65.43 15.52 66.05 15.44"/>
    <polygon class="st2" points="64.49 15.65 64.49 16.48 63.82 16.55 63.14 16.63 63.15 15.8 63.82 15.73 64.49 15.65"/>
    <polygon class="st2" points="62.81 15.82 62.81 16.65 62.17 16.7 61.54 16.74 61.54 15.88 62.17 15.85 62.81 15.82"/>
    <path class="st2" d="M61.2,15.91v.85l-.64.03-.61.02h-.03v-.86l.65-.02.64-.03Z"/>
    <path class="st2" d="M59.59,15.98v.82h-1.28v-.84s.63,0,.63,0l.65.02Z"/>
    <path class="st2" d="M57.97,15.98v.82c-.18,0-.35-.01-.52-.02h-.1l-.61-.05v-.82l.61.03.62.04Z"/>
    <polygon class="st2" points="56.41 15.9 56.41 16.68 55.74 16.62 55.08 16.54 55.08 15.77 55.74 15.84 56.41 15.9"/>
    <path class="st2" d="M54.72,15.73v.78c-.44-.06-.85-.13-1.23-.21v-.78l.62.1.61.1Z"/>
    <path class="st2" d="M53.16,15.47v.78c-.26-.06-.51-.11-.73-.17-.08-.02-.16-.04-.23-.07v-.74l.48.1.48.1Z"/>
    <path class="st6" d="M68.27,14.57c-.37-.12-.81-.25-1.32-.39-.44-.11-.93-.21-1.49-.31-.49-.09-1.05-.16-1.64-.23-.51-.04-1.06-.09-1.63-.12-.51-.02-1.07-.04-1.63-.04h-.8c-.29.01-.58.01-.86.03-.55,0-1.1.04-1.62.08-.58.04-1.12.09-1.62.15-.59.07-1.13.15-1.64.24-.54.09-1.02.19-1.46.29-.48.12-.91.24-1.27.35-.07.02-.12.04-.18.06.1.03.2.08.31.11.42.14.84.26,1.26.35.43.1.9.19,1.44.26.5.07,1.04.13,1.62.19.5.05,1.04.07,1.61.1.51.01,1.04.03,1.6.03h.68c.32-.01.63-.01.95-.03.57-.03,1.09-.04,1.61-.07.59-.05,1.14-.09,1.64-.15.58-.07,1.12-.14,1.61-.22.55-.09,1.04-.19,1.48-.29.52-.14.96-.25,1.34-.38ZM76.49,5.1c.38.86.33,1.88-.17,3.05-.53,1.25-1.58,2.47-3.1,3.62-.99.75-2.07,1.38-3.21,1.88v1.59s0,.07,0,.07l-.1.04s-.68.39-2.25.8c-.09.02-.17.04-.27.07-.54.14-1.18.27-1.91.39-.01,0-.03,0-.04,0h-.04l-.18.03c-.44.07-.9.14-1.4.19s-1.06.11-1.64.15c-.5.03-1.02.07-1.57.08h-.04c-.57.02-1.11.03-1.62.02-.56,0-1.09-.02-1.6-.04-.57-.04-1.11-.08-1.61-.13-.58-.07-1.12-.14-1.62-.22-.54-.09-1.01-.19-1.44-.3-.49-.11-.91-.25-1.26-.36-.46-.15-.82-.3-1.1-.42-.23-.1-.44-.22-.65-.36h0s-.03-.03-.04-.03v-1.7c-1.05-.48-2.04-1.08-2.96-1.77-1.52-1.14-2.56-2.35-3.09-3.61-.5-1.16-.55-2.19-.17-3.05.37-.83,1.15-1.48,2.26-1.86,1.96-.68,4.9-.03,5.48.11.23-.25,1.07-.99,2.88-1.01,2.4.02,4.43,1.5,5.14,2.08v-1.66h-.79v-1.4h.85v-.81h1.45v.81h.85v1.4h-.79v1.66c.71-.59,2.73-2.06,5.13-2.08,1.82.02,2.65.75,2.88,1.01.58-.14,3.53-.79,5.48-.11,1.1.39,1.88,1.04,2.25,1.87ZM76.03,8.03c.46-1.08.52-2.01.17-2.8-.33-.75-1.05-1.34-2.07-1.69-2.04-.71-5.36.13-5.4.14l-.1.03-.06-.09s-.72-.94-2.7-.96c-2.81.02-5.16,2.2-5.18,2.23l-.27.25v-2.7h.79v-.76h-.85v-.81h-.82v.81h-.85v.76h.79v2.7l-.27-.25s-2.38-2.21-5.18-2.23c-1.97.02-2.69.95-2.69.96l-.06.09-.1-.03s-3.35-.85-5.4-.14c-1.02.35-1.74.94-2.07,1.69-.35.78-.29,1.72.17,2.8,1.15,2.69,4.61,4.67,6.01,5.28h0c.08-.03.17-.06.28-.1.27-.1.65-.22,1.12-.36.37-.11.8-.22,1.27-.33.44-.11.93-.23,1.46-.33s1.06-.18,1.64-.26c.51-.07,1.06-.12,1.62-.17.52-.04,1.07-.07,1.62-.09.27,0,.54-.01.81-.01.29,0,.57.01.85.01.57.01,1.12.03,1.63.07.58.05,1.12.09,1.63.15.59.06,1.13.14,1.64.23.55.09,1.06.19,1.49.3.62.14,1.23.31,1.83.51.47.16.8.3,1,.39h0s.05.02.11.05c1.3-.54,4.95-2.55,6.14-5.33ZM69.77,14.85l-.03-1.29-.75-.31-.04,1.25.82.35ZM68.95,15.37l.74-.24-.72-.35-.02.59ZM68.7,14.45v-1.29s-.9-.27-.9-.27v1.28l.9.28ZM68.63,15.54v-.78s-.88.26-.88.26v.79l.88-.27ZM67.47,14.06v-1.25l-.52-.13-.5-.13v1.27l.5.12.52.12ZM67.43,15.88v-.78l-.51.14-.52.12v.78s.52-.13.52-.13l.51-.13ZM66.06,13.73v-1.28l-.6-.1-.59-.1v1.28s.59.1.59.1l.6.1ZM66.04,16.2v-.76s-.61.08-.61.08l-.62.09v.82s.62-.12.62-.12l.61-.11ZM64.49,16.48v-.83l-.67.08-.66.07v.83s.66-.08.66-.08l.67-.07ZM64.49,13.49v-1.29l-.67-.08-.67-.08v1.3l.67.08.67.08ZM62.81,13.32l.02-1.3-.64-.05-.62-.05v1.35s.62.02.62.02l.63.03ZM62.81,16.65v-.83l-.64.03-.64.04v.86l.64-.04.64-.05ZM61.19,13.24l.03-1.32h-.66s-.66-.01-.66-.01v1.33h1.3ZM61.2,16.75v-.84l-.64.03-.65.02v.86h.03l.61-.02.64-.04ZM59.59,16.8v-.82l-.65-.02h-.64v.84h1.28ZM59.56,13.24v-1.34l-.66.02h-.64v1.35h.64s.66-.03.66-.03ZM57.97,16.8v-.82l-.62-.04-.61-.04v.8l.61.05h.1c.17.02.34.02.51.04ZM57.89,13.31v-1.35l-.61.05-.6.04v1.35l.6-.04.61-.04ZM56.41,16.69v-.79l-.67-.06-.66-.07v.77l.66.08.67.06ZM56.31,13.42v-1.33l-.65.09-.66.08v1.31l.66-.08.65-.07ZM54.73,16.51v-.78l-.61-.1-.62-.1v.78c.37.08.78.14,1.23.21h0ZM54.65,13.6v-1.27l-.63.1-.62.1v1.27l.62-.1.63-.11ZM53.17,16.24v-.78l-.48-.1-.48-.1v.74c.08.03.16.05.23.07.22.06.47.12.73.17h0ZM53.06,13.88v-1.26l-.49.11-.49.1v1.29l.49-.13.49-.12ZM51.85,15.89v-.68l-.42-.16-.44-.15v.71c.25.09.54.19.86.29h0ZM51.74,14.2v-1.26s-.43.15-.43.15l-.44.13v1.25l.44-.14.43-.13ZM50.65,15.45v-.58s-.14.05-.14.05l-.19.08-.31.14.31.16.33.16ZM50.51,14.58v-1.27l-.34.12-.21.07-.03.07v1.27l.24-.1.34-.15Z"/>
    <path class="st2" d="M76.2,5.23c.35.78.29,1.72-.17,2.8-1.18,2.78-4.83,4.79-6.14,5.33-.06-.03-.11-.05-.11-.05h0c-.19-.09-.52-.23-1-.39-.6-.2-1.21-.38-1.83-.51-.44-.11-.95-.21-1.49-.3-.51-.09-1.05-.17-1.64-.23-.51-.06-1.06-.1-1.63-.15-.51-.03-1.07-.06-1.63-.07-.27,0-.55-.01-.85-.01-.27,0-.54.01-.81.01-.55.02-1.1.04-1.62.09-.57.04-1.11.1-1.62.17-.58.08-1.12.17-1.64.26s-1.01.22-1.46.33c-.47.11-.9.22-1.27.33-.47.14-.85.26-1.12.36-.12.04-.21.07-.28.1h0c-1.4-.61-4.86-2.59-6.01-5.28-.46-1.08-.52-2.01-.17-2.8.33-.75,1.05-1.34,2.07-1.69,2.04-.71,5.36.13,5.4.14l.1.03.06-.09s.72-.94,2.69-.96c2.81.02,5.16,2.2,5.18,2.23l.27.25v-2.7h-.79v-.76h.85v-.81h.82v.81h.85v.76h-.79v2.7l.27-.25s2.38-2.21,5.18-2.23c1.98.02,2.69.95,2.7.96l.06.09.1-.03s3.35-.85,5.4-.14c1.02.35,1.74.94,2.07,1.69ZM73.97,8.62c.32-.85.34-1.6.05-2.22-.32-.68-1-1.2-2.02-1.55-.81-.28-1.67-.38-2.52-.28l-.2.03.08.19s.74,1.73.1,3.23c-.83,1.94-1.64,2.99-1.91,3.2l-.27.21.33.07c.21.04.46.1.92.23l.09.02.62-.58.34.16-.53.61.23.07c.41.13.72.24.87.31l.07.03.07-.04c2.39-1.33,3.32-2.74,3.69-3.7h0ZM67.8,7.73c.26-1.11.16-2.04-.3-2.69-.41-.57-1.07-.92-1.97-1.02-1.92-.22-3.52.69-4.08,2.32-.52,1.53.37,4.31.41,4.42l.04.11h.11c.46,0,.9.02,1.3.04h.14s.17-.88.17-.88l.73.06-.19.87h.18c.46.04.93.1,1.38.19l.09.02.06-.06c.07-.06,1.47-1.4,1.93-3.38h0ZM58.03,10.77c.04-.12.94-2.89.41-4.42-.55-1.62-2.16-2.53-4.08-2.32-.9.1-1.56.44-1.97,1.02-.46.64-.55,1.57-.3,2.69.46,1.98,1.86,3.32,1.92,3.38l.06.06.08-.02c.46-.09.92-.15,1.38-.17h.18s-.19-.88-.19-.88l.73-.06.17.89h.14c.41-.02.84-.04,1.3-.04h.11l.04-.12ZM52.28,11.49l.33-.07-.27-.21c-.26-.21-1.08-1.26-1.91-3.2-.64-1.5.09-3.21.1-3.23l.08-.19-.2-.03c-.85-.09-1.71,0-2.52.28-1.02.35-1.7.87-2.02,1.55-.29.62-.27,1.37.05,2.22.36.95,1.3,2.37,3.68,3.7l.07.04.07-.03c.15-.07.46-.18.87-.31l.23-.07-.53-.61.34-.16.62.58.09-.02c.46-.13.71-.19.92-.23h0Z"/>
    <path class="st6" d="M74.02,6.39c.29.62.27,1.37-.05,2.22-.36.95-1.3,2.37-3.68,3.7l-.07.04-.07-.03c-.15-.07-.46-.18-.87-.31l-.23-.07.53-.61-.34-.16-.62.58-.09-.02c-.46-.13-.71-.19-.92-.23l-.33-.07.27-.21c.26-.21,1.08-1.26,1.91-3.2.65-1.5-.09-3.21-.1-3.23l-.08-.19.2-.03c.85-.09,1.72,0,2.52.28,1.02.35,1.7.87,2.02,1.55ZM73.67,8.51c.29-.77.31-1.44.06-1.98-.28-.6-.9-1.07-1.84-1.39-.7-.24-1.44-.34-2.17-.29.19.52.59,1.95.02,3.28-.68,1.59-1.38,2.64-1.79,3.1.15.04.33.08.57.15l.64-.61.92.43-.49.57c.21.07.44.15.6.22,2.25-1.27,3.13-2.6,3.47-3.5Z"/>
    <path class="st5" d="M73.73,6.53c.25.54.23,1.21-.06,1.98-.34.9-1.22,2.22-3.47,3.49-.16-.07-.39-.15-.6-.22l.49-.57-.92-.43-.64.61c-.24-.07-.42-.12-.57-.15.41-.47,1.1-1.52,1.79-3.1.57-1.33.16-2.76-.02-3.28.74-.05,1.48.05,2.17.29.94.33,1.56.8,1.84,1.39Z"/>
    <polygon class="st2" points="69.74 13.55 69.76 14.85 68.95 14.5 68.99 13.24 69.74 13.55"/>
    <polygon class="st2" points="68.69 13.16 68.7 14.45 67.8 14.17 67.8 12.89 68.69 13.16"/>
    <path class="st6" d="M67.5,5.04c.46.64.55,1.57.3,2.69-.46,1.98-1.86,3.32-1.92,3.38l-.06.06-.09-.02c-.46-.09-.92-.15-1.38-.17h-.18s.19-.88.19-.88l-.73-.06-.17.89h-.14c-.41-.02-.84-.04-1.3-.04h-.11l-.04-.11c-.04-.12-.94-2.89-.41-4.42.55-1.62,2.15-2.53,4.08-2.32.91.1,1.57.44,1.97,1.01ZM67.49,7.66c.24-1.02.15-1.87-.25-2.44-.35-.5-.94-.8-1.74-.89-1.77-.2-3.24.63-3.74,2.11-.44,1.27.22,3.59.38,4.12.37,0,.72.02,1.06.03l.18-.89,1.37.1-.19.87c.39.03.78.08,1.17.15.27-.28,1.39-1.5,1.77-3.16Z"/>
    <path class="st5" d="M67.24,5.22c.4.57.49,1.41.25,2.44-.39,1.66-1.51,2.88-1.77,3.16-.39-.07-.78-.12-1.17-.15l.19-.87-1.37-.1-.18.89c-.33-.01-.69-.02-1.06-.03-.16-.52-.82-2.84-.38-4.12.51-1.48,1.98-2.31,3.74-2.11.81.09,1.4.39,1.75.89Z"/>
    <polygon class="st2" points="67.47 12.8 67.47 14.06 66.95 13.94 66.45 13.81 66.45 12.55 66.95 12.68 67.47 12.8"/>
    <path class="st2" d="M66.95,14.18c.5.14.95.27,1.32.39-.38.13-.82.25-1.35.38-.44.1-.93.2-1.48.29-.5.08-1.03.15-1.61.22-.51.05-1.06.1-1.64.15-.51.03-1.04.05-1.61.07-.31.01-.62.01-.95.03h-.68c-.56,0-1.09-.01-1.6-.03-.57-.03-1.11-.05-1.61-.1-.58-.06-1.12-.12-1.62-.19-.54-.07-1.01-.17-1.44-.26-.43-.09-.85-.21-1.26-.35-.11-.03-.21-.08-.31-.11.06-.02.12-.04.18-.06.36-.11.79-.23,1.27-.35.44-.1.92-.2,1.46-.29.5-.09,1.04-.17,1.64-.24.51-.06,1.05-.11,1.62-.15.52-.04,1.06-.07,1.62-.08.28-.01.57-.01.86-.03h.8c.57,0,1.12.03,1.63.04.58.03,1.12.08,1.63.12.59.07,1.15.15,1.64.23.57.1,1.06.2,1.5.31Z"/>
    <polygon class="st2" points="66.06 12.46 66.06 13.73 65.46 13.64 64.87 13.54 64.86 12.25 65.46 12.35 66.06 12.46"/>
    <polygon class="st2" points="64.49 12.2 64.49 13.49 63.82 13.42 63.14 13.34 63.14 12.04 63.82 12.12 64.49 12.2"/>
    <polygon class="st2" points="62.83 12.02 62.81 13.32 62.19 13.29 61.55 13.27 61.56 11.92 62.19 11.97 62.83 12.02"/>
    <polygon class="st2" points="61.22 11.92 61.19 13.24 59.89 13.24 59.89 11.91 60.55 11.91 61.22 11.92"/>
    <polygon class="st2" points="59.56 11.9 59.56 13.24 58.9 13.26 58.26 13.27 58.26 11.93 58.9 11.92 59.56 11.9"/>
    <path class="st6" d="M58.44,6.34c.52,1.53-.37,4.31-.41,4.42l-.03.11h-.11c-.46,0-.9.02-1.3.04h-.14s-.17-.88-.17-.88l-.73.06.19.87h-.18c-.47.04-.93.1-1.38.19l-.08.02-.06-.06c-.06-.06-1.46-1.4-1.92-3.38-.26-1.11-.16-2.04.3-2.69.41-.57,1.07-.92,1.97-1.02,1.92-.22,3.52.69,4.08,2.32ZM57.76,10.56c.16-.52.82-2.85.38-4.12-.46-1.33-1.69-2.14-3.23-2.14-.17,0-.35.01-.52.03-.81.09-1.39.39-1.75.89-.4.57-.49,1.41-.25,2.44.38,1.66,1.51,2.88,1.77,3.16.39-.07.78-.12,1.17-.15l-.19-.87,1.37-.1.18.89c.34-.01.69-.02,1.06-.03h0Z"/>
    <path class="st5" d="M58.14,6.44c.44,1.27-.22,3.59-.38,4.12-.37,0-.72.02-1.06.03l-.18-.89-1.37.1.19.87c-.39.03-.78.08-1.17.15-.27-.27-1.39-1.5-1.77-3.16-.24-1.02-.15-1.87.25-2.44.35-.5.94-.8,1.75-.89.17-.02.34-.03.52-.03,1.53,0,2.77.8,3.23,2.13Z"/>
    <polygon class="st2" points="57.89 11.95 57.89 13.31 57.28 13.35 56.68 13.39 56.68 12.04 57.28 12 57.89 11.95"/>
    <polygon class="st2" points="56.31 12.09 56.31 13.42 55.66 13.49 54.99 13.57 54.99 12.25 55.66 12.18 56.31 12.09"/>
    <polygon class="st2" points="54.65 12.33 54.65 13.6 54.02 13.71 53.4 13.8 53.4 12.53 54.02 12.43 54.65 12.33"/>
    <polygon class="st2" points="53.05 12.62 53.05 13.88 52.56 14 52.06 14.12 52.06 12.84 52.56 12.73 53.05 12.62"/>
    <path class="st6" d="M52.62,11.41l-.33.07c-.21.04-.46.1-.92.23l-.09.02-.62-.58-.34.16.53.61-.23.07c-.41.13-.72.24-.87.31l-.07.03-.07-.04c-2.39-1.33-3.32-2.74-3.68-3.7-.32-.85-.34-1.6-.05-2.22.32-.68,1-1.2,2.02-1.55.81-.28,1.67-.38,2.52-.28l.2.03-.08.19s-.74,1.73-.1,3.23c.83,1.94,1.64,2.99,1.91,3.2l.27.21ZM51.37,11.39c.24-.07.42-.12.57-.15-.41-.47-1.1-1.52-1.78-3.1-.57-1.33-.16-2.76.02-3.28-.74-.05-1.48.05-2.18.29-.94.32-1.56.79-1.84,1.39-.25.54-.23,1.21.06,1.98.34.9,1.22,2.22,3.47,3.49.16-.07.39-.15.6-.22l-.49-.57.92-.43.65.61Z"/>
    <path class="st2" d="M51.84,15.21v.68c-.33-.1-.62-.2-.86-.29v-.71s.43.15.43.15l.43.16Z"/>
    <polygon class="st2" points="51.74 12.94 51.73 14.19 51.29 14.33 50.84 14.47 50.84 13.21 51.29 13.08 51.74 12.94"/>
    <path class="st5" d="M51.94,11.24c-.15.04-.33.08-.57.15l-.65-.61-.92.43.49.57c-.21.07-.44.15-.6.22-2.26-1.27-3.13-2.6-3.48-3.5-.29-.77-.31-1.44-.06-1.98.28-.6.9-1.07,1.84-1.39.7-.24,1.44-.34,2.18-.29-.19.52-.59,1.95-.02,3.28.69,1.59,1.38,2.64,1.79,3.1Z"/>
    <polygon class="st2" points="50.64 14.87 50.65 15.45 50.32 15.29 50.01 15.13 50.32 15 50.51 14.92 50.64 14.87"/>
    <polygon class="st2" points="50.51 13.31 50.51 14.58 50.17 14.73 49.93 14.83 49.93 13.56 49.95 13.49 50.17 13.42 50.51 13.31"/>
    <path class="st6" d="M59.37,17.18h-.42c-.58,0-1.13-.02-1.6-.04-.54-.03-1.08-.08-1.61-.13-.58-.07-1.12-.14-1.62-.22-.52-.08-1-.19-1.44-.3-.48-.11-.88-.24-1.23-.35h-.04c-.45-.16-.81-.31-1.1-.43-.23-.11-.45-.23-.66-.37,0,0,0,0-.01-.01h-.02s0-.01,0-.01h0s-.05-.04-.05-.07v-1.64c-1.04-.48-2.02-1.08-2.93-1.77-1.53-1.15-2.58-2.38-3.12-3.65-.51-1.18-.56-2.23-.17-3.11.38-.85,1.17-1.51,2.3-1.9,1.93-.66,4.81-.06,5.48.1.26-.27,1.12-.98,2.9-1,2.29.02,4.21,1.33,5.06,1.99v-1.42h-.71s-.08-.04-.08-.08c0,0,0,0,0,0v-1.4s.04-.08.08-.08h.77v-.73s.04-.08.08-.08h1.45s.08.03.08.08c0,0,0,0,0,0v.73h.77s.08.04.08.08h0v1.4s-.03.08-.08.08c0,0,0,0,0,0h-.71v1.42c.84-.66,2.77-1.98,5.05-1.99,1.75.02,2.6.68,2.91,1,.66-.16,3.55-.77,5.48-.1,1.13.39,1.93,1.05,2.31,1.9h0c.39.89.33,1.93-.17,3.11-.54,1.27-1.59,2.49-3.12,3.65-.99.75-2.05,1.37-3.18,1.87v1.62s-.01.06-.04.07l-.1.04s-.7.39-2.26.8c-.05.01-.09.02-.14.04l-.13.03c-.59.15-1.24.28-1.92.39h-.05s-.02,0-.04,0c-.06,0-.12.02-.18.03-.49.08-.95.14-1.4.2-.47.05-1.04.11-1.65.15-.49.03-1.02.06-1.57.08h-.04c-.45.03-.85.03-1.2.03ZM49.73,15.21c.2.13.41.25.63.35.28.12.64.27,1.09.41h.04c.35.12.75.25,1.22.36.44.11.92.22,1.43.3s1.04.16,1.61.22c.53.05,1.07.1,1.61.13.46.02,1.01.04,1.59.04.47,0,.98,0,1.62-.02h.04c.51-.01,1-.04,1.56-.08.61-.04,1.17-.1,1.64-.15.44-.05.9-.11,1.39-.19.06,0,.12-.02.18-.03h.08c.67-.11,1.31-.24,1.9-.39l.14-.03.14-.03c1.54-.41,2.22-.79,2.23-.79l.06-.02v-1.62s.01-.06.04-.07c1.14-.5,2.21-1.14,3.2-1.9,1.51-1.14,2.54-2.34,3.07-3.58.49-1.14.54-2.14.17-2.99-.36-.81-1.13-1.44-2.22-1.82-1.94-.66-4.87-.02-5.44.11-.03,0-.06,0-.08-.02-.21-.22-1.03-.97-2.82-.98-2.36.02-4.34,1.45-5.08,2.06-.02.02-.06.02-.08,0-.03-.01-.05-.04-.05-.07v-1.66s.04-.08.08-.08h.71v-1.24h-.77s-.08-.04-.08-.08c0,0,0,0,0,0v-.73h-1.29v.73s-.04.08-.08.08h-.77v1.24h.71s.08.04.08.08h0v1.66s-.02.06-.05.07c-.03.01-.06,0-.08,0-.74-.62-2.72-2.05-5.09-2.06-1.8.02-2.61.76-2.82.98-.02.02-.05.03-.08.02-.57-.14-3.51-.78-5.44-.11-1.09.38-1.85,1.01-2.21,1.82-.37.84-.32,1.85.17,2.99.53,1.24,1.56,2.45,3.07,3.58.92.7,1.91,1.29,2.95,1.77.03.01.05.04.05.07v1.66h.01Z"/>
    <path class="st6" d="M50.65,15.53s-.02,0-.03,0l-.33-.16h0l-.31-.16s-.06-.07-.04-.11c0-.02.02-.03.04-.04l.49-.22.14-.05s.08,0,.1.04c0,.01,0,.02,0,.04v.58s0,.05-.02.07c-.01,0-.03.01-.04.01ZM50.36,15.22l.21.1v-.34s-.04,0-.04,0l-.33.15.16.08Z"/>
    <path class="st6" d="M49.93,14.9s-.08-.03-.08-.08c0,0,0,0,0,0v-1.27s0-.02,0-.03l.03-.07s.03-.04.05-.04l.21-.07.33-.11s.05,0,.07.01c.02.01.03.04.03.06v1.27s-.02.06-.05.07l-.58.25s-.01,0-.02,0ZM50,13.57v1.13l.42-.18v-1.11l-.41.14v.02Z"/>
    <path class="st6" d="M51.84,15.97s-.01,0-.02,0c-.31-.09-.6-.19-.86-.29-.03-.01-.05-.04-.05-.07v-.71s0-.05.02-.07c.02-.02.05-.02.07-.01l.44.15h0l.43.16s.05.04.05.07v.68s-.01.05-.03.06c-.01.01-.03.02-.05.02ZM51.07,15.55c.22.08.45.16.7.24v-.52l-.37-.14-.33-.11v.54Z"/>
    <path class="st6" d="M50.84,14.55s-.03,0-.05-.02c-.02-.01-.03-.04-.04-.06v-1.26s.02-.07.06-.08l.44-.13.44-.14s.05,0,.07.01c.02.01.03.04.03.06v1.26s-.03.07-.07.08l-.42.13-.44.14s-.02,0-.03,0ZM50.92,13.27v1.09l.73-.22v-1.09s-.33.11-.33.11l-.39.11Z"/>
    <path class="st6" d="M53.16,16.31h-.02c-.28-.06-.53-.12-.73-.17-.08-.02-.16-.04-.24-.07-.03-.01-.05-.04-.05-.08v-.74s.01-.05.03-.06c.02-.01.04-.02.07-.02l.97.2s.06.04.06.08v.78s-.03.08-.07.08c0,0,0,0,0,0h0ZM52.28,15.94c.06.02.11.03.17.05.19.05.4.1.64.15v-.61l-.81-.17v.58Z"/>
    <path class="st6" d="M54.72,16.59h-.01c-.46-.07-.86-.14-1.23-.21-.04,0-.06-.04-.06-.08v-.78s.01-.05.03-.06c.02-.01.04-.02.06-.02l1.23.2s.07.04.07.08v.78s0,.04-.03.06c-.01.01-.03.02-.05.02ZM53.57,16.24c.33.07.68.13,1.07.18v-.63l-1.07-.18v.62Z"/>
    <path class="st6" d="M56.41,16.76h0l-.67-.06-.66-.08s-.07-.04-.07-.08v-.77s.04-.08.08-.08c0,0,0,0,0,0l.66.07.67.06s.07.04.07.08v.79s-.04.08-.08.08h0ZM55.16,16.47l.59.07.58.05v-.63l-.6-.05h0l-.57-.06v.61Z"/>
    <path class="st6" d="M57.97,16.87h0c-.18,0-.35-.01-.52-.02h-.1l-.62-.05s-.07-.04-.07-.08v-.81s0-.04.02-.06c.02-.01.04-.02.06-.02l.61.02.62.04s.07.04.08.08v.83s0,.04-.02.06c-.02.01-.04.02-.06.02ZM56.81,16.65l.64.05c.14,0,.29.01.43.02v-.66l-.55-.03-.53-.02v.65Z"/>
    <path class="st6" d="M59.59,16.88h-1.26s-.09-.03-.09-.08v-.84s.03-.08.07-.08h.64l.65.02s.08.04.08.08v.82s-.03.08-.07.08c0,0,0,0,0,0ZM58.4,16.72h1.12v-.66h-.57s-.55-.01-.55-.01v.68Z"/>
    <path class="st6" d="M59.92,16.89s-.08-.04-.08-.08c0,0,0,0,0,0v-.86s.03-.08.08-.08l1.28-.05s.04,0,.06.02c.02.01.02.04.02.06v.85s-.03.08-.08.08l-.63.03-.65.02ZM61.2,16.75h0ZM60,16.03v.7l1.12-.05v-.69l-1.12.04Z"/>
    <path class="st6" d="M61.54,16.82s-.08-.03-.08-.08c0,0,0,0,0,0v-.86s.03-.08.07-.08l1.28-.06s.04,0,.06.02c.02.02.02.04.02.06v.83s-.03.08-.07.08l-.64.05-.64.04h0ZM61.62,15.96v.7l.55-.03.56-.05v-.67l-1.11.06Z"/>
    <path class="st6" d="M63.15,16.71s-.08-.03-.08-.08c0,0,0,0,0,0v-.83s.04-.07.08-.08l.66-.07.67-.08s.05,0,.06.02c.02.02.03.04.03.06v.83s-.03.07-.07.08l-1.35.15h0ZM63.23,15.87v.67s1.18-.13,1.18-.13v-.66l-.59.07h0l-.6.06ZM63.82,15.73h0Z"/>
    <path class="st6" d="M64.83,16.51s-.04,0-.05-.02c-.02-.02-.03-.04-.03-.06v-.82s.02-.07.06-.08l.62-.09.62-.08s.05,0,.06.02c.02.02.03.04.03.06v.76s-.04.07-.08.08l-1.21.23h-.01ZM64.9,15.68v.66s1.06-.2,1.06-.2v-.61s-.52.07-.52.07l-.55.08Z"/>
    <path class="st6" d="M66.39,16.21s-.04,0-.05-.02c-.02-.02-.03-.04-.03-.06v-.78s.04-.07.07-.08l1.03-.25s.05,0,.07.01c.02.02.03.04.03.06v.78s-.02.07-.06.08l-1.04.25h-.02ZM66.48,15.42v.61s.88-.21.88-.21v-.61l-.88.21Z"/>
    <path class="st6" d="M68.27,14.65h0s-.08-.04-.07-.09c0-.04.03-.07.07-.07.04,0,.08.04.08.08,0,.04-.03.08-.08.08,0,0,0,0,0,0Z"/>
    <path class="st6" d="M58.95,15.79c-.58,0-1.12-.01-1.6-.03-.53-.02-1.09-.05-1.62-.1-.57-.06-1.11-.12-1.62-.19-.47-.06-.93-.15-1.44-.26-.43-.1-.86-.21-1.27-.35-.06-.02-.13-.04-.19-.07-.04-.02-.08-.03-.12-.05-.03-.01-.05-.04-.05-.07,0-.03.02-.06.05-.08l.18-.06c.36-.11.79-.23,1.27-.36.46-.11.95-.2,1.47-.29.48-.09,1-.16,1.64-.24.47-.06.98-.11,1.63-.15.57-.04,1.08-.07,1.62-.08.14,0,.28,0,.43-.01s.28,0,.43-.01h.8c.48,0,.95.02,1.4.04h.24c.44.03.88.07,1.29.1l.35.03c.53.07,1.13.14,1.64.23.63.11,1.1.21,1.5.31.46.12.91.25,1.32.39.04.01.06.06.05.1,0,.02-.03.04-.05.05-.41.14-.89.27-1.36.38-.35.08-.88.19-1.49.29-.47.08-1,.15-1.62.22-.47.05-.97.09-1.5.13h-.16c-.36.04-.72.05-1.11.07l-.5.02h0c-.16,0-.31,0-.47.01s-.31,0-.47.01h-.67ZM60.57,15.68h0ZM51.35,14.68s.06.02.09.03c.36.12.78.24,1.26.35.51.11.97.2,1.43.26.51.07,1.05.14,1.62.19.52.05,1.08.07,1.61.1.48.01,1.02.02,1.59.02h.68c.16,0,.32,0,.47-.01s.31,0,.47-.01l.5-.02c.38-.02.74-.03,1.1-.05h.15c.53-.06,1.03-.1,1.49-.15.61-.07,1.14-.15,1.61-.22.61-.1,1.14-.21,1.48-.29.37-.09.76-.2,1.11-.3-.34-.11-.71-.21-1.08-.31-.39-.1-.87-.2-1.49-.31-.51-.09-1.11-.17-1.63-.23l-.34-.03c-.41-.03-.84-.07-1.28-.09h-.24c-.44-.03-.91-.04-1.39-.04h-.8c-.14,0-.29,0-.43.01s-.28,0-.43.01c-.54,0-1.05.04-1.62.08-.64.04-1.16.09-1.62.15-.64.07-1.16.15-1.63.24-.51.09-1,.18-1.46.29s-.88.23-1.23.34h0Z"/>
    <path class="st6" d="M52.06,14.2s-.03,0-.05-.02c-.02-.02-.03-.04-.03-.06v-1.29s.03-.07.06-.08l.99-.21s.05,0,.07.02c.02.01.03.04.03.06v1.26s-.03.07-.06.08l-.49.12-.49.13s-.01,0-.02,0ZM52.14,12.9v1.12l.39-.1.43-.1v-1.1l-.83.18Z"/>
    <path class="st6" d="M53.4,13.88s-.08-.04-.08-.08h0v-1.27s.03-.07.07-.08l1.25-.2s.08.02.09.07c0,0,0,0,0,.01v1.27s-.03.07-.07.08l-1.25.2h-.02ZM53.48,12.6v1.11l1.09-.18v-1.11l-1.09.18Z"/>
    <path class="st6" d="M54.99,13.65s-.04,0-.05-.02c-.02-.01-.03-.04-.03-.06v-1.31s.03-.07.07-.08l.66-.08.65-.09s.05,0,.06.02c.02.02.03.04.03.06v1.33s-.03.07-.07.08l-1.32.14h0ZM55.07,12.32v1.15l1.16-.13v-1.17l-.57.08-.6.07Z"/>
    <path class="st6" d="M56.68,13.47s-.04,0-.05-.02c-.02-.01-.03-.04-.03-.06v-1.35s.03-.08.07-.08l1.21-.09s.04,0,.06.02c.02.01.03.04.03.06v1.35s-.03.08-.07.08l-1.21.08h0ZM56.76,12.12v1.19l1.05-.07v-1.19l-1.05.08Z"/>
    <path class="st6" d="M58.26,13.35s-.04,0-.06-.02c-.02-.01-.02-.03-.02-.06v-1.34s.03-.08.08-.08l1.3-.03s.04,0,.06.02c.02.01.02.04.02.06v1.34s-.03.08-.08.08l-1.3.03h0ZM58.34,12.01v1.18l1.14-.03v-1.18l-1.14.03Z"/>
    <path class="st6" d="M61.19,13.32h-1.3s-.08-.04-.08-.08h0v-1.33s.03-.08.08-.08c0,0,0,0,0,0h1.33s.04.02.06.04c.01.02.02.04.02.06l-.03,1.33s-.04.07-.08.07ZM59.97,13.16h1.14l.03-1.17h-.59s-.58,0-.58,0v1.18Z"/>
    <path class="st6" d="M62.81,13.4h0l-1.26-.05s-.08-.04-.08-.08v-1.35s.02-.04.04-.06c.02-.01.04-.02.06-.02l1.27.1s.07.04.07.08l-.02,1.3s0,.04-.03.06c-.02.01-.04.02-.06.02ZM61.63,13.19l1.11.04.02-1.14-1.11-.09-.02,1.19Z"/>
    <path class="st6" d="M64.49,13.57h0l-1.35-.15s-.07-.04-.07-.08v-1.3s0-.04.03-.06c.02-.02.04-.02.06-.02l1.35.16s.07.04.07.08v1.29s0,.04-.03.06c-.01.01-.03.02-.05.02ZM63.22,13.27l1.19.14v-1.13l-1.19-.14v1.13Z"/>
    <path class="st6" d="M66.06,13.81h-.01l-1.19-.2s-.07-.04-.07-.08v-1.28s0-.05.02-.06c.02-.02.04-.02.06-.02l1.2.2s.07.04.07.08v1.28s0,.05-.03.06c-.01.01-.03.02-.05.02ZM64.95,13.47l1.03.17v-1.12l-1.03-.18v1.12Z"/>
    <path class="st6" d="M67.47,14.14s-.01,0-.02,0l-1.02-.25s-.06-.04-.06-.08v-1.27s.01-.05.03-.06c.02-.02.04-.02.07-.01l1.02.26s.06.04.06.08v1.26s-.03.08-.08.08c0,0,0,0,0,0h0ZM66.53,13.75l.86.21v-1.1l-.86-.22v1.11Z"/>
    <path class="st6" d="M67.75,15.9s-.03,0-.05-.02c-.02-.01-.03-.04-.03-.06v-.79s.02-.07.06-.08l.89-.26s.05,0,.07.01c.02.02.03.04.03.06v.78s-.03.06-.06.07l-.88.28h-.03ZM67.83,15.09v.62l.72-.23v-.61l-.72.22Z"/>
    <path class="st6" d="M68.7,14.53s-.02,0-.02,0l-.9-.28s-.06-.04-.06-.08v-1.28s.01-.05.03-.06c.02-.02.05-.02.07-.01l.89.27s.06.04.06.08v1.29s0,.05-.02.06c-.01,0-.03.02-.05.02ZM67.88,14.11l.74.23v-1.12s-.74-.22-.74-.22v1.11Z"/>
    <path class="st6" d="M68.95,15.45s-.03,0-.05-.02c-.02-.02-.03-.04-.03-.07l.02-.59s.02-.05.04-.06c.02-.01.05-.01.08,0l.72.35s.06.07.04.1c0,.02-.03.04-.05.04l-.74.24s-.02,0-.02,0ZM69.04,14.9v.36s.43-.14.43-.14l-.43-.21Z"/>
    <path class="st6" d="M69.77,14.93s-.02,0-.03,0l-.82-.35s-.05-.04-.05-.08l.04-1.25s.04-.08.08-.08c.01,0,.02,0,.03,0l.75.31s.05.04.05.07l.03,1.3s-.01.05-.03.07c-.01,0-.03.01-.05.01ZM69.03,14.45l.66.28-.02-1.12-.6-.24-.04,1.09Z"/>
    <path class="st6" d="M69.89,13.44s-.02,0-.03,0l-.09-.04s-.01,0-.02,0c-.28-.13-.62-.26-.99-.39-.6-.2-1.21-.37-1.82-.51-.4-.1-.89-.2-1.49-.3-.54-.1-1.07-.17-1.63-.23-.49-.05-1.01-.1-1.63-.15-.48-.03-1.01-.05-1.63-.07h-.41c-.27,0-.55,0-.84,0h-.41c-.66.02-1.16.05-1.61.09-.65.05-1.16.1-1.62.17-.51.07-1.02.15-1.63.26-.54.1-1.02.22-1.46.33-.46.11-.89.22-1.26.33-.47.14-.85.26-1.12.36-.12.04-.21.07-.28.1-.02,0-.04,0-.06,0-1.61-.7-4.95-2.72-6.05-5.32-.47-1.1-.53-2.06-.17-2.86.34-.78,1.08-1.37,2.12-1.73,2.08-.72,5.41.13,5.45.14h.05s.03-.03.03-.03c0,0,.73-.97,2.76-1,2.87.02,5.22,2.23,5.24,2.25l.13.12v-2.44h-.71s-.08-.04-.08-.08c0,0,0,0,0,0v-.76s.04-.08.08-.08h.77v-.73s.04-.08.08-.08h.82s.08.04.08.08h0v.73h.78s.08.04.08.08h0v.76s-.03.08-.08.08c0,0,0,0,0,0h-.71v2.44l.12-.13c.1-.09,2.44-2.23,5.23-2.25,2.03.02,2.76.99,2.76,1l.03.04h.05s3.36-.88,5.44-.15c1.04.36,1.77.96,2.12,1.73.35.8.3,1.76-.17,2.86h0c-1.19,2.8-4.87,4.83-6.18,5.38,0,0-.02,0-.03,0ZM69.79,13.23s.07.02.1.04c1.32-.55,4.9-2.55,6.06-5.28h0c.45-1.05.51-1.97.17-2.73-.32-.73-1.03-1.3-2.03-1.65-2.03-.7-5.32.13-5.35.14l-.11.03s-.07,0-.08-.03l-.06-.09s-.7-.91-2.63-.93c-2.74.02-5.03,2.12-5.13,2.21l-.27.25s-.06.03-.09.01c-.03-.01-.05-.04-.05-.07v-2.7s.04-.08.08-.08h.71v-.61h-.77s-.08-.04-.08-.08c0,0,0,0,0,0v-.73h-.66v.73s-.04.08-.08.08h-.77v.61h.71s.08.04.08.08h0v2.7s-.02.06-.05.07c-.03.01-.06,0-.09-.01l-.27-.25s-2.35-2.19-5.13-2.21c-1.93.02-2.62.92-2.63.93l-.06.09s-.05.04-.08.03l-.1-.03s-3.32-.85-5.35-.14c-1,.35-1.7.92-2.03,1.65-.33.76-.28,1.68.17,2.73,1.08,2.54,4.34,4.52,5.94,5.23.07-.03.15-.06.26-.09.27-.1.65-.22,1.13-.36.38-.11.81-.23,1.27-.33.42-.11.92-.23,1.47-.33.61-.11,1.13-.19,1.64-.26.46-.06.98-.12,1.63-.17.45-.04.95-.06,1.62-.09.14,0,.27,0,.41,0,.29,0,.57,0,.85,0,.14,0,.27,0,.4,0,.62.01,1.16.03,1.64.07.63.05,1.14.09,1.63.15.56.06,1.1.14,1.64.23.6.1,1.09.2,1.5.3.62.14,1.24.31,1.84.52.37.13.7.26.99.39h0Z"/>
    <path class="st6" d="M70.22,12.43s-.02,0-.03,0l-.07-.03c-.15-.07-.46-.18-.86-.31l-.23-.07s-.06-.06-.05-.1c0-.01,0-.02.02-.03l.46-.53-.2-.09-.58.54s-.05.03-.08.02l-.09-.03h0c-.47-.14-.71-.19-.91-.23l-.33-.07s-.05-.03-.06-.06c0-.03,0-.06.03-.08l.27-.21c.26-.2,1.06-1.24,1.88-3.17.6-1.39-.02-2.99-.1-3.17l-.08-.19s-.01-.05,0-.07c.01-.02.03-.04.06-.04l.2-.03c.86-.1,1.74,0,2.56.29,1.04.36,1.74.9,2.07,1.6.3.64.29,1.41-.05,2.29-.37.96-1.31,2.4-3.72,3.74l-.07.04s-.02,0-.04,0ZM69.18,11.9l.11.04c.41.13.72.24.88.31l.04.02.03-.02c2.37-1.32,3.29-2.71,3.65-3.66.32-.83.33-1.56.05-2.16-.31-.66-.97-1.17-1.97-1.51-.79-.28-1.64-.37-2.48-.28l-.1.02.04.09c.08.19.72,1.84.1,3.29-.84,1.95-1.66,3.02-1.93,3.23l-.13.11.17.03c.2.04.45.1.92.23h.04s.59-.54.59-.54c.02-.02.06-.03.09-.01l.34.16s.04.03.04.06c0,.02,0,.05-.02.07l-.46.53Z"/>
    <path class="st6" d="M70.2,12.08s-.02,0-.03,0c-.14-.06-.33-.13-.6-.22-.02,0-.04-.03-.05-.05,0-.03,0-.05.02-.07l.42-.49-.78-.36-.61.57s-.05.03-.08.02c-.22-.06-.4-.11-.57-.15-.03,0-.05-.03-.06-.05,0-.03,0-.06.02-.08.42-.48,1.11-1.54,1.77-3.08.55-1.3.17-2.69-.02-3.23,0-.02,0-.05,0-.07.01-.02.04-.03.06-.04.75-.05,1.5.05,2.21.29.96.33,1.59.81,1.88,1.43h0c.26.56.25,1.25-.06,2.04-.34.9-1.23,2.25-3.51,3.53-.01,0-.03.01-.04.02ZM69.73,11.75c.19.06.34.12.46.17,2.22-1.25,3.07-2.56,3.4-3.44.29-.75.31-1.39.06-1.92h0c-.27-.58-.87-1.03-1.79-1.35-.66-.22-1.35-.32-2.04-.29.21.61.53,1.96-.01,3.24-.63,1.46-1.28,2.5-1.71,3.03.12.03.26.07.41.11l.61-.57s.06-.03.09-.01l.92.43s.04.03.04.06c0,.02,0,.05-.02.07l-.42.48Z"/>
    <path class="st6" d="M65.81,11.25h-.02l-.08-.02h0c-.45-.09-.91-.14-1.37-.17h-.18s-.04-.03-.06-.05c-.01-.02-.02-.04-.01-.06l.17-.78-.57-.04-.16.81s-.04.07-.08.06h-.14c-.42-.02-.86-.03-1.3-.04h-.11s-.06-.02-.07-.05l-.04-.11s-.96-2.88-.41-4.47h0c.57-1.66,2.2-2.59,4.16-2.37.92.11,1.61.46,2.02,1.05.47.66.58,1.61.31,2.75-.46,1.99-1.88,3.36-1.95,3.42l-.06.06s-.04.02-.06.01ZM64.26,10.88h.09c.47.03.93.09,1.39.18h.05s.03-.02.03-.02c.06-.06,1.45-1.39,1.9-3.34.25-1.09.15-2-.29-2.62-.39-.55-1.04-.89-1.91-.99-1.88-.21-3.45.68-3.99,2.26h0c-.52,1.52.4,4.35.41,4.37l.02.06h.06c.44,0,.89.02,1.3.04h.07l.16-.81s.04-.07.08-.06l.73.06s.04.01.06.03c.01.02.02.04.01.06l-.17.78Z"/>
    <path class="st6" d="M65.72,10.9h-.02c-.38-.07-.77-.12-1.16-.15-.02,0-.04-.01-.06-.03-.01-.02-.02-.04-.01-.06l.17-.78-1.21-.09-.16.82s-.04.07-.08.06c-.31-.01-.66-.02-1.06-.03-.03,0-.06-.02-.07-.06-.14-.47-.83-2.86-.38-4.17.52-1.52,2.02-2.36,3.83-2.16.83.09,1.44.4,1.8.92.41.59.51,1.45.26,2.5-.38,1.65-1.47,2.87-1.79,3.2-.02.01-.04.02-.06.02ZM64.64,10.6c.57.05.9.11,1.05.13.35-.36,1.36-1.53,1.72-3.09.23-1,.15-1.82-.24-2.37h0c-.33-.48-.91-.77-1.69-.85-1.73-.2-3.17.61-3.66,2.05-.42,1.22.2,3.45.37,4.01.35,0,.66.01.94.03l.16-.82s.04-.07.08-.06l1.37.1s.04.01.06.03c.01.02.02.04.01.06l-.17.78Z"/>
    <path class="st6" d="M49.68,12.43s-.03,0-.04,0l-.07-.04c-2.41-1.34-3.35-2.77-3.72-3.74-.33-.87-.35-1.64-.05-2.29.33-.7,1.02-1.24,2.07-1.6.82-.29,1.69-.38,2.56-.29l.21.03s.05.02.06.04c.01.02.01.05,0,.07l-.08.19c-.07.18-.7,1.77-.1,3.17.83,1.92,1.63,2.96,1.88,3.16l.27.21s.03.05.03.08c0,.03-.03.05-.06.06l-.33.07c-.2.04-.44.1-.91.23l-.09.03s-.06,0-.08-.02l-.57-.54-.2.09.46.53s.02.05.02.07c0,.03-.03.05-.05.05l-.23.07c-.41.13-.71.24-.86.31l-.07.03s-.02,0-.04,0ZM49.81,4.6c-.64,0-1.28.11-1.89.32-1,.34-1.66.85-1.98,1.51h0c-.28.6-.26,1.33.05,2.16.36.94,1.28,2.34,3.65,3.66l.03.02.04-.02c.16-.07.47-.18.88-.31l.11-.04-.45-.52s-.02-.04-.02-.07c0-.02.02-.05.04-.06l.34-.16s.06,0,.09.01l.59.55h.04c.47-.15.72-.21.92-.25l.17-.03-.13-.11c-.27-.21-1.09-1.28-1.93-3.23-.62-1.45.02-3.1.1-3.29l.04-.1-.1-.02c-.2-.03-.39-.04-.59-.04h0ZM45.88,6.39h0Z"/>
    <path class="st6" d="M49.69,12.08s-.03,0-.04-.01c-2.28-1.28-3.17-2.63-3.51-3.53-.3-.79-.32-1.48-.06-2.04.29-.62.92-1.1,1.88-1.43.71-.24,1.46-.34,2.21-.29.02,0,.05.02.06.04.01.02.02.05,0,.07-.19.54-.58,1.93-.02,3.23h0c.66,1.54,1.35,2.6,1.77,3.08.02.02.02.05.02.08,0,.03-.03.05-.06.05-.16.04-.33.08-.57.15-.03,0-.06,0-.08-.02l-.61-.57-.78.36.42.49s.02.05.02.07c0,.03-.03.05-.05.05-.26.09-.46.16-.6.22-.01,0-.02,0-.03,0ZM49.83,4.92c-.61,0-1.22.1-1.8.3-.92.32-1.52.78-1.79,1.35-.25.52-.22,1.17.06,1.92.33.88,1.19,2.18,3.41,3.44.12-.05.27-.1.46-.17l-.41-.48s-.02-.04-.02-.07c0-.02.02-.05.04-.06l.92-.43s.06,0,.09.01l.61.57c.16-.05.29-.08.41-.11-.43-.53-1.08-1.56-1.71-3.03h0c-.55-1.28-.22-2.63-.01-3.24-.07,0-.15,0-.24,0Z"/>
    <path class="st6" d="M54.09,11.25s-.04,0-.05-.02l-.06-.06c-.06-.06-1.48-1.42-1.95-3.42-.26-1.14-.16-2.09.31-2.75.42-.59,1.1-.95,2.02-1.05h0c1.96-.22,3.59.71,4.16,2.37.55,1.6-.4,4.45-.41,4.48l-.03.11s-.04.05-.07.05h-.11c-.44,0-.88.02-1.3.04h-.14s-.07-.02-.08-.06l-.16-.81-.57.04.17.78s0,.05-.01.06c-.01.02-.03.03-.06.03h-.18c-.46.04-.92.1-1.37.19h0l-.08.02h-.03ZM54.38,4.1c-.88.1-1.52.43-1.91.99-.44.63-.54,1.53-.29,2.62.45,1.95,1.84,3.28,1.9,3.34l.03.03h.04s.01-.01.02-.01c.45-.09.91-.15,1.38-.17h.09s-.17-.78-.17-.78c0-.02,0-.05.01-.06.01-.02.03-.03.06-.03l.73-.06s.08.02.08.06l.16.81h.07c.42-.02.86-.03,1.3-.04h.06l.02-.05s.93-2.85.41-4.37c-.54-1.59-2.11-2.48-3.99-2.26h0Z"/>
    <path class="st6" d="M54.18,10.9s-.04,0-.06-.02c-.32-.33-1.41-1.55-1.79-3.2-.24-1.05-.15-1.91.26-2.5.36-.52.97-.83,1.8-.92.17-.02.35-.03.53-.03,1.57,0,2.84.84,3.3,2.19h0c.44,1.27-.18,3.51-.38,4.17-.01.03-.04.06-.07.06-.4,0-.74.02-1.06.03-.04,0-.07-.02-.08-.06l-.16-.82-1.21.09.17.78s0,.05-.01.06c-.01.02-.03.03-.06.03-.39.03-.77.08-1.16.15h-.02ZM54.92,4.38c-.17,0-.34,0-.51.03-.78.09-1.35.38-1.69.85-.39.55-.47,1.37-.24,2.37.36,1.56,1.37,2.73,1.72,3.09.15-.03.47-.08,1.05-.13l-.17-.78s0-.05.01-.06c.01-.02.03-.03.06-.03l1.37-.1s.08.02.08.06l.16.82c.28-.01.59-.02.94-.03.17-.57.78-2.8.37-4.01h0c-.44-1.28-1.65-2.08-3.15-2.08Z"/>
    <path class="st2" d="M37.74,20.44c1.48-1.85,1.61-4.92-.37-6.84-1.13-1.11-4.39-2.47-9.55-1.66-6.14.74-10.24,5.32-11.53,6.97-.29.37-.04.56.23.59s1.86.02,2.23-.02.6-.13.79-.39c.57-.79,1.95-2.52,3.82-3.72,3.24-2.08,12.55-3.51,11.27,2.35-.3,1.41-2.43,4.38-6.11,5.61-2.37.85-3.55.94-3.55.94l6.08-8.58s-2.34-1.06-4.1,1.22c-.69,1.2-2.56,4.13-4.66,7.29-.29-.05-.57-.16-.83-.31-.67-.43-1.3.64-.63,1.07.23.14.47.25.72.33-.73,1.06-1.48,2.11-2.24,3.07-1.15,1.46-3.1,2.65-4.38,2.31.04.5.29,2.42,2.31,2.39,1.57-.02,2.57-1.04,3.51-2.19,1.27-1.55,2.89-4.5,2.89-4.5,0,0,1.1.88,3.32,2.74,2.57,2.14,5.49,3.96,7.92,3.9,1.3-.03,2.26-.86,2.48-2.01.16-.86-.15-2.15-.5-2.61-.36.61-1.73,1.05-3.49.89s-3.85-1.18-5.59-2.15c-1.66-.93-2.91-1.63-2.91-1.63,0,0,.7-.12,2.93-.37,5.39-.71,8.05-2.32,9.93-4.67Z"/>
    <path class="st2" d="M45.36,20.4c-.35-.3-.81-.52-1.47-.58-.9-.06-1.8.09-2.64.44-.84.34-1.61.81-2.3,1.4-.65.55-1.2,1.2-1.63,1.94-.41.71-.61,1.4-.61,2.07,0,.27.04.53.11.79v-.02c.25.89.71,1.55,1.39,1.98.71.44,1.54.67,2.37.66.77,0,1.53-.19,2.22-.54.71-.35,1.36-.82,1.91-1.39.55-.56,1-1.2,1.35-1.9.33-.63.5-1.33.51-2.03.03-1.07-.42-2.1-1.22-2.81ZM44.96,24.28c-.52,1.17-1.35,2.19-2.46,2.84-.73.43-1.91.68-2.6.04-.44-.4-.54-1.02-.45-1.58.17-1.12.79-2.12,1.32-2.71,1.26-1.41,2.5-1.77,3.07-1.84.35-.05.7.06.96.3.88.83.43,2.37.17,2.94h0Z"/>
    <path class="st2" d="M72.82,26.66c-.2.4-.6.99-1.06.81-.44-.17,0-1.05.11-1.28.22-.48.81-1.63.81-1.63.09-.23.04-.49-.11-.68-.42-.61-1.27-1.12-2.04-1.02-.3.04-.34.57-.41.79-.37,1.16-1.24,1.77-1.88,2.42-.44.45-.94.82-1.5,1.09-.23.12-.48.2-.74.21-.26.01-.52-.1-.69-.29-.19-.23-.21-.55-.18-.84.06-.54.28-1.05.53-1.54.54-1.06,1.3-2,2.22-2.75.63-.5,1.38-.9,2.18-.92.3,0,.62.04.85.22.23.21.37.5.38.81,0,.19.09.38.24.5.21.15.83.19.98-.1.11-.22.07-.54-.03-.88-.24-.78-.52-1.28-1.32-1.62-.95-.4-2.18-.19-3.14.13-.59.2-1.16.46-1.68.79-.53.33-1.03.71-1.49,1.14-.44.41-.85.85-1.21,1.33-.33.43-.62.9-.87,1.39-.4.81-.62,1.71-.34,2.59.09.29.24.55.44.78.84,1,2.46,1.13,3.58.61.17-.08.33-.16.49-.25.64-.36,1.24-.79,1.79-1.27-.14.51.02,1.04.4,1.4,1.07,1.05,2.58.68,3.15.32.85-.54.85-1.29.84-1.6,0-.23-.16-.61-.26-.65Z"/>
    <path class="st2" d="M65.34,23.77c-.05-.11-.13-.2-.23-.26-.11-.07-.24-.1-.37-.09-.14,0-.27.07-.36.17l-.31.35c-.15.21-.29.41-.43.61-.14.2-.29.39-.45.57-.49.6-1.05,1.13-1.68,1.57-.51.36-1.02.77-1.61.93-.12.05-.26-.02-.31-.14-.02-.05-.02-.11,0-.16.07-.28.97-2.36,1.31-2.96.26-.46,1.27-2.29,1.41-2.77.16-.52-.12-1.21-.69-1.5-.96-.48-2.21.01-2.77.28-.61.29-1.75,1.07-1.75,1.07-.03-.16-.06-.31-.11-.46-.28-.55-.75-1.05-1.53-1.09-.66-.04-1.29.19-1.89.48s-1.55.9-1.72,1.05c.04-.48-.55-.95-.89-1.14-.48-.28-1.23-.54-1.76-.24-1.54.87-2.55,1.27-4.28,1.49-.97.13-.84,1.51,0,1.54.63.02,2.17-.38,3.66-1.02-.11.24-.22.48-.33.72-.41.87-.79,1.74-1.15,2.6-.35.85-.56,1.75-.62,2.67.01.12.13.24.35.36.22.13.46.24.7.33.22.09.46.15.69.17.22.02.33-.02.35-.12.07-.74.24-1.46.49-2.15.26-.72.57-1.42.93-2.09.42-.41.85-.79,1.29-1.16s.93-.74,1.47-1.12c.64-.42,1.05-.63,1.23-.63.04.03.01.17-.09.43s-.24.55-.42.91c-.42.83-.8,1.67-1.13,2.5-.32.82-.51,1.69-.55,2.57-.01.25.52.47.69.55.16.08,1.41.59,1.41.19.05-.52.14-1.04.27-1.54.13-.5.3-.99.51-1.47.18-.39.37-.79.59-1.18.4-.43.83-.84,1.29-1.21.44-.36.93-.73,1.49-1.11.29-.22.6-.41.92-.58.18-.08.2-.05.26-.01.14.1-.32.9-.44,1.14-.33.62-.66,1.24-.96,1.87-.31.66-.59,1.35-.71,2.07-.1.59-.03,1.24.38,1.7.79.87,2.24.76,3.19.25.49-.26.95-.57,1.38-.93.42-.35.82-.72,1.2-1.12.36-.39.65-.71.86-.97.19-.26.38-.52.58-.78.2-.25.39-.51.58-.75.08-.11.11-.25.07-.39Z"/>
  </g>
</svg>