<?xml version="1.0" encoding="UTF-8"?>
<svg id="Capa_1" xmlns="http://www.w3.org/2000/svg" version="1.1" viewBox="0 0 122.35 50">
  <!-- Generator: Adobe Illustrator 29.8.4, SVG Export Plug-In . SVG Version: 2.1.1 Build 6)  -->
  <defs>
    <style>
      .st0, .st1 {
        fill: #fff;
      }

      .st1, .st2 {
        fill-rule: evenodd;
      }

      .st3, .st2 {
        fill: #ce0e2d;
      }
    </style>
  </defs>
  <polygon class="st3" points="56.11 8.87 60.51 8.87 60.51 11.09 58.32 11.09 58.32 12.78 60.51 12.78 60.51 15.2 58.4 15.2 58.4 19.82 56.11 19.82 56.11 8.87"/>
  <path class="st3" d="M67.38,11.57h1.74v.86s.33-1.05,1.24-.89v2.42s-1.2-.09-1.2,1.07v4.76h-1.8s.02-8.22.02-8.22Z"/>
  <path class="st3" d="M71.37,11.56h1.58v.53s.06.14.14-.02c.08-.16.48-.68,1.12-.68s1.19.68,1.19.68c0,0,.05.09.13.07.07,0,.09-.08.09-.08,0,0,.4-.68,1.18-.68s1.46.93,1.46,1.87v6.54h-1.49v-5.76s.04-.82-.58-.82-.6.87-.6.87v5.7h-1.51v-5.76s.08-.82-.52-.82-.51.82-.51.82v5.76h-1.69v-8.23h.01Z"/>
  <path class="st3" d="M89.52,14.77h-1.46v-.73s.02-.9-.52-.9-.57.92-.57.92v3.3s.05.74.57.74.5-.67.5-.67v-.76h1.5v1.85s-.07,1.37-2.11,1.37-2.08-1.56-2.08-1.56v-4.85s-.04-2.08,2.13-2.08,2.05,1.72,2.05,1.72l-.02,1.65h0Z"/>
  <polygon class="st3" points="90.67 11.54 92.53 11.54 92.53 19.82 90.66 19.82 90.67 11.54"/>
  <rect class="st3" x="90.71" y="8.87" width="1.83" height="2.12"/>
  <path class="st3" d="M102.27,14.37h1.42v-1.57s-.04-1.39-2.03-1.39-2,1.75-2,1.75c0,0-.19,2.06.85,2.8s1.63,1.41,1.63,1.41c0,0,.41,1.21-.48,1.21s-.61-1.27-.61-1.27h-1.39v1.45s.06,1.15,1.96,1.15,2.16-1.08,2.16-1.42.27-2.13-.75-2.8c0,0-1.87-1.23-1.87-1.83s.03-.98.57-.98.56.42.54,1.49h0Z"/>
  <path class="st3" d="M110.88,19.42v.38h1.34v-10.88h-1.54v3.43s-.51-1.19-1.53-.94c-1.34.33-1.22,2.48-1.22,2.48v4.38s0,1.2.91,1.51c1.04.35,2.03-.36,2.03-.36h.01ZM109.64,17.22v-2.8s-.09-.81.52-.81.47.84.47.84v2.87s.11.7-.48.7-.51-.8-.51-.8h0Z"/>
  <path class="st3" d="M116.36,17.03v.92s.1.63-.47.61c-.59-.02-.51-.5-.51-.5v-1.73h2.55v-2.56s.11-2.37-2.04-2.37-2.21,2.35-2.21,2.35v4.5s.03,1.64,2.17,1.64,2.13-1.23,2.13-1.23v-1.64h-1.63.01ZM115.33,14.03s.02-.67.59-.67.61.59.61.59v.97h-1.22v-.9h.02Z"/>
  <rect class="st3" x="119.36" y="8.93" width="1.8" height="10.89"/>
  <path class="st3" d="M58.31,44.1h4.62l-.7-19.14h-5.77l-9.61,19.13h4.63l2.11-4.01h4.72v4.01h0ZM55.88,36.19l1.79-4.05.19,4.05h-1.98Z"/>
  <path class="st3" d="M66.94,24.96h4.5l-.55,5.72s0,.1.22,0c.23-.1,2.69-.88,4.18.1,1.56,1.02,1.65,1.75,1.49,2.97s-1.42,10.36-1.42,10.36h-4.69l1.23-9.37s.16-1.02-.51-1.02-.89.86-.89.86l-1.37,9.53h-4.5l2.3-19.14h.01Z"/>
  <path class="st3" d="M92.44,30.64h4.4l-.1.45s.18.19.33-.03c.15-.22,1.53-1.12,3.24-.26l-.48,3.89s-3.38-.29-3.7,2.3c-.32,2.58-.78,7.1-.78,7.1h-4.63l1.71-13.46h0Z"/>
  <path class="st3" d="M101.62,30.64h4.4l-.1.45s.18.19.33-.03c.16-.22,1.52-1.12,3.25-.26l-.48,3.89s-3.38-.29-3.7,2.3c-.32,2.58-.78,7.1-.78,7.1h-4.63l1.71-13.46h0Z"/>
  <path class="st3" d="M88.36,41.36c.74-1.4,1.02-4.93,1.06-6.12.03-1.08-.1-5.14-4.52-5.04-4.42.09-5.56,2.29-6.19,3.35-.84,1.43-1.06,6.79-1.06,6.79.13,1.56,1.25,4.24,5.29,4.24s4.68-1.82,5.42-3.22ZM82.89,41.01c-.93-.12-.64-1.58-.64-1.58l.6-4.07s.36-1.51,1.34-1.37c.97.13.72,1.58.72,1.58,0,0-.38,3.45-.67,4.32-.29.86-.42,1.24-1.35,1.13h0Z"/>
  <path class="st3" d="M119.82,41.36c.73-1.4,1.02-4.93,1.06-6.12.03-1.08-.1-5.14-4.52-5.04-4.42.09-5.56,2.29-6.19,3.35-.84,1.43-1.06,6.79-1.06,6.79.13,1.56,1.25,4.24,5.29,4.24s4.68-1.82,5.42-3.22h0ZM114.35,41.01c-.93-.12-.65-1.58-.65-1.58l.61-4.07s.36-1.51,1.34-1.37c.97.13.72,1.58.72,1.58,0,0-.37,3.45-.67,4.32-.28.86-.42,1.24-1.35,1.13h0Z"/>
  <g>
    <g>
      <g>
        <path class="st2" d="M20.17,3.77L1.98,39.3c-3.18-6.91-1.69-15.81,4.75-24.66,3.5-4.82,8.32-8.55,13.45-10.86h-.01Z"/>
        <path class="st3" d="M1.96,40.14l-.32-.69C-1.67,32.27.08,23.15,6.42,14.42c3.37-4.64,8.2-8.54,13.59-10.98l.97-.44L1.96,40.14ZM19.35,4.57c-4.88,2.4-9.23,6.02-12.32,10.28C1.05,23.07-.76,31.61,2,38.43L19.35,4.57Z"/>
      </g>
      <g>
        <polygon class="st2" points="17.18 28.91 26.35 10.3 30.29 28.91 17.18 28.91"/>
        <path class="st3" d="M30.74,29.28h-14.16l9.91-20.1,4.25,20.1ZM17.78,28.54h12.05l-3.62-17.11-8.44,17.11h0Z"/>
      </g>
      <g>
        <path class="st2" d="M31.51,37.09l1.07,6.83c-8.59,5.43-18.88,6.45-24.45,2.66l4.51-9.49h18.87Z"/>
        <path class="st3" d="M16.67,49.21c-3.39,0-6.45-.76-8.75-2.33l-.26-.18,4.75-9.98h19.42l1.16,7.38-.21.13c-5.18,3.27-11.02,4.98-16.1,4.98h-.01ZM8.6,46.44c5.53,3.52,15.34,2.4,23.57-2.71l-.98-6.27H12.88l-4.27,8.98h-.01Z"/>
      </g>
      <g>
        <path class="st2" d="M41.84,35.08L33.92,1.18c3.19.31,6.11,1.36,8.47,3.24,8.75,6.97,7.92,18.61-.56,30.66h.01Z"/>
        <path class="st3" d="M41.66,35.96L33.44.76l.51.05c3.4.33,6.31,1.45,8.66,3.32,8.61,6.85,8.42,18.5-.48,31.16l-.48.68h.01ZM34.4,1.6l7.61,32.57c8.19-12.04,8.27-23.01.15-29.47-2.12-1.69-4.73-2.73-7.76-3.1h0Z"/>
      </g>
    </g>
    <g>
      <g>
        <polygon class="st1" points="26.35 10.3 30.29 28.91 17.18 28.91 26.35 10.3"/>
        <path class="st0" d="M30.75,29.28h-14.17l9.92-20.13,4.25,20.13ZM17.79,28.53h12.04l-3.61-17.09-8.42,17.09h-.01Z"/>
      </g>
      <g>
        <polygon class="st2" points="30.29 28.91 17.18 28.91 26.35 10.3 30.29 28.91"/>
        <path class="st3" d="M30.75,29.28h-14.17l9.92-20.12,4.25,20.12ZM17.78,28.53h12.04l-3.62-17.1-8.43,17.1h.01Z"/>
      </g>
    </g>
  </g>
  <path class="st3" d="M63.98,11.4c-2.82,0-2.53,2.72-2.53,2.72h1.8s-.11-.84.41-.89c.61-.05.56.33.56.33v.64s-.66.21-1.55.83-2.2,1.93-1.27,3.89c.93,1.97,3.11.37,3.11.37v.54h1.77v-6.24s.22-2.2-2.31-2.2h.01ZM64.23,17.45c0,.51-.3.88-1,.83-.7-.04-.75-.75-.37-1.37.49-.78,1.37-.91,1.37-.91v1.46h0Z"/>
  <path class="st3" d="M81.99,11.4c-2.81,0-2.53,2.72-2.53,2.72h1.8s-.11-.84.41-.89c.6-.05.56.33.56.33v.64s-.67.21-1.55.83c-.89.62-2.2,1.93-1.27,3.89.93,1.97,3.11.37,3.11.37v.54h1.77v-6.24s.21-2.2-2.31-2.2h0ZM82.42,17.45c-.01.51-.3.88-1,.83-.7-.04-.75-.75-.37-1.37.49-.78,1.37-.91,1.37-.91v1.46h0Z"/>
  <path class="st3" d="M96.41,11.4c-2.82,0-2.53,2.72-2.53,2.72h1.8s-.1-.84.41-.89c.61-.05.56.33.56.33v.64s-.66.21-1.56.83c-.89.62-2.19,1.93-1.26,3.89.93,1.97,3.11.37,3.11.37v.54h1.77v-6.24s.22-2.2-2.31-2.2h0ZM96.84,17.45c0,.51-.3.88-1,.83-.7-.04-.75-.75-.38-1.37.49-.78,1.37-.91,1.37-.91v1.46h0Z"/>
</svg>