<?xml version="1.0" encoding="utf-8"?>
<!-- Generator: Adobe Illustrator 25.0.0, SVG Export Plug-In . SVG Version: 6.00 Build 0)  -->
<svg version="1.1" id="Capa_1" xmlns="http://www.w3.org/2000/svg" xmlns:xlink="http://www.w3.org/1999/xlink" x="0px" y="0px"
	 viewBox="0 0 1000 314" style="enable-background:new 0 0 1000 314;" xml:space="preserve">
<style type="text/css">
	.st0{fill:#001E61;}
	.st1{fill:#009845;}
	.st2{fill:#E1251B;}
	.st3{enable-background:new    ;}
	.st4{fill:#265F50;}
	.st5{fill:#276050;}
	.st6{fill:#9E8054;}
	.st7{fill:#00803F;}
	.st8{fill:url(#SVGID_1_);}
	.st9{fill:url(#SVGID_2_);}
	.st10{fill:url(#SVGID_3_);}
	.st11{fill:url(#SVGID_4_);}
	.st12{fill:url(#SVGID_5_);}
	.st13{fill:url(#SVGID_6_);}
</style>
<g>
	<g>
		<g>
			<g>
				<path d="M744.9,297.37c0.31-2.03,0.61-4.07,0.92-6.12h-2.11c0.06-0.42,0.13-0.85,0.19-1.28h5.87c-0.05,0.43-0.13,0.86-0.19,1.28
					h-2.2l-0.92,6.12H744.9z M752.63,293h3.01c-0.07,0.41-0.12,0.82-0.19,1.22h-2.97c-0.13,0.63-0.2,1.26-0.31,1.89h3.41
					c-0.05,0.43-0.14,0.84-0.21,1.25h-4.95c0.35-2.46,0.75-4.93,1.12-7.4h4.95c-0.07,0.42-0.15,0.83-0.21,1.26h-3.37
					C752.84,291.82,752.76,292.42,752.63,293 M758.67,289.97h1.58l-0.95,6.12h3.14l-0.19,1.28h-4.71L758.67,289.97z M766.22,293h3
					c-0.07,0.41-0.13,0.82-0.18,1.22h-2.99c-0.09,0.63-0.19,1.26-0.27,1.89h3.38c-0.06,0.43-0.12,0.84-0.19,1.25H764
					c0.37-2.46,0.73-4.93,1.12-7.4h4.95c-0.05,0.42-0.13,0.83-0.18,1.26h-3.38C766.43,291.82,766.32,292.42,766.22,293
					 M776.24,297.23c-0.73,0.14-1.81,0.29-2.48,0.29c-1.8,0-2.45-0.68-2.5-2.19c-0.02-0.48,0.05-1.01,0.15-1.64
					c0.4-2.69,1.1-3.83,3.59-3.83c0.62,0,1.55,0.08,2.3,0.24c-0.1,0.43-0.25,0.86-0.37,1.28c-0.58-0.09-1.17-0.18-1.74-0.18
					c-1.33,0-1.85,0.62-2.08,2.08c-0.08,0.45-0.17,1.01-0.2,1.39c-0.03,1.01,0.03,1.53,1.41,1.53c0.48,0,1.3-0.11,1.92-0.21
					C776.24,296.39,776.21,296.8,776.24,297.23 M778.21,295.25c0-0.45,0.06-0.98,0.14-1.57c0.42-2.69,1.11-3.86,3.88-3.86
					c2.1,0,2.85,0.7,2.89,2.28c0.01,0.46-0.03,0.98-0.13,1.59c-0.42,2.67-1.11,3.84-3.87,3.84
					C779,297.51,778.27,296.81,778.21,295.25 M780.14,292.88c-0.15,0.66-0.31,1.67-0.29,2.16c0.03,0.88,0.45,1.14,1.54,1.14
					c1.1,0,1.57-0.46,1.82-1.73c0.14-0.68,0.32-1.64,0.29-2.16c-0.03-0.88-0.45-1.15-1.54-1.15
					C780.84,291.14,780.45,291.63,780.14,292.88 M786.55,297.37l1.54-7.4h1.9l1.07,4.74l2.55-4.74h1.95l-0.73,7.4h-1.46l0.44-3.58
					l0.37-2.26l-2.58,4.79h-1.47l-1.14-4.79l-0.32,2.28l-0.65,3.56H786.55z M798.3,289.97h1.63l-0.64,4.13
					c-0.19,1.14-0.24,2.05,1.11,2.05c1.12,0,1.47-0.37,1.75-2.05l0.65-4.13h1.57l-0.59,3.96c-0.4,2.75-1.04,3.59-3.55,3.59
					c-1.94,0-2.64-0.54-2.66-2.02c-0.02-0.44,0.03-0.97,0.13-1.57L798.3,289.97z M805.79,297.37l1.12-7.4h1.82l2.24,5.69l0.2-2.72
					l0.45-2.97h1.49l-1.15,7.4h-1.82l-2.23-5.67l-0.16,2.5l-0.48,3.17H805.79z M814.51,297.37c0.37-2.46,0.74-4.93,1.12-7.4h1.57
					c-0.37,2.47-0.75,4.93-1.13,7.4H814.51z M823.76,297.23c-0.72,0.14-1.8,0.29-2.46,0.29c-1.8,0-2.47-0.68-2.5-2.19
					c0-0.48,0.02-1.01,0.12-1.64c0.41-2.69,1.1-3.83,3.6-3.83c0.64,0,1.56,0.08,2.31,0.24c-0.13,0.43-0.25,0.86-0.38,1.28
					c-0.56-0.09-1.15-0.18-1.74-0.18c-1.34,0-1.85,0.62-2.08,2.08c-0.09,0.45-0.19,1.01-0.2,1.39c-0.04,1.01,0.03,1.53,1.43,1.53
					c0.46,0,1.29-0.11,1.88-0.21C823.76,296.39,823.76,296.8,823.76,297.23 M830.59,297.37l-0.32-1.74h-2.68l-0.83,1.74h-1.62
					l3.64-7.4h2.04l1.39,7.4H830.59z M829.63,291.04h-0.06l-1.52,3.46h2.11L829.63,291.04z M838.86,297.23
					c-0.72,0.14-1.79,0.29-2.47,0.29c-1.79,0-2.45-0.68-2.47-2.19c-0.02-0.48,0.02-1.01,0.13-1.64c0.39-2.69,1.07-3.83,3.6-3.83
					c0.62,0,1.55,0.08,2.3,0.24c-0.14,0.43-0.26,0.86-0.39,1.28c-0.56-0.09-1.15-0.18-1.74-0.18c-1.31,0-1.86,0.62-2.08,2.08
					c-0.08,0.45-0.19,1.01-0.21,1.39c-0.01,1.01,0.03,1.53,1.44,1.53c0.46,0,1.29-0.11,1.89-0.21
					C838.86,296.39,838.86,296.8,838.86,297.23 M840.75,297.37c0.36-2.46,0.74-4.93,1.1-7.4h1.57c-0.36,2.47-0.75,4.93-1.12,7.4
					H840.75z M845.05,295.25c-0.01-0.45,0.03-0.98,0.11-1.57c0.42-2.69,1.12-3.86,3.9-3.86c2.11,0,2.83,0.7,2.88,2.28
					c0,0.46-0.05,0.98-0.13,1.59c-0.44,2.67-1.12,3.84-3.88,3.84C845.81,297.51,845.08,296.81,845.05,295.25 M846.94,292.88
					c-0.14,0.66-0.3,1.67-0.28,2.16c0,0.88,0.46,1.14,1.54,1.14c1.13,0,1.56-0.46,1.82-1.73c0.15-0.68,0.31-1.64,0.29-2.16
					c-0.01-0.88-0.46-1.15-1.56-1.15C847.65,291.14,847.26,291.63,846.94,292.88 M853.56,297.37l1.12-7.4h1.82l2.24,5.69l0.19-2.72
					l0.46-2.97h1.47l-1.15,7.4h-1.81l-2.23-5.67l-0.15,2.5l-0.51,3.17H853.56z M864.52,293h3c-0.05,0.41-0.11,0.82-0.18,1.22h-2.98
					c-0.11,0.63-0.21,1.26-0.29,1.89h3.4c-0.06,0.43-0.14,0.84-0.21,1.25h-4.96c0.37-2.46,0.76-4.93,1.11-7.4h4.97
					c-0.06,0.42-0.11,0.83-0.2,1.26h-3.38C864.69,291.82,864.64,292.42,864.52,293 M869.49,296c0.75,0.1,1.32,0.17,1.96,0.17
					c1.02,0,1.57-0.12,1.64-0.65c0.06-0.46-0.26-0.73-0.96-1.1l-0.98-0.53c-0.79-0.42-1.57-0.98-1.35-2.16
					c0.25-1.52,1.3-1.9,3.14-1.9c0.65,0,1.54,0.09,2.22,0.21l-0.33,1.3c-0.56-0.09-1.23-0.16-1.72-0.16c-1.14,0-1.56,0.12-1.66,0.65
					c-0.06,0.45,0.34,0.68,0.92,0.98l0.94,0.51c1.1,0.57,1.63,1.18,1.48,2.2c-0.2,1.37-1.15,1.97-3.39,1.97
					c-0.73,0-1.51-0.08-2.23-0.21L869.49,296z M880.52,297.29c0.35-2.44,0.72-4.88,1.1-7.32h2.8c2.03,0,2.78,0.62,2.83,2.2
					c0.01,0.42-0.04,0.91-0.13,1.48c-0.39,2.7-1.15,3.85-3.82,3.85C882.47,297.49,881.26,297.4,880.52,297.29 M882.97,291.25
					c-0.25,1.62-0.5,3.24-0.75,4.86c0.41,0.06,0.79,0.09,1.22,0.09c1.39,0,1.78-0.61,2-2.11c0.1-0.62,0.2-1.31,0.18-1.75
					c-0.01-0.78-0.37-1.09-1.43-1.09H882.97z M891.11,293h2.98c-0.03,0.41-0.12,0.82-0.17,1.22h-2.98
					c-0.12,0.63-0.21,1.26-0.31,1.89h3.4c-0.08,0.43-0.13,0.84-0.18,1.25h-4.99c0.38-2.46,0.76-4.93,1.12-7.4h4.96
					c-0.05,0.42-0.12,0.83-0.19,1.26h-3.37C891.3,291.82,891.2,292.42,891.11,293 M899.41,297.37l1.54-7.4h1.9l1.07,4.74l2.54-4.74
					h1.96l-0.73,7.4h-1.46l0.45-3.58l0.35-2.26l-2.59,4.79h-1.46l-1.15-4.79l-0.32,2.28l-0.65,3.56H899.41z M912.35,293h2.97
					c-0.04,0.41-0.11,0.82-0.18,1.22h-3c-0.09,0.63-0.19,1.26-0.27,1.89h3.41c-0.07,0.43-0.14,0.84-0.2,1.25h-4.97
					c0.38-2.46,0.75-4.93,1.11-7.4h4.97c-0.06,0.42-0.13,0.83-0.2,1.26h-3.38C912.53,291.82,912.42,292.42,912.35,293
					 M915.54,287.39l0.2,1.31l-2.99,0.81c-0.05-0.27-0.08-0.55-0.13-0.81C913.6,288.27,914.58,287.85,915.54,287.39 M916.51,297.37
					l2.67-3.76l-1.37-3.64h1.74l0.99,2.97l1.96-2.97h1.74l-2.51,3.64l1.57,3.76h-1.78l-1.15-3.1l-2.12,3.1H916.51z M924.97,297.37
					c0.37-2.46,0.73-4.93,1.11-7.4h1.58c-0.38,2.47-0.76,4.93-1.12,7.4H924.97z M934.22,297.23c-0.71,0.14-1.79,0.29-2.45,0.29
					c-1.82,0-2.48-0.68-2.51-2.19c-0.01-0.48,0.04-1.01,0.13-1.64c0.41-2.69,1.08-3.83,3.61-3.83c0.62,0,1.54,0.08,2.31,0.24
					c-0.15,0.43-0.26,0.86-0.4,1.28c-0.56-0.09-1.15-0.18-1.74-0.18c-1.32,0-1.85,0.62-2.08,2.08c-0.08,0.45-0.18,1.01-0.2,1.39
					c-0.01,1.01,0.03,1.53,1.43,1.53c0.46,0,1.29-0.11,1.89-0.21C934.22,296.39,934.22,296.8,934.22,297.23 M936.24,295.25
					c-0.04-0.45,0.01-0.98,0.1-1.57c0.41-2.69,1.13-3.86,3.88-3.86c2.11,0,2.83,0.7,2.89,2.28c0.01,0.46-0.06,0.98-0.11,1.59
					c-0.43,2.67-1.14,3.84-3.89,3.84C937,297.51,936.25,296.81,936.24,295.25 M938.14,292.88c-0.15,0.66-0.32,1.67-0.28,2.16
					c0,0.88,0.43,1.14,1.52,1.14c1.13,0,1.56-0.46,1.81-1.73c0.15-0.68,0.31-1.64,0.31-2.16c-0.01-0.88-0.45-1.15-1.55-1.15
					C938.84,291.14,938.45,291.63,938.14,292.88"/>
				<path class="st0" d="M732.12,222.46h3.97c-0.28,1.83-1.83,3.03-3.71,3.03c-1.5,0-2.12-0.71-2.12-1.51
					C730.26,223.28,730.92,222.46,732.12,222.46 M748.64,217.12h-38.26c-2.04,0-3.39,1.35-3.66,3.07
					c-0.49,3.11-1.82,12.22-1.82,12.22h6.65l-0.68,4.4c1.44-2.77,3.62-5.11,6.25-6.74h-7.86c1.84-5.28,6.41-9.63,15.95-9.63h11.17
					c0,0-0.13,0.92-0.29,2l0,0h9.21c2.69,0,3.73,0.94,3.29,3.88c-0.4,2.47-1.01,6.57-1.01,6.57c0.51,0.31,1.41,0.96,1.94,1.42
					c0.3,0.24,0.81,0.18,0.9-0.37c0.09-0.67,1.37-9.08,1.89-12.63C752.84,217.91,751.03,217.12,748.64,217.12"/>
				<path class="st1" d="M767.1,273.04l6.62-43.88c0,0,4.97-2.55,5.81-2.98c0.92-0.48,1.71-0.29,1.49,1.17
					c-0.41,2.54-6.92,45.68-6.92,45.68h-7V273.04z M740.25,230.97c-8.48,0-15.68,3.36-17.75,17.36
					c-2.31,15.45-3.69,24.71-3.69,24.71h6.98c0,0,1.39-9.26,3.69-24.71c1.64-11.01,7.27-15.36,18.13-15.42
					C745.35,231.5,743.13,230.97,740.25,230.97 M806.51,266.18c-4.72,1.75-6.29,2.21-9.74,2.21c-4.75,0-8.09-1.11-6.91-7.33
					c0,0,6.5-0.95,11.53-1.7c7.12-1.09,10.07-3.54,10.77-8.85c1.23-9.22-4.91-10.97-10.94-10.97c-11.2,0-16.5,5.69-18.02,15.33
					c-1.86,12.02-0.7,18.75,12.27,18.75c6.67,0,10.73-2.56,12.07-3.49L806.51,266.18z M790.08,255.8
					c0.6-6.07,3.81-11.33,10.88-11.33c4.58,0,5.45,3.08,5.16,4.9c-0.35,2.35-1.16,4.2-6.77,5.03
					C793.21,255.31,790.08,255.8,790.08,255.8 M759.29,266.18c-4.71,1.75-6.27,2.21-9.73,2.21c-4.77,0-8.1-1.11-6.92-7.33
					c0,0,6.5-0.95,11.51-1.7c7.14-1.09,10.07-3.54,10.79-8.85c1.24-9.22-4.89-10.97-10.93-10.97c-11.19,0-16.5,5.69-18,15.33
					c-1.88,12.02-0.69,18.75,12.26,18.75c6.67,0,10.75-2.56,12.06-3.49L759.29,266.18z M742.87,255.8
					c0.6-6.07,3.81-11.33,10.87-11.33c4.57,0,5.46,3.08,5.17,4.9c-0.35,2.35-1.16,4.2-6.77,5.03
					C745.99,255.31,742.87,255.8,742.87,255.8 M843.08,243.1c-2.11-2.06-4.77-3.55-10.04-3.55c-8.34,0-15.06,5.03-16.71,15.69
					c-1.61,10.48-0.73,18.39,11.54,18.39c6.69,0,9.82-2.56,11.15-3.49l-1.03-3.95c-3.14,1.27-4.98,2.21-8.42,2.21
					c-5.53,0-7.34-2.69-5.73-13.03c1.41-9.19,7-10.78,9.54-10.78c3.24,0,4.97,1.58,5.89,3.91L843.08,243.1z M861.75,239.53
					c-9.77,0-15.98,4.66-17.72,16.1c-1.88,12.18,0.34,18.05,12.13,18.05c11.37,0,15.43-8.08,16.95-18.05
					C874.65,245.56,872.17,239.53,861.75,239.53 M866.2,255.63c-1.3,9.11-4.07,12.73-9.82,12.73c-5.47,0-6.38-3.16-4.96-12.73
					c1.41-9.07,4.82-11.16,9.86-11.16C865.18,244.46,867.61,245.85,866.2,255.63 M912.4,239.56c-4.37,0-7.07,1.7-9.55,4.93
					c-0.99-3.16-4.47-4.93-7-4.93c-4.39,0-6.72,1.36-9.01,3.99h-0.13c0.13-1.34,0.16-1.65,0.3-2.93c0.16-1.45-0.43-1.63-1.32-1.17
					c-1.29,0.67-4.86,2.49-4.86,2.49l-4.66,31.11h6.76c1.08-7.2,2.15-14.4,3.14-20.97c1.16-4.2,4.1-6.62,7.13-6.62
					c3.01,0,4.27,2.64,3.67,6.58c-0.93,5.92-3.17,21.02-3.17,21.02h6.87c1.08-7.2,2.16-14.4,3.16-20.97
					c0.89-3.22,3.93-6.62,6.77-6.62c3.61,0,4.6,2.64,4.02,6.58c-0.89,5.93-3.18,21.02-3.18,21.02h6.76
					c1.08-7.2,2.26-14.98,3.25-21.56C922.13,246.37,921.04,239.56,912.4,239.56 M961.81,239.56c-4.4,0-7.1,1.7-9.56,4.93
					c-1.01-3.16-4.5-4.93-7.01-4.93c-4.39,0-6.7,1.36-9,3.99h-0.15c0.15-1.34,0.16-1.65,0.31-2.93c0.16-1.45-0.43-1.63-1.34-1.17
					c-1.28,0.67-4.84,2.49-4.84,2.49l-4.68,31.11h6.76c1.1-7.2,2.17-14.4,3.17-20.97c1.13-4.2,4.1-6.62,7.13-6.62
					c3.02,0,4.26,2.64,3.66,6.58c-0.91,5.92-3.16,21.02-3.16,21.02h6.87c1.09-7.2,2.16-14.4,3.16-20.97
					c0.88-3.22,3.94-6.62,6.77-6.62c3.63,0,4.62,2.64,4.02,6.58c-0.9,5.93-3.16,21.02-3.16,21.02h6.76
					c1.07-7.2,2.24-14.98,3.25-21.56C971.51,246.37,970.43,239.56,961.81,239.56 M972.49,270.72c0,3.13,1.89,4.26,4.26,4.26
					c2.36,0,4.24-1.13,4.24-4.26c0-3.11-1.89-4.27-4.24-4.27C974.39,266.46,972.49,267.61,972.49,270.72 M973.48,270.72
					c0-2.42,1.49-3.31,3.28-3.31c1.75,0,3.24,0.89,3.24,3.31c0,2.41-1.49,3.3-3.24,3.3C974.98,274.02,973.48,273.13,973.48,270.72
					 M976.03,271.36c0.23,0.03,0.41,0.03,0.67,0.03c0.31,0.55,0.63,1.09,0.98,1.65h1.14c-0.4-0.58-0.77-1.14-1.14-1.78
					c0.61-0.21,0.92-0.67,0.92-1.39c0-0.9-0.43-1.55-1.74-1.55h-1.88v4.71h1.06L976.03,271.36L976.03,271.36z M976.82,269.14
					c0.56,0,0.75,0.29,0.75,0.68v0.09c0,0.48-0.26,0.68-0.85,0.68c-0.24,0-0.51-0.01-0.68-0.04v-1.41L976.82,269.14L976.82,269.14z"
					/>
				<path class="st2" d="M894.43,280.64L894.43,280.64H790.21c-14.85,0.01-24.25,0.86-24.25,0.86s13.86,0.84,24.25,0.86v0.01h103.9
					v-0.01c14.73-0.02,24.05-0.86,24.05-0.86S904.78,280.68,894.43,280.64"/>
			</g>
		</g>
		<g>
			<g class="st3">
				<path class="st4" d="M549.51,245.38l-5.97,30.12h-5.23l0.74-3.69c-2.67,2.56-6.31,4.03-10.63,4.03c-7.67,0-13.3-4.89-13.3-13.01
					c0-10.34,7.27-17.73,17.05-17.73c5.17,0,8.92,1.88,10.85,5.4l1.02-5.11H549.51z M541.38,258.34c0-5.34-3.24-8.47-8.98-8.47
					c-6.76,0-11.76,5.29-11.76,12.73c0,5.29,3.24,8.47,8.98,8.47C536.44,271.07,541.38,265.78,541.38,258.34z"/>
				<path class="st4" d="M586.22,255.1c0,1.08-0.11,2.27-0.34,3.52l-3.35,16.88h-5.46l3.35-16.88c0.17-0.91,0.28-1.76,0.28-2.5
					c0-3.92-2.27-6.14-6.99-6.14c-5.85,0-9.83,3.12-11.14,9.6l-3.18,15.91h-5.46l5.97-30.12h5.23l-0.74,3.86
					c2.78-2.84,6.59-4.15,10.91-4.15C582.13,245.1,586.22,248.68,586.22,255.1z"/>
				<path class="st4" d="M600.71,265.9c-0.11,0.57-0.17,1.08-0.17,1.59c0,2.33,1.25,3.75,3.98,3.75c1.48,0,3.07-0.51,4.32-1.42
					l1.14,4.15c-2.05,1.42-4.6,1.88-6.99,1.88c-4.72,0-7.96-2.84-7.96-7.56c0-0.68,0.06-1.48,0.23-2.27l3.24-16.14h-5.11l0.85-4.49
					h5.17l1.31-6.59h5.46l-1.31,6.59h8.64l-0.91,4.49h-8.64L600.71,265.9z"/>
				<path class="st4" d="M620.43,262.15v0.34c0,5.51,3.07,8.58,9.55,8.58c3.75,0,7.16-1.36,9.32-3.47l2.33,3.92
					c-2.95,2.78-7.5,4.32-12.1,4.32c-8.92,0-14.43-5.11-14.43-13.07c0-10.23,7.16-17.67,16.99-17.67c8.13,0,13.47,4.89,13.47,13.01
					c0,1.42-0.17,2.78-0.4,4.03H620.43z M621,258.17h19.43c0.28-5.51-3.24-8.52-8.58-8.52C626.4,249.65,622.37,252.94,621,258.17z"
					/>
				<path class="st4" d="M646.97,272.38l2.44-4.32c2.33,1.88,6.36,3.07,10.46,3.07c5.23,0,7.9-1.65,7.9-4.43
					c0-5.85-16.71-1.65-16.71-11.82c0-5.97,5.4-9.77,13.64-9.77c3.98,0,8.07,1.02,10.51,2.73l-2.16,4.32
					c-2.44-1.71-5.8-2.39-8.86-2.39c-5.06,0-7.67,1.88-7.67,4.49c0,6.08,16.65,1.82,16.65,11.82c0,6.25-5.62,9.77-13.81,9.77
					C654.25,275.84,649.42,274.36,646.97,272.38z"/>
			</g>
		</g>
	</g>
	<g>
		<g>
			<g>
				<g>
					<path class="st5" d="M541.4,170.38c0.71-3.14,2.94-14.75,3.65-18.94l3.14-18.21c1.01-5.75,2.43-13.81,2.53-17.16
						c0.1-0.84,0-1.46-0.1-1.67c-0.61-1.15-4.77-2.41-7.71-3.45l1.93-5.23h13.39c3.15,0,13.6-0.63,17.96-0.63
						c14.1,0,21,6.27,21.01,16.21c0,9.42-6.08,16.43-13.89,19.88c6.6,2.3,11.67,7.11,11.67,16.01c0,13.5-11.15,22.6-25.36,22.61
						c-6.49,0-16.23-0.83-23.13-0.83h-13.8l-0.41-5.23L541.4,170.38z M566.05,172.26c3.15,0,6.49-0.53,8.62-1.15
						c3.55-2.09,7-6.91,7-13.5c0-6.91-4.37-10.98-11.26-10.98h-11.77l-0.81,4.81c-1.52,8.68-3.04,17.26-2.43,18.73
						C556.31,171.74,561.38,172.26,566.05,172.26z M560.06,138.36l14.81,0.62c5.68-3.46,9.03-10.05,9.03-16.64
						c0-3.35-0.91-5.86-2.13-7.22c-1.83-1.67-4.97-2.51-8.83-2.51c-3.35,0-5.88,0.53-8.12,1.15c-1.22,4.92-3.14,15.07-3.85,19.46
						L560.06,138.36z"/>
				</g>
				<g>
					<path class="st5" d="M611.41,180.51c-2.13,0-5.48-2.61-7.61-4.71c0.91-6.07,3.44-19.15,4.86-26.89l2.94-16.74l-8.32-2.61
						l1.22-4.19l17.75-2.93l2.44,2.61l-4.05,23.86c-1.11,6.7-2.23,13.39-3.44,21.45c2.94-1.47,6.29-3.14,8.72-4.5l2.44,4.6
						C623.68,174.33,615.06,180.51,611.41,180.51z M630.16,104.34c0,4.29-4.77,9.63-9.23,9.63c-3.55,0-7.51-3.45-7.51-7.53
						c0-4.6,5.48-9.73,9.64-9.73C626.7,96.7,630.16,100.68,630.16,104.34z"/>
				</g>
				<g>
					<path class="st5" d="M669.84,161.77l2.54,4.71c-5.48,4.4-15.22,11.3-22.52,14.03c-11.06-0.31-16.64-9.1-16.64-21.55
						c-0.01-20.72,14.6-36.52,27.79-36.52c8.42,0,13.8,5.96,13.8,13.07c0,12.87-16.33,18.73-29.21,22.08
						c0.2,6.17,1.83,10.04,4.16,12.24l1.32,0.21C656.86,167.94,663.96,164.38,669.84,161.77z M645.89,151.62
						c8.62-2.62,17.14-7.33,17.14-14.44c0-3.98-3.35-6.69-6.8-6.9l-1.22,0.42C650.46,135.51,646.91,142.83,645.89,151.62z"/>
				</g>
				<g>
					<path class="st5" d="M701.59,125.03l-3.95,18.21c-1.01,4.6-2.23,9.84-3.65,15.17l0.81,0.31l7.91-15.07
						c6.59-12.66,12.57-21.24,19.37-21.24c4.97,0,9.34,3.03,11.26,5.33c-2.03,12.87-5.57,29.09-7.7,42.59
						c3.45-1.68,6.7-3.14,9.03-4.5l2.44,4.6c-4.67,3.87-13.39,10.05-17.04,10.05c-2.23,0-5.58-2.51-7.81-4.71
						c2.03-11.61,6.18-33.27,7.7-42.38l-1.42-0.63c-4.87,2.3-14.1,17.48-23.93,35.27c-0.1,0.84-1.82,9.84-2.03,10.88l-9.54,1.36
						c-0.91-0.52-2.23-1.67-2.64-2.4c1.11-7.64,3.95-22.39,5.77-31.7l2.53-14.12l-8.32-2.51l1.22-4.19l17.55-2.93L701.59,125.03z"/>
					<path class="st5" d="M780.33,161.74l2.54,4.71c-5.48,4.4-15.22,11.3-22.52,14.03c-11.06-0.31-16.64-9.1-16.64-21.55
						c-0.01-20.72,14.6-36.52,27.79-36.52c8.42,0,13.8,5.96,13.8,13.07c0,12.87-16.33,18.73-29.21,22.08
						c0.2,6.17,1.83,10.04,4.16,12.24l1.32,0.21C767.34,167.91,774.44,164.35,780.33,161.74z M756.38,151.59
						c8.62-2.62,17.14-7.33,17.14-14.44c0-3.98-3.35-6.7-6.8-6.9l-1.22,0.42C760.94,135.48,757.39,142.81,756.38,151.59z"/>
					<path class="st5" d="M786.62,174.6c0.61-2.2,2.53-7.32,3.65-9h2.74c1.62,1.15,13.5,8.05,15.02,7.84l1.62-0.1
						c1.72-1.15,3.65-3.35,3.65-6.91c0-11.82-19.69-11.61-19.69-26.47c0-9.73,9.33-17.68,19.98-17.69c6.29,0,12.78,1.98,16.54,4.6
						c-1.32,3.56-2.84,6.7-4.66,9.94h-2.54c-1.62-0.94-10.96-7.11-12.68-7.22l-1.52,0.1c-1.83,1.26-3.35,4.08-3.35,7.33
						c0,10.78,19.79,11.19,19.79,26.36c0,9.31-8.62,17.06-18.56,17.06C799.3,180.46,791.39,177.85,786.62,174.6z"/>
					<path class="st5" d="M844.76,180.45c-2.54,0-6.7-3.35-8.93-5.33c0.81-5.55,3.55-20.93,4.76-27.94l2.43-14.86l-8.73-0.31
						l0.41-5.23l9.64-2.41l4.76-14.23l7.61-1.15l1.83,1.26l-2.33,14.33l14.2-0.53l1.32,1.57l-2.03,7.01l-14.61-0.31l-2.33,13.81
						c-1.22,6.59-2.63,14.86-3.65,22.81l0.91,0.52c4.67-2.09,10.75-5.02,15.52-7.43l2.33,4.39
						C863.22,170.61,849.22,180.45,844.76,180.45z"/>
					<path class="st5" d="M914.85,126.65l5.17-4.39l3.75,1.46l-4.56,25.63c-1.11,5.86-2.33,12.87-3.34,20.72
						c2.84-1.36,6.09-3.04,8.52-4.29l2.34,4.6c-4.67,3.87-13.19,10.05-16.74,10.05c-2.13,0-4.87-2.61-6.9-4.71l4.05-20.19
						c0.81-3.87,2.53-9.94,3.55-13.81l-0.81-0.31c-0.91,1.67-5.48,10.88-6.19,12.14c-3.04,5.65-10.24,18.52-15.01,26.89
						c-3.04,0-8.52-0.83-12.18-2.4c-2.13-4.6-4.06-11.72-4.06-19.25c-0.01-19.77,13.48-36.41,27.69-36.42
						C905.72,122.36,911.7,124.67,914.85,126.65z M887.87,170.39c4.87-9.31,13.79-25.22,19.77-35.58c-2.94-2.41-7.51-4.6-11.47-5.12
						l-1.42,0.42c-5.88,5.55-9.94,15.8-9.94,27c0,5.13,0.71,9.52,1.83,13.08L887.87,170.39z"/>
					<path class="st5" d="M955.74,124.97c-1.32,6.28-2.74,13.18-4.16,19.57c-0.51,2.09-2.74,11.3-3.45,13.81l0.91,0.31l9.13-18.52
						c4.36-8.79,8.82-17.79,13.19-17.79c3.96,0,7.61,3.35,9.64,5.75c-0.71,2.09-4.46,9.52-5.78,11.62h-2.84
						c-0.51-0.31-3.96-2.2-5.99-3.24c-5.78,9.84-16.53,28.88-18.25,35.47l-1.72,6.91l-9.23,1.36c-0.91-0.52-2.23-1.67-2.64-2.4
						c1.11-7.64,3.95-22.29,5.78-31.7l2.53-14.12l-8.32-2.51l1.22-4.19l17.55-2.93L955.74,124.97z"/>
				</g>
			</g>
			<g>
				<path class="st6" d="M471.37,39.36v14.48l24.59-0.01v10.18l-24.59,0.01l0.01,19.96h-12.3l-0.01-54.79l40.16-0.01v10.18H471.37z"
					/>
				<path class="st6" d="M506.66,34.03c-1.37-1.3-2.05-2.92-2.05-4.85s0.68-3.55,2.05-4.85c1.37-1.3,3.14-1.96,5.31-1.96
					c2.17,0,3.95,0.63,5.31,1.88c1.37,1.25,2.05,2.82,2.05,4.7c0,2.04-0.68,3.72-2.05,5.05c-1.37,1.33-3.14,2-5.31,2
					C509.8,35.98,508.03,35.33,506.66,34.03z M506.06,41.85h11.84l0.01,42.11h-11.84L506.06,41.85z"/>
				<path class="st6" d="M565.99,45.91c3.11,3.13,4.67,7.77,4.67,13.93l0.01,24.11h-11.84l-0.01-22.23c0-3.34-0.71-5.83-2.13-7.47
					c-1.42-1.64-3.47-2.46-6.15-2.46c-2.99,0-5.36,0.95-7.13,2.86s-2.66,4.74-2.65,8.49l0.01,20.82h-11.84l-0.01-42.11h11.31v4.93
					c1.57-1.77,3.52-3.14,5.84-4.11c2.33-0.97,4.88-1.45,7.67-1.45C558.79,41.21,562.88,42.78,565.99,45.91z"/>
				<path class="st6" d="M612.41,45.86c3.39,3.1,5.09,7.79,5.09,14.05l0.01,24.03h-11.08V78.7c-2.23,3.91-6.37,5.87-12.45,5.87
					c-3.14,0-5.86-0.55-8.16-1.64c-2.3-1.1-4.06-2.61-5.28-4.54c-1.21-1.93-1.82-4.12-1.82-6.57c0-3.91,1.43-6.99,4.29-9.24
					c2.86-2.24,7.27-3.37,13.25-3.37h9.41c0-2.66-0.79-4.71-2.35-6.14c-1.57-1.43-3.92-2.15-7.06-2.15c-2.18,0-4.31,0.35-6.41,1.06
					c-2.1,0.7-3.88,1.66-5.35,2.86l-4.25-8.53c2.23-1.62,4.9-2.87,8.01-3.76s6.31-1.33,9.6-1.33
					C604.16,41.2,609.01,42.75,612.41,45.86z M602.32,74.9c1.57-0.97,2.68-2.39,3.34-4.27v-4.31h-8.12c-4.86,0-7.29,1.65-7.29,4.93
					c0,1.57,0.6,2.81,1.79,3.72s2.82,1.37,4.9,1.37C598.95,76.35,600.75,75.87,602.32,74.9z"/>
				<path class="st6" d="M665.28,45.88c3.11,3.13,4.67,7.77,4.67,13.93l0.01,24.11h-11.84l-0.01-22.23c0-3.34-0.71-5.83-2.13-7.47
					c-1.42-1.64-3.47-2.46-6.15-2.46c-2.99,0-5.36,0.95-7.13,2.86s-2.66,4.74-2.65,8.49l0.01,20.82h-11.84l-0.01-42.11h11.31v4.93
					c1.57-1.77,3.52-3.14,5.84-4.11c2.33-0.97,4.88-1.45,7.67-1.45C658.08,41.19,662.16,42.75,665.28,45.88z"/>
				<path class="st6" d="M689.05,81.77c-3.47-1.85-6.18-4.42-8.12-7.71c-1.95-3.29-2.92-7.02-2.93-11.19
					c0-4.17,0.97-7.91,2.92-11.19c1.95-3.29,4.65-5.86,8.12-7.71s7.37-2.78,11.73-2.78c4.3,0,8.06,0.92,11.27,2.78
					c3.21,1.85,5.55,4.5,7.02,7.94L709.88,57c-2.13-3.86-5.19-5.79-9.19-5.79c-3.09,0-5.64,1.05-7.67,3.13
					c-2.02,2.09-3.04,4.93-3.03,8.53c0,3.6,1.01,6.45,3.04,8.53c2.02,2.09,4.58,3.13,7.67,3.13c4.05,0,7.11-1.93,9.18-5.79
					l9.19,5.16c-1.47,3.34-3.81,5.95-7.02,7.83c-3.21,1.88-6.97,2.82-11.27,2.82C696.42,84.54,692.51,83.62,689.05,81.77z"/>
				<path class="st6" d="M726.49,33.97c-1.37-1.3-2.05-2.92-2.05-4.85s0.68-3.55,2.05-4.85c1.37-1.3,3.14-1.96,5.31-1.96
					c2.18,0,3.95,0.63,5.31,1.88c1.37,1.25,2.05,2.82,2.05,4.7c0,2.04-0.68,3.72-2.05,5.05c-1.37,1.33-3.14,2-5.31,2
					C729.63,35.93,727.86,35.27,726.49,33.97z M725.89,41.8h11.84l0.01,42.11H725.9L725.89,41.8z"/>
				<path class="st6" d="M788.52,66.28l-30.9,0.01c0.56,2.61,1.87,4.67,3.95,6.18c2.07,1.51,4.66,2.27,7.74,2.27
					c2.13,0,4.01-0.33,5.65-0.98s3.17-1.68,4.59-3.09l6.3,7.04c-3.85,4.54-9.46,6.81-16.85,6.81c-4.61,0-8.68-0.92-12.22-2.77
					s-6.28-4.42-8.2-7.71s-2.89-7.02-2.89-11.19c0-4.12,0.95-7.84,2.84-11.16c1.9-3.31,4.5-5.9,7.82-7.75
					c3.31-1.85,7.02-2.78,11.12-2.78c4,0,7.62,0.89,10.86,2.66s5.78,4.32,7.63,7.63s2.77,7.16,2.77,11.54
					C788.75,63.15,788.67,64.25,788.52,66.28z M760.81,52.74c-1.82,1.57-2.93,3.71-3.34,6.42l20.12-0.01
					c-0.41-2.66-1.52-4.79-3.34-6.38s-4.05-2.39-6.68-2.39C764.88,50.4,762.63,51.18,760.81,52.74z"/>
				<path class="st6" d="M813.68,42.71c2.4-1.04,5.17-1.57,8.31-1.57v11.27c-1.32-0.1-2.2-0.16-2.66-0.16
					c-3.39,0-6.05,0.98-7.97,2.94s-2.88,4.89-2.88,8.81l0.01,19.88h-11.84l-0.01-42.11h11.31v5.56
					C809.36,45.3,811.27,43.76,813.68,42.71z"/>
				<path class="st6" d="M859.95,45.79c3.39,3.1,5.09,7.79,5.09,14.05l0.01,24.03h-11.08v-5.24c-2.23,3.91-6.37,5.87-12.45,5.87
					c-3.14,0-5.86-0.55-8.16-1.64c-2.3-1.1-4.06-2.61-5.28-4.54c-1.21-1.93-1.82-4.12-1.82-6.57c0-3.91,1.43-6.99,4.29-9.24
					c2.86-2.24,7.27-3.37,13.25-3.37h9.41c0-2.66-0.79-4.71-2.35-6.14c-1.57-1.44-3.92-2.15-7.06-2.15c-2.18,0-4.31,0.35-6.41,1.06
					c-2.1,0.7-3.88,1.66-5.35,2.86l-4.25-8.53c2.23-1.62,4.9-2.87,8.01-3.76s6.31-1.33,9.6-1.33
					C851.7,41.14,856.55,42.69,859.95,45.79z M849.86,74.84c1.57-0.96,2.68-2.39,3.34-4.27v-4.31h-8.12c-4.86,0-7.29,1.65-7.29,4.93
					c0,1.57,0.6,2.8,1.78,3.72c1.19,0.91,2.82,1.37,4.9,1.37C846.49,76.28,848.29,75.8,849.86,74.84z"/>
			</g>
			<g>
				<path class="st6" d="M469.04,107.77c1.06,0.49,1.88,1.19,2.45,2.1c0.57,0.91,0.85,1.99,0.85,3.24c0,1.24-0.28,2.31-0.85,3.23
					c-0.57,0.92-1.38,1.62-2.45,2.11c-1.06,0.49-2.31,0.73-3.75,0.73h-3.74v4.93h-3.07v-17.07h6.81
					C466.72,107.04,467.97,107.28,469.04,107.77z M468.2,115.62c0.69-0.59,1.04-1.42,1.04-2.51c0-1.09-0.35-1.93-1.04-2.51
					c-0.69-0.59-1.71-0.88-3.05-0.88h-3.6v6.78h3.6C466.49,116.5,467.5,116.21,468.2,115.62z"/>
				<path class="st6" d="M486.29,120.16h-8.28l-1.63,3.95h-3.17l7.45-17.07h3.03l7.47,17.07h-3.22L486.29,120.16z M485.27,117.67
					l-3.12-7.46l-3.1,7.46H485.27z"/>
				<path class="st6" d="M505.02,124.11l-3.38-5c-0.14,0.02-0.35,0.02-0.64,0.02h-3.74v4.98h-3.07v-17.07H501
					c1.43,0,2.68,0.24,3.75,0.73c1.06,0.49,1.88,1.19,2.45,2.1c0.57,0.91,0.85,1.99,0.85,3.24c0,1.28-0.3,2.39-0.91,3.32
					c-0.61,0.93-1.48,1.62-2.61,2.07l3.81,5.61H505.02z M503.91,110.6c-0.69-0.59-1.71-0.88-3.05-0.88h-3.6v6.8h3.6
					c1.34,0,2.36-0.3,3.05-0.89s1.04-1.44,1.04-2.52C504.95,112.02,504.6,111.19,503.91,110.6z"/>
				<path class="st6" d="M523.16,120.16h-8.28l-1.63,3.95h-3.17l7.45-17.07h3.03l7.47,17.07h-3.22L523.16,120.16z M522.14,117.67
					l-3.12-7.46l-3.1,7.46H522.14z"/>
				<path class="st6" d="M512.32,147.29v2.66H499.9v-17.07h12.09v2.66h-9.01v4.44h7.99v2.61h-7.99v4.71h9.34V147.29z"/>
				<path class="st6" d="M516.7,132.88h3.07v14.39h8.66v2.68H516.7V132.88z"/>
			</g>
		</g>
		<g>
			<g>
				<path class="st7" d="M99.94,30.72l119.76,56.7l116-25.67l33.31-6.93c-5.96-19.88-23.75-37.63-56.81-38.49
					C280.38,15.5,99.94,30.72,99.94,30.72z"/>
				
					<linearGradient id="SVGID_1_" gradientUnits="userSpaceOnUse" x1="-444.6169" y1="183.5169" x2="-371.6891" y2="129.6397" gradientTransform="matrix(-0.973 -0.2311 0.2311 -0.973 -58.4922 141.2672)">
					<stop  offset="0" style="stop-color:#A38053"/>
					<stop  offset="0.0426" style="stop-color:#A78659"/>
					<stop  offset="0.2202" style="stop-color:#B4986E"/>
					<stop  offset="0.4179" style="stop-color:#BDA67D"/>
					<stop  offset="0.6499" style="stop-color:#C2AE86"/>
					<stop  offset="1" style="stop-color:#C4B089"/>
				</linearGradient>
				<path class="st8" d="M304.95,127.78c31.49-22.4,50.56-34.39,88.68-40.17c28.09-4.26,20.15,9.92,20.15,9.92
					c16.26-16.03,13.13-51.68-29.13-45.97l-15.64,3.26C368.11,77.42,316.74,117.38,304.95,127.78z"/>
				<path class="st7" d="M20,131.62l88.43,43.9c28.53,14.16,61.95,14.6,90.83,1.18c29.78-13.83,69.66-32.32,105.69-48.92
					L219.7,87.42L20,131.62z"/>
				
					<linearGradient id="SVGID_2_" gradientUnits="userSpaceOnUse" x1="-282.4351" y1="205.3443" x2="-239.57" y2="116.4884" gradientTransform="matrix(-0.973 -0.2311 0.2311 -0.973 -58.4922 141.2672)">
					<stop  offset="0" style="stop-color:#00803F"/>
					<stop  offset="1" style="stop-color:#235C4F"/>
				</linearGradient>
				<path class="st9" d="M99.94,30.72l119.76,56.7l116-25.67l33.31-6.93c-5.96-19.88-23.75-37.63-56.81-38.49
					C280.38,15.5,99.94,30.72,99.94,30.72z"/>
				
					<linearGradient id="SVGID_3_" gradientUnits="userSpaceOnUse" x1="67.0457" y1="347.4904" x2="296.5647" y2="327.8429" gradientTransform="matrix(-0.9982 -0.0597 0.0597 -0.9982 342.041 485.0418)">
					<stop  offset="0" style="stop-color:#00803F"/>
					<stop  offset="1" style="stop-color:#235C4F"/>
				</linearGradient>
				<path class="st10" d="M20,131.62l88.43,43.9c28.53,14.16,61.95,14.6,90.83,1.18c29.78-13.83,69.66-32.32,105.69-48.92
					L219.7,87.42L20,131.62z"/>
			</g>
			
				<linearGradient id="SVGID_4_" gradientUnits="userSpaceOnUse" x1="-379.7352" y1="113.3445" x2="-382.454" y2="34.1583" gradientTransform="matrix(-0.973 -0.2311 0.2311 -0.973 -58.4922 141.2672)">
				<stop  offset="0" style="stop-color:#A38053"/>
				<stop  offset="0.0426" style="stop-color:#A78659"/>
				<stop  offset="0.2202" style="stop-color:#B4986E"/>
				<stop  offset="0.4179" style="stop-color:#BDA67D"/>
				<stop  offset="0.6499" style="stop-color:#C2AE86"/>
				<stop  offset="1" style="stop-color:#C4B089"/>
			</linearGradient>
			<path class="st11" d="M409.09,87.47c0,0-79.23-20.06-151.17,99.05l76.23-6.42C334.15,180.1,325.18,92.92,409.09,87.47z"/>
			
				<linearGradient id="SVGID_5_" gradientUnits="userSpaceOnUse" x1="-234.4174" y1="144.7459" x2="-362.1161" y2="189.3959" gradientTransform="matrix(-0.973 -0.2311 0.2311 -0.973 -58.4922 141.2672)">
				<stop  offset="0" style="stop-color:#00803F"/>
				<stop  offset="1" style="stop-color:#235C4F"/>
			</linearGradient>
			<path class="st12" d="M369.01,54.82c0,0-134.88,24.16-269.08-24.09l119.76,56.7L369.01,54.82z"/>
			
				<linearGradient id="SVGID_6_" gradientUnits="userSpaceOnUse" x1="-186.5608" y1="30.5986" x2="-323.2491" y2="78.3917" gradientTransform="matrix(-0.973 -0.2311 0.2311 -0.973 -58.4922 141.2672)">
				<stop  offset="0" style="stop-color:#00803F"/>
				<stop  offset="1" style="stop-color:#235C4F"/>
			</linearGradient>
			<path class="st13" d="M304.95,127.78c0,0-99.46,45.86-284.95,3.84l79.68,39.55c0,0,42.77,29.06,99.59,5.53L304.95,127.78z"/>
		</g>
	</g>
</g>
</svg>
