<?xml version="1.0" encoding="UTF-8"?>
<svg id="Capa_1" xmlns="http://www.w3.org/2000/svg" version="1.1" xmlns:xlink="http://www.w3.org/1999/xlink" viewBox="0 0 268.13 50">
  <!-- Generator: Adobe Illustrator 29.8.4, SVG Export Plug-In . SVG Version: 2.1.1 Build 6)  -->
  <defs>
    <style>
      .st0 {
        fill: url(#linear-gradient2);
      }

      .st1 {
        fill: #00803f;
      }

      .st2 {
        fill: url(#linear-gradient1);
      }

      .st3 {
        fill: #9e8054;
      }

      .st4 {
        fill: url(#linear-gradient4);
      }

      .st5 {
        fill: url(#linear-gradient5);
      }

      .st6 {
        fill: url(#linear-gradient3);
      }

      .st7 {
        fill: #276050;
      }

      .st8 {
        fill: url(#linear-gradient);
      }
    </style>
    <linearGradient id="linear-gradient" x1="-576.59" y1="554.63" x2="-556.58" y2="569.42" gradientTransform="translate(-322.83 -657.72) rotate(-166.64) scale(1 -1)" gradientUnits="userSpaceOnUse">
      <stop offset="0" stop-color="#a38053"/>
      <stop offset=".04" stop-color="#a78659"/>
      <stop offset=".22" stop-color="#b4986e"/>
      <stop offset=".42" stop-color="#bda67d"/>
      <stop offset=".65" stop-color="#c2ae86"/>
      <stop offset="1" stop-color="#c4b089"/>
    </linearGradient>
    <linearGradient id="linear-gradient1" x1="-532.09" y1="548.64" x2="-520.33" y2="573.03" gradientTransform="translate(-322.83 -657.72) rotate(-166.64) scale(1 -1)" gradientUnits="userSpaceOnUse">
      <stop offset="0" stop-color="#00803f"/>
      <stop offset="1" stop-color="#235c4f"/>
    </linearGradient>
    <linearGradient id="linear-gradient2" x1="-93.46" y1="322.13" x2="-30.48" y2="327.52" gradientTransform="translate(2.85 -293.09) rotate(-176.58) scale(1 -1)" gradientUnits="userSpaceOnUse">
      <stop offset="0" stop-color="#00803f"/>
      <stop offset="1" stop-color="#235c4f"/>
    </linearGradient>
    <linearGradient id="linear-gradient3" x1="-558.79" y1="573.89" x2="-559.54" y2="595.62" gradientTransform="translate(-322.83 -657.72) rotate(-166.64) scale(1 -1)" gradientUnits="userSpaceOnUse">
      <stop offset="0" stop-color="#a38053"/>
      <stop offset=".04" stop-color="#a78659"/>
      <stop offset=".22" stop-color="#b4986e"/>
      <stop offset=".42" stop-color="#bda67d"/>
      <stop offset=".65" stop-color="#c2ae86"/>
      <stop offset="1" stop-color="#c4b089"/>
    </linearGradient>
    <linearGradient id="linear-gradient4" x1="-518.91" y1="565.27" x2="-553.95" y2="553.02" gradientTransform="translate(-322.83 -657.72) rotate(-166.64) scale(1 -1)" gradientUnits="userSpaceOnUse">
      <stop offset="0" stop-color="#00803f"/>
      <stop offset="1" stop-color="#235c4f"/>
    </linearGradient>
    <linearGradient id="linear-gradient5" x1="-505.78" y1="596.6" x2="-543.29" y2="583.48" gradientTransform="translate(-322.83 -657.72) rotate(-166.64) scale(1 -1)" gradientUnits="userSpaceOnUse">
      <stop offset="0" stop-color="#00803f"/>
      <stop offset="1" stop-color="#235c4f"/>
    </linearGradient>
  </defs>
  <g>
    <g>
      <path class="st7" d="M144.29,43.98c.19-.86.81-4.05,1-5.2l.86-5c.28-1.58.67-3.79.69-4.71.03-.23,0-.4-.03-.46-.17-.32-1.31-.66-2.12-.95l.53-1.44h3.67c.86,0,3.73-.17,4.93-.17,3.87,0,5.76,1.72,5.77,4.45,0,2.58-1.67,4.51-3.81,5.46,1.81.63,3.2,1.95,3.2,4.39,0,3.7-3.06,6.2-6.96,6.2-1.78,0-4.45-.23-6.35-.23h-3.79l-.11-1.44,2.5-.92ZM151.05,44.49c.86,0,1.78-.15,2.37-.32.97-.57,1.92-1.9,1.92-3.7s-1.2-3.01-3.09-3.01h-3.23l-.22,1.32c-.42,2.38-.83,4.74-.67,5.14.25.43,1.64.57,2.92.57ZM149.41,35.19l4.06.17c1.56-.95,2.48-2.76,2.48-4.57,0-.92-.25-1.61-.58-1.98-.5-.46-1.36-.69-2.42-.69-.92,0-1.61.15-2.23.32-.33,1.35-.86,4.14-1.06,5.34l-.25,1.41Z"/>
      <path class="st7" d="M163.5,46.76c-.58,0-1.5-.72-2.09-1.29.25-1.67.94-5.26,1.33-7.38l.81-4.59-2.28-.72.33-1.15,4.87-.8.67.72-1.11,6.55c-.3,1.84-.61,3.67-.94,5.89.81-.4,1.73-.86,2.39-1.23l.67,1.26c-1.28,1.06-3.65,2.76-4.65,2.76ZM168.65,25.86c0,1.18-1.31,2.64-2.53,2.64-.97,0-2.06-.95-2.06-2.07,0-1.26,1.5-2.67,2.65-2.67,1,0,1.95,1.09,1.95,2.09Z"/>
      <path class="st7" d="M179.53,41.62l.7,1.29c-1.5,1.21-4.18,3.1-6.18,3.85-3.04-.09-4.57-2.5-4.57-5.91,0-5.69,4.01-10.02,7.63-10.02,2.31,0,3.79,1.64,3.79,3.59,0,3.53-4.48,5.14-8.02,6.06.05,1.69.5,2.76,1.14,3.36l.36.06c1.59-.58,3.53-1.55,5.15-2.27ZM172.96,38.83c2.37-.72,4.7-2.01,4.7-3.96,0-1.09-.92-1.84-1.87-1.89l-.33.12c-1.25,1.32-2.22,3.33-2.5,5.74Z"/>
      <g>
        <path class="st7" d="M188.25,31.53l-1.08,5c-.28,1.26-.61,2.7-1,4.16l.22.09,2.17-4.14c1.81-3.47,3.45-5.83,5.32-5.83,1.36,0,2.56.83,3.09,1.46-.56,3.53-1.53,7.98-2.11,11.69.95-.46,1.84-.86,2.48-1.23l.67,1.26c-1.28,1.06-3.67,2.76-4.68,2.76-.61,0-1.53-.69-2.14-1.29.56-3.19,1.7-9.13,2.11-11.63l-.39-.17c-1.34.63-3.87,4.8-6.57,9.68-.03.23-.5,2.7-.56,2.99l-2.62.37c-.25-.14-.61-.46-.72-.66.3-2.1,1.08-6.14,1.58-8.7l.69-3.87-2.28-.69.33-1.15,4.82-.8.67.72Z"/>
        <path class="st7" d="M209.85,41.61l.7,1.29c-1.5,1.21-4.18,3.1-6.18,3.85-3.04-.09-4.57-2.5-4.57-5.91,0-5.69,4.01-10.02,7.63-10.02,2.31,0,3.79,1.64,3.79,3.59,0,3.53-4.48,5.14-8.02,6.06.05,1.69.5,2.76,1.14,3.36l.36.06c1.58-.58,3.53-1.55,5.15-2.27ZM203.28,38.82c2.37-.72,4.7-2.01,4.7-3.96,0-1.09-.92-1.84-1.87-1.89l-.33.12c-1.25,1.32-2.23,3.33-2.5,5.74Z"/>
        <path class="st7" d="M211.58,45.14c.17-.6.69-2.01,1-2.47h.75c.44.32,3.7,2.21,4.12,2.15l.44-.03c.47-.32,1-.92,1-1.9,0-3.24-5.4-3.19-5.4-7.26,0-2.67,2.56-4.85,5.48-4.85,1.73,0,3.51.54,4.54,1.26-.36.98-.78,1.84-1.28,2.73h-.7c-.44-.26-3.01-1.95-3.48-1.98l-.42.03c-.5.35-.92,1.12-.92,2.01,0,2.96,5.43,3.07,5.43,7.23,0,2.55-2.37,4.68-5.09,4.68-2.01,0-4.18-.71-5.49-1.6Z"/>
        <path class="st7" d="M227.53,46.74c-.7,0-1.84-.92-2.45-1.46.22-1.52.97-5.74,1.31-7.67l.67-4.08-2.4-.09.11-1.44,2.65-.66,1.31-3.9,2.09-.32.5.35-.64,3.93,3.9-.15.36.43-.56,1.92-4.01-.09-.64,3.79c-.33,1.81-.72,4.08-1,6.26l.25.14c1.28-.57,2.95-1.38,4.26-2.04l.64,1.2c-1.28,1.15-5.12,3.85-6.34,3.85Z"/>
        <path class="st7" d="M246.77,31.98l1.42-1.2,1.03.4-1.25,7.03c-.3,1.61-.64,3.53-.92,5.69.78-.37,1.67-.83,2.34-1.18l.64,1.26c-1.28,1.06-3.62,2.76-4.59,2.76-.58,0-1.34-.72-1.89-1.29l1.11-5.54c.22-1.06.69-2.73.97-3.79l-.22-.09c-.25.46-1.5,2.99-1.7,3.33-.83,1.55-2.81,5.08-4.12,7.38-.83,0-2.34-.23-3.34-.66-.58-1.26-1.11-3.22-1.11-5.28,0-5.43,3.7-9.99,7.6-9.99,1.53,0,3.17.63,4.04,1.17ZM239.36,43.98c1.34-2.55,3.78-6.92,5.43-9.76-.81-.66-2.06-1.26-3.15-1.4l-.39.12c-1.61,1.52-2.73,4.34-2.73,7.41,0,1.41.19,2.61.5,3.59l.34.05Z"/>
        <path class="st7" d="M257.99,31.52c-.36,1.72-.75,3.62-1.14,5.37-.14.57-.75,3.1-.95,3.79l.25.09,2.51-5.08c1.2-2.41,2.42-4.88,3.62-4.88,1.09,0,2.09.92,2.65,1.58-.19.57-1.22,2.61-1.59,3.19h-.78c-.14-.09-1.09-.6-1.64-.89-1.59,2.7-4.54,7.93-5.01,9.73l-.47,1.9-2.53.37c-.25-.14-.61-.46-.72-.66.3-2.1,1.08-6.12,1.59-8.7l.69-3.87-2.28-.69.33-1.15,4.82-.8.67.71Z"/>
      </g>
    </g>
    <g>
      <path class="st3" d="M125.07,8.02v3.97h6.75s0,2.79,0,2.79h-6.75s0,5.48,0,5.48h-3.38V5.23s11.02,0,11.02,0v2.79h-7.65Z"/>
      <path class="st3" d="M134.76,6.56c-.38-.36-.56-.8-.56-1.33s.19-.97.56-1.33c.38-.36.86-.54,1.46-.54s1.08.17,1.46.52c.38.34.56.77.56,1.29,0,.56-.19,1.02-.56,1.39-.38.36-.86.55-1.46.55-.6,0-1.08-.18-1.46-.54ZM134.59,8.71h3.25v11.56s-3.25,0-3.25,0v-11.56Z"/>
      <path class="st3" d="M151.04,9.82c.85.86,1.28,2.13,1.28,3.82v6.62s-3.25,0-3.25,0v-6.1c0-.92-.2-1.6-.59-2.05-.39-.45-.95-.68-1.69-.68-.82,0-1.47.26-1.96.78s-.73,1.3-.73,2.33v5.71s-3.25,0-3.25,0v-11.56s3.1,0,3.1,0v1.35c.43-.49.97-.86,1.6-1.13.64-.27,1.34-.4,2.1-.4,1.39,0,2.51.43,3.36,1.29Z"/>
      <path class="st3" d="M163.77,9.81c.93.85,1.4,2.14,1.4,3.86v6.59s-3.04,0-3.04,0v-1.44c-.61,1.07-1.75,1.61-3.42,1.61-.86,0-1.61-.15-2.24-.45-.63-.3-1.11-.72-1.45-1.25-.33-.53-.5-1.13-.5-1.8,0-1.07.39-1.92,1.18-2.54.78-.61,1.99-.92,3.64-.92h2.58c0-.73-.22-1.29-.64-1.68-.43-.39-1.08-.59-1.94-.59-.6,0-1.18.1-1.76.29-.58.19-1.06.46-1.47.78l-1.17-2.34c.61-.44,1.34-.79,2.2-1.03s1.73-.36,2.63-.36c1.73,0,3.06.42,3.99,1.27ZM161.01,17.78c.43-.27.74-.66.92-1.17v-1.18h-2.23c-1.33,0-2,.45-2,1.35,0,.43.16.77.49,1.02s.77.38,1.34.38c.55,0,1.05-.13,1.48-.4Z"/>
      <path class="st3" d="M178.28,9.81c.85.86,1.28,2.13,1.28,3.82v6.62s-3.25,0-3.25,0v-6.1c0-.92-.2-1.6-.59-2.05-.39-.45-.95-.68-1.69-.68-.82,0-1.47.26-1.96.78s-.73,1.3-.73,2.33v5.71s-3.25,0-3.25,0v-11.56s3.1,0,3.1,0v1.35c.43-.49.97-.86,1.6-1.13.64-.27,1.34-.4,2.1-.4,1.39,0,2.51.43,3.36,1.29Z"/>
      <path class="st3" d="M184.81,19.66c-.95-.51-1.7-1.21-2.23-2.12-.54-.9-.8-1.93-.8-3.07,0-1.14.27-2.17.8-3.07.54-.9,1.28-1.61,2.23-2.12s2.02-.76,3.22-.76,2.21.25,3.09.76c.88.51,1.52,1.23,1.93,2.18l-2.52,1.4c-.58-1.06-1.42-1.59-2.52-1.59-.85,0-1.55.29-2.1.86-.55.57-.83,1.35-.83,2.34,0,.99.28,1.77.83,2.34.55.57,1.26.86,2.1.86,1.11,0,1.95-.53,2.52-1.59l2.52,1.42c-.4.92-1.05,1.63-1.93,2.15-.88.52-1.91.77-3.09.77-1.2,0-2.27-.26-3.22-.76Z"/>
      <path class="st3" d="M195.08,6.55c-.38-.36-.56-.8-.56-1.33s.19-.97.56-1.33c.38-.36.86-.54,1.46-.54s1.08.17,1.46.52c.38.34.56.77.56,1.29,0,.56-.19,1.02-.56,1.39-.38.36-.86.55-1.46.55-.6,0-1.08-.18-1.46-.54ZM194.92,8.69h3.25v11.56s-3.25,0-3.25,0v-11.56Z"/>
      <path class="st3" d="M212.1,15.41h-8.48c.15.72.51,1.28,1.08,1.7.57.41,1.28.62,2.12.62.58,0,1.1-.09,1.55-.27s.87-.46,1.26-.85l1.73,1.93c-1.06,1.25-2.6,1.87-4.62,1.87-1.27,0-2.38-.25-3.35-.76s-1.72-1.21-2.25-2.12-.79-1.93-.79-3.07.26-2.15.78-3.06c.52-.91,1.23-1.62,2.15-2.13.91-.51,1.93-.76,3.05-.76s2.09.24,2.98.73,1.59,1.19,2.09,2.09.76,1.96.76,3.17c0,.04-.02.35-.06.9ZM204.5,11.7c-.5.43-.8,1.02-.92,1.76h5.52c-.11-.73-.42-1.32-.92-1.75s-1.11-.66-1.83-.66c-.74,0-1.36.22-1.86.65Z"/>
      <path class="st3" d="M219.01,8.94c.66-.29,1.42-.43,2.28-.43v3.09c-.36-.03-.6-.04-.73-.04-.93,0-1.66.27-2.19.81s-.79,1.34-.79,2.42v5.46s-3.25,0-3.25,0v-11.56s3.1,0,3.1,0v1.53c.39-.56.91-.98,1.57-1.27Z"/>
      <path class="st3" d="M231.7,9.79c.93.85,1.4,2.14,1.4,3.86v6.59s-3.04,0-3.04,0v-1.44c-.61,1.07-1.75,1.61-3.42,1.61-.86,0-1.61-.15-2.24-.45-.63-.3-1.11-.72-1.45-1.25-.33-.53-.5-1.13-.5-1.8,0-1.07.39-1.92,1.18-2.54.78-.61,1.99-.92,3.64-.92h2.58c0-.73-.22-1.29-.64-1.68-.43-.4-1.08-.59-1.94-.59-.6,0-1.18.1-1.76.29-.58.19-1.06.46-1.47.78l-1.17-2.34c.61-.44,1.34-.79,2.2-1.03s1.73-.36,2.63-.36c1.73,0,3.06.42,3.99,1.27ZM228.93,17.76c.43-.26.74-.66.92-1.17v-1.18h-2.23c-1.33,0-2,.45-2,1.35,0,.43.16.77.49,1.02.33.25.77.38,1.34.38.55,0,1.05-.13,1.48-.4Z"/>
    </g>
    <g>
      <path class="st3" d="M124.43,26.8c.29.13.52.33.67.58.16.25.23.55.23.89s-.08.63-.23.89c-.16.25-.38.44-.67.58-.29.13-.63.2-1.03.2h-1.03v1.35h-.84v-4.68h1.87c.39,0,.74.07,1.03.2ZM124.2,28.95c.19-.16.29-.39.29-.69s-.1-.53-.29-.69c-.19-.16-.47-.24-.84-.24h-.99v1.86h.99c.37,0,.64-.08.84-.24Z"/>
      <path class="st3" d="M129.17,30.2h-2.27l-.45,1.08h-.87l2.04-4.68h.83l2.05,4.68h-.88l-.45-1.08ZM128.89,29.51l-.86-2.05-.85,2.05h1.71Z"/>
      <path class="st3" d="M134.31,31.28l-.93-1.37s-.1,0-.18,0h-1.03v1.37h-.84v-4.68h1.87c.39,0,.74.07,1.03.2.29.13.52.33.67.58.16.25.23.55.23.89s-.08.66-.25.91c-.17.26-.41.44-.72.57l1.05,1.54h-.91ZM134,27.57c-.19-.16-.47-.24-.84-.24h-.99v1.87h.99c.37,0,.65-.08.84-.24s.29-.4.29-.69-.1-.53-.29-.69Z"/>
      <path class="st3" d="M139.28,30.2h-2.27l-.45,1.08h-.87l2.04-4.68h.83l2.05,4.68h-.88l-.45-1.08ZM139,29.51l-.86-2.05-.85,2.05h1.71Z"/>
      <path class="st3" d="M136.31,37.64v.73h-3.41v-4.68h3.32v.73h-2.47v1.22h2.19v.72h-2.19v1.29h2.56Z"/>
      <path class="st3" d="M137.51,33.69h.84v3.95h2.38v.74h-3.22v-4.68Z"/>
    </g>
  </g>
  <g>
    <g>
      <path class="st1" d="M23.15,5.65l32.86,15.56,31.83-7.04,9.14-1.9c-1.64-5.46-6.52-10.33-15.59-10.56-8.73-.23-58.25,3.95-58.25,3.95Z"/>
      <path class="st8" d="M79.4,32.29c8.64-6.15,13.87-9.44,24.33-11.02,7.71-1.17,5.53,2.72,5.53,2.72,4.46-4.4,3.6-14.18-7.99-12.61l-4.29.89c-.25,6.2-14.34,17.17-17.58,20.02Z"/>
      <path class="st1" d="M1.21,33.34l24.27,12.05c7.83,3.89,17,4.01,24.92.32,8.17-3.8,19.12-8.87,29-13.42l-23.39-11.08L1.21,33.34Z"/>
      <path class="st2" d="M23.15,5.65l32.86,15.56,31.83-7.04,9.14-1.9c-1.64-5.46-6.52-10.33-15.59-10.56-8.73-.23-58.25,3.95-58.25,3.95Z"/>
      <path class="st0" d="M1.21,33.34l24.27,12.05c7.83,3.89,17,4.01,24.92.32,8.17-3.8,19.12-8.87,29-13.42l-23.39-11.08L1.21,33.34Z"/>
    </g>
    <path class="st6" d="M107.98,21.23s-21.74-5.5-41.48,27.18l20.92-1.76s-2.46-23.92,20.56-25.42Z"/>
    <path class="st4" d="M96.98,12.27s-37.01,6.63-73.84-6.61l32.86,15.56,40.98-8.95Z"/>
    <path class="st5" d="M79.4,32.29s-27.29,12.58-78.19,1.05l21.87,10.85s11.74,7.97,27.33,1.52l29-13.42Z"/>
  </g>
</svg>