<?xml version="1.0" encoding="UTF-8"?>
<svg id="Capa_1" xmlns="http://www.w3.org/2000/svg" version="1.1" viewBox="0 0 280 50">
  <!-- Generator: Adobe Illustrator 29.8.4, SVG Export Plug-In . SVG Version: 2.1.1 Build 6)  -->
  <defs>
    <style>
      .st0 {
        fill: #ff4d00;
      }

      .st1 {
        fill: #ffdb12;
      }

      .st2 {
        fill: #3dae2b;
      }

      .st3 {
        fill: #008bd2;
      }

      .st4 {
        fill: #e1251b;
      }

      .st5 {
        fill: #e6007e;
      }

      .st6 {
        fill: #004e9b;
      }
    </style>
  </defs>
  <rect class="st4" x="93.33" y="1.67" width="46.67" height="46.67"/>
  <rect class="st2" x="140" y="1.67" width="46.67" height="46.67"/>
  <rect class="st5" x="186.67" y="1.67" width="46.67" height="46.67"/>
  <rect class="st6" x="233.33" y="1.67" width="46.67" height="46.67"/>
  <path class="st1" d="M140,19.94c-1.98-9.11-9.16-16.29-18.27-18.27h-10.13c-9.11,1.98-16.3,9.16-18.27,18.27v10.13c1.98,9.11,9.16,16.3,18.27,18.27h10.13c9.11-1.98,16.29-9.16,18.27-18.27v-10.13ZM116.67,36.74c-6.47,0-11.74-5.27-11.74-11.74s5.27-11.74,11.74-11.74,11.74,5.26,11.74,11.74-5.26,11.74-11.74,11.74"/>
  <path class="st1" d="M280,19.94c-1.98-9.11-9.16-16.29-18.27-18.27h-10.13c-9.11,1.98-16.3,9.16-18.27,18.27v10.13c1.97,9.11,9.16,16.29,18.27,18.27h10.13c9.11-1.98,16.29-9.16,18.27-18.27v-10.13ZM256.67,36.74c-6.47,0-11.74-5.27-11.74-11.74s5.27-11.74,11.74-11.74,11.74,5.26,11.74,11.74-5.26,11.74-11.74,11.74"/>
  <path class="st1" d="M201.5,1.67v46.67h-14.82V1.67h14.82ZM233.33,1.67h-14.83l-16.99,23.27,16.99,23.4h14.83l-16.99-23.4L233.33,1.67Z"/>
  <path class="st1" d="M275.87,42.76c-1.13,0-2.05.92-2.05,2.05s.92,2.05,2.05,2.05,2.05-.92,2.05-2.05-.92-2.05-2.05-2.05M275.87,46.43c-.89,0-1.62-.72-1.62-1.62s.72-1.62,1.62-1.62,1.62.72,1.62,1.62-.72,1.62-1.62,1.62"/>
  <path class="st1" d="M276.81,44.44c0-.19-.06-.36-.18-.48-.14-.14-.34-.21-.6-.21h-.94v2.05h.52v-.63l.26-.02.46.65h.59l-.49-.72c.26-.12.4-.34.4-.64M276,44.7h-.4v-.48h.39c.14,0,.3.04.3.24,0,.15-.11.24-.29.24"/>
  <rect class="st3" x="46.67" y="1.67" width="46.67" height="46.67"/>
  <rect class="st0" y="1.67" width="46.67" height="46.67"/>
  <rect class="st1" x="62.62" y="1.67" width="14.76" height="46.67"/>
  <path class="st1" d="M14.82,1.67v46.67H0V1.67h14.82ZM46.66,1.67h-14.83L14.83,24.94l16.99,23.4h14.83l-16.99-23.4L46.66,1.67Z"/>
  <path class="st1" d="M145.55,15.84c0,11.26,10.11,13.41,17.49,14.98,4.31.91,7.71,1.64,7.71,3.83s-2.38,3.6-6.21,3.6c-7.3,0-12.06-3.8-14.25-6.06l-.06-.06-6.13,9.33-.03.05.04.04c3.66,3.56,8.22,5.84,13.57,6.8h11.96c8.23-1.65,12.95-7.08,12.95-14.94,0-10.94-10.19-13.19-17.63-14.84-4.23-.93-7.57-1.67-7.57-3.69s1.59-3.11,4.74-3.11c4.72,0,9.46,1.76,12.99,4.82l.06.05,6.36-9.03-.05-.04c-3.4-3.02-7.53-4.99-12.27-5.89h-11.15c-7.61,1.67-12.52,7.2-12.52,14.17"/>
</svg>