<?xml version="1.0" encoding="UTF-8"?>
<svg id="Capa_1" xmlns="http://www.w3.org/2000/svg" version="1.1" viewBox="0 0 281.91 50">
  <!-- Generator: Adobe Illustrator 29.8.4, SVG Export Plug-In . SVG Version: 2.1.1 Build 6)  -->
  <defs>
    <style>
      .st0 {
        fill: #05619e;
      }
    </style>
  </defs>
  <path class="st0" d="M0,38l2.29-4.63c1.68,1.22,4.68,2.59,6.97,2.59,2.85,0,3.97-1.37,3.97-2.85.05-1.73-1.38-2.39-4.38-3.36-5.04-1.53-7.89-3.31-7.89-8,0-4.27,3.26-7.33,9.16-7.33,2.9,0,5.72.89,8.09,2.55l-2.29,4.22c-1.32-.82-3.56-2.04-6.05-2.04-2.19,0-3.51.86-3.51,2.54,0,1.38.97,2.29,4.18,3.26,5.45,1.63,8.14,3.66,8.14,7.94,0,4.83-3.92,7.79-9.37,7.79-3.72,0-7.28-1.22-9.31-2.7Z"/>
  <path class="st0" d="M41.37,35.1c-1.56,3.53-5.1,5.76-8.96,5.64-6.57,0-11.81-5.04-11.81-13.18s5.24-13.13,11.81-13.13c3.86-.12,7.4,2.12,8.96,5.65v-5.23h5.09v25.45h-5.09v-5.19ZM33.69,19.22c-4.53,0-7.64,3.61-7.64,8.4s3.1,8.35,7.64,8.35,7.57-3.71,7.57-8.45-3.09-8.29-7.57-8.29Z"/>
  <path class="st0" d="M72.82,40.29h-5.09v-15.47c0-3.2-1.68-5.65-5.09-5.65-3.73,0-6.31,3.26-6.31,7.43v13.69h-5.09V14.84h5.09v4.53c1.53-3.2,4.33-4.99,7.58-4.99,3.31-.06,6.35,1.84,7.75,4.84,2.13-3.36,4.99-4.84,8.4-4.84,5.33,0,9.26,4.02,9.26,10.49v15.42h-5.09v-15.47c0-3.2-1.68-5.65-5.09-5.65-3.73,0-6.31,3.26-6.31,7.43l-.02,13.69Z"/>
  <path class="st0" d="M91.96,7.51h5.49l-3.2,10.03h-4.22l1.93-10.03Z"/>
  <path class="st0" d="M95.63,38l2.29-4.63c1.68,1.22,4.68,2.59,6.97,2.59,2.85,0,3.97-1.37,3.97-2.85.05-1.73-1.38-2.39-4.38-3.36-5.04-1.53-7.89-3.31-7.89-8,0-4.27,3.26-7.33,9.16-7.33,2.9,0,5.72.88,8.09,2.54l-2.29,4.22c-1.32-.82-3.56-2.04-6.05-2.04-2.19,0-3.51.86-3.51,2.54,0,1.38.97,2.29,4.18,3.26,5.45,1.64,8.17,3.67,8.17,7.95,0,4.83-3.92,7.79-9.37,7.79-3.74,0-7.3-1.22-9.33-2.7Z"/>
  <path class="st0" d="M125.86,27.57c0-8.1,5.6-13.13,13.39-13.13,3.66,0,6.93,1.17,9.41,3.66l-3.1,3.81c-1.64-1.7-3.89-2.67-6.26-2.69-4.68,0-8,2.8-8,8.29s3.3,8.42,8,8.42c2.4-.05,4.68-1.08,6.31-2.85l3.1,3.77c-2.5,2.53-5.92,3.93-9.47,3.87-7.73-.02-13.39-5.06-13.39-13.15Z"/>
  <path class="st0" d="M159.21,40.7c-5.24.2-8.14-2.54-8.14-8.7V5.68l5.09-1.01v27.33c0,2.44,1.32,3.56,3.16,3.56h1.32v4.99c-.47.1-.95.15-1.42.15Z"/>
  <path class="st0" d="M162.78,29.81v-14.97h5.09v15.37c0,3.36,2.13,5.65,5.7,5.65s5.7-2.29,5.7-5.65v-15.37h5.09v14.97c0,6.97-4.33,10.89-10.79,10.89s-10.79-3.92-10.79-10.89Z"/>
  <path class="st0" d="M203.22,40.74c-3.86.12-7.4-2.12-8.96-5.65v5.24h-5.09V5.66l5.09-1.01v15.44c1.56-3.53,5.1-5.77,8.96-5.65,6.57,0,11.81,5.04,11.81,13.18s-5.22,13.12-11.81,13.12ZM201.94,35.94c4.53,0,7.64-3.61,7.64-8.4s-3.1-8.35-7.64-8.35-7.6,3.74-7.6,8.48,3.13,8.29,7.6,8.29v-.03Z"/>
  <path class="st0" d="M249.49,5.17l-3.58-3.57-21.51,21.54c-1.05,1.04-1.05,2.73-.02,3.77,0,0,.01.01.02.02l21.52,21.51,3.57-3.57c1.09-1.09,1.09-2.85,0-3.95,0,0,0,0,0,0l-15.89-15.91,15.89-15.89c1.09-1.09,1.09-2.86,0-3.95Z"/>
  <path class="st0" d="M278.08,23.21l-21.64-21.62-3.59,3.59c-1.08,1.07-1.08,2.82,0,3.9,0,0,0,0,0,0l15.91,15.91-16.04,16.05c-1,1-1,2.62,0,3.62,0,0,0,0,0,0l3.73,3.73,21.63-21.63c.99-.99.99-2.58,0-3.57,0,0,0,0,0,0Z"/>
</svg>