<?xml version="1.0" encoding="UTF-8"?>
<svg id="Capa_1" xmlns="http://www.w3.org/2000/svg" version="1.1" viewBox="0 0 138.26 27.91">
  <!-- Generator: Adobe Illustrator 29.8.4, SVG Export Plug-In . SVG Version: 2.1.1 Build 6)  -->
  <defs>
    <style>
      .st0 {
        fill: #e42313;
      }
    </style>
  </defs>
  <path class="st0" d="M19.22,12.88c-.06-.85-.28-1.71-.74-2.45l-3.88-6.78c-.28-.51-.51-1.08-.63-1.65l-.17.29c-.97,1.65-.97,3.76,0,5.42l3.14,5.42c.97,1.65.97,3.76,0,5.42l-.17.29c-.11-.57-.34-1.14-.63-1.65l-2.85-4.96-1.83-3.19c-.28-.51-.51-1.08-.63-1.65l-.17.29c-.97,1.65-.97,3.71,0,5.42h0l3.14,5.42c.97,1.65.97,3.76,0,5.42l-.17.29c-.11-.57-.34-1.14-.63-1.65l-3.93-6.79c-.51-.91-.74-1.94-.74-2.96-4.16,1.08-7.07,3.42-7.07,6.1,0,3.76,5.59,6.78,12.49,6.78s12.49-3.02,12.49-6.78c.06-2.57-2.79-4.91-7.01-5.99ZM31.03,24.45c.06-.97.17-1.6.46-2.39,1.31.63,3.02.91,4.28.91,2.17,0,3.42-.69,3.42-2.11s-.91-2-3.08-2.97l-1.2-.46c-2.22-.97-3.71-2.22-3.71-4.68,0-2.68,1.88-4.39,5.65-4.39,1.54,0,2.97.23,4.28.69-.06.91-.23,1.65-.46,2.34-1.25-.46-2.79-.69-3.88-.69-2.05,0-2.96.8-2.96,2.05s.91,1.94,2.56,2.62l1.26.51c2.97,1.25,4.22,2.62,4.22,4.9,0,2.68-2.05,4.56-6.04,4.56-1.88,0-3.48-.29-4.79-.91ZM54.46,13.22v11.75h-2.4l-.11-1.43c-.68,1.03-1.65,1.71-3.31,1.71-3.08,0-5.19-2.28-5.19-6.21s2.22-6.5,6.56-6.5c1.71.06,3.14.23,4.45.69ZM51.89,22.29v-7.35c-.51-.11-1.14-.11-1.88-.11-2.68,0-3.93,1.65-3.93,4.28,0,2.4.97,4.1,3.25,4.1,1.08-.06,1.88-.4,2.56-.91ZM67.69,17.1v7.87h-2.57v-7.41c0-1.88-.63-2.74-3.19-2.74-.63,0-1.31.06-2.05.17v9.98h-2.56v-11.75c1.65-.4,3.48-.69,4.68-.69,4.33.05,5.7,1.71,5.7,4.56ZM74.88,23.09c.74,0,1.48-.11,1.99-.34-.06.68-.17,1.48-.28,2.17-.68.29-1.48.4-2.17.4-2.51,0-4.1-1.14-4.1-3.99v-12.37c.8-.29,1.77-.4,2.57-.4v4.45h4.1c-.06.8-.11,1.54-.23,2.22h-3.88v5.76c0,1.49.74,2.11,2,2.11ZM88.73,13.22v11.75h-2.39l-.11-1.43c-.68,1.03-1.65,1.71-3.31,1.71-3.08,0-5.19-2.28-5.19-6.21s2.22-6.5,6.56-6.5c1.71.06,3.08.23,4.44.69ZM86.11,22.29v-7.35c-.51-.11-1.14-.11-1.88-.11-2.68,0-3.93,1.65-3.93,4.28,0,2.4.97,4.1,3.25,4.1,1.08-.06,1.94-.4,2.57-.91ZM101.96,17.1v7.87h-2.62v-7.41c0-1.88-.63-2.74-3.19-2.74-.63,0-1.31.06-2.05.17v9.98h-2.57v-11.75c1.65-.4,3.48-.69,4.68-.69,4.33.05,5.76,1.71,5.76,4.56ZM115.01,8.55v16.42h-2.4l-.11-1.48c-.68,1.08-1.65,1.77-3.36,1.77-3.08,0-5.19-2.28-5.19-6.21s2.22-6.5,6.56-6.5c.68,0,1.31.06,1.94.17v-3.88c.8-.23,1.71-.28,2.57-.28ZM112.45,22.29v-7.24c-.68-.11-1.37-.23-2.05-.23-2.56,0-3.76,1.6-3.76,4.28,0,2.4.97,4.1,3.25,4.1,1.03-.05,1.88-.4,2.56-.91ZM128.01,19.95h-8.27c.34,2.11,1.54,3.08,3.88,3.08,1.43,0,2.85-.28,4.1-.91-.11.68-.23,1.6-.4,2.34-1.2.51-2.4.74-3.82.74-4.33,0-6.39-2.4-6.39-6.39,0-3.48,1.6-6.27,5.7-6.27,3.71,0,5.3,2.4,5.3,5.36,0,.8,0,1.37-.11,2.05ZM119.75,17.78h5.82c0-1.94-1.03-3.08-2.79-3.08-1.88.06-2.85,1.08-3.02,3.08ZM137.08,12.71c0,.8-.11,1.71-.23,2.22-.63-.06-1.2-.11-1.94-.11-.63,0-1.25.06-1.88.11v10.03h-2.57v-11.75c1.09-.4,2.97-.69,4.39-.69.74.06,1.65.06,2.22.17Z"/>
</svg>