<?xml version="1.0" encoding="UTF-8"?>
<svg id="Capa_1" xmlns="http://www.w3.org/2000/svg" version="1.1" viewBox="0 0 198.32 50">
  <!-- Generator: Adobe Illustrator 29.8.4, SVG Export Plug-In . SVG Version: 2.1.1 Build 6)  -->
  <defs>
    <style>
      .st0 {
        fill: #bcbe0a;
      }

      .st1 {
        fill: #dc1915;
      }
    </style>
  </defs>
  <path class="st1" d="M44.08,5.44c-2.6,0-6.22,1.1-8.84,4.67-.5.7-.87,1.47-1.11,2.3-.8,2.82-.23,5.84,1.52,8.19,1.35,1.8,3.07,3.16,4.59,4.35.75.58,2.32,2.06,2.83,2.68.76.94,1.33,1.5,2.02,3.56.41,1.25.48,2.9.27,3.84,4.76-4.76,9.95-10.96,9.95-17.68,0-7.73-5.6-11.89-11.23-11.89"/>
  <path class="st0" d="M34.15,31.35c-1.98-2.71-4.26-4.36-6.16-6.1-.82-.75-1.72-1.32-2.39-1.98-3.19-3.2-4.69-7.15-3.93-12.02.6-3.81,2.48-6.32,4.74-8.16-2.71-2-5.92-3.09-9.55-3.09C7.86,0,.33,7.3.56,16.3c.41,16.26,20.58,30.11,28.9,32.94,4.45-2.3,6.81-6.6,6.81-11,0-3.21-1.37-5.86-2.12-6.9"/>
  <path class="st1" d="M69.39,30.51c1.56,1.09,4.65,2.5,6.83,2.5,1.68,0,3.13-.62,3.13-2.42s-2.26-2.38-4.57-3.28c-2.66-1.02-5.32-2.62-5.32-6.84,0-5.62,4.18-8.59,10.24-8.59,3.98,0,7.54,2,9.37,4.1l-3.99,4.14c-1.8-1.52-3.79-2.66-5.7-2.66-1.56,0-2.73.62-2.73,2.03,0,1.91,1.68,2.38,4.53,3.56,2.74,1.13,5.55,2.77,5.55,6.8,0,5.47-4.45,8.98-10.78,8.98-4.45,0-8.21-1.83-9.69-3.01l3.13-5.3Z"/>
  <path class="st1" d="M100.29,17.7c2.77,0,7.65,1.05,7.65,7.54,0,.98-.06,1.96-.19,2.93-1.21,7.65-6.05,10.74-11.6,10.74-4.84,0-7.58-2.81-7.58-7.82-.01-1.06.07-2.12.24-3.16,1.44-8.2,6.99-10.23,11.48-10.23M100.84,28.63c.2-1.07.31-2.15.31-3.24,0-1.88-.58-3.01-1.95-3.01-1.83,0-3.05,1.8-3.63,5.04-.22,1.19-.34,2.39-.35,3.59,0,1.72.47,3.12,1.91,3.12,1.91,0,3.05-1.68,3.71-5.51"/>
  <path class="st1" d="M115.57,38.29h-6.52l2.85-16.21.16-3.79h5.23l.12,2.77c1.44-2.46,3.48-3.36,5.12-3.36,1.13,0,2.34.27,3.13.78l-1.88,5.43c-.82-.44-1.73-.69-2.66-.7-1.68,0-3.01,1.01-3.36,2.85l-2.18,12.23Z"/>
  <polygon class="st1" points="124.25 38.29 127.77 18.29 134.3 18.29 130.78 38.29 124.25 38.29"/>
  <path class="st1" d="M132.57,9.76c1.83,0,2.97,1.25,2.97,2.77,0,2.07-1.8,3.71-4.1,3.71-1.87,0-2.93-1.13-2.93-2.7,0-2.03,1.72-3.79,4.06-3.79"/>
  <path class="st1" d="M152.7,34.07l-.27,4.22h-5.51v-1.83l-.2-.04c-1.37,1.6-3.12,2.46-5.47,2.46-4.18,0-6.05-3.08-6.05-7.31,0-8.01,4.45-13.86,12.62-13.86,1.64,0,4.57.39,7.5,1.56l-2.62,14.8ZM148.32,22.59c-.56-.23-1.16-.33-1.76-.32-3.56,0-4.84,5.35-4.84,8.56,0,1.87.43,3.4,2.3,3.4,1.33,0,2.27-.86,2.66-2.22l1.64-9.41Z"/>
  <path class="st1" d="M156.07,38.29l2.81-15.97.24-4.03h5.39l.08,2.15c1.56-1.77,3.81-2.77,6.17-2.73,3.24,0,5.2,1.48,5.24,4.84-.01.72-.08,1.44-.2,2.15l-2.42,13.59h-6.52l2.03-11.68c.12-.62.31-1.52.31-2.26,0-.78-.31-1.64-1.48-1.64-1.68,0-2.66,1.25-2.93,2.89l-2.23,12.69h-6.48Z"/>
  <path class="st1" d="M195.14,34.07l-.27,4.22h-5.51v-1.83l-.19-.04c-1.37,1.6-3.12,2.46-5.47,2.46-4.18,0-6.06-3.08-6.06-7.31,0-8.01,4.46-13.86,12.62-13.86,1.64,0,4.57.39,7.5,1.56l-2.62,14.8ZM190.77,22.59c-.56-.23-1.16-.33-1.76-.32-3.56,0-4.84,5.35-4.84,8.56,0,1.87.43,3.4,2.31,3.4,1.33,0,2.27-.86,2.66-2.22l1.64-9.41Z"/>
</svg>