<?xml version="1.0" encoding="UTF-8"?>
<svg xmlns="http://www.w3.org/2000/svg" version="1.1" viewBox="0 0 100 40">
  <defs>
    <style>
      .cls-1 {
        fill: #ffa400;
      }

      .cls-2 {
        fill: #e7004c;
      }
    </style>
  </defs>
  <!-- Generator: Adobe Illustrator 28.7.1, SVG Export Plug-In . SVG Version: 1.2.0 Build 142)  -->
  <g>
    <g id="Capa_1">
      <path class="cls-1" d="M97.8,11.5c-.5,0-.9.4-.9.9s.4.9.9.9.9-.4.9-.9-.4-.9-.9-.9ZM97.8,13.1c-.4,0-.8-.3-.8-.8s.3-.8.8-.8.8.3.8.8-.3.8-.8.8Z"/>
      <path class="cls-1" d="M97.5,11.9h.2s0,0,.1,0,0,0,.1,0,0,0,0,0c0,0,0,0,0,.1s0,.1,0,.2c0,0,0,0-.2,0l.3.4h-.1l-.2-.4h-.1v.4h-.1v-.9ZM97.7,12.3h0s0,0,0,0,0,0,0,0,0,0,0,0c0,0,0,0,0,0s0,0,0,0c0,0,0,0,0,0,0,0,0,0,0,0,0,0,0,0,0,0h-.2v.3Z"/>
      <g>
        <path class="cls-2" d="M12.8,19.3c0,0,.2.2.4.3s.3.3.5.4c.3.2.6.3.9.4.3.1.6.2.9.2s.5,0,.7,0c.2,0,.3-.2.5-.3s.2-.2.2-.4c0-.1,0-.3,0-.4s0-.3-.2-.5c-.1-.1-.3-.3-.5-.4-.2-.1-.4-.2-.6-.3-.2,0-.4-.1-.5-.2-.7-.2-1.3-.5-1.8-.8-.5-.3-.9-.6-1.3-.9-.3-.3-.6-.7-.8-1.1-.2-.4-.3-.9-.3-1.3s.1-1,.3-1.4c.2-.4.5-.8.9-1.1.4-.3.9-.5,1.4-.7.6-.2,1.2-.2,1.8-.2s1,0,1.5.2c.5.1.9.3,1.4.6.2.1.4.2.5.4.2.1.3.2.5.3.1.1.2.2.3.3,0,.1.1.2.1.3s0,.1,0,.2c0,0,0,.1-.2.2l-1.3,1.4c0,0-.2.1-.3.1s-.2,0-.2,0-.1-.1-.2-.2h0c-.1-.2-.2-.3-.4-.4s-.3-.2-.4-.3c-.2,0-.3-.1-.5-.2s-.4,0-.5,0-.4,0-.5,0c-.2,0-.3,0-.4.1s-.2.2-.3.3c0,.1-.1.2-.1.4s0,.3.1.4c0,.1.2.2.4.3.2,0,.4.2.6.3.2,0,.5.2.8.3.6.2,1.1.4,1.6.6.5.2.9.5,1.3.8.4.3.7.6.9,1.1.2.4.3.9.3,1.5s-.1,1.2-.4,1.7c-.3.5-.6.9-1,1.3-.4.4-1,.6-1.6.8-.6.2-1.2.3-1.9.3s-1.3-.1-1.9-.3c-.6-.2-1.2-.5-1.7-.9-.2-.2-.4-.3-.6-.5-.2-.2-.3-.3-.4-.4h0s0,0,0,0,0,0,0,0c0,0,0,0,0,0s0,0,0,0c-.1-.1-.2-.3-.2-.3s0-.2.2-.3l1.5-1.4c.1,0,.2-.1.3-.1s.1,0,.2,0,.1,0,.2.2Z"/>
        <path class="cls-2" d="M25,15.5l2-4.4c0,0,0-.1,0-.1,0,0,0,0,0,0s0,0,0,0c0,0,0,0,0,0h3.2s0,0,0,0c0,0,0,0,0,0,0,0,0,.1-.1.2l-4,7.1v4.7c0,.3-.1.4-.4.4h-2.5c-.1,0-.2,0-.3-.1,0,0,0-.2,0-.3v-4.7l-4-7.1c0,0-.1-.1-.1-.2s0,0,0,0c0,0,0,0,0,0h3.2s0,0,0,0c0,0,0,0,0,0s0,0,0,0c0,0,0,0,0,.1l2.1,4.4Z"/>
        <path class="cls-2" d="M31.7,19.3c0,0,.2.2.4.3s.3.3.5.4c.3.2.6.3.9.4.3.1.6.2.9.2s.5,0,.7,0c.2,0,.3-.2.5-.3s.2-.2.2-.4c0-.1,0-.3,0-.4s0-.3-.2-.5c-.1-.1-.3-.3-.5-.4-.2-.1-.4-.2-.6-.3-.2,0-.4-.1-.5-.2-.7-.2-1.3-.5-1.8-.8-.5-.3-.9-.6-1.3-.9-.3-.3-.6-.7-.8-1.1-.2-.4-.3-.9-.3-1.3s.1-1,.3-1.4c.2-.4.5-.8.9-1.1.4-.3.9-.5,1.4-.7.6-.2,1.2-.2,1.8-.2s1,0,1.5.2c.5.1.9.3,1.4.6.2.1.4.2.5.4.2.1.3.2.5.3.1.1.2.2.3.3,0,.1.1.2.1.3s0,.1,0,.2c0,0,0,.1-.2.2l-1.3,1.4c0,0-.2.1-.3.1s-.2,0-.2,0-.1-.1-.2-.2h0c-.1-.2-.2-.3-.4-.4s-.3-.2-.4-.3c-.2,0-.3-.1-.5-.2s-.4,0-.5,0-.4,0-.5,0c-.2,0-.3,0-.4.1s-.2.2-.3.3c0,.1-.1.2-.1.4s0,.3.1.4c0,.1.2.2.4.3.2,0,.4.2.6.3.2,0,.5.2.8.3.6.2,1.1.4,1.6.6.5.2.9.5,1.3.8.4.3.7.6.9,1.1.2.4.3.9.3,1.5s-.1,1.2-.4,1.7c-.3.5-.6.9-1,1.3-.4.4-1,.6-1.6.8-.6.2-1.2.3-1.9.3s-1.3-.1-1.9-.3c-.6-.2-1.2-.5-1.7-.9-.2-.2-.4-.3-.6-.5-.2-.2-.3-.3-.4-.4h0s0,0,0,0,0,0,0,0c0,0,0,0,0,0s0,0,0,0c-.1-.1-.2-.3-.2-.3s0-.2.2-.3l1.5-1.4c.1,0,.2-.1.3-.1s.1,0,.2,0,.1,0,.2.2Z"/>
      </g>
      <path class="cls-1" d="M48.8,15.9h-2.6v3.2c0,.3,0,.5,0,.7,0,.2,0,.4.2.6,0,.2.2.3.4.4.2,0,.4.1.8.1s.4,0,.6,0c.3,0,.5-.1.6-.2v2.5c-.3.1-.7.2-1,.2s-.7,0-1.1,0c-.5,0-1,0-1.4-.2-.4-.1-.8-.3-1.1-.5-.3-.2-.6-.5-.7-.9-.2-.4-.3-.8-.3-1.4v-4.6h-1.9v-2.4h1.9v-2.9h3v2.9h2.6v2.4Z"/>
      <path class="cls-2" d="M49.5,10.5c0-.5.2-.9.5-1.2s.7-.5,1.2-.5.9.2,1.2.5.5.7.5,1.2-.2.9-.5,1.2c-.3.3-.7.5-1.2.5s-.9-.2-1.2-.5c-.3-.3-.5-.7-.5-1.2Z"/>
      <rect class="cls-1" x="49.7" y="13.5" width="3" height="9.7"/>
      <path class="cls-1" d="M63.5,21.6c-.5.6-1.1,1.1-1.8,1.4s-1.5.5-2.3.5-1.4-.1-2.1-.4-1.2-.6-1.7-1c-.5-.4-.9-1-1.1-1.6-.3-.6-.4-1.3-.4-2.1s.1-1.5.4-2.1c.3-.6.7-1.2,1.1-1.6.5-.4,1.1-.8,1.7-1s1.4-.4,2.1-.4,1.3.1,1.9.4c.6.2,1,.6,1.4,1,.4.4.7,1,.9,1.6.2.6.3,1.3.3,2.1v.9h-7c.1.6.4,1,.8,1.4.4.3.9.5,1.5.5s.9-.1,1.2-.3c.3-.2.6-.5.9-.8l2.1,1.5ZM61,17.3c0-.5-.2-.9-.5-1.3-.3-.4-.8-.5-1.3-.5s-.6,0-.9.2c-.3.1-.5.2-.6.4-.2.2-.3.4-.4.6s-.2.4-.2.7h4Z"/>
      <path class="cls-1" d="M65.2,13.5h2.9v1.3h0c0-.2.2-.4.4-.6.2-.2.4-.4.6-.5.2-.1.5-.3.8-.4.3,0,.6-.1,1-.1.8,0,1.4.1,1.8.3s.8.6,1.1,1c.3.4.4.9.5,1.5,0,.6.1,1.2.1,1.8v5.4h-3v-4.8c0-.3,0-.6,0-.9s0-.6-.2-.8c0-.3-.3-.5-.5-.6-.2-.2-.5-.2-.9-.2s-.7,0-.9.2-.4.3-.5.6c-.1.2-.2.5-.2.8s0,.6,0,.9v4.8h-3v-9.7Z"/>
      <path class="cls-1" d="M86.2,23.3h-2.8v-1.3h0c-.1.2-.3.3-.5.5-.2.2-.4.3-.7.5-.3.1-.5.3-.9.4-.3,0-.6.1-1,.1-.7,0-1.4-.1-2-.4-.6-.2-1.1-.6-1.5-1-.4-.4-.7-1-1-1.6-.2-.6-.3-1.3-.3-2s.1-1.3.3-1.9c.2-.6.5-1.2.9-1.6.4-.5.8-.9,1.4-1.1s1.2-.4,1.9-.4,1.2,0,1.7.3,1,.5,1.3,1h0v-6.4h3v15.1ZM83.5,18.4c0-.7-.2-1.3-.6-1.8-.4-.5-1-.7-1.8-.7s-1.3.2-1.8.7c-.4.5-.6,1-.6,1.8s.2,1.3.6,1.8,1,.7,1.8.7,1.3-.2,1.8-.7c.4-.5.6-1,.6-1.8Z"/>
      <path class="cls-1" d="M94.1,22h0c-.3.5-.8.9-1.3,1.1-.6.2-1.1.3-1.7.3s-.9,0-1.3-.2c-.4-.1-.8-.3-1.1-.6s-.6-.6-.8-.9c-.2-.4-.3-.8-.3-1.3s.1-1,.3-1.4c.2-.4.5-.7.8-1,.4-.3.8-.4,1.2-.6s.9-.2,1.4-.3c.5,0,1-.1,1.5-.1.5,0,.9,0,1.3,0,0-.5-.2-1-.6-1.3s-.8-.5-1.3-.5-.9.1-1.3.3c-.4.2-.8.5-1.1.8l-1.6-1.6c.6-.5,1.2-.9,2-1.2s1.5-.4,2.3-.4,1.6.1,2.2.3c.6.2,1,.5,1.4,1,.3.4.6.9.7,1.6.1.6.2,1.3.2,2.1v4.9h-2.8v-1.2ZM93.4,19c-.2,0-.5,0-.8,0s-.7,0-1,.2c-.3,0-.6.2-.8.4-.2.2-.3.4-.3.8s.2.6.5.8c.3.2.6.3,1,.3s.6,0,.8-.1c.3,0,.5-.2.7-.3.2-.1.4-.3.5-.6.1-.2.2-.5.2-.8v-.6h-.7Z"/>
      <path class="cls-1" d="M39.3,7.4c-1.8,0-26.3.6-29.7.7,0,0-.2,0-.3-.2-.2-.7-.8-3-.8-3,0-.1-.2-.2-.4-.2H1.5c-.2,0-.3.1-.3.3v2.9c0,.2.1.3.3.3h3.1s.7,0,.9,0c.1,0,.2,0,.2.2,0,.3,4.6,19.8,4.6,19.8,0,0,0,.1.1.2,0,0,.2.1.3.1.6,0,2.1-.2,4.2-.4-.6.7-1,1.5-1,2.5,0,2,1.7,3.7,3.7,3.7s3.7-1.7,3.7-3.7-.6-2.3-1.5-3c2.1-.2,4.4-.4,6.6-.7-.7.7-1.1,1.6-1.1,2.6,0,2,1.7,3.7,3.7,3.7s3.7-1.7,3.7-3.7-.6-2.4-1.6-3.1c1.2-.1,2.3-.2,3.1-.3.8,0,1.8-.6,2.1-.9.4-.3.4-.7.1-1.1-.3-.4-.7-.3-1.1-.1-1.1.6-3,.8-3,.8,0,0-14,1.4-20.6,2.1-.2,0-.2,0-.3-.2-.9-3.9-4.6-19.9-4.6-19.9,0,0,0,0-.1,0h-4s0,0,0,0v-.5s0,0,.1,0h4.6c0,0,0,0,0,0,.2.9.7,2.5.9,3.3,0,0,0,0,0,0,1.5,0,27.3-.7,29.6-.7,1.5,0,1.6.5,1.4,1.4,0,.2-.1.5-.2.7-.1.4,0,.8.5.9s.9-.1,1-.5c0,0,.3-1.4.4-1.8.2-.8-.2-2.2-1.9-2.2ZM17.6,32.3c-1,0-1.8-.8-1.8-1.8s.8-1.8,1.8-1.8,1.8.8,1.8,1.8-.8,1.8-1.8,1.8ZM29,31.2c-1,0-1.8-.8-1.8-1.8s.8-1.8,1.8-1.8,1.8.8,1.8,1.8-.8,1.8-1.8,1.8Z"/>
    </g>
  </g>
</svg>