<?xml version="1.0" encoding="UTF-8"?>
<svg id="Layer_1" xmlns="http://www.w3.org/2000/svg" version="1.1" viewBox="0 0 115.54 50">
  <!-- Generator: Adobe Illustrator 29.8.4, SVG Export Plug-In . SVG Version: 2.1.1 Build 6)  -->
  <defs>
    <style>
      .st0 {
        fill: #f15f22;
      }

      .st1 {
        fill: #00438c;
      }
    </style>
  </defs>
  <g>
    <path class="st1" d="M4.82.63c3.84,0,7.71,0,11.57,0,.34,0,.42.2.53.43,2.25,4.84,4.51,9.67,6.76,14.51.07.15.14.29.28.56.22-.77.4-1.41.57-2.05,1.16-4.3,2.33-8.6,3.47-12.9.11-.42.27-.56.71-.55,2.19.02,4.38.01,6.57.01.16,0,.33.02.54.03-1.09,4.09-2.17,8.12-3.24,12.14.03.01.06.03.09.04.1-.15.2-.3.3-.45,2.7-3.95,6.4-5.99,11.22-5.9,1.53.03,3,.29,4.37.99,2.72,1.4,4.02,3.73,4.38,6.67.22,1.78-.02,3.51-.61,5.2-.12.34-.28.46-.65.46-4.39-.01-8.79,0-13.18,0h-.6c-.14,1.66,1.15,3.2,2.85,3.5,1.81.31,3.46-.13,4.99-1.11.23-.15.45-.3.68-.44.01,0,.03,0,.1-.02,1.13,1.34,2.28,2.69,3.45,4.07-.12.11-.23.22-.35.31-2.73,2.17-5.84,3.12-9.33,2.9-2.16-.14-4.19-.65-5.94-1.98-2.02-1.53-3.06-3.62-3.37-6.1-.06-.45-.09-.9-.2-1.37-.35,1.3-.7,2.6-1.05,3.9-.43,1.62-.88,3.23-1.29,4.86-.09.34-.23.43-.55.42-1.95-.01-3.9-.02-5.85,0-.37,0-.53-.14-.68-.45-2.31-5.02-4.63-10.02-6.95-15.04-.1-.21-.2-.42-.36-.78-.09.29-.15.45-.19.61-1.36,5.07-2.71,10.14-4.06,15.21-.07.28-.15.44-.49.44-2.33-.02-4.65,0-6.97,0-.07,0-.13-.02-.27-.04.03-.18.06-.36.1-.53,1.92-7.13,3.83-14.26,5.76-21.38.43-1.58-.01-2.97-1.01-4.17-.6-.73-1.37-1.33-2.07-2ZM38.44,15.93s.02.03.03.03c2.45.01,4.91.02,7.36.02.11,0,.28-.13.31-.24.48-1.56-.31-3.22-1.82-3.58-2.43-.59-5.37,1.26-5.89,3.77Z"/>
    <path class="st1" d="M67.63,13.37h-3.65c-1.2,0-1.2,0-1.51,1.15-.51,1.95-1.02,3.9-1.52,5.85-.06.21-.08.43-.09.65-.04.86.4,1.45,1.27,1.44.89,0,1.77-.2,2.65-.33.18-.02.35-.1.57-.17-.01.16,0,.27-.04.38-.49,1.83-.97,3.66-1.48,5.49-.05.18-.22.39-.38.45-2.29.73-4.62.93-6.97.35-2.71-.67-4.18-2.85-3.66-5.69.4-2.19,1.05-4.34,1.6-6.5.26-1,.55-1.99.84-3.04-.35-.03-.64-.05-.95-.08-.07-2.58-1.3-4.56-3.19-6.29.22-.02.36-.04.51-.04,1.61,0,3.22-.01,4.84,0,.35,0,.5-.1.59-.45.36-1.43.76-2.85,1.16-4.26.04-.15.23-.37.35-.37,2.41-.02,4.82-.02,7.29-.02-.45,1.7-.9,3.35-1.36,5.07h5.02c-.51,1.9-1,3.73-1.5,5.56.02.02.05.03.07.04.14-.21.29-.42.43-.63,3.72-5.31,10.37-6.77,15.51-4.43,3.68,1.67,5.39,4.69,5.54,8.65.21,5.64-4.01,11.48-10.3,12.62-3.73.68-7.21.06-10.1-2.59-1.67-1.53-2.51-3.5-2.79-5.73-.3-2.35.1-4.59,1.1-6.73.05-.1.07-.21.13-.38h0ZM82.32,17.1c0-1.84-.46-3.19-1.92-3.95-1.49-.77-2.98-.59-4.3.43-1.96,1.52-2.69,3.59-2.44,6.02.1.97.54,1.81,1.32,2.44,1.33,1.06,3.32,1.05,4.82-.07,1.71-1.28,2.42-3.07,2.52-4.87Z"/>
    <path class="st0" d="M87,6.44c.14-.27.24-.5.38-.78.53.25,1.03.48,1.53.72.54.25,1.07.51,1.61.75.37.17.64.39.58.92,7.81.88,15.6,1.76,23.46,2.65-.2,1.06-.39,2.06-.58,3.05-.5,2.56-1,5.11-1.48,7.67-.08.44-.18.72-.74.79-2.17.24-4.33.56-6.49.86-2.16.29-4.32.59-6.49.87-1.89.25-3.79.52-5.69.74-.62.07-1.09.23-1.26.91-.15.59-.63.89-1.13,1.18-1.64.95-3.27,1.93-4.92,2.88-.52.3-.73.71-.7,1.3.02.39.19.66.58.73.3.06.6.09.91.09,7.62,0,15.24,0,22.86.01.26,0,.73-.22.74.32.01.54-.43.47-.78.47-7.7,0-15.41,0-23.11,0-.14,0-.27,0-.41-.01-.62-.03-1.23-.13-1.49-.77-.28-.69-.26-1.43.24-2.02.34-.4.78-.75,1.24-1.03,1.49-.91,3.02-1.76,4.5-2.68.31-.19.6-.51.75-.84,1.28-2.84,2.11-5.79,2.05-8.93-.04-2.36-.6-4.59-1.88-6.61-.74-1.16-1.61-2.17-2.99-2.62-.44-.15-.85-.4-1.3-.62h0Z"/>
    <path class="st0" d="M86.74,36.93c-.77,0-1.28-.52-1.27-1.27.02-.94.95-1.83,1.91-1.82.72,0,1.27.54,1.28,1.24.02.95-.92,1.86-1.92,1.85Z"/>
    <path class="st0" d="M105.99,36.94c-.74,0-1.27-.53-1.27-1.23,0-.94.98-1.89,1.93-1.87.75.02,1.28.57,1.26,1.31-.02.96-.93,1.8-1.92,1.79Z"/>
  </g>
  <g>
    <path class="st1" d="M1.96,33.34H.63l.16-.78h3.6l-.16.78h-1.32l-.67,3.36h-.96s.67-3.36.67-3.36Z"/>
    <path class="st1" d="M7.79,33.52l-.63,3.18h-.87l.06-.34c-.28.27-.65.39-1.03.39-.68,0-1.14-.38-1.14-1.08,0-.12.01-.25.04-.38l.35-1.76h.92l-.34,1.7c-.02.08-.02.16-.02.23,0,.32.17.5.53.5.46,0,.77-.26.89-.82l.33-1.61h.92Z"/>
    <path class="st1" d="M13.79,32.31l-.87,4.39h-.87l.06-.32c-.25.23-.58.37-.98.37-.74,0-1.37-.52-1.37-1.42,0-1.07.77-1.85,1.76-1.85.46,0,.82.15,1.03.47l.33-1.63h.92ZM12.35,34.94c0-.43-.26-.7-.73-.7-.54,0-.93.42-.93,1.05,0,.43.27.7.73.7.54,0,.93-.42.93-1.05Z"/>
    <path class="st1" d="M17.17,35.35h-2.44c.03.43.3.65.82.65.33,0,.63-.11.85-.3l.38.61c-.37.3-.84.42-1.33.42-.99,0-1.63-.56-1.63-1.42,0-1.06.77-1.85,1.87-1.85.93,0,1.51.55,1.51,1.4,0,.17-.02.34-.05.49ZM14.8,34.82h1.58c0-.42-.28-.66-.71-.66s-.75.26-.87.66Z"/>
    <path class="st1" d="M17.28,36.41l.35-.67c.27.18.7.3,1.11.3.43,0,.62-.12.62-.31,0-.45-1.68-.08-1.68-1.15,0-.71.67-1.12,1.6-1.12.44,0,.89.1,1.18.27l-.33.67c-.3-.18-.64-.24-.94-.24-.43,0-.61.14-.61.31,0,.47,1.68.1,1.68,1.15,0,.73-.69,1.11-1.6,1.11-.56,0-1.09-.14-1.36-.33h0Z"/>
    <path class="st1" d="M24.42,34.89c0,1.07-.77,1.85-1.76,1.85-.46,0-.82-.15-1.03-.47l-.31,1.57h-.92l.86-4.33h.87l-.06.31c.25-.23.59-.36.98-.36.74,0,1.37.52,1.37,1.43ZM23.48,34.94c0-.43-.27-.7-.73-.7-.54,0-.93.42-.93,1.05,0,.43.26.7.72.7.55,0,.93-.42.93-1.05Z"/>
    <path class="st1" d="M28.1,35.35h-2.44c.03.43.3.65.82.65.33,0,.63-.11.85-.3l.38.61c-.37.3-.84.42-1.33.42-.99,0-1.63-.56-1.63-1.42,0-1.06.77-1.85,1.87-1.85.93,0,1.51.55,1.51,1.4,0,.17-.02.34-.05.49h0ZM25.73,34.82h1.58c0-.42-.28-.66-.71-.66s-.75.26-.87.66Z"/>
    <path class="st1" d="M32.05,34.55c0,.12-.01.25-.04.38l-.35,1.76h-.92l.34-1.7c.02-.08.02-.15.02-.22,0-.33-.18-.51-.54-.51-.47,0-.79.26-.9.82l-.32,1.61h-.92l.63-3.18h.87l-.07.34c.29-.27.66-.39,1.05-.39.7,0,1.16.38,1.16,1.08h0Z"/>
    <path class="st1" d="M32.29,36.41l.35-.67c.27.18.7.3,1.11.3.43,0,.62-.12.62-.31,0-.45-1.68-.08-1.68-1.15,0-.71.67-1.12,1.6-1.12.44,0,.89.1,1.18.27l-.33.67c-.3-.18-.64-.24-.94-.24-.42,0-.61.14-.61.31,0,.47,1.68.1,1.68,1.15,0,.73-.69,1.11-1.6,1.11-.56,0-1.09-.14-1.36-.33h0Z"/>
    <path class="st1" d="M39.49,33.52l-.63,3.18h-.87l.06-.31c-.25.23-.59.36-.98.36-.74,0-1.37-.52-1.37-1.42,0-1.07.77-1.85,1.76-1.85.46,0,.83.15,1.03.48l.08-.43h.92ZM38.28,34.94c0-.43-.27-.7-.73-.7-.54,0-.93.42-.93,1.05,0,.43.27.7.73.7.54,0,.93-.42.93-1.05Z"/>
    <path class="st1" d="M45.23,33.52l-.63,3.18h-.87l.06-.31c-.25.23-.59.36-.98.36-.74,0-1.37-.52-1.37-1.42,0-1.07.77-1.85,1.76-1.85.46,0,.83.15,1.03.48l.08-.43h.92ZM44.03,34.94c0-.43-.27-.7-.73-.7-.54,0-.93.42-.93,1.05,0,.43.27.7.73.7.54,0,.93-.42.93-1.05Z"/>
    <path class="st1" d="M50.92,34.89c0,1.07-.77,1.85-1.76,1.85-.46,0-.82-.15-1.03-.47l-.31,1.57h-.92l.86-4.33h.87l-.06.31c.25-.23.59-.36.98-.36.74,0,1.37.52,1.37,1.43h0ZM49.99,34.94c0-.43-.26-.7-.73-.7-.54,0-.93.42-.93,1.05,0,.43.26.7.72.7.54,0,.93-.42.93-1.05Z"/>
    <path class="st1" d="M53.82,33.47l-.17.85c-.08,0-.14-.01-.21-.01-.54,0-.89.25-1.01.85l-.31,1.54h-.92l.63-3.18h.87l-.08.38c.28-.3.67-.42,1.19-.42h0Z"/>
    <path class="st1" d="M57.09,35.35h-2.44c.03.43.3.65.82.65.33,0,.63-.11.85-.3l.38.61c-.37.3-.84.42-1.33.42-.99,0-1.63-.56-1.63-1.42,0-1.06.77-1.85,1.87-1.85.93,0,1.51.55,1.51,1.4,0,.17-.02.34-.05.49h0ZM54.72,34.82h1.58c0-.42-.28-.66-.71-.66s-.75.26-.87.66Z"/>
    <path class="st1" d="M57.46,35.32c0-1.06.8-1.85,1.94-1.85.68,0,1.19.29,1.43.8l-.78.39c-.14-.3-.38-.43-.71-.43-.54,0-.95.42-.95,1.04,0,.43.27.71.74.71.32,0,.59-.13.78-.42l.68.42c-.31.48-.86.76-1.51.76-.99,0-1.62-.57-1.62-1.43h0Z"/>
    <path class="st1" d="M61.53,33.52h.92l-.63,3.18h-.92l.63-3.18ZM61.61,32.59c0-.31.24-.55.61-.55.33,0,.54.2.54.46,0,.34-.25.57-.61.57-.32,0-.54-.21-.54-.48h0Z"/>
    <path class="st1" d="M62.73,35.32c0-1.06.8-1.85,1.92-1.85.98,0,1.6.56,1.6,1.42,0,1.06-.8,1.85-1.92,1.85-.97,0-1.6-.57-1.6-1.42h0ZM65.32,34.94c0-.43-.26-.7-.72-.7-.54,0-.93.42-.93,1.05,0,.43.27.7.73.7.54,0,.93-.42.93-1.05Z"/>
    <path class="st1" d="M72.88,32.56l-.83,4.14h-.79l-1.54-2.59-.52,2.59h-.95l.83-4.14h.79l1.54,2.59.51-2.59h.95Z"/>
    <path class="st1" d="M76.38,35.35h-2.44c.03.43.3.65.82.65.33,0,.63-.11.85-.3l.38.61c-.37.3-.84.42-1.33.42-.99,0-1.63-.56-1.63-1.42,0-1.06.77-1.85,1.87-1.85.93,0,1.51.55,1.51,1.4,0,.17-.02.34-.05.49h0ZM74.01,34.82h1.58c0-.42-.28-.66-.71-.66s-.75.26-.87.66Z"/>
    <path class="st1" d="M77.94,35.57s-.01.09-.01.13c0,.19.11.31.34.31.12,0,.25-.04.37-.11l.14.66c-.23.14-.51.19-.79.19-.59,0-.99-.33-.99-.89,0-.09.01-.18.03-.28l.25-1.28h-.49l.14-.71h.49l.15-.77h.92l-.15.77h.79l-.14.71h-.79l-.25,1.28h0Z"/>
    <path class="st1" d="M79.22,35.32c0-1.06.8-1.85,1.92-1.85.98,0,1.6.56,1.6,1.42,0,1.06-.8,1.85-1.92,1.85-.97,0-1.6-.57-1.6-1.42h0ZM81.81,34.94c0-.43-.26-.7-.72-.7-.54,0-.93.42-.93,1.05,0,.43.27.7.73.7.54,0,.93-.42.93-1.05Z"/>
  </g>
  <g>
    <path class="st1" d="M59.27,43.9h1.5l-.71,5.48h-2.27l1.48-5.48h0ZM59.24,42.04c0-.66.52-1.19,1.23-1.19.65,0,1.11.46,1.11,1.04,0,.67-.54,1.17-1.22,1.17s-1.12-.45-1.12-1.01Z"/>
    <path class="st1" d="M65.43,40.55l-.37,1.85h3.96l-.3,1.54h-3.98l-.39,1.98h4.66l-.33,1.59h-6.61l1.71-8.54h6.45l-.33,1.59h-4.47,0Z"/>
    <path class="st1" d="M69.67,46.92l.73-1.38c.56.38,1.45.62,2.28.62.89,0,1.28-.24,1.28-.63,0-.93-3.48-.16-3.48-2.38,0-1.48,1.38-2.31,3.29-2.31.91,0,1.83.21,2.43.55l-.68,1.39c-.61-.38-1.33-.5-1.94-.5-.88,0-1.27.29-1.27.65,0,.96,3.46.19,3.46,2.38,0,1.5-1.41,2.29-3.3,2.29-1.16,0-2.26-.29-2.81-.68Z"/>
    <path class="st0" d="M89.67,38.96l-1.71,8.54h-1.62l-3.18-5.34-1.07,5.34h-1.95l1.71-8.54h1.64l3.18,5.35,1.06-5.35h1.95Z"/>
    <path class="st0" d="M96.88,44.73h-5.03c.06.89.61,1.34,1.7,1.34.67,0,1.31-.22,1.76-.61l.79,1.26c-.76.61-1.74.88-2.74.88-2.05,0-3.35-1.16-3.35-2.94,0-2.2,1.59-3.82,3.87-3.82,1.92,0,3.12,1.13,3.12,2.89,0,.35-.05.69-.11,1ZM91.99,43.62h3.26c0-.87-.59-1.35-1.46-1.35s-1.54.54-1.79,1.35Z"/>
    <path class="st0" d="M100.11,45.18c-.02.1-.02.18-.02.27,0,.4.22.63.7.63.26,0,.52-.09.77-.23l.28,1.35c-.48.29-1.06.39-1.64.39-1.22,0-2.05-.68-2.05-1.83,0-.18.02-.38.06-.57l.52-2.65h-1.01l.29-1.46h1.01l.32-1.6h1.9l-.32,1.6h1.64l-.29,1.46h-1.64l-.52,2.64h0Z"/>
    <path class="st0" d="M102.75,44.66c0-2.18,1.66-3.82,3.96-3.82,2.01,0,3.3,1.16,3.3,2.94,0,2.18-1.65,3.82-3.96,3.82-2,0-3.3-1.17-3.3-2.94ZM108.09,43.87c0-.89-.54-1.45-1.49-1.45-1.12,0-1.93.88-1.93,2.16,0,.89.55,1.45,1.5,1.45,1.11,0,1.92-.88,1.92-2.16Z"/>
    <path class="st1" d="M110.51,46.57c0-.68.54-1.17,1.23-1.17.65,0,1.11.44,1.11,1,0,.67-.54,1.19-1.22,1.19s-1.12-.46-1.12-1.03ZM112.05,38.96h2.27l-1.5,5.57h-1.51l.75-5.57Z"/>
  </g>
</svg>