<?xml version="1.0" encoding="UTF-8"?>
<svg id="Capa_1" xmlns="http://www.w3.org/2000/svg" version="1.1" viewBox="0 0 70.04 50">
  <!-- Generator: Adobe Illustrator 29.8.4, SVG Export Plug-In . SVG Version: 2.1.1 Build 6)  -->
  <defs>
    <style>
      .st0 {
        fill: #ffcb0a;
      }

      .st1 {
        fill: #fff;
      }

      .st2 {
        fill: #0066b3;
      }

      .st3 {
        fill: #ed1c23;
      }
    </style>
  </defs>
  <g>
    <path class="st0" d="M19.09,14.24l-5.72-1.89c-6.08,5.68-10.76,12.84-10.76,19.68s7.17,15.67,19.05,15.67,20.69-3.61,20.69-3.61l1.08.91s-7.72,4.1-16.99,4.1h-4.34l.91.76s12.84,1.67,26.58-6.31c7.39-4.29,12.24-9.38,15.13-14.24l-1.89-.82L19.08,14.24h0Z"/>
    <path class="st2" d="M48.3,1.52c-9.71,0-20.84,4.63-20.84,4.63v-1.33S34.77.99,44.66.69l-.64-.67s-13.35-.8-25.94,8.44c-1.62,1.19-3.21,2.5-4.71,3.9l5.72,1.89,43.75,14.24,1.89.82c2.48-4.17,3.52-8.15,3.52-11.3,0-6.83-4.95-16.48-19.96-16.48h0Z"/>
  </g>
  <path class="st3" d="M17.02,13.55c5.09-3.24,13.85-8.23,27.96-8.23s21.65,7.43,21.65,14.72-5.8,14.28-18.19,20.12c-7.47,3.27-15.53,4.02-19.93,4.02s-22.15-1.95-22.15-15.08,7.06-13.25,10.66-15.54c0,0,0,0,0,0Z"/>
  <polygon class="st1" points="25.25 18.95 22.87 24.02 20.51 18.95 13.47 18.95 19.59 30.49 22.87 30.49 25.88 30.49 32 18.95 25.25 18.95"/>
  <rect class="st1" x="33.19" y="18.95" width="6.13" height="11.54"/>
  <path class="st1" d="M34.81,15.04c.46-.29,1.23-.73,2.49-.73s1.93.66,1.93,1.31-.51,1.27-1.62,1.79c-.67.29-1.39.36-1.77.36s-1.97-.17-1.97-1.34.63-1.18.95-1.39h0Z"/>
  <path class="st1" d="M54.08,18.95h-9.09l-4.73,11.54h6.33l.66-2.04h4.57l.66,2.04h6.33l-4.73-11.54h0ZM49.54,26.51h-1.57l1.57-3.81,1.57,3.81h-1.57Z"/>
  <g>
    <path class="st1" d="M56.95,18.98h1.3v.27h-.49v1.62h-.34v-1.62h-.49v-.27h.01Z"/>
    <path class="st1" d="M60.08,20.34l.3-1.31h.62v1.85h-.42v-1.33l-.31,1.33h-.42l-.34-1.31v1.31h-.39v-1.85h.62l.34,1.31h0,0Z"/>
  </g>
</svg>