<svg id="Capa_1" data-name="Capa 1" xmlns="http://www.w3.org/2000/svg" viewBox="0 0 360.08 162.77"><defs><style>.cls-1{fill:#6eb74c;}.cls-2{fill:#fff;}.cls-3{fill:#fdc400;}</style></defs><rect class="cls-1" width="360.08" height="162.77" rx="16.4"/><path class="cls-2" d="M383.73,438.58a10.24,10.24,0,0,1-10.21,10.2l-205.17-.14a10.23,10.23,0,0,1-10.2-10.21v-15a10.23,10.23,0,0,1,10.2-10.2l205.17.14a10.24,10.24,0,0,1,10.21,10.21Z" transform="translate(-125.96 -314.62)"/><path class="cls-2" d="M330.83,390.6a5.81,5.81,0,0,1-.22,1.74,6.07,6.07,0,0,1-5.86,4.09c-2.41,0-4.33-1.36-4.33-4.24,0-4.4,4.87-5.61,10.41-5.59Zm8.69-7.67c0-7.26-3.11-13.65-13.64-13.65a25,25,0,0,0-12,2.86l1.71,5.83a17.79,17.79,0,0,1,8.78-2.45c5.34,0,6.22,3,6.22,5v.46c-11.65,0-19,4-19,12.17,0,5,3.75,9.67,10.26,9.67a11.67,11.67,0,0,0,9.36-4.14h.21s1.32,5.54,8.65,3.42a46.1,46.1,0,0,1-.51-7.72Z" transform="translate(-125.96 -314.62)"/><path class="cls-2" d="M158.15,359.39s7.6,31,8.82,36.07c1.41,5.89,4,8.05,11.33,6.59l4.75-19.25c1.2-4.77,2-8.18,2.79-13H186a126.63,126.63,0,0,0,2.31,13.07s1.93,8.73,2.93,13.32,3.75,7.47,11,5.9l11.32-42.66h-9.14l-3.87,18.45c-1,5.36-2,9.56-2.71,14.47h-.13c-.66-4.86-1.5-8.89-2.55-14.12l-4-18.8h-9.53l-4.3,18.33c-1.22,5.56-2.36,10.06-3.08,14.8H174c-.74-4.47-1.74-10.11-2.81-15.5,0,0-2.55-13.1-3.45-17.63Z" transform="translate(-125.96 -314.62)"/><path class="cls-2" d="M230.77,390.6a5.81,5.81,0,0,1-.23,1.74,6.08,6.08,0,0,1-5.86,4.09c-2.41,0-4.32-1.36-4.32-4.24,0-4.4,4.86-5.61,10.41-5.59Zm8.68-7.67c0-7.26-3.11-13.65-13.64-13.65a24.92,24.92,0,0,0-12,2.86l1.71,5.83a17.73,17.73,0,0,1,8.78-2.45c5.34,0,6.22,3,6.22,5v.46c-11.65,0-19,4-19,12.17,0,5,3.74,9.67,10.26,9.67a11.69,11.69,0,0,0,9.37-4.14h.19s1.34,5.54,8.66,3.42a47.19,47.19,0,0,1-.51-7.72Z" transform="translate(-125.96 -314.62)"/><polygon class="cls-2" points="128 78.38 128 44.78 119.3 44.78 119.3 87.43 128 87.43 128 78.38"/><path class="cls-2" d="M367.78,359.39v31.47c0,4.34.82,7.38,2.57,9.23a9.68,9.68,0,0,0,7.09,2.68,21,21,0,0,0,6.3-.92l-.11-6.78a13.33,13.33,0,0,1-3.31.39c-3,0-4-1.89-4-5.78v-12h7.57v-8.16h-7.57V359.39Z" transform="translate(-125.96 -314.62)"/><path class="cls-2" d="M345.32,370v32h9V385.64a12.37,12.37,0,0,1,.19-2.37,6.78,6.78,0,0,1,7.1-5.63,17.3,17.3,0,0,1,2.59.23v-8.39a9.14,9.14,0,0,0-2-.2,9.48,9.48,0,0,0-8.76,6.77h-.25v-6Z" transform="translate(-125.96 -314.62)"/><path class="cls-2" d="M260.05,370v32h8.74V383.26a7.39,7.39,0,0,1,.42-2.62c.72-1.89,2.48-4.11,5.31-4.11,3.53,0,5.18,3,5.18,7.25v18.27h8.74V383a8.56,8.56,0,0,1,.37-2.6,5.51,5.51,0,0,1,5.24-3.9c3.58,0,5.3,2.92,5.3,8v17.56h8.74V383.18c0-10-5.08-13.9-10.81-13.9a11.57,11.57,0,0,0-6.35,1.75,13.3,13.3,0,0,0-4.08,4h-.13a9.17,9.17,0,0,0-8.87-5.74,10.13,10.13,0,0,0-9.37,5.08h-.13V370Z" transform="translate(-125.96 -314.62)"/><path class="cls-3" d="M422.49,370.94c1.42,0,2.59-.73,2.74-1.68l1.4-15.76c0-1.56-1.83-2.84-4.14-2.84s-4.13,1.28-4.13,2.84l1.4,15.76c.16.95,1.32,1.68,2.74,1.68Z" transform="translate(-125.96 -314.62)"/><path class="cls-3" d="M413.93,375.87c.72-1.22.66-2.6-.09-3.2l-13-9.09c-1.34-.78-3.38.16-4.53,2.15s-.94,4.2.4,5l14.41,6.67c.9.34,2.14-.3,2.84-1.52Z" transform="translate(-125.96 -314.62)"/><path class="cls-3" d="M431.06,375.86c.71,1.22,1.93,1.86,2.83,1.52l14.41-6.67c1.36-.78,1.55-3,.41-5s-3.2-2.93-4.55-2.15l-13,9.09c-.74.6-.8,2-.09,3.2Z" transform="translate(-125.96 -314.62)"/><path class="cls-3" d="M422.49,390.63c1.42,0,2.59.74,2.74,1.68l1.4,15.76c0,1.56-1.83,2.84-4.14,2.84s-4.13-1.28-4.13-2.84l1.4-15.76c.16-.94,1.32-1.68,2.74-1.68Z" transform="translate(-125.96 -314.62)"/><path class="cls-3" d="M431.06,385.71c.71-1.22,1.93-1.86,2.83-1.52l14.41,6.67c1.36.78,1.55,3,.41,5s-3.2,2.92-4.55,2.15l-13-9.08a2.59,2.59,0,0,1-.09-3.21Z" transform="translate(-125.96 -314.62)"/><path class="cls-3" d="M413.93,385.71c.72,1.22.66,2.59-.09,3.21l-13,9.08c-1.34.77-3.38-.16-4.53-2.15s-.94-4.21.4-5l14.41-6.67a2.61,2.61,0,0,1,2.84,1.52Z" transform="translate(-125.96 -314.62)"/><path class="cls-3" d="M452.42,396.63h.18c.19,0,.36-.06.36-.23s-.11-.24-.34-.24a.49.49,0,0,0-.2,0Zm0,.88h-.36V396a2.85,2.85,0,0,1,.6-.06.89.89,0,0,1,.55.12.45.45,0,0,1,.15.34.4.4,0,0,1-.32.37v0c.15,0,.23.17.28.38a1.36,1.36,0,0,0,.11.38H453a1.9,1.9,0,0,1-.12-.38c0-.16-.13-.24-.33-.24h-.17Zm.24-2.06a1.25,1.25,0,0,0,0,2.49,1.19,1.19,0,0,0,1.2-1.24,1.21,1.21,0,0,0-1.21-1.25Zm0-.31a1.57,1.57,0,1,1,0,3.13,1.57,1.57,0,1,1,0-3.13Z" transform="translate(-125.96 -314.62)"/><path class="cls-1" d="M225.52,419.48A.49.49,0,0,1,226,419h10.42a.49.49,0,0,1,.49.48v2.1a.49.49,0,0,1-.49.49h-7.58v4.2h6.32a.5.5,0,0,1,.49.48v2.13a.49.49,0,0,1-.49.49h-6.32v4.48h7.58a.49.49,0,0,1,.49.48v2.1a.49.49,0,0,1-.49.49H226a.49.49,0,0,1-.49-.49Z" transform="translate(-125.96 -314.62)"/><path class="cls-1" d="M240,436.05l3.76-5.15L240.19,426a.52.52,0,0,1,.41-.87h2.33a1,1,0,0,1,1,.41l2,3.1h.06l2-3.1a.92.92,0,0,1,.89-.41h2.51c.52,0,.64.49.34.87l-3.64,4.89,3.66,5.2c.28.38.16.87-.33.87h-2.46a.93.93,0,0,1-.82-.49l-2.17-3.25h-.06l-2.3,3.51a.67.67,0,0,1-.49.23h-2.66C239.91,436.92,239.78,436.43,240,436.05Z" transform="translate(-125.96 -314.62)"/><path class="cls-1" d="M261.46,437.2a8.67,8.67,0,0,1-2.84-.49v5.74a.6.6,0,0,1-.56.56H256a.59.59,0,0,1-.57-.56V425.53A.55.55,0,0,1,256,425a1.76,1.76,0,0,1,1.84,1.51,5.14,5.14,0,0,1,3.79-1.67c3.22,0,5.66,2.62,5.66,6.2S265,437.2,261.46,437.2Zm-2.84-3.58a4.74,4.74,0,0,0,2.46.66A3,3,0,0,0,264,431c0-1.66-.94-3.28-2.79-3.28a2.73,2.73,0,0,0-2.61,1.64Z" transform="translate(-125.96 -314.62)"/><path class="cls-1" d="M271.19,425.53a.55.55,0,0,1,.62-.54,1.82,1.82,0,0,1,1.87,1.61,4.12,4.12,0,0,1,3.3-1.77c1.41,0,2.56.39,2.22,1.16l-.76,1.74a.49.49,0,0,1-.69.25,2.52,2.52,0,0,0-1.11-.23,2.57,2.57,0,0,0-2.25,1.23v7.37c0,.44-.28.57-.66.57h-2a.59.59,0,0,1-.57-.57Z" transform="translate(-125.96 -314.62)"/><path class="cls-1" d="M287.32,424.83a5.31,5.31,0,0,1,5.43,5.48c0,.18,0,.59-.05.77a.61.61,0,0,1-.57.54h-7.58a2.85,2.85,0,0,0,2.95,2.74,3.91,3.91,0,0,0,2.53-.87c.28-.23.59-.26.77,0l1,1.33a.5.5,0,0,1-.05.77,6.68,6.68,0,0,1-4.4,1.61,6.19,6.19,0,0,1,0-12.37Zm2.2,4.69a2.16,2.16,0,0,0-2.28-2,2.36,2.36,0,0,0-2.51,2Z" transform="translate(-125.96 -314.62)"/><path class="cls-1" d="M296.07,436.12a.52.52,0,0,1-.15-.64l.77-1.53a.45.45,0,0,1,.69-.21,4.72,4.72,0,0,0,2.61.77c.9,0,1.31-.33,1.31-.84s-.67-1-2.23-1.64c-2.28-.87-3.3-1.95-3.3-3.74s1.35-3.46,4.25-3.46a6.39,6.39,0,0,1,3.5.88.65.65,0,0,1,.26.81l-.67,1.36a.59.59,0,0,1-.74.23,5.72,5.72,0,0,0-2.35-.59c-.8,0-1.13.39-1.13.77,0,.54.59.82,1.69,1.28,2.28.92,3.92,1.74,3.92,4.1,0,1.87-1.59,3.53-4.56,3.53A6.58,6.58,0,0,1,296.07,436.12Z" transform="translate(-125.96 -314.62)"/><path class="cls-1" d="M307.93,436.12a.51.51,0,0,1-.16-.64l.77-1.53a.45.45,0,0,1,.69-.21,4.72,4.72,0,0,0,2.61.77c.9,0,1.31-.33,1.31-.84s-.67-1-2.23-1.64c-2.28-.87-3.3-1.95-3.3-3.74s1.36-3.46,4.25-3.46a6.43,6.43,0,0,1,3.51.88.65.65,0,0,1,.25.81l-.66,1.36a.6.6,0,0,1-.75.23,5.72,5.72,0,0,0-2.35-.59c-.8,0-1.13.39-1.13.77,0,.54.59.82,1.69,1.28,2.28.92,3.92,1.74,3.92,4.1,0,1.87-1.59,3.53-4.56,3.53A6.51,6.51,0,0,1,307.93,436.12Z" transform="translate(-125.96 -314.62)"/></svg>