<?xml version="1.0" encoding="utf-8"?>
<!-- Generator: Adobe Illustrator 25.0.0, SVG Export Plug-In . SVG Version: 6.00 Build 0)  -->
<svg version="1.1" id="Capa_1" xmlns="http://www.w3.org/2000/svg" xmlns:xlink="http://www.w3.org/1999/xlink" x="0px" y="0px"
	 viewBox="0 0 100 40" style="enable-background:new 0 0 100 40;" xml:space="preserve">
<style type="text/css">
	.st0{fill:#0075BF;}
	.st1{fill:#FDC400;}
</style>
<g>
	<path class="st0" d="M58.32,23.32c0,0.2-0.02,0.41-0.07,0.59c-0.22,0.75-1.01,1.38-1.98,1.38c-0.81,0-1.46-0.46-1.46-1.43
		c0-1.49,1.64-1.9,3.52-1.89V23.32z M61.25,20.73c0-2.45-1.05-4.61-4.61-4.61c-1.82,0-3.27,0.51-4.06,0.97l0.58,1.97
		c0.72-0.45,1.88-0.83,2.97-0.83c1.8,0,2.1,1.02,2.1,1.67v0.16c-3.93-0.01-6.42,1.35-6.42,4.11c0,1.69,1.27,3.27,3.47,3.27
		c1.35,0,2.48-0.54,3.16-1.4h0.07c0,0,0.45,1.87,2.92,1.15c-0.13-0.78-0.17-1.61-0.17-2.61V20.73z"/>
	<path class="st0" d="M0,12.78c0,0,2.57,10.48,2.98,12.18c0.48,1.99,1.34,2.72,3.83,2.22l1.61-6.5c0.41-1.61,0.68-2.76,0.94-4.41
		H9.4c0.18,1.66,0.45,2.8,0.78,4.41c0,0,0.65,2.95,0.99,4.5c0.33,1.55,1.27,2.52,3.7,1.99l3.82-14.4H15.6L14.3,19
		c-0.35,1.81-0.67,3.23-0.91,4.89h-0.04c-0.22-1.64-0.51-3-0.86-4.77l-1.36-6.35H7.9l-1.45,6.19c-0.41,1.88-0.8,3.4-1.04,5H5.36
		c-0.25-1.51-0.58-3.41-0.95-5.23c0,0-0.86-4.42-1.17-5.95H0z"/>
	<path class="st0" d="M24.52,23.32c0,0.2-0.02,0.41-0.07,0.59c-0.23,0.75-1.01,1.38-1.98,1.38c-0.81,0-1.46-0.46-1.46-1.43
		c0-1.49,1.64-1.9,3.52-1.89V23.32z M27.46,20.73c0-2.45-1.05-4.61-4.61-4.61c-1.83,0-3.27,0.51-4.06,0.97l0.58,1.97
		c0.72-0.45,1.88-0.83,2.97-0.83c1.8,0,2.1,1.02,2.1,1.67v0.16c-3.93-0.01-6.42,1.35-6.42,4.11c0,1.69,1.26,3.27,3.46,3.27
		c1.35,0,2.49-0.54,3.16-1.4h0.07c0,0,0.45,1.87,2.92,1.15c-0.13-0.78-0.17-1.61-0.17-2.61V20.73z"/>
	<polygon class="st0" points="32.35,24.12 32.35,12.78 29.42,12.78 29.42,27.18 32.35,27.18 	"/>
	<path class="st0" d="M70.79,12.78V23.4c0,1.47,0.28,2.49,0.87,3.12c0.52,0.55,1.37,0.9,2.39,0.9c0.87,0,1.72-0.16,2.13-0.31
		l-0.04-2.29c-0.3,0.07-0.65,0.13-1.12,0.13c-1,0-1.34-0.64-1.34-1.95v-4.07h2.56v-2.76h-2.56v-3.41H70.79z"/>
	<path class="st0" d="M63.21,16.36v10.82h3.03v-5.54c0-0.3,0.02-0.56,0.07-0.8c0.22-1.16,1.12-1.9,2.4-1.9
		c0.35,0,0.6,0.04,0.88,0.08v-2.83c-0.23-0.05-0.39-0.07-0.67-0.07c-1.13,0-2.42,0.73-2.96,2.29h-0.08v-2.04H63.21z"/>
	<path class="st0" d="M34.41,16.36v10.82h2.95v-6.34c0-0.3,0.04-0.61,0.14-0.89c0.24-0.64,0.84-1.39,1.8-1.39
		c1.19,0,1.75,1,1.75,2.45v6.17H44v-6.42c0-0.28,0.04-0.63,0.13-0.88c0.24-0.72,0.88-1.32,1.77-1.32c1.21,0,1.79,0.99,1.79,2.69
		v5.93h2.95v-6.37c0-3.36-1.71-4.69-3.65-4.69c-0.86,0-1.53,0.21-2.14,0.59c-0.51,0.31-0.98,0.76-1.38,1.35h-0.05
		c-0.47-1.17-1.56-1.94-2.99-1.94c-1.84,0-2.67,0.93-3.17,1.72h-0.04v-1.47H34.41z"/>
	<path class="st1" d="M89.27,16.68c0.48,0,0.87-0.25,0.93-0.57l0.47-5.32c0-0.53-0.62-0.96-1.4-0.96c-0.78,0-1.4,0.43-1.4,0.96
		l0.47,5.32C88.4,16.43,88.79,16.68,89.27,16.68L89.27,16.68z"/>
	<path class="st1" d="M86.38,18.34c0.24-0.41,0.22-0.88-0.03-1.08l-4.4-3.07c-0.46-0.26-1.14,0.05-1.53,0.73
		c-0.39,0.67-0.32,1.42,0.14,1.68l4.87,2.25C85.73,18.96,86.14,18.75,86.38,18.34L86.38,18.34z"/>
	<path class="st1" d="M92.16,18.34c0.24,0.41,0.65,0.63,0.96,0.51l4.87-2.25c0.46-0.26,0.52-1.01,0.14-1.68
		c-0.39-0.67-1.08-0.99-1.53-0.73l-4.39,3.07C91.94,17.46,91.93,17.93,92.16,18.34L92.16,18.34z"/>
	<path class="st1" d="M89.27,23.33c0.48,0,0.87,0.25,0.93,0.57l0.47,5.32c0,0.53-0.62,0.96-1.4,0.96c-0.78,0-1.4-0.43-1.4-0.96
		l0.47-5.32C88.4,23.57,88.79,23.33,89.27,23.33L89.27,23.33z"/>
	<path class="st1" d="M92.16,21.66c0.24-0.41,0.65-0.63,0.96-0.51l4.87,2.25c0.46,0.26,0.52,1.01,0.14,1.68
		c-0.39,0.67-1.08,0.99-1.53,0.73l-4.39-3.07C91.94,22.54,91.93,22.08,92.16,21.66L92.16,21.66z"/>
	<path class="st1" d="M86.38,21.66c0.24,0.41,0.22,0.88-0.03,1.08l-4.4,3.07c-0.46,0.26-1.14-0.06-1.53-0.73
		c-0.39-0.67-0.32-1.42,0.14-1.69l4.87-2.25C85.73,21.04,86.14,21.25,86.38,21.66L86.38,21.66z"/>
	<path class="st1" d="M99.38,25.35h0.06c0.07,0,0.12-0.02,0.12-0.08c0-0.05-0.03-0.08-0.11-0.08c-0.03,0-0.05,0-0.07,0.01V25.35z
		 M99.37,25.65h-0.12v-0.52c0.05-0.01,0.12-0.02,0.2-0.02c0.1,0,0.15,0.01,0.19,0.04c0.03,0.02,0.05,0.06,0.05,0.11
		c0,0.06-0.04,0.1-0.11,0.13v0.01c0.05,0.02,0.08,0.06,0.1,0.13c0.02,0.08,0.03,0.11,0.04,0.13h-0.13
		c-0.02-0.02-0.03-0.06-0.04-0.13c-0.01-0.06-0.04-0.08-0.11-0.08h-0.06V25.65z M99.45,24.95c-0.23,0-0.41,0.19-0.41,0.42
		c0,0.23,0.17,0.42,0.41,0.42c0.23,0.01,0.4-0.19,0.4-0.42C99.87,25.14,99.69,24.95,99.45,24.95L99.45,24.95z M99.46,24.85
		c0.3,0,0.54,0.23,0.54,0.53c0,0.3-0.24,0.53-0.54,0.53c-0.3,0-0.55-0.23-0.55-0.53C98.91,25.08,99.15,24.85,99.46,24.85
		L99.46,24.85z"/>
</g>
</svg>
