<?xml version="1.0" encoding="utf-8"?>
<!-- Generator: Adobe Illustrator 24.0.0, SVG Export Plug-In . SVG Version: 6.00 Build 0)  -->
<svg version="1.1" xmlns="http://www.w3.org/2000/svg" xmlns:xlink="http://www.w3.org/1999/xlink" x="0px" y="0px"
	 viewBox="0 0 436 72" style="enable-background:new 0 0 436 72;" xml:space="preserve">
<style type="text/css">
	.st0{display:none;}
	.st1{display:inline;}
	.st2{fill:#2C3583;}
	.st3{fill:#FBC112;}
	.st4{fill:#FFFFFF;stroke:#231F20;stroke-miterlimit:10;}
	.st5{fill:#FFFFFF;}
	.st6{fill:#056406;}
	.st7{fill:#EA671E;}
	.st8{fill:#333333;}
	.st9{fill:#4374B6;}
	.st10{fill:#4575B6;}
	.st11{fill:#2A8F2C;}
	.st12{fill:#404041;}
	.st13{display:inline;fill:#F7931A;}
	.st14{fill:#4E4E4E;}
	.st15{fill:#005380;}
	.st16{fill:#404040;}
	.st17{display:inline;fill:#CC8800;}
	.st18{fill:#E21A23;}
	.st19{fill:#FFFFFF;stroke:#262321;stroke-miterlimit:10;}
	.st20{fill:#2B6A95;stroke:#262321;stroke-miterlimit:10;}
	.st21{fill:#262321;}
</style>
<g id="Credit_Card_Logo" class="st0">
	<g class="st1">
		<path class="st2" d="M203.89,40.23c-2.51,0-4.69-0.52-6.54-1.57c-1.86-1.05-3.29-2.53-4.3-4.45c-1.01-1.92-1.52-4.19-1.52-6.82
			v-0.87c0-2.51,0.49-4.73,1.46-6.66c0.98-1.93,2.37-3.45,4.18-4.55c1.81-1.1,3.96-1.65,6.46-1.65c1.75,0,3.39,0.25,4.92,0.74
			c1.53,0.5,2.9,1.25,4.11,2.27v6.24h-3.85L208.27,19c-0.39-0.28-0.82-0.53-1.28-0.73c-0.46-0.2-0.96-0.35-1.5-0.46
			c-0.54-0.11-1.12-0.16-1.75-0.16c-1.47,0-2.73,0.36-3.78,1.08c-1.05,0.72-1.86,1.74-2.42,3.06c-0.56,1.32-0.84,2.88-0.84,4.69v0.9
			c0,1.81,0.3,3.38,0.89,4.7c0.59,1.32,1.43,2.35,2.52,3.08c1.09,0.73,2.38,1.09,3.87,1.09c0.74,0,1.49-0.09,2.24-0.26
			c0.75-0.17,1.43-0.39,2.05-0.67l0.53-3.64h3.85v6.17c-1.01,0.66-2.26,1.22-3.76,1.68C207.39,40,205.72,40.23,203.89,40.23z"/>
		<path class="st2" d="M215.03,39.86v-3.1l2.75-0.53V17.69l-2.75-0.53v-3.12h12.24c1.99,0,3.69,0.31,5.11,0.92
			c1.42,0.61,2.51,1.5,3.27,2.64c0.76,1.15,1.14,2.52,1.14,4.13c0,1.51-0.38,2.87-1.13,4.06c-0.76,1.19-1.81,2.13-3.16,2.82
			c-1.35,0.69-2.9,1.03-4.66,1.05h-4.88v6.56l2.77,0.53v3.1H215.03z M222.96,25.67h4.22c1.49,0,2.6-0.32,3.34-0.95
			c0.74-0.63,1.11-1.55,1.11-2.76c0-1.19-0.37-2.15-1.1-2.86c-0.73-0.72-1.82-1.07-3.26-1.07h-4.31V25.67z M231.65,39.86L227.3,28.7
			l4.66-1.15l3.76,8.69l2.2,0.51v3.1H231.65z"/>
		<path class="st2" d="M240,39.86v-3.1l2.75-0.53V17.69L240,17.16v-3.12h20.04v6.97h-3.97l-0.23-2.98h-7.91v6.49h8.74v3.99h-8.74
			v7.38h8.34l0.23-3.09h3.94v7.06H240z"/>
		<path class="st2" d="M263.2,39.86v-3.1l2.78-0.59V17.76l-2.78-0.6v-3.12h2.78h8.55c2.31,0,4.34,0.54,6.1,1.62
			c1.76,1.08,3.14,2.58,4.12,4.49c0.99,1.91,1.48,4.1,1.48,6.57v0.48c0,2.45-0.49,4.63-1.46,6.54c-0.98,1.91-2.34,3.41-4.09,4.5
			c-1.75,1.09-3.78,1.63-6.08,1.63H263.2z M271.16,35.9h3.17c1.43,0,2.64-0.38,3.64-1.13c0.99-0.75,1.75-1.78,2.28-3.09
			c0.53-1.31,0.79-2.81,0.79-4.49v-0.5c0-1.7-0.26-3.21-0.79-4.51c-0.53-1.31-1.29-2.33-2.28-3.07c-0.99-0.74-2.21-1.11-3.64-1.11
			h-3.17V35.9z"/>
		<path class="st2" d="M288.49,39.86v-3.1l2.75-0.53V17.69l-2.75-0.53v-3.12h10.68v3.12l-2.75,0.53v18.53l2.75,0.53v3.1H288.49z"/>
		<path class="st2" d="M307.1,39.86v-3.1l2.77-0.53v-18.2h-4.7l-0.28,3.09h-3.92v-7.08H324v7.08h-3.94l-0.28-3.09h-4.74v18.2
			l2.78,0.53v3.1H307.1z"/>
	</g>
	<g class="st1">
		<path class="st3" d="M203.89,71.3c-2.51,0-4.69-0.52-6.54-1.57c-1.86-1.05-3.29-2.53-4.3-4.45c-1.01-1.92-1.52-4.19-1.52-6.82
			v-0.87c0-2.51,0.49-4.73,1.46-6.66c0.98-1.93,2.37-3.45,4.18-4.55c1.81-1.1,3.96-1.65,6.46-1.65c1.75,0,3.39,0.25,4.92,0.74
			c1.53,0.5,2.9,1.25,4.11,2.27v6.24h-3.85l-0.53-3.92c-0.39-0.28-0.82-0.53-1.28-0.73c-0.46-0.2-0.96-0.35-1.5-0.46
			c-0.54-0.11-1.12-0.16-1.75-0.16c-1.47,0-2.73,0.36-3.78,1.08c-1.05,0.72-1.86,1.74-2.42,3.06c-0.56,1.32-0.84,2.88-0.84,4.69v0.9
			c0,1.81,0.3,3.38,0.89,4.7c0.59,1.32,1.43,2.35,2.52,3.08c1.09,0.73,2.38,1.09,3.87,1.09c0.74,0,1.49-0.09,2.24-0.26
			c0.75-0.17,1.43-0.39,2.05-0.66l0.53-3.64h3.85v6.17c-1.01,0.66-2.26,1.22-3.76,1.68C207.39,71.07,205.72,71.3,203.89,71.3z"/>
		<path class="st3" d="M214.76,70.92v-3.1l1.84-0.27l8.21-22.45h5.3l8.16,22.45l1.84,0.27v3.1h-8.8v-3.1l1.79-0.32l-1.13-3.55h-9.08
			l-1.14,3.55l1.79,0.32v3.1H214.76z M224.13,60.14h6.63l-3.01-8.85l-0.25-0.78h-0.11l-0.27,0.83L224.13,60.14z"/>
		<path class="st3" d="M241.85,70.92v-3.1l2.75-0.53V48.75l-2.75-0.53V45.1h12.24c1.99,0,3.69,0.31,5.11,0.92
			c1.42,0.62,2.51,1.5,3.27,2.64c0.76,1.15,1.14,2.52,1.14,4.13c0,1.51-0.38,2.87-1.14,4.06c-0.76,1.19-1.81,2.13-3.16,2.82
			c-1.35,0.69-2.9,1.03-4.66,1.05h-4.88v6.56l2.77,0.53v3.1H241.85z M249.77,56.74H254c1.49,0,2.6-0.32,3.34-0.95
			c0.74-0.63,1.11-1.55,1.11-2.76c0-1.19-0.37-2.15-1.1-2.86c-0.73-0.72-1.82-1.07-3.26-1.07h-4.31V56.74z M258.46,70.92
			l-4.35-11.16l4.66-1.15l3.76,8.69l2.2,0.51v3.1H258.46z"/>
		<path class="st3" d="M266.82,70.92v-3.1l2.78-0.59V48.83l-2.78-0.6V45.1h2.78h8.55c2.31,0,4.34,0.54,6.1,1.62
			c1.76,1.08,3.14,2.58,4.12,4.49c0.99,1.91,1.48,4.1,1.48,6.57v0.48c0,2.45-0.49,4.63-1.46,6.54c-0.98,1.91-2.34,3.41-4.09,4.5
			c-1.75,1.09-3.78,1.63-6.08,1.63H266.82z M274.78,66.97h3.17c1.43,0,2.64-0.38,3.64-1.13c0.99-0.75,1.75-1.78,2.28-3.09
			c0.53-1.31,0.79-2.81,0.79-4.49v-0.5c0-1.7-0.26-3.21-0.79-4.51c-0.53-1.31-1.29-2.33-2.28-3.07s-2.21-1.11-3.64-1.11h-3.17V66.97
			z"/>
	</g>
	<g class="st1">
		<path class="st2" d="M158.38,56.8l3.76,2.86l6.04-4.21l3.71,1.97l-4.74,4.11l3.04,2.33l5.01-4.34l4.56,2.55
			c0,0-7.96,9.3-17.53,9.12c-9.57-0.18-11.63-7.07-11-15.38C151.23,55.81,150.15,64.13,158.38,56.8z"/>
		<path class="st2" d="M174.01,19.25L148.6,2.98c-2.97-1.9-6.91-1.24-9.09,1.54c-6.94,8.84-19.95,28.3-14.67,44.32
			c0.02,0.06,0.04,0.11,0.06,0.16c0.22,0.73,3.34,6.45,28.02,19.78c0,0-10.29-12.07,3.67-29.07c9.97-12.14,15.28-16.93,17.5-18.68
			C174.69,20.57,174.65,19.66,174.01,19.25z M143.3,43.92c-2.45,8.85,0,17.08,0,17.08c-1.85-0.63-5.29-2.27-5.76-10.2
			c-0.54-9.06,6.71-21.29,6.71-21.29l4.81,2.68C149.06,32.2,144.98,37.84,143.3,43.92z M152.3,28.98l-5.28-3.31l10.95-11.99
			l5.78,3.4L152.3,28.98z"/>
		<path class="st3" d="M140.05,61.36c0,0-7.24-6.8-4.65-19.68c2.59-12.88,22.58-32.7,22.58-32.7l-7.15-4.58
			c0,0-22.76,19.93-22.5,38.98c0,0-0.74,7.49,5.22,13.67L140.05,61.36z"/>
		<polygon class="st3" points="179.91,34.45 183.56,36.79 178.28,43.19 174.15,40.66 		"/>
		<polygon class="st3" points="180.82,54.06 186,48.06 181.71,45.46 176.76,51.53 		"/>
		<polygon class="st3" points="184.88,56.55 179.09,62.28 175.25,59.13 180.87,54.11 		"/>
		<polygon class="st3" points="171.04,48.82 174.99,51.52 169.21,56.43 165.74,53.74 		"/>
		<polygon class="st3" points="160.35,50.36 163.75,52.95 158.65,56.44 155.38,53.85 		"/>
	</g>
</g>
<g id="P2P" class="st0">
	<path class="st1" d="M278,36.93L243.04,0.29v10.25c0,0-4.34-0.19-25.75,0.32c-13.71,0.33-20.62,2.51-23.82,4.04
		c-5.67-3.96-13.9-8.1-23.41-7.96h-20.66v55.86h52.11l0.07-0.01c0.45-0.05,10.51-1.29,15.89-7.62c12.51,9.03,25.55,7.13,25.55,7.13
		v9.19L278,36.93z M201.37,60.26h-49.43V9.46l18.15,0c8.28-0.13,15.66,3.37,20.99,6.92c-0.02,0.02-0.02,0.02-0.02,0.02
		c5.36,3.57,10.72,17.82,10.72,17.82c3.73,9.02,8.61,15.19,13.71,19.39C210.93,58.86,202.22,60.15,201.37,60.26z"/>
	<g class="st1">
		<path d="M193.36,33.5c0,1.44-0.18,2.72-0.53,3.85c-0.36,1.13-0.84,2.13-1.44,2.99c-0.61,0.86-1.3,1.6-2.09,2.21
			c-0.79,0.61-1.62,1.11-2.48,1.5c-0.86,0.39-1.73,0.67-2.61,0.85c-0.88,0.18-1.71,0.27-2.48,0.27h-14.23v-6.29h14.23
			c0.81-0.06,1.54-0.23,2.19-0.5c0.65-0.27,1.21-0.62,1.68-1.08c0.47-0.45,0.83-1,1.09-1.63c0.26-0.64,0.39-1.36,0.39-2.17v-2.86
			c-0.08-0.79-0.25-1.52-0.51-2.18c-0.26-0.66-0.61-1.23-1.05-1.69c-0.44-0.47-0.98-0.84-1.61-1.1c-0.63-0.27-1.36-0.4-2.18-0.4
			h-14.18c-0.84,0-1.48,0.22-1.91,0.65c-0.44,0.44-0.65,1.06-0.65,1.89v25.87h-6.29V27.81c0-1.61,0.29-2.98,0.88-4.11
			c0.59-1.13,1.32-2.04,2.2-2.73c0.88-0.69,1.83-1.2,2.87-1.51c1.03-0.31,1.98-0.47,2.86-0.47h14.23c1.42,0,2.69,0.18,3.82,0.54
			c1.13,0.36,2.13,0.85,2.99,1.45c0.86,0.6,1.6,1.3,2.2,2.09c0.61,0.79,1.1,1.62,1.5,2.48c0.4,0.86,0.68,1.73,0.86,2.61
			c0.18,0.88,0.27,1.71,0.27,2.48V33.5z"/>
	</g>
	<g class="st1">
		<path class="st4" d="M224.22,50.89h-27.18v-9.93c0-0.51,0.06-1.05,0.18-1.62c0.12-0.57,0.3-1.14,0.55-1.7
			c0.25-0.56,0.57-1.1,0.96-1.61c0.39-0.51,0.87-0.96,1.42-1.35c0.56-0.39,1.2-0.7,1.93-0.94c0.73-0.23,1.55-0.35,2.48-0.35h12.1
			c0.73,0,1.27-0.18,1.62-0.55c0.35-0.36,0.53-0.9,0.53-1.6v-2.37c0-0.73-0.18-1.28-0.54-1.65s-0.88-0.56-1.57-0.56h-17.23V21.3
			h17.23c0.91,0,1.73,0.12,2.46,0.35c0.73,0.23,1.37,0.55,1.93,0.94c0.56,0.39,1.04,0.84,1.43,1.35c0.4,0.51,0.73,1.04,0.98,1.6
			c0.25,0.56,0.44,1.12,0.56,1.69c0.12,0.57,0.18,1.1,0.18,1.6v2.41c0,1.39-0.25,2.56-0.75,3.52c-0.5,0.96-1.13,1.73-1.89,2.33
			c-0.76,0.6-1.57,1.03-2.45,1.3c-0.87,0.27-1.69,0.4-2.45,0.4h-12.14c-0.44,0-0.79,0.06-1.05,0.19c-0.26,0.12-0.46,0.29-0.61,0.5
			c-0.14,0.21-0.25,0.44-0.32,0.7c-0.07,0.26-0.12,0.52-0.17,0.78v4.56h21.82V50.89z"/>
	</g>
	<g class="st1">
		<path class="st5" d="M262.63,33.61c0,1.37-0.17,2.6-0.51,3.68c-0.34,1.08-0.8,2.03-1.38,2.86c-0.58,0.82-1.25,1.53-2,2.12
			c-0.76,0.59-1.55,1.06-2.37,1.43c-0.82,0.37-1.66,0.64-2.5,0.81c-0.84,0.17-1.63,0.25-2.37,0.25h-13.6v-6.01h13.6
			c0.77-0.06,1.47-0.22,2.09-0.47c0.62-0.25,1.16-0.6,1.61-1.03c0.45-0.43,0.79-0.95,1.04-1.56c0.25-0.61,0.37-1.3,0.37-2.07v-2.73
			c-0.08-0.76-0.24-1.45-0.49-2.08c-0.25-0.63-0.58-1.17-1.01-1.62c-0.42-0.45-0.94-0.8-1.54-1.05c-0.6-0.25-1.29-0.38-2.08-0.38
			h-13.55c-0.8,0-1.41,0.21-1.83,0.62c-0.42,0.42-0.62,1.02-0.62,1.8v24.72h-6.01V28.17c0-1.54,0.28-2.85,0.84-3.93
			c0.56-1.08,1.26-1.95,2.1-2.61c0.84-0.66,1.75-1.14,2.74-1.45c0.99-0.3,1.9-0.45,2.73-0.45h13.6c1.36,0,2.57,0.17,3.65,0.52
			c1.08,0.35,2.03,0.81,2.86,1.39c0.82,0.58,1.53,1.24,2.1,2c0.58,0.76,1.06,1.55,1.43,2.37c0.38,0.82,0.65,1.66,0.82,2.5
			c0.17,0.84,0.25,1.63,0.25,2.37V33.61z"/>
	</g>
</g>
<g id="Zpay" class="st0">
	<g class="st1">
		<path class="st6" d="M203.56,19.61c-6.04,0-10.52,2.4-13.35,6.53h-0.14l-0.45-5.68h-8.01c0.17,3.36,0.28,7.22,0.28,11.64v37.06
			h9.12V50.9h0.14c2.03,3.14,6.2,4.93,10.99,4.93c8.6,0,17.27-6.22,17.27-18.74C219.42,26.18,211.83,19.61,203.56,19.61z
			 M200.13,48.92c-4.53,0-8.03-3.17-8.92-6.79c-0.13-0.73-0.19-1.45-0.19-2.21v-4.05c0-0.68,0.15-1.41,0.32-2.09
			c1.07-4.35,4.91-7.14,9.06-7.14c6.33,0,9.74,5.08,9.74,10.95C210.13,44.6,206.24,48.92,200.13,48.92z"/>
		<path class="st6" d="M252.25,34.54c0-7.65-3.45-14.93-15.25-14.93c-5.84,0-10.59,1.51-13.5,3.26l1.82,5.83
			c2.51-1.58,6.54-2.8,10.23-2.8c6.9-0.03,7.63,4.16,7.63,5.98v0.46c-14.35-0.09-22.2,4.54-22.2,13.2c0,5,3.93,10.29,11.61,10.29
			c4.95,0,8.91-2.06,11.13-4.81h0.22l0.65,3.96h8.23c-0.39-2.08-0.57-5.18-0.57-8.47V34.54z M243.41,42.4
			c0,0.61-0.06,1.32-0.26,1.94c-0.9,2.48-3.64,5.05-7.65,5.05c-3.12,0-5.39-1.65-5.39-4.86c0-5.01,6.07-6.46,13.3-6.34V42.4z"/>
		<path class="st6" d="M281.07,20.46L275,38.74c-0.73,2.24-1.45,4.95-2.07,6.92h-0.22c-0.56-1.88-1.45-4.72-2.2-6.8l-6.99-18.4
			h-10.13l13.87,31.62c0.44,0.94,0.54,1.48,0.54,1.84c0,0.4-0.22,0.95-0.59,1.51c-1.4,2.64-3.62,4.75-5.39,5.72
			c-1.84,1.12-3.73,1.75-5.15,2l1.81,7.63c2.44-0.22,6.16-1.2,9.83-4.1c4.13-3.18,7.63-8.34,13.31-23.03L291,20.46H281.07z"/>
		<polygon class="st6" points="152.29,47.66 177.96,14.43 177.96,9.66 164.52,9.66 164.52,0.99 157.33,0.99 157.33,9.66 142.7,9.66 
			142.7,16.74 166.36,16.74 166.36,16.98 140.41,50.27 140.41,54.98 157.33,54.98 157.33,64.03 164.52,64.03 164.52,54.98 
			178.43,54.98 178.43,47.9 152.29,47.9 		"/>
	</g>
</g>
<g id="Layer_4" class="st0">
	<g class="st1">
		<g>
			<path class="st7" d="M115.95,34.32c-0.83-0.8-1.8-1.43-2.9-1.9c-1.1-0.47-2.28-0.7-3.53-0.7c-1.27,0-2.46,0.22-3.59,0.67
				c-1.12,0.45-2.1,1.07-2.94,1.87c-0.84,0.8-1.5,1.75-1.99,2.84c-0.49,1.09-0.73,2.28-0.73,3.57s0.24,2.48,0.73,3.57
				c0.49,1.09,1.15,2.04,1.99,2.84c0.84,0.8,1.82,1.43,2.94,1.89c1.12,0.46,2.32,0.69,3.59,0.69c1.66,0,3.18-0.37,4.55-1.1
				c1.38-0.73,2.48-1.71,3.32-2.94l-3.16-2.05c-0.45,0.74-1.11,1.32-1.98,1.74c-0.87,0.42-1.78,0.63-2.74,0.63
				c-1.05,0-2-0.3-2.84-0.91c-0.84-0.6-1.43-1.42-1.79-2.46h13.5c0.08-0.33,0.14-0.65,0.18-0.95c0.04-0.3,0.06-0.62,0.06-0.95
				c0-1.25-0.24-2.42-0.72-3.51C117.43,36.06,116.78,35.12,115.95,34.32z M104.9,38.97c0.35-1.03,0.95-1.85,1.79-2.46
				c0.84-0.6,1.79-0.91,2.84-0.91c1.07,0,2.03,0.3,2.87,0.91c0.84,0.61,1.43,1.42,1.79,2.46H104.9z"/>
			<path class="st7" d="M132.12,38.76c-1.06,0-1.91,0.84-1.91,1.9c-0.01,1.06,0.82,1.92,1.88,1.94c1.04,0.02,1.92-0.83,1.94-1.89
				C134.04,39.64,133.19,38.76,132.12,38.76z"/>
			<path class="st7" d="M117.72,1.67c-18.9,0-34.21,15.32-34.21,34.21S98.82,70.1,117.72,70.1s34.21-15.32,34.21-34.21
				S136.61,1.67,117.72,1.67z M131.12,22.38c-1.11-1.91-2.17-3.72-3.24-5.58C130.04,16.78,131.34,19,131.12,22.38z M121.5,15.13
				c1.08-0.65,1.79-0.46,2.42,0.62c1.21,2.08,2.43,4.16,3.64,6.24c0.08,0.14,0.16,0.28,0.25,0.45c-6.16,0-12.25,0-18.36,0
				c0.07-0.18,0.23-0.22,0.35-0.29C113.7,19.81,117.6,17.47,121.5,15.13z M136.85,53.84c-0.36,1.92-1.94,3.16-4.01,3.16
				c-6.06,0-12.12,0-18.17,0c-4.69,0-9.39,0-14.08,0c-2.83,0-5.08-1.76-5.77-4.49c-0.03-0.12,0.02-0.28-0.14-0.35
				c0-10.2,0-20.4,0-30.6c0.14-0.04,0.11-0.17,0.13-0.26c0.45-2.42,2.71-4.7,6-4.64c3.96,0.07,7.92,0.02,11.88,0.02
				c0.16,0,0.31,0,0.59,0c-0.16,0.11-0.2,0.14-0.25,0.17c-1.96,1.18-3.93,2.35-5.89,3.53c-0.2,0.12-0.39,0.12-0.6,0.12
				c-1.99,0-3.99-0.01-5.98,0c-1.14,0-1.97,0.76-2.02,1.8c-0.06,1.19,0.8,2.04,2.05,2.04c9.37,0,18.74,0,28.12,0
				c1.5,0,3-0.02,4.5,0.01c1.98,0.04,3.63,1.66,3.69,3.64c0.04,1.24,0.01,2.49,0.02,3.73c0,0.24-0.07,0.3-0.3,0.3
				c-0.73-0.01-1.47-0.01-2.2,0c-1.29,0.02-2.58-0.07-3.86,0.15c-4.58,0.77-7.84,5.47-6.93,10.02c0.85,4.26,4.29,7.09,8.63,7.11
				c1.42,0.01,2.85,0.01,4.27-0.01c0.32,0,0.41,0.09,0.4,0.4c-0.02,0.7,0,1.41-0.01,2.11C136.9,52.49,136.97,53.18,136.85,53.84z
				 M140.75,44.87c0,0.98-0.57,1.56-1.56,1.56c-2.35,0.01-4.71,0.02-7.06,0c-3.03-0.03-5.45-2.23-5.76-5.22
				c-0.3-2.89,1.72-5.57,4.65-6.19c0.41-0.09,0.83-0.11,1.25-0.11c2.26,0,4.53,0,6.79,0c1.13,0,1.69,0.56,1.69,1.68
				c0,1.36,0,2.73,0,4.09C140.75,42.08,140.76,43.47,140.75,44.87z"/>
		</g>
	</g>
	<g class="st1">
		<g>
			<path class="st8" d="M185.43,42.16c0,0.5-0.03,0.97-0.09,1.42c-0.06,0.45-0.15,0.93-0.26,1.42h-20.21
				c0.53,1.55,1.42,2.78,2.67,3.68c1.26,0.91,2.67,1.36,4.25,1.36c1.43,0,2.8-0.31,4.1-0.94c1.3-0.63,2.29-1.5,2.96-2.61l4.73,3.07
				c-1.26,1.84-2.91,3.31-4.97,4.4c-2.06,1.1-4.33,1.64-6.82,1.64c-1.9,0-3.69-0.34-5.37-1.03c-1.68-0.69-3.15-1.63-4.4-2.83
				c-1.26-1.2-2.25-2.61-2.98-4.25c-0.73-1.64-1.1-3.42-1.1-5.35s0.37-3.71,1.1-5.35c0.73-1.64,1.72-3.05,2.98-4.25
				c1.26-1.2,2.72-2.13,4.4-2.8c1.68-0.67,3.47-1.01,5.37-1.01c1.87,0,3.63,0.35,5.28,1.05c1.65,0.7,3.1,1.65,4.34,2.85
				c1.24,1.2,2.22,2.62,2.94,4.25C185.08,38.54,185.43,40.29,185.43,42.16z M178.77,39.62c-0.53-1.55-1.42-2.78-2.67-3.68
				c-1.26-0.91-2.69-1.36-4.3-1.36c-1.58,0-3,0.45-4.25,1.36c-1.26,0.91-2.15,2.13-2.67,3.68H178.77z"/>
			<path class="st8" d="M204.5,39.97v4.47h-14.24v-4.47H204.5z"/>
			<path class="st8" d="M214.54,29.5l5.13,15.47h0.09l5.04-15.47h6l5.13,15.47h0.09l5.08-15.47h6.31l-8.5,25.38h-5.92l-5.13-15.43
				h-0.09l-5.13,15.43h-5.96l-8.46-25.38H214.54z"/>
			<path class="st8" d="M272.61,54.88h-5.65v-2.72l-0.13-0.09c-0.91,1.08-2.02,1.94-3.35,2.59c-1.33,0.64-2.74,0.96-4.23,0.96
				c-1.93,0-3.59-0.23-4.98-0.7c-1.39-0.47-2.53-1.11-3.42-1.93c-0.89-0.82-1.54-1.77-1.95-2.87c-0.41-1.1-0.61-2.26-0.61-3.48
				c0-1.31,0.23-2.52,0.68-3.62c0.45-1.1,1.14-2.04,2.06-2.83c0.92-0.79,2.09-1.4,3.51-1.84c1.42-0.44,3.09-0.66,5.02-0.66
				c0.85,0,1.62,0.09,2.32,0.26c0.7,0.18,1.34,0.39,1.91,0.66c0.57,0.26,1.08,0.56,1.53,0.9c0.45,0.34,0.85,0.66,1.21,0.99
				l0.13-0.09v-2.89c0-0.44-0.15-0.85-0.44-1.23c-0.29-0.38-0.69-0.71-1.21-0.99c-0.51-0.28-1.1-0.5-1.78-0.66
				c-0.67-0.16-1.39-0.24-2.15-0.24c-1.84,0-3.5,0.18-4.97,0.53c-1.48,0.35-2.59,0.76-3.35,1.23l-2.63-4.65
				c1.37-0.85,3.02-1.53,4.93-2.04c1.91-0.51,3.92-0.77,6.03-0.77c1.55,0,3.02,0.22,4.4,0.66c1.39,0.44,2.61,1.05,3.66,1.82
				c1.05,0.77,1.89,1.7,2.52,2.78c0.63,1.08,0.94,2.26,0.94,3.55V54.88z M266.65,46.64c0-0.93-0.53-1.75-1.6-2.45
				c-1.07-0.7-2.52-1.05-4.36-1.05c-1.2,0-2.18,0.09-2.96,0.26c-0.77,0.18-1.39,0.42-1.84,0.72c-0.45,0.31-0.77,0.67-0.94,1.1
				c-0.18,0.42-0.26,0.9-0.26,1.42c0,0.53,0.09,1.02,0.26,1.47c0.18,0.45,0.49,0.84,0.94,1.16c0.45,0.32,1.07,0.57,1.84,0.74
				c0.77,0.18,1.76,0.26,2.96,0.26c1.84,0,3.29-0.36,4.36-1.1C266.12,48.45,266.65,47.6,266.65,46.64z"/>
			<path class="st8" d="M277.87,22h6.14v32.87h-6.14V22z"/>
			<path class="st8" d="M289.27,22h6.14v32.87h-6.14V22z"/>
			<path class="st8" d="M327.27,42.16c0,0.5-0.03,0.97-0.09,1.42c-0.06,0.45-0.15,0.93-0.26,1.42h-20.21
				c0.53,1.55,1.42,2.78,2.67,3.68c1.26,0.91,2.67,1.36,4.25,1.36c1.43,0,2.8-0.31,4.1-0.94c1.3-0.63,2.29-1.5,2.96-2.61l4.73,3.07
				c-1.26,1.84-2.91,3.31-4.97,4.4c-2.06,1.1-4.33,1.64-6.82,1.64c-1.9,0-3.69-0.34-5.37-1.03c-1.68-0.69-3.15-1.63-4.4-2.83
				c-1.26-1.2-2.25-2.61-2.98-4.25c-0.73-1.64-1.1-3.42-1.1-5.35s0.37-3.71,1.1-5.35c0.73-1.64,1.72-3.05,2.98-4.25
				c1.26-1.2,2.72-2.13,4.4-2.8c1.68-0.67,3.47-1.01,5.37-1.01c1.87,0,3.63,0.35,5.28,1.05c1.65,0.7,3.1,1.65,4.34,2.85
				c1.24,1.2,2.22,2.62,2.94,4.25C326.91,38.54,327.27,40.29,327.27,42.16z M320.6,39.62c-0.53-1.55-1.42-2.78-2.67-3.68
				c-1.26-0.91-2.69-1.36-4.3-1.36c-1.58,0-3,0.45-4.25,1.36c-1.26,0.91-2.15,2.13-2.67,3.68H320.6z"/>
			<path class="st8" d="M343,54.88h-2.98c-1.05,0-2.04-0.2-2.96-0.59c-0.92-0.39-1.72-0.93-2.41-1.6c-0.69-0.67-1.24-1.46-1.64-2.37
				c-0.41-0.91-0.61-1.88-0.61-2.94V34.93h-2.28V29.5h2.28v-5.74h6.14v5.74h3.73v5.43h-3.73v12.45c0,0.44,0.15,0.8,0.44,1.1
				c0.29,0.29,0.64,0.44,1.05,0.44H343V54.88z"/>
		</g>
	</g>
</g>
<g id="Layer_5" class="st0">
	<g class="st1">
		<g>
			<path class="st9" d="M124.81,20.36c0,0.99-0.27,1.85-0.82,2.57c-0.55,0.72-1.17,1.28-1.86,1.68c-1.29-0.84-2.73-1.61-4.32-2.31
				c-1.59-0.7-3.55-1.04-5.89-1.04c-4.22,0-7.59,1.37-10.1,4.1c-2.51,2.73-3.76,6.68-3.76,11.85c0,5.27,1.29,9.22,3.88,11.85
				c2.58,2.64,6.06,3.95,10.44,3.95c2.29,0,4.26-0.31,5.93-0.93c1.66-0.62,3.14-1.35,4.44-2.2c0.7,0.45,1.27,1.06,1.71,1.83
				c0.45,0.77,0.67,1.65,0.67,2.65c0,0.85-0.22,1.62-0.67,2.31c-0.45,0.7-1.19,1.32-2.24,1.86c-0.99,0.6-2.4,1.16-4.21,1.68
				c-1.81,0.52-4.06,0.78-6.75,0.78c-3.28,0-6.32-0.48-9.13-1.45c-2.81-0.97-5.26-2.43-7.34-4.4c-2.09-1.96-3.73-4.44-4.92-7.42
				c-1.19-2.98-1.79-6.49-1.79-10.51c0-3.88,0.6-7.29,1.79-10.25c1.19-2.96,2.82-5.44,4.88-7.45c2.06-2.01,4.47-3.54,7.23-4.58
				c2.76-1.04,5.68-1.57,8.76-1.57c2.14,0,4.07,0.19,5.81,0.56c1.74,0.37,3.23,0.88,4.47,1.53c1.24,0.65,2.19,1.39,2.83,2.24
				C124.49,18.52,124.81,19.41,124.81,20.36z"/>
			<path class="st9" d="M146.28,23.41c4.87,0,8.76,1.04,11.67,3.13c2.91,2.09,4.36,5.32,4.36,9.69v17.22c0,1.19-0.3,2.14-0.89,2.83
				c-0.6,0.7-1.34,1.32-2.24,1.86c-1.39,0.85-3.16,1.52-5.29,2.01c-2.14,0.5-4.57,0.75-7.31,0.75c-4.97,0-8.88-0.96-11.74-2.87
				c-2.86-1.91-4.29-4.78-4.29-8.61c0-3.33,1.06-5.88,3.17-7.64c2.11-1.76,5.18-2.84,9.21-3.24l10.21-1.04v-1.34
				c0-1.89-0.68-3.28-2.05-4.17c-1.37-0.89-3.29-1.34-5.78-1.34c-1.94,0-3.83,0.24-5.67,0.71c-1.84,0.47-3.48,1.06-4.92,1.75
				c-0.55-0.4-1.01-0.93-1.38-1.6c-0.37-0.67-0.56-1.4-0.56-2.2c0-0.99,0.24-1.8,0.71-2.42c0.47-0.62,1.23-1.18,2.27-1.68
				c1.44-0.6,3.08-1.04,4.92-1.34C142.53,23.56,144.39,23.41,146.28,23.41z M146.58,53.75c1.44,0,2.76-0.14,3.95-0.41
				c1.19-0.27,2.06-0.61,2.61-1.01v-8.27l-7.23,0.67c-1.99,0.2-3.5,0.63-4.55,1.3c-1.04,0.67-1.57,1.73-1.57,3.17
				c0,1.44,0.53,2.56,1.6,3.35C142.46,53.35,144.19,53.75,146.58,53.75z"/>
			<path class="st9" d="M199.05,49.8c0,3.48-1.29,6.2-3.88,8.16c-2.58,1.96-6.36,2.94-11.33,2.94c-2.04,0-3.89-0.15-5.55-0.45
				c-1.67-0.3-3.11-0.73-4.32-1.3c-1.22-0.57-2.16-1.27-2.83-2.09c-0.67-0.82-1.01-1.73-1.01-2.72c0-0.94,0.21-1.76,0.63-2.46
				c0.42-0.7,0.98-1.27,1.68-1.71c1.39,0.89,2.99,1.69,4.81,2.39c1.81,0.7,3.91,1.04,6.3,1.04c2.04,0,3.58-0.34,4.62-1.01
				c1.04-0.67,1.57-1.6,1.57-2.8c0-2.04-1.49-3.38-4.47-4.03l-4.17-0.97c-3.68-0.84-6.4-2.11-8.16-3.8
				c-1.76-1.69-2.65-3.95-2.65-6.78c0-3.23,1.29-5.85,3.88-7.86c2.58-2.01,6.21-3.02,10.88-3.02c1.79,0,3.44,0.14,4.96,0.41
				c1.52,0.27,2.83,0.67,3.95,1.19c1.12,0.52,1.99,1.14,2.61,1.86c0.62,0.72,0.93,1.55,0.93,2.5c0,0.89-0.2,1.68-0.6,2.35
				c-0.4,0.67-0.87,1.21-1.42,1.6c-0.45-0.3-1.03-0.6-1.75-0.89c-0.72-0.3-1.52-0.57-2.39-0.82c-0.87-0.25-1.79-0.46-2.76-0.63
				c-0.97-0.17-1.93-0.26-2.87-0.26c-1.94,0-3.45,0.31-4.55,0.93c-1.09,0.62-1.64,1.5-1.64,2.65c0,0.85,0.31,1.54,0.93,2.09
				c0.62,0.55,1.7,1,3.24,1.34l3.65,0.89c4.12,0.94,7.11,2.32,8.95,4.14C198.13,44.5,199.05,46.87,199.05,49.8z"/>
			<path class="st9" d="M214.41,60.09c-0.75,0.15-1.59,0.22-2.53,0.22c-1.74,0-3.03-0.32-3.88-0.97c-0.85-0.65-1.27-1.79-1.27-3.43
				V11.34c0.4-0.15,0.98-0.29,1.75-0.41c0.77-0.12,1.63-0.19,2.57-0.19c1.74,0,3.03,0.32,3.88,0.97c0.84,0.65,1.27,1.79,1.27,3.43
				v10.29c1.09-0.55,2.35-1.02,3.76-1.42c1.42-0.4,2.99-0.6,4.73-0.6c4.52,0,8.13,1.17,10.81,3.5c2.68,2.34,4.03,5.86,4.03,10.59
				v22.21c-0.4,0.1-0.98,0.22-1.75,0.37c-0.77,0.15-1.6,0.22-2.5,0.22c-1.79,0-3.11-0.32-3.95-0.97c-0.85-0.65-1.27-1.79-1.27-3.43
				V37.95c0-2.48-0.65-4.29-1.94-5.4c-1.29-1.12-2.98-1.68-5.07-1.68c-1.34,0-2.58,0.21-3.73,0.63c-1.14,0.42-2.19,0.93-3.13,1.53
				v26.69C215.75,59.81,215.16,59.94,214.41,60.09z"/>
			<path class="st9" d="M284.33,20.36c0,0.99-0.27,1.85-0.82,2.57c-0.55,0.72-1.17,1.28-1.86,1.68c-1.29-0.84-2.73-1.61-4.32-2.31
				c-1.59-0.7-3.55-1.04-5.89-1.04c-4.22,0-7.59,1.37-10.1,4.1c-2.51,2.73-3.76,6.68-3.76,11.85c0,5.27,1.29,9.22,3.88,11.85
				c2.58,2.64,6.06,3.95,10.44,3.95c2.29,0,4.26-0.31,5.93-0.93c1.66-0.62,3.14-1.35,4.44-2.2c0.7,0.45,1.27,1.06,1.71,1.83
				c0.45,0.77,0.67,1.65,0.67,2.65c0,0.85-0.22,1.62-0.67,2.31c-0.45,0.7-1.19,1.32-2.24,1.86c-0.99,0.6-2.4,1.16-4.21,1.68
				c-1.81,0.52-4.06,0.78-6.75,0.78c-3.28,0-6.32-0.48-9.13-1.45c-2.81-0.97-5.26-2.43-7.34-4.4c-2.09-1.96-3.73-4.44-4.92-7.42
				c-1.19-2.98-1.79-6.49-1.79-10.51c0-3.88,0.6-7.29,1.79-10.25c1.19-2.96,2.82-5.44,4.88-7.45c2.06-2.01,4.47-3.54,7.23-4.58
				c2.76-1.04,5.68-1.57,8.76-1.57c2.14,0,4.07,0.19,5.81,0.56c1.74,0.37,3.23,0.88,4.47,1.53c1.24,0.65,2.19,1.39,2.83,2.24
				C284.01,18.52,284.33,19.41,284.33,20.36z"/>
			<path class="st9" d="M325.55,42.12c0,2.88-0.44,5.48-1.3,7.79c-0.87,2.31-2.1,4.29-3.69,5.93c-1.59,1.64-3.5,2.9-5.74,3.76
				c-2.24,0.87-4.75,1.3-7.53,1.3s-5.29-0.44-7.53-1.3c-2.24-0.87-4.15-2.11-5.74-3.73c-1.59-1.61-2.82-3.58-3.69-5.89
				c-0.87-2.31-1.3-4.93-1.3-7.86c0-2.88,0.43-5.48,1.3-7.79c0.87-2.31,2.11-4.27,3.73-5.89c1.61-1.61,3.54-2.86,5.78-3.73
				c2.24-0.87,4.72-1.3,7.45-1.3c2.73,0,5.22,0.44,7.45,1.3c2.24,0.87,4.16,2.12,5.78,3.76c1.61,1.64,2.86,3.62,3.73,5.93
				C325.12,36.72,325.55,39.29,325.55,42.12z M307.29,30.87c-2.68,0-4.8,0.98-6.34,2.94c-1.54,1.96-2.31,4.73-2.31,8.31
				c0,3.63,0.76,6.41,2.27,8.35c1.52,1.94,3.64,2.91,6.37,2.91c2.73,0,4.86-0.98,6.37-2.94c1.52-1.96,2.27-4.73,2.27-8.31
				c0-3.58-0.77-6.35-2.31-8.31C312.09,31.85,309.98,30.87,307.29,30.87z"/>
			<path class="st9" d="M365.96,52.93c0,1.14-0.25,2.06-0.75,2.76c-0.5,0.7-1.24,1.37-2.24,2.01c-1.24,0.8-2.88,1.53-4.92,2.2
				c-2.04,0.67-4.4,1.01-7.08,1.01c-5.96,0-10.7-1.53-14.2-4.58c-3.5-3.06-5.26-7.74-5.26-14.05c0-3.28,0.47-6.1,1.42-8.46
				c0.94-2.36,2.22-4.31,3.84-5.85c1.61-1.54,3.52-2.68,5.7-3.43c2.19-0.75,4.55-1.12,7.08-1.12c1.34,0,2.61,0.14,3.8,0.41
				c1.19,0.27,2.26,0.61,3.21,1.01V11.34c0.4-0.15,0.98-0.29,1.75-0.41c0.77-0.12,1.6-0.19,2.5-0.19c1.79,0,3.09,0.32,3.91,0.97
				c0.82,0.65,1.23,1.79,1.23,3.43V52.93z M356.57,32.43c-0.75-0.45-1.62-0.82-2.61-1.12c-0.99-0.3-2.06-0.45-3.21-0.45
				c-2.78,0-5.09,0.89-6.93,2.68c-1.84,1.79-2.76,4.72-2.76,8.8c0,3.83,0.88,6.62,2.65,8.39c1.76,1.76,4.16,2.65,7.19,2.65
				c1.29,0,2.4-0.15,3.32-0.45c0.92-0.3,1.7-0.65,2.35-1.04V32.43z"/>
			<path class="st9" d="M383.18,46.37c0.7,2.53,1.99,4.37,3.88,5.52c1.89,1.14,4.22,1.71,7.01,1.71c2.09,0,4.01-0.31,5.78-0.93
				c1.76-0.62,3.19-1.28,4.29-1.98c0.69,0.4,1.27,0.94,1.71,1.64c0.45,0.7,0.67,1.44,0.67,2.24c0,0.99-0.34,1.88-1.01,2.65
				c-0.67,0.77-1.59,1.43-2.76,1.98c-1.17,0.55-2.55,0.97-4.14,1.27c-1.59,0.3-3.31,0.45-5.14,0.45c-2.93,0-5.6-0.4-8.01-1.19
				c-2.41-0.79-4.47-2-6.19-3.62c-1.71-1.61-3.06-3.62-4.03-6c-0.97-2.39-1.45-5.17-1.45-8.35c0-3.08,0.47-5.76,1.42-8.05
				c0.94-2.29,2.22-4.2,3.84-5.74c1.61-1.54,3.49-2.68,5.63-3.43c2.14-0.75,4.4-1.12,6.78-1.12c2.43,0,4.67,0.39,6.71,1.16
				c2.04,0.77,3.78,1.84,5.22,3.21c1.44,1.37,2.57,3.01,3.39,4.92c0.82,1.91,1.23,3.99,1.23,6.22c0,1.39-0.36,2.44-1.08,3.13
				c-0.72,0.7-1.73,1.14-3.02,1.34L383.18,46.37z M391.45,30.49c-2.44,0-4.47,0.81-6.11,2.42c-1.64,1.62-2.56,3.91-2.76,6.9
				l16.55-2.46c-0.2-1.84-0.92-3.44-2.16-4.81C395.72,31.18,393.89,30.49,391.45,30.49z"/>
		</g>
	</g>
	<g class="st1">
		<g>
			<path class="st10" d="M43.32,3.43c-0.84,0.18-7.96,1.77-11.54,5.09c-1.93,1.79-3.53,3.83-4.64,6.24
				c-1.13,2.44-1.66,5.01-1.79,7.68c-0.08,1.68-0.04,3.37-0.17,5.05c-0.18,2.34-0.38,4.68-0.75,6.99c-0.46,2.87-1.6,5.52-3.09,8.01
				c-0.56,0.94-1.16,1.84-1.77,2.8c17.44,0,34.79,0,52.15,0c0-0.08,0.01-0.11,0-0.13c-0.15-0.22-0.3-0.44-0.44-0.66
				c-1.84-2.7-3.3-5.57-4.09-8.76c-1.08-4.35-1.17-8.79-1.19-13.23c-0.01-1.11-0.1-2.24-0.34-3.32c-0.68-3.19-1.97-6.09-4.11-8.62
				c-2.13-2.52-4.69-4.4-7.74-5.57c-1.77-0.68-4.6-1.72-6.02-1.74C46.97,3.25,44.31,3.18,43.32,3.43z"/>
			<path class="st10" d="M43.91,68.63c-0.85-0.28-1.71-0.53-2.55-0.85c-1.94-0.72-3.44-2.03-4.65-3.68
				c-0.42-0.57-0.73-1.21-1.15-1.92c6.8,0,13.45,0,20.19,0c-0.96,2.1-2.31,3.78-4.28,4.83c-1.26,0.67-2.67,1.08-4.01,1.61
				C46.27,68.63,45.09,68.63,43.91,68.63z"/>
			<path class="st10" d="M77.77,57.7c-21.42,0-42.77,0-64.19,0c-0.11-1.73,0.15-3.38,0.86-4.94c0.36-0.78,0.87-1.5,1.25-2.28
				c0.23-0.47,0.56-0.58,1.05-0.58c7.36,0.01,14.73,0.01,22.09,0.01c11.88,0,23.76,0.01,35.64-0.02c0.61,0,0.97,0.19,1.29,0.7
				C77.14,52.75,77.94,55.05,77.77,57.7z"/>
		</g>
	</g>
</g>
<g id="Layer_6" class="st0">
	<g class="st1">
		<g>
			<g>
				<path class="st11" d="M20.43,13.05L20.43,13.05c1.59,0,3.1,0.63,4.22,1.75l16.83,17.51c0.47,0.52,1.29,0.52,1.77,0l15.87-16.52
					C53.19,8.33,44.04,3.53,33.76,3.53C15.9,3.53,1.41,18.01,1.41,35.88c0,17.87,14.48,32.35,32.35,32.35c8.4,0,16.05-3.2,21.8-8.45
					V37.37c0-0.53-0.64-0.8-1.02-0.42L44.15,48.88c-0.95,1.09-2.65,1.09-3.6,0L30.17,36.94c-0.38-0.38-1.02-0.11-1.02,0.42v23.14
					c-6.48,0-11.73-4.32-11.73-10.8V16.07C17.42,14.4,18.76,13.05,20.43,13.05z"/>
				<path class="st11" d="M71.97,43.72h-7.65c-1.01,0-1.82,0.82-1.82,1.82v7.65c0,1.01,0.82,1.82,1.82,1.82h7.65
					c1.01,0,1.82-0.82,1.82-1.82v-7.65C73.79,44.54,72.98,43.72,71.97,43.72z"/>
				<path class="st11" d="M66.16,34.42h5.27c0.91,0,1.65-0.74,1.65-1.65v-5.27c0-0.91-0.74-1.65-1.65-1.65h-5.27
					c-0.91,0-1.65,0.74-1.65,1.65v5.27C64.51,33.67,65.25,34.42,66.16,34.42z"/>
				<path class="st11" d="M79.29,35.39h-4.34c-0.64,0-1.17,0.52-1.17,1.16v4.34c0,0.64,0.52,1.17,1.17,1.17h4.34
					c0.64,0,1.17-0.52,1.17-1.17v-4.34C80.46,35.92,79.94,35.39,79.29,35.39z"/>
				<path class="st11" d="M73.92,24.13h3.1c0.5,0,0.9-0.4,0.9-0.9v-3.1c0-0.5-0.4-0.9-0.9-0.9h-3.1c-0.5,0-0.9,0.4-0.9,0.9v3.1
					C73.02,23.72,73.43,24.13,73.92,24.13z"/>
			</g>
		</g>
	</g>
	<g class="st1">
		<path class="st11" d="M100.89,55.02V12.15h11.38l9.43,20.21c0.44,1.11,0.87,2.21,1.3,3.33c0.43,1.11,0.84,2.23,1.24,3.36
			c0.4-1.16,0.82-2.32,1.27-3.46c0.45-1.14,0.91-2.22,1.39-3.23l9.4-20.21h11.15v42.87h-8.75c0-5.22,0.05-10.32,0.14-15.29
			c0.1-4.97,0.3-9.96,0.6-14.95c-0.5,1.31-1.01,2.62-1.56,3.92c-0.54,1.3-1.11,2.57-1.7,3.83l-7.23,15.49h-9.6l-7.2-15.43
			c-0.59-1.45-1.16-2.87-1.71-4.27c-0.55-1.4-1.1-2.81-1.63-4.22c0.21,3.32,0.38,6.52,0.5,9.62c0.12,3.1,0.21,6.35,0.26,9.76
			c0.05,3.41,0.07,7.26,0.07,11.55H100.89z"/>
		<path class="st11" d="M154.06,33.58c0-3.22,0.55-6.19,1.66-8.9c1.1-2.72,2.66-5.07,4.66-7.07s4.36-3.55,7.07-4.66
			c2.72-1.11,5.68-1.66,8.9-1.66c3.22,0,6.19,0.55,8.9,1.66c2.72,1.11,5.07,2.66,7.07,4.66c2,2,3.55,4.36,4.66,7.07
			c1.1,2.72,1.66,5.68,1.66,8.9c0,3.22-0.55,6.19-1.66,8.9c-1.11,2.72-2.66,5.07-4.66,7.07c-2,2-4.36,3.55-7.07,4.66
			c-2.72,1.1-5.68,1.66-8.9,1.66c-3.22,0-6.19-0.55-8.9-1.66c-2.72-1.11-5.07-2.66-7.07-4.66s-3.55-4.36-4.66-7.07
			C154.61,39.77,154.06,36.81,154.06,33.58z M162.92,33.58c0,2.8,0.58,5.3,1.74,7.49c1.16,2.19,2.75,3.92,4.77,5.19
			c2.02,1.27,4.33,1.9,6.92,1.9c2.59,0,4.9-0.63,6.92-1.9c2.02-1.27,3.61-3,4.77-5.19c1.16-2.19,1.74-4.69,1.74-7.49
			s-0.58-5.3-1.74-7.5c-1.16-2.2-2.75-3.93-4.77-5.19c-2.02-1.26-4.33-1.89-6.92-1.89c-2.59,0-4.9,0.63-6.92,1.89
			c-2.02,1.26-3.61,2.99-4.77,5.19C163.5,28.28,162.92,30.78,162.92,33.58z"/>
		<path class="st11" d="M205.25,12.15h8.69l22.01,28.81V12.15h8.75v42.87h-8.83l-22.04-28.87v28.87h-8.57V12.15z"/>
		<path class="st11" d="M253.59,12.15h25.55v7.72h-17.66v9.26H278v7.72h-16.52V47.3H280v7.72h-26.41V12.15z"/>
		<path class="st11" d="M284.04,12.15h9.46l10.92,17.89l10.4-17.89h9.58l-15.43,26.1v16.78h-8.75V38.24L284.04,12.15z"/>
		<path class="st12" d="M330.15,12.15h14.72c4.78,0,8.43,1.18,10.95,3.53c2.52,2.35,3.77,5.46,3.77,9.33c0,3.85-1.26,6.96-3.77,9.32
			c-2.51,2.36-6.16,3.54-10.95,3.54h-9.72v17.15h-5V12.15z M335.15,16.72V33.3h9.72c3.12,0,5.5-0.76,7.13-2.29
			c1.63-1.52,2.44-3.53,2.44-6c0-2.5-0.81-4.5-2.44-6.02c-1.63-1.52-4.01-2.27-7.13-2.27H335.15z"/>
		<path class="st12" d="M359.91,55.02l16.75-42.87h5.52l16.75,42.87h-5.37l-4.37-11.18h-19.67l-4.37,11.18H359.91z M375.69,28.01
			l-4.4,11.26h16.12L383,28.01c-0.78-2-1.45-3.79-2.02-5.37c-0.56-1.58-1.11-3.18-1.64-4.8c-0.51,1.62-1.06,3.22-1.63,4.8
			C377.14,24.22,376.47,26.01,375.69,28.01z"/>
		<path class="st12" d="M396.39,12.15h5.89l13.03,19.75l13.18-19.75H434L417.62,36.7v18.32h-5V36.7L396.39,12.15z"/>
	</g>
</g>
<g id="Layer_7" class="st0">
	<circle class="st13" cx="96.06" cy="36.88" r="33.65"/>
	<g class="st1">
		<path class="st5" d="M86.82,56.54c0.36-1.59,0.69-3.18,1.08-4.76c0.09-0.38-0.01-0.46-0.36-0.54c-2.85-0.63-5.69-1.29-8.54-1.92
			c-0.33-0.07-0.43-0.17-0.34-0.52c0.29-1.18,0.56-2.37,0.81-3.57c0.07-0.36,0.2-0.4,0.53-0.32c0.71,0.18,1.41,0.37,2.15,0.39
			c0.69,0.02,1.19-0.32,1.4-0.97c0.16-0.51,0.31-1.02,0.42-1.54c1.29-5.69,2.58-11.37,3.87-17.06c0.11-0.49,0.19-0.99,0.27-1.49
			c0.12-0.77-0.18-1.31-0.89-1.61c-0.68-0.29-1.39-0.42-2.11-0.57c-0.29-0.06-0.35-0.16-0.28-0.45c0.29-1.2,0.57-2.4,0.82-3.61
			c0.07-0.34,0.18-0.41,0.52-0.33c2.85,0.66,5.71,1.3,8.57,1.96c0.34,0.08,0.45,0.01,0.52-0.33c0.31-1.47,0.66-2.93,0.98-4.39
			c0.06-0.29,0.13-0.39,0.45-0.31c1.24,0.31,2.48,0.58,3.73,0.85c0.27,0.06,0.33,0.15,0.26,0.42c-0.35,1.49-0.67,2.98-1.03,4.47
			c-0.08,0.34,0.01,0.43,0.32,0.49c0.67,0.13,1.35,0.28,2.01,0.46c0.33,0.09,0.45,0.04,0.53-0.32c0.31-1.48,0.67-2.95,0.99-4.43
			c0.06-0.29,0.16-0.35,0.44-0.28c1.24,0.3,2.48,0.58,3.73,0.85c0.31,0.06,0.32,0.18,0.26,0.45c-0.36,1.54-0.7,3.09-1.06,4.63
			c-0.06,0.28-0.05,0.41,0.26,0.52c1.93,0.69,3.64,1.72,4.9,3.38c2.55,3.35,1.64,8.15-1.94,10.36c-1.09,0.67-2.28,1.06-3.53,1.26
			c-0.22,0.04-0.44,0.06-0.72,0.1c0.24,0.23,0.5,0.31,0.73,0.44c1.34,0.75,2.59,1.62,3.45,2.93c1.03,1.55,1.41,3.26,1.21,5.11
			c-0.42,3.92-3.68,6.89-7.95,7.43c-1.07,0.14-2.15,0.13-3.22,0.03c-0.27-0.02-0.36,0.05-0.42,0.31c-0.38,1.71-0.78,3.42-1.17,5.12
			c-1.48-0.33-2.95-0.67-4.43-1c0.38-1.65,0.76-3.3,1.15-4.95c0.04-0.18,0-0.25-0.18-0.29c-0.79-0.17-1.59-0.35-2.38-0.54
			c-0.18-0.04-0.24,0-0.28,0.18c-0.36,1.65-0.73,3.31-1.1,4.96C89.77,57.21,88.29,56.88,86.82,56.54z M92.37,41.98
			c-0.22,1.07-0.59,2.37-0.78,3.7c-0.13,0.89,0.03,1.14,0.9,1.35c1.59,0.39,3.18,0.81,4.81,1.02c0.82,0.1,1.65,0.16,2.46-0.07
			c1.8-0.52,2.91-1.72,3.33-3.53c0.36-1.56,0.03-2.95-1.22-4.03c-0.74-0.64-1.64-1.01-2.56-1.3c-1.83-0.58-3.73-0.9-5.59-1.37
			c-0.33-0.08-0.39,0.02-0.46,0.31C92.99,39.28,92.7,40.51,92.37,41.98z M95.27,29.19c-0.26,1.16-0.52,2.33-0.8,3.49
			c-0.06,0.25-0.05,0.37,0.25,0.43c1.51,0.31,3.01,0.68,4.52,0.97c1.07,0.21,2.16,0.32,3.25,0.11c2.69-0.51,3.95-3.79,2.27-5.9
			c-0.61-0.76-1.48-1.13-2.37-1.43c-1.95-0.64-3.97-1.01-5.95-1.49c-0.25-0.06-0.31,0.03-0.36,0.24
			C95.81,26.81,95.54,28,95.27,29.19z"/>
	</g>
	<g class="st1">
		<g>
			<path class="st14" d="M156.3,25.48c2.38,0,4.62,0.4,6.73,1.2c2.11,0.8,3.94,1.98,5.49,3.53c1.55,1.55,2.77,3.49,3.67,5.82
				c0.9,2.33,1.35,5.02,1.35,8.07c0,3.05-0.47,5.76-1.42,8.11c-0.95,2.35-2.27,4.33-3.96,5.93c-1.7,1.6-3.77,2.83-6.22,3.67
				c-2.45,0.85-5.15,1.27-8.11,1.27c-3.2,0-5.92-0.38-8.14-1.13c-2.23-0.75-4.12-1.68-5.67-2.8c-2.13-1.5-3.2-3.44-3.2-5.82V14.5
				c0.53-0.15,1.3-0.29,2.29-0.44c0.99-0.15,2.07-0.22,3.24-0.22c2.42,0,4.17,0.4,5.24,1.2c1.07,0.8,1.6,2.34,1.6,4.62v7.2
				c0.97-0.39,2.05-0.71,3.24-0.98C153.6,25.62,154.89,25.48,156.3,25.48z M153.97,35.15c-0.97,0-1.85,0.12-2.65,0.36
				c-0.8,0.24-1.54,0.56-2.22,0.94v15.78c0.53,0.29,1.17,0.55,1.93,0.76c0.75,0.22,1.64,0.33,2.65,0.33c2.18,0,3.93-0.78,5.24-2.33
				c1.31-1.55,1.96-3.85,1.96-6.91c0-3.1-0.62-5.37-1.85-6.8S156.11,35.15,153.97,35.15z"/>
			<path class="st14" d="M179.28,16.76c0-1.84,0.62-3.39,1.85-4.66c1.24-1.26,2.87-1.89,4.91-1.89s3.67,0.63,4.91,1.89
				c1.24,1.26,1.85,2.81,1.85,4.66s-0.62,3.39-1.85,4.65c-1.24,1.26-2.87,1.89-4.91,1.89s-3.67-0.63-4.91-1.89
				C179.9,20.15,179.28,18.6,179.28,16.76z M179.86,27.08c0.53-0.15,1.3-0.29,2.29-0.44c0.99-0.15,2.07-0.22,3.24-0.22
				c2.42,0,4.17,0.4,5.24,1.2c1.07,0.8,1.6,2.34,1.6,4.62v29.6c-0.53,0.15-1.3,0.29-2.29,0.44c-0.99,0.15-2.07,0.22-3.24,0.22
				c-2.43,0-4.17-0.4-5.24-1.2c-1.07-0.8-1.6-2.34-1.6-4.62V27.08z"/>
			<path class="st14" d="M213.53,63.01c-4.27,0-7.55-0.97-9.85-2.91s-3.45-5.09-3.45-9.45V18.36c0.53-0.15,1.3-0.3,2.29-0.47
				c0.99-0.17,2.05-0.25,3.16-0.25c2.37,0,4.09,0.41,5.16,1.24c1.07,0.82,1.6,2.35,1.6,4.58v3.93h9.53c0.29,0.53,0.57,1.2,0.84,2
				c0.27,0.8,0.4,1.68,0.4,2.65c0,1.7-0.38,2.92-1.13,3.67c-0.75,0.75-1.76,1.13-3.02,1.13h-6.62v12.94c0,1.26,0.4,2.16,1.2,2.69
				c0.8,0.53,1.93,0.8,3.38,0.8c0.73,0,1.48-0.06,2.25-0.18c0.78-0.12,1.46-0.28,2.04-0.47c0.44,0.53,0.81,1.13,1.13,1.78
				c0.31,0.65,0.47,1.44,0.47,2.36c0,1.84-0.69,3.35-2.07,4.51C219.45,62.42,217.02,63.01,213.53,63.01z"/>
			<path class="st14" d="M248.58,35.23c-1.21,0-2.36,0.19-3.45,0.58c-1.09,0.39-2.04,0.97-2.84,1.75c-0.8,0.78-1.44,1.73-1.93,2.87
				c-0.49,1.14-0.73,2.46-0.73,3.96c0,3.01,0.85,5.24,2.54,6.69c1.7,1.45,3.81,2.18,6.33,2.18c1.45,0,2.74-0.18,3.85-0.55
				c1.12-0.36,2.09-0.74,2.91-1.13c0.92,0.68,1.61,1.41,2.07,2.18s0.69,1.72,0.69,2.84c0,1.94-0.96,3.49-2.87,4.65
				c-1.92,1.16-4.64,1.75-8.18,1.75c-3.05,0-5.81-0.4-8.25-1.2c-2.45-0.8-4.53-1.99-6.25-3.56s-3.04-3.51-3.96-5.82
				c-0.92-2.3-1.38-4.98-1.38-8.04c0-3.2,0.52-5.99,1.56-8.36c1.04-2.37,2.46-4.34,4.25-5.89c1.79-1.55,3.87-2.71,6.22-3.49
				c2.35-0.78,4.84-1.16,7.45-1.16c3.49,0,6.18,0.63,8.07,1.89c1.89,1.26,2.84,2.89,2.84,4.87c0,0.92-0.22,1.78-0.65,2.58
				c-0.44,0.8-0.94,1.49-1.53,2.07c-0.82-0.39-1.82-0.76-2.98-1.13C251.19,35.41,249.93,35.23,248.58,35.23z"/>
			<path class="st14" d="M299.7,44.24c0,2.91-0.45,5.53-1.34,7.85c-0.9,2.33-2.18,4.3-3.85,5.93c-1.67,1.63-3.67,2.87-6,3.75
				c-2.33,0.87-4.94,1.31-7.85,1.31c-2.91,0-5.53-0.42-7.85-1.27c-2.33-0.85-4.33-2.08-6-3.71c-1.67-1.62-2.96-3.6-3.85-5.93
				s-1.34-4.97-1.34-7.93c0-2.86,0.46-5.45,1.38-7.78c0.92-2.33,2.22-4.3,3.89-5.93c1.67-1.62,3.67-2.87,6-3.75
				c2.33-0.87,4.92-1.31,7.78-1.31c2.86,0,5.45,0.45,7.78,1.34c2.33,0.9,4.33,2.16,6,3.78c1.67,1.62,2.97,3.6,3.89,5.93
				C299.24,38.86,299.7,41.43,299.7,44.24z M280.65,35.15c-2.04,0-3.61,0.79-4.73,2.36c-1.12,1.58-1.67,3.82-1.67,6.73
				c0,3.05,0.56,5.34,1.67,6.87s2.69,2.29,4.73,2.29c2.04,0,3.61-0.78,4.73-2.33c1.12-1.55,1.67-3.83,1.67-6.84
				c0-2.91-0.56-5.15-1.67-6.73C284.26,35.94,282.68,35.15,280.65,35.15z"/>
			<path class="st14" d="M305.44,16.76c0-1.84,0.62-3.39,1.85-4.66c1.24-1.26,2.87-1.89,4.91-1.89c2.04,0,3.67,0.63,4.91,1.89
				c1.24,1.26,1.85,2.81,1.85,4.66s-0.62,3.39-1.85,4.65c-1.24,1.26-2.87,1.89-4.91,1.89c-2.04,0-3.67-0.63-4.91-1.89
				C306.06,20.15,305.44,18.6,305.44,16.76z M306.02,27.08c0.53-0.15,1.3-0.29,2.29-0.44c0.99-0.15,2.07-0.22,3.24-0.22
				c2.42,0,4.17,0.4,5.24,1.2c1.07,0.8,1.6,2.34,1.6,4.62v29.6c-0.53,0.15-1.3,0.29-2.29,0.44c-0.99,0.15-2.07,0.22-3.24,0.22
				c-2.43,0-4.17-0.4-5.24-1.2c-1.07-0.8-1.6-2.34-1.6-4.62V27.08z"/>
			<path class="st14" d="M361,61.84c-0.53,0.15-1.3,0.29-2.29,0.44c-0.99,0.15-2.07,0.22-3.24,0.22c-2.43,0-4.17-0.4-5.24-1.2
				c-1.07-0.8-1.6-2.34-1.6-4.62V39.52c0-1.5-0.45-2.61-1.34-3.31c-0.9-0.7-2.07-1.05-3.53-1.05c-0.97,0-1.88,0.12-2.73,0.36
				c-0.85,0.24-1.66,0.56-2.44,0.94v25.38c-0.53,0.15-1.3,0.29-2.29,0.44c-0.99,0.15-2.07,0.22-3.23,0.22c-2.43,0-4.17-0.4-5.24-1.2
				c-1.07-0.8-1.6-2.34-1.6-4.62V34.79c0-1.31,0.28-2.37,0.84-3.2c0.56-0.82,1.32-1.58,2.29-2.25c1.65-1.16,3.72-2.1,6.22-2.8
				c2.5-0.7,5.27-1.05,8.33-1.05c5.48,0,9.7,1.2,12.65,3.6c2.96,2.4,4.44,5.76,4.44,10.07V61.84z"/>
		</g>
	</g>
</g>
<g id="Layer_8" class="st0">
	<g class="st1">
		<g>
			<g>
				<path class="st15" d="M225.16,68.65h-92.32c-1.48,0-2.69-1.2-2.69-2.69V10.24c0-1.48,1.2-2.69,2.69-2.69h92.32
					c1.48,0,2.69,1.2,2.69,2.69v55.72C227.84,67.45,226.64,68.65,225.16,68.65z M135.53,63.28h86.94V12.93h-86.94V63.28z"/>
			</g>
			<g>
				<path class="st15" d="M179,50c-0.6,0-1.19-0.2-1.68-0.59l-46.16-37.07c-1.16-0.93-1.34-2.62-0.41-3.78
					c0.93-1.16,2.62-1.34,3.78-0.41L179,43.87l44.48-35.72c1.16-0.93,2.85-0.74,3.78,0.41c0.93,1.16,0.74,2.85-0.41,3.78
					L180.68,49.4C180.19,49.8,179.59,50,179,50z"/>
			</g>
			<g>
				<path class="st15" d="M132.84,68.65c-0.76,0-1.52-0.32-2.05-0.95c-0.96-1.13-0.82-2.83,0.32-3.79l33.79-28.59
					c1.13-0.96,2.83-0.82,3.79,0.32c0.96,1.13,0.82,2.83-0.32,3.79l-33.79,28.59C134.07,68.44,133.45,68.65,132.84,68.65z"/>
			</g>
			<g>
				<path class="st15" d="M225.16,68.65c-0.61,0-1.23-0.21-1.73-0.64l-33.79-28.59c-1.13-0.96-1.27-2.65-0.32-3.79
					c0.96-1.13,2.65-1.27,3.79-0.32l33.79,28.59c1.13,0.96,1.27,2.65,0.32,3.79C226.68,68.33,225.92,68.65,225.16,68.65z"/>
			</g>
		</g>
		<g>
			<path class="st15" d="M123.22,13.19h-20.81c-1.48,0-2.69-1.2-2.69-2.69c0-1.48,1.2-2.69,2.69-2.69h20.81
				c1.48,0,2.69,1.2,2.69,2.69C125.91,11.99,124.71,13.19,123.22,13.19z"/>
		</g>
		<g>
			<path class="st15" d="M123.22,24.31h-5.26c-1.48,0-2.69-1.2-2.69-2.69c0-1.48,1.2-2.69,2.69-2.69h5.26c1.48,0,2.69,1.2,2.69,2.69
				C125.91,23.11,124.71,24.31,123.22,24.31z"/>
		</g>
		<g>
			<path class="st15" d="M96.92,24.31H71.52c-1.48,0-2.69-1.2-2.69-2.69c0-1.48,1.2-2.69,2.69-2.69h25.39c1.48,0,2.69,1.2,2.69,2.69
				C99.6,23.11,98.4,24.31,96.92,24.31z"/>
		</g>
		<g>
			<path class="st15" d="M123.22,35.42h-20.81c-1.48,0-2.69-1.2-2.69-2.69c0-1.48,1.2-2.69,2.69-2.69h20.81
				c1.48,0,2.69,1.2,2.69,2.69C125.91,34.22,124.71,35.42,123.22,35.42z"/>
		</g>
		<g>
			<path class="st15" d="M89.5,35.42H79.1c-1.48,0-2.69-1.2-2.69-2.69c0-1.48,1.2-2.69,2.69-2.69h10.4c1.48,0,2.69,1.2,2.69,2.69
				C92.19,34.22,90.99,35.42,89.5,35.42z"/>
		</g>
		<g>
			<path class="st15" d="M123.22,46.54H97.16c-1.48,0-2.69-1.2-2.69-2.69c0-1.48,1.2-2.69,2.69-2.69h26.07
				c1.48,0,2.69,1.2,2.69,2.69C125.91,45.33,124.71,46.54,123.22,46.54z"/>
		</g>
		<g>
			<path class="st15" d="M123.22,57.65h-6.46c-1.48,0-2.69-1.2-2.69-2.69c0-1.48,1.2-2.69,2.69-2.69h6.46c1.48,0,2.69,1.2,2.69,2.69
				C125.91,56.45,124.71,57.65,123.22,57.65z"/>
		</g>
		<g>
			<path class="st15" d="M108.87,57.65H86.63c-1.48,0-2.69-1.2-2.69-2.69c0-1.48,1.2-2.69,2.69-2.69h22.24
				c1.48,0,2.69,1.2,2.69,2.69C111.56,56.45,110.36,57.65,108.87,57.65z"/>
		</g>
		<g>
			<path class="st15" d="M123.22,68.76h-14.35c-1.48,0-2.69-1.2-2.69-2.69c0-1.48,1.2-2.69,2.69-2.69h14.35
				c1.48,0,2.69,1.2,2.69,2.69C125.91,67.56,124.71,68.76,123.22,68.76z"/>
		</g>
	</g>
	<g class="st1">
		<path class="st15" d="M251.67,9.48c1.62,1.65,2.42,3.95,2.42,6.88v3.51l-5.68,0.28v-3.17c0-3.01-1.11-4.51-3.34-4.51
			c-1.08,0-1.9,0.33-2.48,1c-0.58,0.67-0.86,1.65-0.86,2.95v21.28c0,1.3,0.29,2.28,0.86,2.95c0.58,0.67,1.4,1,2.48,1
			c2.23,0,3.34-1.5,3.34-4.51v-4.34l5.68,0.28v4.68c0,2.93-0.81,5.23-2.42,6.88c-1.62,1.65-3.87,2.48-6.77,2.48
			c-2.86,0-5.09-0.82-6.68-2.45c-1.6-1.63-2.39-3.94-2.39-6.91V16.36c0-2.97,0.8-5.27,2.39-6.91c1.6-1.63,3.82-2.45,6.68-2.45
			C247.8,7,250.05,7.83,251.67,9.48z"/>
		<path class="st15" d="M275.14,46.54h-5.9V29.56h-7.02v16.99h-5.9V7.56h5.9v16.43h7.02V7.56h5.9V46.54z"/>
		<path class="st15" d="M295.3,13.01h-10.69v11.03h8.63v5.46h-8.63v11.58h10.69v5.46h-16.6V7.56h16.6V13.01z"/>
		<path class="st15" d="M312.76,9.48c1.62,1.65,2.42,3.95,2.42,6.88v3.51l-5.68,0.28v-3.17c0-3.01-1.11-4.51-3.34-4.51
			c-1.08,0-1.9,0.33-2.48,1c-0.58,0.67-0.86,1.65-0.86,2.95v21.28c0,1.3,0.29,2.28,0.86,2.95c0.58,0.67,1.4,1,2.48,1
			c2.23,0,3.34-1.5,3.34-4.51v-4.34l5.68,0.28v4.68c0,2.93-0.81,5.23-2.42,6.88c-1.62,1.65-3.87,2.48-6.77,2.48
			c-2.86,0-5.09-0.82-6.68-2.45c-1.6-1.63-2.4-3.94-2.4-6.91V16.36c0-2.97,0.8-5.27,2.4-6.91C300.91,7.82,303.14,7,306,7
			C308.89,7,311.15,7.83,312.76,9.48z"/>
		<path class="st15" d="M329.78,23.04l20.8,45.06h-6.29l-18.4-38.6l-2.56,5.01v12.03h-5.9V7.56h5.9v16.26h0.11l8.19-16.26h6.18
			L329.78,23.04z"/>
	</g>
	<g class="st1">
		<path class="st16" d="M241.13,61.34l1.46-9.66h2.97v13.61h-2.02v-9.76l-1.48,9.76h-2.02l-1.59-9.62v9.62h-1.87V51.68h2.97
			L241.13,61.34z"/>
		<path class="st16" d="M254.52,65.28h-2.16L252,62.82h-2.62L249,65.28h-1.96l2.18-13.61h3.13L254.52,65.28z M249.64,60.97h2.06
			l-1.03-6.88L249.64,60.97z"/>
		<path class="st16" d="M256,51.68h2.14v13.61H256V51.68z"/>
		<path class="st16" d="M260.18,51.68h2.14v11.67h3.52v1.94h-5.66V51.68z"/>
		<path class="st16" d="M269.4,57.41h2.94v1.94h-2.94v3.99h3.69v1.94h-5.83V51.68h5.83v1.94h-3.69V57.41z"/>
		<path class="st16" d="M274.9,51.68h3.38c2.14,0,3.19,1.19,3.19,3.36v6.88c0,2.18-1.05,3.36-3.19,3.36h-3.38V51.68z M277.04,53.62
			v9.72h1.21c0.68,0,1.09-0.35,1.09-1.32v-7.08c0-0.97-0.41-1.32-1.09-1.32H277.04z"/>
		<path class="st16" d="M286.19,51.68h6.61v1.94h-2.24v11.67h-2.14V53.62h-2.24V51.68z"/>
		<path class="st16" d="M294.05,54.94c0-2.18,1.15-3.42,3.25-3.42c2.1,0,3.25,1.24,3.25,3.42v7.08c0,2.18-1.15,3.42-3.25,3.42
			c-2.1,0-3.25-1.24-3.25-3.42V54.94z M296.18,62.15c0,0.97,0.43,1.34,1.11,1.34c0.68,0,1.11-0.37,1.11-1.34v-7.35
			c0-0.97-0.43-1.34-1.11-1.34c-0.68,0-1.11,0.37-1.11,1.34V62.15z"/>
		<path class="st16" d="M307.91,60.77l-2.7-9.1h2.24l1.63,6.2l1.63-6.2h2.04l-2.7,9.1v4.51h-2.14V60.77z"/>
		<path class="st16" d="M313.62,54.94c0-2.18,1.15-3.42,3.25-3.42c2.1,0,3.25,1.24,3.25,3.42v7.08c0,2.18-1.15,3.42-3.25,3.42
			c-2.1,0-3.25-1.24-3.25-3.42V54.94z M315.76,62.15c0,0.97,0.43,1.34,1.11,1.34c0.68,0,1.11-0.37,1.11-1.34v-7.35
			c0-0.97-0.43-1.34-1.11-1.34c-0.68,0-1.11,0.37-1.11,1.34V62.15z"/>
		<path class="st16" d="M324.02,51.68v10.5c0,0.97,0.43,1.32,1.11,1.32s1.11-0.35,1.11-1.32v-10.5h2.02v10.36
			c0,2.18-1.09,3.42-3.19,3.42s-3.19-1.24-3.19-3.42V51.68H324.02z"/>
	</g>
	<polygon class="st17" points="325.05,7.15 329.78,7.15 325.05,15.56 	"/>
</g>
<g id="Layer_9">
	<g>
		<g>
			<path class="st18" d="M171.99,3.3h15.34c4.56,0,8.01,0.82,10.36,2.45c2.35,1.63,3.53,3.97,3.53,7.02c0,5.7-3.12,9.43-9.35,11.2
				v0.24c1.85,0.57,3.32,1.58,4.41,3.01c1.09,1.44,1.64,3.19,1.64,5.27c0,4.53-1.6,8.04-4.8,10.51c-3.2,2.47-7.74,3.71-13.62,3.71
				h-17.23L171.99,3.3z M178.7,28.54l-2.08,9.12h2.58c1.81,0,3.31-0.48,4.52-1.44c1.21-0.96,1.81-2.16,1.81-3.61
				c0-1.37-0.35-2.39-1.04-3.06c-0.69-0.67-1.91-1.01-3.65-1.01H178.7z M180.56,19.96h2.27c1.85,0,3.24-0.38,4.19-1.13
				c0.94-0.75,1.42-1.96,1.42-3.62c0-2.02-1.33-3.03-4-3.03h-1.98L180.56,19.96z"/>
			<path class="st18" d="M230.03,2.61c5.46,0,9.71,1.47,12.74,4.41c3.03,2.94,4.55,7.04,4.55,12.31c0,5.27-1.04,10.08-3.13,14.45
				c-2.09,4.37-4.97,7.71-8.65,10.04c-3.67,2.33-7.94,3.49-12.79,3.49c-5.65,0-10.01-1.47-13.09-4.42
				c-3.08-2.95-4.61-7.05-4.61-12.29c0-5.25,1.08-10.07,3.24-14.46c2.16-4.4,5.11-7.75,8.83-10.05S225.16,2.61,230.03,2.61z
				 M234.88,19.45c0-2.26-0.5-4.02-1.51-5.3c-1.01-1.28-2.47-1.92-4.38-1.92c-2.08,0-3.99,0.83-5.73,2.49s-3.13,3.95-4.17,6.86
				c-1.04,2.91-1.56,5.89-1.56,8.94c0,4.79,2.1,7.19,6.3,7.19c1.99,0,3.85-0.82,5.56-2.46c1.71-1.64,3.06-3.86,4.03-6.65
				C234.4,25.81,234.88,22.76,234.88,19.45z"/>
			<path class="st18" d="M279.76,33.38c0,4.4-1.54,7.82-4.63,10.26c-3.09,2.45-7.39,3.67-12.91,3.67c-2.31,0-4.49-0.24-6.55-0.73
				c-2.06-0.49-3.83-1.19-5.32-2.12V34.06c1.76,1.05,3.78,1.93,6.06,2.64c2.28,0.71,4.34,1.07,6.19,1.07c1.55,0,2.73-0.31,3.53-0.92
				c0.8-0.61,1.2-1.48,1.2-2.61c0-0.53-0.13-1.03-0.38-1.5c-0.25-0.46-0.61-0.93-1.07-1.4c-0.46-0.46-1.7-1.49-3.72-3.07
				c-2.46-1.86-4.24-3.76-5.35-5.7c-1.11-1.94-1.67-4.07-1.67-6.38c0-2.59,0.69-4.92,2.06-6.99c1.37-2.07,3.32-3.67,5.83-4.81
				c2.51-1.14,5.32-1.71,8.42-1.71c5.02,0,9.53,1.06,13.54,3.18l-4.25,8.82c-3.59-1.74-6.65-2.61-9.17-2.61
				c-1.34,0-2.38,0.28-3.1,0.83c-0.72,0.55-1.09,1.37-1.09,2.44c0,0.97,0.35,1.88,1.06,2.72c0.7,0.84,2.04,1.96,4.02,3.37
				c2.48,1.72,4.31,3.53,5.51,5.43C279.16,28.75,279.76,30.92,279.76,33.38z"/>
			<path class="st18" d="M314.77,33.38c0,4.4-1.54,7.82-4.63,10.26c-3.09,2.45-7.39,3.67-12.91,3.67c-2.31,0-4.49-0.24-6.55-0.73
				c-2.06-0.49-3.83-1.19-5.32-2.12V34.06c1.76,1.05,3.78,1.93,6.06,2.64c2.28,0.71,4.34,1.07,6.19,1.07c1.55,0,2.73-0.31,3.53-0.92
				c0.8-0.61,1.2-1.48,1.2-2.61c0-0.53-0.13-1.03-0.38-1.5c-0.25-0.46-0.61-0.93-1.07-1.4c-0.46-0.46-1.7-1.49-3.72-3.07
				c-2.46-1.86-4.24-3.76-5.35-5.7c-1.11-1.94-1.67-4.07-1.67-6.38c0-2.59,0.69-4.92,2.06-6.99c1.37-2.07,3.32-3.67,5.83-4.81
				c2.51-1.14,5.32-1.71,8.42-1.71c5.02,0,9.53,1.06,13.54,3.18l-4.25,8.82c-3.59-1.74-6.65-2.61-9.17-2.61
				c-1.34,0-2.38,0.28-3.1,0.83c-0.72,0.55-1.09,1.37-1.09,2.44c0,0.97,0.35,1.88,1.06,2.72c0.7,0.84,2.04,1.96,4.02,3.37
				c2.48,1.72,4.31,3.53,5.51,5.43C314.17,28.75,314.77,30.92,314.77,33.38z"/>
		</g>
	</g>
	<g>
		<g>
			<path class="st18" d="M169.95,62.28v6h-4.45V51.8h5.4c4.48,0,6.72,1.62,6.72,4.87c0,1.91-0.93,3.38-2.79,4.43l4.8,7.18h-5.05
				l-3.49-6H169.95z M169.95,58.93h0.83c1.56,0,2.33-0.69,2.33-2.06c0-1.13-0.76-1.7-2.29-1.7h-0.88V58.93z"/>
			<path class="st18" d="M190.9,68.28h-9.78V51.8h9.78v3.57h-5.33v2.59h4.94v3.57h-4.94v3.11h5.33V68.28z"/>
			<path class="st18" d="M203.04,51.8h4.98l-5.4,16.48h-5.24l-5.38-16.48h5l2.24,8.35c0.47,1.86,0.72,3.15,0.77,3.88
				c0.05-0.53,0.16-1.18,0.32-1.97c0.16-0.79,0.3-1.41,0.42-1.86L203.04,51.8z"/>
			<path class="st18" d="M225.22,60.01c0,2.77-0.68,4.88-2.04,6.32c-1.36,1.44-3.35,2.16-5.97,2.16c-2.58,0-4.57-0.73-5.94-2.18
				c-1.38-1.45-2.07-3.56-2.07-6.33c0-2.74,0.69-4.84,2.06-6.28c1.37-1.45,3.36-2.17,5.98-2.17c2.62,0,4.61,0.72,5.96,2.15
				C224.54,55.13,225.22,57.23,225.22,60.01z M213.88,60.01c0,3.18,1.11,4.78,3.32,4.78c1.13,0,1.96-0.39,2.51-1.16
				c0.54-0.77,0.82-1.98,0.82-3.62c0-1.65-0.28-2.86-0.83-3.65c-0.55-0.78-1.38-1.18-2.47-1.18C215,55.19,213.88,56.8,213.88,60.01z
				"/>
			<path class="st18" d="M228.19,68.28V51.8h4.45v12.88h6.35v3.6H228.19z"/>
			<path class="st18" d="M255.64,51.8v9.92c0,2.16-0.61,3.83-1.83,5.01c-1.22,1.18-2.98,1.78-5.28,1.78c-2.25,0-3.97-0.58-5.18-1.72
				c-1.21-1.15-1.81-2.8-1.81-4.96V51.8h4.47v9.67c0,1.16,0.22,2.01,0.65,2.54c0.44,0.53,1.08,0.79,1.93,0.79
				c0.91,0,1.57-0.26,1.98-0.78c0.41-0.52,0.61-1.38,0.61-2.56V51.8H255.64z"/>
			<path class="st18" d="M266.36,68.28h-4.45V55.44h-4.02V51.8h12.49v3.64h-4.01V68.28z"/>
			<path class="st18" d="M272.73,68.28V51.8h4.47v16.48H272.73z"/>
			<path class="st18" d="M296.18,60.01c0,2.77-0.68,4.88-2.04,6.32c-1.36,1.44-3.35,2.16-5.97,2.16c-2.58,0-4.57-0.73-5.94-2.18
				c-1.38-1.45-2.07-3.56-2.07-6.33c0-2.74,0.69-4.84,2.06-6.28c1.37-1.45,3.36-2.17,5.98-2.17c2.62,0,4.61,0.72,5.96,2.15
				S296.18,57.23,296.18,60.01z M284.85,60.01c0,3.18,1.11,4.78,3.32,4.78c1.13,0,1.96-0.39,2.51-1.16
				c0.54-0.77,0.82-1.98,0.82-3.62c0-1.65-0.28-2.86-0.83-3.65c-0.55-0.78-1.38-1.18-2.47-1.18
				C285.96,55.19,284.85,56.8,284.85,60.01z"/>
			<path class="st18" d="M314.85,68.28h-5.84l-6.02-11.61h-0.1c0.14,1.83,0.21,3.22,0.21,4.18v7.43h-3.94V51.8h5.81l6,11.45h0.07
				c-0.11-1.66-0.16-2.99-0.16-4V51.8h3.97V68.28z"/>
		</g>
	</g>
	<g>
		<path class="st19" d="M156.93,41.54l-8.5,13.66c-2.09,3.36-6.51,4.39-9.87,2.3L95.52,30.72c-3.36-2.09-4.39-6.51-2.3-9.87
			l8.5-13.66c2.09-3.36,6.51-4.39,9.87-2.3l43.04,26.78C157.99,33.76,159.02,38.18,156.93,41.54z"/>
		<path class="st20" d="M153.3,41.45l-6.55,10.53c-2.09,3.36-6.51,4.39-9.87,2.3L99.16,30.81c-3.36-2.09-4.39-6.51-2.3-9.87
			l6.55-10.53c2.09-3.36,6.51-4.39,9.87-2.3L151,31.58C154.36,33.67,155.39,38.09,153.3,41.45z"/>
		<path class="st21" d="M108.16,15.73l-4.43,7.12c-0.29,0.46-0.89,0.6-1.35,0.31l-0.47-0.29c-0.46-0.29-0.6-0.89-0.31-1.35
			l4.43-7.12c0.29-0.46,0.89-0.6,1.35-0.31l0.47,0.29C108.3,14.67,108.45,15.27,108.16,15.73z"/>
	</g>
	<path class="st19" d="M150.42,33.92l3.59-4.24c0.57-0.68,0.5-1.69-0.17-2.28l-4.31-3.75c-0.78-0.68-1.98-0.47-2.48,0.42l-3.35,5.9
		c-0.29,0.5-0.29,1.12,0,1.62c0.74,1.28,2.52,3.47,5.76,2.89C149.84,34.41,150.17,34.21,150.42,33.92z"/>
	<path class="st19" d="M142.02,15.17l5.17,4.38c1.13,0.96,1.38,2.6,0.59,3.85l-7.04,11.12c-0.12,0.19-0.3,0.32-0.51,0.38
		c-1.52,0.39-7.79,1.54-9.11-5.65c-0.04-0.21,0.01-0.43,0.12-0.61l7.96-13C139.79,14.64,141.13,14.42,142.02,15.17z"/>
	<path class="st19" d="M129.42,10.39l8.42,2.7c1.07,0.34,1.57,1.56,1.05,2.56l-5.39,10.27c-0.37,0.7-1.16,1.08-1.94,0.93l-8.2-1.58
		c-1.15-0.22-1.78-1.45-1.3-2.52l5.18-11.39C127.61,10.53,128.55,10.11,129.42,10.39z"/>
	<path class="st19" d="M121.42,8L126,9.35c1,0.29,1.5,1.4,1.07,2.34l-5.43,11.95c-0.32,0.7-1.07,1.1-1.83,0.98l-7-1.17
		c-1.21-0.2-1.82-1.58-1.15-2.61l7.85-12.13C119.92,8.08,120.69,7.79,121.42,8z"/>
	<path class="st19" d="M137.39,57.9v10.48c0,0.94-0.76,1.71-1.71,1.71h-20.57c-0.94,0-1.71-0.76-1.71-1.71V57.4
		c0-0.28-0.07-0.56-0.2-0.8l-10.22-19.16c-0.27-0.52-0.27-1.14,0.02-1.64l6.64-11.71c0.36-0.63,1.07-0.97,1.79-0.84l20.03,3.61
		c0.87,0.16,1.49,0.95,1.4,1.83c-0.21,2.05-1.31,5.43-6.2,6.1c-0.08,0.01-0.16,0.02-0.25,0.02h-8.43c-1.27,0-2.09,1.33-1.53,2.47
		l4.44,8.88c0.14,0.28,0.35,0.51,0.61,0.67l15.11,9.65C137.1,56.78,137.39,57.32,137.39,57.9z"/>
</g>
</svg>
