<?xml version="1.0" encoding="UTF-8"?>
<svg id="Layer_1" xmlns="http://www.w3.org/2000/svg" xmlns:xodm="http://www.corel.com/coreldraw/odm/2003" xmlns:xlink="http://www.w3.org/1999/xlink" version="1.1" viewBox="0 0 252.2 52">
  <!-- Generator: Adobe Illustrator 29.8.1, SVG Export Plug-In . SVG Version: 2.1.1 Build 2)  -->
  <defs>
    <clipPath id="clippath">
      <rect x="164.442" y="2.47" width="82.624" height="45.776" fill="none"/>
    </clipPath>
  </defs>
  <g clip-path="url(#clippath)">
    <g>
      <path d="M209.528,30.895c-3.057,12.262-15.476,19.724-27.739,16.666-12.258-3.057-19.72-15.476-16.662-27.737,3.056-12.263,15.474-19.726,27.734-16.669,12.262,3.057,19.724,15.478,16.667,27.74Z" fill="#f7931a"/>
      <path d="M197.419,22.097c.456-3.046-1.863-4.683-5.034-5.775l1.028-4.126-2.511-.626-1.001,4.017c-.66-.165-1.338-.32-2.012-.473l1.009-4.043-2.51-.626-1.029,4.124c-.546-.124-1.083-.247-1.604-.377l.003-.013-3.463-.865-.668,2.682s1.863.427,1.824.453c1.017.254,1.201.927,1.17,1.461l-1.172,4.7c.07.018.161.044.261.084-.084-.021-.173-.044-.265-.066l-1.642,6.584c-.124.309-.44.773-1.151.597.025.036-1.825-.456-1.825-.456l-1.247,2.875,3.268.815c.608.152,1.204.312,1.79.462l-1.039,4.173,2.508.626,1.029-4.128c.685.186,1.35.358,2.001.519l-1.026,4.109,2.511.626,1.039-4.165c4.282.81,7.502.484,8.858-3.39,1.092-3.118-.054-4.917-2.307-6.09,1.641-.378,2.877-1.458,3.206-3.687h0ZM191.681,30.143c-.776,3.119-6.027,1.433-7.729,1.01l1.379-5.528c1.702.425,7.161,1.266,6.35,4.518ZM192.458,22.052c-.708,2.837-5.078,1.396-6.496,1.042l1.25-5.014c1.418.353,5.983,1.013,5.246,3.972h0Z" fill="#fff"/>
      <circle cx="224.175" cy="25.358" r="22.888" fill="#7b1af7"/>
      <path d="M214.237,25.852l15.259-13.148c.665-.426,1.299,0,.893.73l-4.87,9.577h8.684s1.38,0,0,1.136l-15.015,13.23c-1.055.893-1.786.406-1.055-.974l4.707-9.334h-8.603s-1.38,0,0-1.217Z" fill="#fff"/>
    </g>
  </g>
  <path d="M158.343,27.618c1.25-1.25,1.25-3.28,0-4.53l-16-16c-1.25-1.25-3.28-1.25-4.53,0s-1.25,3.28,0,4.53l10.54,10.54h-37.07c-1.77,0-3.2,1.43-3.2,3.2s1.43,3.2,3.2,3.2h37.07l-10.54,10.54c-1.25,1.25-1.25,3.28,0,4.53s3.28,1.25,4.53,0l16-16v-.01Z" fill="#939393"/>
  <g>
    <g>
      <path d="M34.448,2.8c4.511,0,6.767,0,9.234.775,2.65.97,4.74,3.059,5.71,5.71.775,2.467.775,4.723.775,9.241v13.654c0,4.526,0,6.795-.775,9.234-.97,2.65-3.059,4.74-5.71,5.71-2.467.79-4.723.79-9.234.79h-13.675c-4.526,0-6.795,0-9.234-.775-2.65-.97-4.74-3.059-5.71-5.71-.775-2.467-.775-4.723-.775-9.241v-13.668c0-4.526,0-6.795.775-9.234.97-2.65,3.059-4.74,5.71-5.71,2.467-.775,4.723-.775,9.234-.775,0,0,13.675,0,13.675,0Z" fill="#00d632"/>
      <path d="M34.99,19.577c.352.352.938.352,1.269,0l1.762-1.833c.374-.352.352-.987-.042-1.368-1.384-1.207-2.994-2.126-4.737-2.707l.557-2.679c.12-.585-.317-1.135-.902-1.135h-3.412c-.44.004-.816.316-.902.747l-.493,2.383c-4.54.233-8.388,2.538-8.388,7.261,0,4.088,3.179,5.844,6.542,7.049,3.179,1.212,4.864,1.664,4.864,3.369,0,1.755-1.678,2.784-4.159,2.784-2.256,0-4.624-.754-6.457-2.594-.358-.358-.938-.358-1.296,0h0l-1.903,1.903c-.372.374-.372.98,0,1.353,1.48,1.459,3.355,2.517,5.493,3.102l-.522,2.517c-.12.585.31,1.128.895,1.135l3.419.028c.444.001.829-.312.916-.747l.493-2.39c5.462-.367,8.789-3.377,8.789-7.768,0-4.046-3.313-5.752-7.331-7.141-2.298-.853-4.286-1.438-4.286-3.193,0-1.706,1.854-2.383,3.715-2.383,2.368,0,4.645.98,6.133,2.319l-.014-.014h-.001Z" fill="#fff"/>
    </g>
    <g>
      <path d="M66.901,13.212c-.236.141-.54.084-.709-.132-.809-1.16-2.148-1.835-3.562-1.796-2.713,0-4.379,2.147-4.379,5.212s1.698,5.255,4.408,5.255c1.434.035,2.785-.674,3.57-1.875.156-.235.469-.306.711-.161l1.288.748c.269.141.372.474.231.743-.009.017-.019.034-.03.051-1.28,1.92-3.458,3.046-5.765,2.98-4.337,0-7.278-3.147-7.278-7.735s2.941-7.696,7.212-7.696c2.266-.063,4.416,1.002,5.739,2.843.181.246.128.592-.118.773-.01.007-.02.014-.03.021l-1.288.77Z"/>
      <path d="M74.16,19.13c.857-.151,1.634-.288,2.076-.621v1.261c0,1.648-1.187,2.356-2.457,2.356-1.026,0-1.735-.457-1.735-1.439,0-1.058.815-1.322,1.796-1.502l.32-.056h0ZM76.381,22.785v.624c.001.301.246.544.547.543.007,0,.014,0,.022,0h1.407c.294-.007.529-.248.529-.542v-7.087c0-2.568-1.825-3.631-4.408-3.631-1.454.008-2.884.371-4.165,1.058-.254.142-.353.458-.225.719l.465.971c.125.264.44.377.704.253.011-.005.023-.011.034-.017.916-.475,1.93-.733,2.962-.751.899,0,1.96.249,1.96,1.166,0,.963-1.161,1.127-2.594,1.322l-.346.05c-1.478.206-3.877.669-3.877,3.359,0,2.161,1.566,3.39,3.816,3.39,1.547-.008,2.502-.553,3.171-1.425Z" fill-rule="evenodd"/>
      <path d="M91.339,23.409v-13.804c0-.294.235-.535.529-.542h1.563c.299-.001.543.24.545.539v4.718c.79-1.054,2.04-1.66,3.356-1.629,2.314,0,3.671,1.65,3.671,4.004v6.714c0,.299-.243.542-.542.542h-1.566c-.299,0-.542-.243-.542-.542v-6.098c0-1.172-.376-2.232-1.875-2.232-1.42,0-2.502,1-2.502,2.668v5.67c-.007.295-.249.53-.545.529h-1.563c-.292,0-.529-.237-.529-.529,0-.003,0-.005,0-.008ZM81.239,21.143c.19-.22.52-.251.748-.071.907.685,2.019,1.044,3.155,1.018,1.169,0,2.034-.376,2.034-1.291,0-.836-.793-1.002-2.713-1.338-2.034-.338-3.98-1.018-3.98-3.337,0-2.417,2.084-3.438,4.464-3.438,1.491-.022,2.946.456,4.133,1.357.238.182.284.522.102.76-.009.012-.018.023-.028.033l-.677.793c-.186.222-.513.26-.746.087-.836-.614-1.849-.938-2.885-.923-1,0-1.875.291-1.875,1.082,0,.878,1.227,1.045,2.459,1.254,2.629.447,4.297,1.201,4.297,3.385,0,2.293-1.835,3.702-4.76,3.702-1.592.048-3.151-.461-4.408-1.439-.238-.189-.277-.535-.089-.773.006-.007.011-.014.017-.02l.751-.841Z"/>
    </g>
    <path d="M91.267,35.546c0,1.896-.878,3.462-2.713,3.462s-2.838-1.563-2.838-3.462,1.021-3.422,2.838-3.422,2.713,1.526,2.713,3.422ZM85.713,31.46v-.857c.022-.291-.196-.545-.488-.567-.018-.001-.036-.002-.055-.001h-1.566c-.294.007-.529.248-.529.542v13.566c.007.289.24.522.529.529h1.566c.294,0,.535-.235.542-.529v-4.496c.778,1.09,2.055,1.714,3.393,1.658,3.007,0,4.945-2.512,4.945-5.765s-1.938-5.736-4.945-5.736c-1.336-.052-2.61.57-3.39,1.655h-.003ZM78.644,35.546c0,1.896-.878,3.464-2.713,3.464s-2.835-1.566-2.835-3.464,1.018-3.422,2.835-3.422,2.716,1.526,2.716,3.422h-.003ZM73.091,31.46v-.857c.015-.299-.216-.553-.515-.568-.005,0-.009,0-.014,0h-1.563c-.299-.001-.543.24-.545.539v13.569c.007.295.249.53.545.529h1.563c.289-.007.522-.24.529-.529v-4.496c.782,1.091,2.06,1.714,3.401,1.658,2.999,0,4.94-2.512,4.94-5.765s-1.941-5.736-4.94-5.736c-1.337-.052-2.611.57-3.393,1.655h-.008ZM60.083,35.065l2.19-6.453,2.116,6.463-4.305-.011ZM65.089,37.381l1.127,3.324c.067.224.272.377.505.378h1.944c.292.013.539-.214.551-.505.003-.076-.01-.151-.038-.222l-5.104-13.804c-.081-.213-.285-.355-.513-.357h-2.507c-.223-.002-.424.132-.508.338l-5.125,13.807c-.104.281.04.593.321.696.06.022.123.033.187.034h1.835c.233.004.441-.144.513-.365l1.132-3.324h5.68Z" fill-rule="evenodd"/>
  </g>
</svg>