<?xml version="1.0" encoding="UTF-8"?>
<svg id="Layer_1" xmlns="http://www.w3.org/2000/svg" version="1.1" xmlns:xodm="http://www.corel.com/coreldraw/odm/2003" viewBox="0 0 252.2 52">
  <!-- Generator: Adobe Illustrator 29.5.1, SVG Export Plug-In . SVG Version: 2.1.0 Build 141)  -->
  <defs>
    <style>
      .st0, .st1 {
        fill: #fff;
      }

      .st2 {
        fill: #50af95;
      }

      .st1 {
        fill-rule: evenodd;
      }

      .st3 {
        fill: #f7931a;
      }
    </style>
  </defs>
  <g id="Layer_11" image-rendering="optimizeQuality" shape-rendering="geometricPrecision" text-rendering="geometricPrecision">
    <g id="_1421487920208">
      <g>
        <path class="st3" d="M179,32.2c-3.4,13.9-17.5,22.4-31.4,18.8-13.9-3.4-22.3-17.5-18.8-31.4,3.4-13.9,17.5-22.3,31.4-18.8h0c13.9,3.5,22.3,17.5,18.8,31.4Z"/>
        <path class="st0" d="M159.8,22.2c-.8,3.2-5.7,1.6-7.3,1.1l1.4-5.7c1.6.4,6.7,1.1,5.9,4.5h0ZM159,31.3c-.8,3.5-6.8,1.7-8.7,1.1l1.6-6.2c2,.5,8.1,1.4,7.1,5.1ZM165.4,22.3c.5-3.4-2.1-5.3-5.7-6.5l1.1-4.7-2.9-.7-1.1,4.6c-.7-.2-1.6-.4-2.3-.5l1.1-4.6-2.8-.7-1.1,4.7-1.8-.4-3.9-.9-.7,3,2.1.5c.8,0,1.3.8,1.3,1.7l-1.3,5.3h.3-.3l-1.9,7.3c-.2.5-.7.8-1.3.6h0l-2.1-.5-1.4,3.2,3.7.9,2.1.5-1.1,4.8,2.8.7,1.1-4.7c.7.2,1.6.4,2.3.6l-1.1,4.7,2.8.7,1.1-4.7c4.9.9,8.5.5,10-3.8,1.2-3.5,0-5.6-2.6-6.8,1.9-.4,3.2-1.7,3.6-4.1h0Z"/>
      </g>
      <g>
        <circle class="st2" cx="98.3" cy="25.5" r="25.9"/>
        <path class="st1" d="M101.5,26.5h-6.4c-6.4-.3-11.2-1.3-11.2-2.7s4.8-2.5,11.2-2.7v4.3h6.4v-4.3c6.4.3,11.2,1.3,11.2,2.7s-4.8,2.5-11.2,2.7h0ZM101.5,20.6v-3.9h8.9v-5.9h-24.2v5.9h8.9v3.9c-7.2.3-12.6,1.8-12.6,3.5s5.5,3.1,12.6,3.5v12.4h6.4v-12.4c7.2-.3,12.6-1.8,12.6-3.5s-5.4-3.1-12.6-3.5h0ZM101.5,20.6h0Z"/>
      </g>
    </g>
    <div id="divScriptsUsed" xmlns="" style="display: none"/>
  </g>
</svg>