<?xml version="1.0" encoding="UTF-8"?>
<svg xmlns="http://www.w3.org/2000/svg" version="1.1" xmlns:xodm="http://www.corel.com/coreldraw/odm/2003" viewBox="0 0 252.2 52">
  <defs>
    <style>
      .cls-1 {
        fill-rule: evenodd;
      }

      .cls-1, .cls-2, .cls-3, .cls-4, .cls-5, .cls-6, .cls-7, .cls-8, .cls-9 {
        stroke-width: 0px;
      }

      .cls-1, .cls-8 {
        fill: #fff;
      }

      .cls-2 {
        fill: #f7931a;
      }

      .cls-3 {
        fill: #345d9d;
      }

      .cls-4 {
        opacity: .4;
      }

      .cls-4, .cls-5, .cls-7 {
        fill: #000;
        isolation: isolate;
      }

      .cls-5 {
        opacity: .8;
      }

      .cls-6 {
        fill: #50af95;
      }

      .cls-7 {
        opacity: .6;
      }

      .cls-9 {
        fill: #2775ca;
      }
    </style>
  </defs>
  <g id="Layer_1" data-name="Layer 1" image-rendering="optimizeQuality" shape-rendering="geometricPrecision" text-rendering="geometricPrecision">
    <g id="_1421487920208" data-name=" 1421487920208">
      <g>
        <path class="cls-2" d="M51.7,32.1c-3.3,13.4-16.9,21.6-30.3,18.2C8,47-.1,33.4,3.2,20,6.5,6.6,20.1-1.5,33.5,1.8c0,0,0,0,0,0,13.4,3.4,21.5,16.9,18.2,30.3Z"/>
        <path class="cls-8" d="M33.1,22.4c-.8,3.1-5.5,1.5-7.1,1.1l1.4-5.5c1.5.4,6.5,1.1,5.7,4.3h0ZM32.3,31.2c-.8,3.4-6.6,1.6-8.4,1.1l1.5-6c1.9.5,7.8,1.4,6.9,4.9ZM38.5,22.5c.5-3.3-2-5.1-5.5-6.3l1.1-4.5-2.8-.7-1.1,4.4c-.7-.2-1.5-.4-2.2-.5l1.1-4.4-2.7-.7-1.1,4.5-1.7-.4-3.8-.9-.7,2.9s2,.5,2,.5c.8,0,1.3.8,1.3,1.6l-1.3,5.1c0,0,.2,0,.3,0h-.3c0,0-1.8,7.1-1.8,7.1-.2.5-.7.8-1.3.6h0s-2-.5-2-.5l-1.4,3.1,3.6.9,2,.5-1.1,4.6,2.7.7,1.1-4.5c.7.2,1.5.4,2.2.6l-1.1,4.5,2.7.7,1.1-4.5c4.7.9,8.2.5,9.7-3.7,1.2-3.4,0-5.4-2.5-6.6,1.8-.4,3.1-1.6,3.5-4h0Z"/>
      </g>
      <g>
        <path class="cls-7" d="M71.9,19.5l-15.3,7,15.3,9.1,15.4-9.1-15.4-7Z"/>
        <path class="cls-4" d="M56.6,26.5l15.3,9.1V1l-15.3,25.5Z"/>
        <path class="cls-5" d="M71.9,1v34.5l15.4-9.1L71.9,1Z"/>
        <path class="cls-4" d="M56.6,29.4l15.3,21.6v-12.6l-15.3-9.1Z"/>
        <path class="cls-5" d="M71.9,38.5v12.6l15.4-21.6-15.4,9.1Z"/>
      </g>
      <path class="cls-3" d="M116.5,1.4c-13.8,0-25,11.2-25,25s11.2,25,25,25,25-11.2,25-25c0-13.8-11.2-25-25-25M116.9,27.2l-2.6,8.8h13.9c.5,0,.8.5.7.9l-1.2,4.2c-.1.4-.5.7-.9.7h-21.2l3.6-12.1-4,1.2.9-2.9,4-1.2,5-17c.1-.4.5-.7.9-.7h5.4c.5,0,.8.5.7.9l-4.3,14.4,4-1.2-.9,2.9-4,1.2Z"/>
      <g>
        <circle class="cls-6" cx="169.9" cy="26.4" r="25"/>
        <path class="cls-1" d="M173,27.4h0c-.2,0-1.1,0-3.1,0s-2.7,0-3.1,0h0c-6.2-.3-10.8-1.3-10.8-2.6s4.6-2.4,10.8-2.6v4.2c.4,0,1.6,0,3.2,0s2.9,0,3,0v-4.2c6.2.3,10.8,1.3,10.8,2.6s-4.6,2.4-10.8,2.6h0ZM173,21.7v-3.8h8.6v-5.7h-23.4v5.7h8.6v3.8c-7,.3-12.2,1.7-12.2,3.4s5.3,3,12.2,3.4v12h6.2v-12c7-.3,12.2-1.7,12.2-3.4s-5.2-3-12.2-3.4h0ZM173,21.7h0Z"/>
      </g>
      <g>
        <path class="cls-9" d="M224.1,51c13.8,0,25-11.1,25-25S238,1.1,224.1,1.1s-25,11.1-25,25,11.1,25,25,25Z"/>
        <path class="cls-8" d="M231,30c0-3.6-2.2-4.9-6.6-5.4-3.1-.4-3.7-1.2-3.7-2.7s1-2.4,3.1-2.4,2.9.6,3.4,2.2c.1.3.4.5.7.5h1.7c.4,0,.7-.3.7-.7h0c-.4-2.4-2.3-4.2-4.7-4.4v-2.5c0-.4-.3-.7-.8-.8h-1.6c-.4,0-.7.3-.8.8v2.4c-3.1.4-5.1,2.5-5.1,5.1s2.1,4.8,6.5,5.3c2.9.5,3.9,1.1,3.9,2.8s-1.5,2.8-3.4,2.8-3.6-1.1-4-2.7c-.1-.4-.4-.6-.7-.6h-1.8c-.4,0-.7.3-.7.7h0c.4,2.7,2.1,4.6,5.5,5.1v2.5c0,.4.3.7.8.8h1.6c.4,0,.7-.3.8-.8v-2.5c3.1-.5,5.2-2.7,5.2-5.5h0Z"/>
        <path class="cls-8" d="M218.8,40.9c-8.1-2.9-12.3-12-9.3-20,1.6-4.4,5-7.7,9.3-9.3.4-.2.6-.5.6-1v-1.5c0-.4-.2-.7-.6-.8-.1,0-.3,0-.4.1-9.9,3.1-15.3,13.6-12.2,23.5,1.9,5.8,6.4,10.3,12.2,12.2.4.2.8,0,.9-.4.1-.1.1-.2.1-.4v-1.5c0-.3-.3-.7-.6-.9ZM229.9,8.5c-.4-.2-.8,0-.9.4-.1.1-.1.2-.1.4v1.5c0,.4.3.8.6,1,8.1,2.9,12.3,12,9.3,20-1.6,4.4-5,7.7-9.3,9.3-.4.2-.6.5-.6,1v1.5c0,.4.2.7.6.8.1,0,.3,0,.4-.1,9.9-3.1,15.3-13.6,12.2-23.5-1.9-5.9-6.5-10.4-12.2-12.3h0Z"/>
        <div id="divScriptsUsed" xmlns="" style="display: none"/>
      </g>
    </g>
    <div id="divScriptsUsed" xmlns="" style="display: none"/>
  </g>
</svg>