<?xml version="1.0" encoding="UTF-8"?>
<svg id="Layer_1" data-name="Layer 1" xmlns="http://www.w3.org/2000/svg" xmlns:xlink="http://www.w3.org/1999/xlink" viewBox="0 0 145.94 28.43">
  <defs>
    <style>
      .cls-1 {
        fill: #4285f4;
      }

      .cls-1, .cls-2, .cls-3, .cls-4, .cls-5, .cls-6, .cls-7, .cls-8, .cls-9, .cls-10, .cls-11, .cls-12, .cls-13 {
        stroke-width: 0px;
      }

      .cls-2 {
        fill: url(#linear-gradient);
      }

      .cls-3 {
        fill: #000;
      }

      .cls-4 {
        fill: url(#linear-gradient-6);
      }

      .cls-5 {
        fill: url(#linear-gradient-5);
      }

      .cls-6 {
        fill: #fbbc04;
      }

      .cls-7 {
        fill: url(#linear-gradient-2);
      }

      .cls-8 {
        fill: url(#linear-gradient-7);
      }

      .cls-9 {
        fill: url(#linear-gradient-3);
      }

      .cls-10 {
        fill: url(#linear-gradient-8);
      }

      .cls-11 {
        fill: #34a853;
      }

      .cls-12 {
        fill: #ea4335;
      }

      .cls-13 {
        fill: url(#linear-gradient-4);
      }
    </style>
    <linearGradient id="linear-gradient" x1="12.08" y1="5.11" x2="12.08" y2="23.78" gradientUnits="userSpaceOnUse">
      <stop offset="0" stop-color="#454e5d"/>
      <stop offset=".31" stop-color="#47505e"/>
      <stop offset=".5" stop-color="#4e5964"/>
      <stop offset=".65" stop-color="#5a676f"/>
      <stop offset=".79" stop-color="#6c7c7d"/>
      <stop offset=".92" stop-color="#839690"/>
      <stop offset="1" stop-color="#95ab9f"/>
    </linearGradient>
    <linearGradient id="linear-gradient-2" x1="1.98" y1="15.94" x2="1.98" y2="23.78" xlink:href="#linear-gradient"/>
    <linearGradient id="linear-gradient-3" x1="13.23" x2="13.23" y2="13.2" xlink:href="#linear-gradient"/>
    <linearGradient id="linear-gradient-4" x1="35.59" y1="4.98" x2="35.59" y2="23.78" xlink:href="#linear-gradient"/>
    <linearGradient id="linear-gradient-5" x1="48.86" y1="4.98" x2="48.86" y2="23.78" xlink:href="#linear-gradient"/>
    <linearGradient id="linear-gradient-6" x1="62.67" y1="4.98" x2="62.67" y2="23.78" xlink:href="#linear-gradient"/>
    <linearGradient id="linear-gradient-7" x1="80.41" y1="4.64" x2="80.41" y2="23.78" xlink:href="#linear-gradient"/>
    <linearGradient id="linear-gradient-8" x1="98.18" y1="4.98" x2="98.18" y2="23.78" xlink:href="#linear-gradient"/>
  </defs>
  <g>
    <path class="cls-3" d="M119.1,1.74c-.38.46-1,.81-1.62.76-.08-.62.22-1.27.58-1.67.38-.47,1.06-.8,1.6-.83.06.64-.19,1.27-.56,1.74M119.66,2.62c-.89-.05-1.66.51-2.08.51s-1.08-.48-1.78-.47c-.92.01-1.77.53-2.24,1.36-.96,1.66-.25,4.11.68,5.45.46.67,1,1.4,1.72,1.37.68-.03.95-.44,1.77-.44s1.07.44,1.78.43c.74-.01,1.21-.67,1.67-1.33.52-.76.73-1.5.74-1.53-.01-.01-1.44-.56-1.45-2.2-.01-1.37,1.12-2.03,1.17-2.07-.64-.95-1.64-1.05-1.99-1.08M124.81.76v10h1.55v-3.42h2.15c1.96,0,3.34-1.35,3.34-3.3s-1.35-3.29-3.29-3.29h-3.75ZM126.36,2.07h1.79c1.35,0,2.12.72,2.12,1.98s-.77,1.99-2.12,1.99h-1.78v-3.97ZM134.69,10.84c.98,0,1.88-.49,2.29-1.28h.03v1.2h1.44v-4.98c0-1.44-1.15-2.37-2.93-2.37-1.65,0-2.87.94-2.91,2.24h1.4c.12-.62.69-1.02,1.47-1.02.95,0,1.48.44,1.48,1.26v.55l-1.94.12c-1.8.11-2.78.85-2.78,2.13s1.01,2.16,2.45,2.16ZM135.11,9.66c-.83,0-1.35-.4-1.35-1.01s.51-.99,1.48-1.05l1.73-.11v.56c0,.94-.8,1.6-1.85,1.6ZM140.37,13.49c1.51,0,2.23-.58,2.85-2.33l2.73-7.65h-1.58l-1.83,5.91h-.03l-1.83-5.91h-1.62l2.63,7.28-.14.44c-.24.75-.62,1.04-1.31,1.04-.12,0-.36-.01-.46-.03v1.2c.09.03.47.04.59.04Z"/>
    <g>
      <path class="cls-3" d="M126.7,21.62v3.88h-1.25v-9.61h3.26c.79,0,1.55.29,2.13.84.58.5.88,1.25.88,2.05s-.29,1.5-.88,2.05c-.58.54-1.29.84-2.13.84l-2.01-.04h0ZM126.7,17.06v3.34h2.09c.46,0,.92-.17,1.21-.5.67-.63.67-1.67.04-2.3l-.04-.04c-.33-.33-.75-.54-1.21-.5h-2.09Z"/>
      <path class="cls-3" d="M134.59,18.73c.92,0,1.63.25,2.17.75s.79,1.17.79,2.01v4.01h-1.17v-.92h-.04c-.5.75-1.21,1.13-2.05,1.13-.71,0-1.34-.21-1.84-.63-.46-.42-.75-1-.75-1.63,0-.67.25-1.21.75-1.63s1.21-.58,2.05-.58c.75,0,1.34.13,1.8.42v-.29c0-.42-.17-.84-.5-1.09-.33-.29-.75-.46-1.21-.46-.71,0-1.25.29-1.63.88l-1.09-.67c.67-.88,1.55-1.29,2.72-1.29ZM133.01,23.5c0,.33.17.63.42.79.29.21.63.33.96.33.5,0,1-.21,1.38-.58.42-.38.63-.84.63-1.34-.38-.29-.92-.46-1.63-.46-.5,0-.92.13-1.25.38-.33.21-.5.5-.5.88Z"/>
      <path class="cls-3" d="M144.33,18.94l-4.14,9.48h-1.25l1.55-3.3-2.72-6.14h1.34l1.96,4.72h.04l1.92-4.72h1.29v-.04Z"/>
      <path class="cls-1" d="M122.35,20.77c0-.34-.04-.68-.08-1.02h-4.7v1.92h2.67c-.11.6-.45,1.17-.98,1.5v1.24h1.62c.94-.86,1.47-2.14,1.47-3.65Z"/>
      <path class="cls-11" d="M117.57,25.62c1.35,0,2.48-.45,3.31-1.2l-1.62-1.24c-.45.3-1.02.49-1.69.49-1.28,0-2.41-.86-2.78-2.07h-1.65v1.28c.86,1.69,2.56,2.74,4.44,2.74Z"/>
      <path class="cls-6" d="M114.79,21.6c-.23-.6-.23-1.28,0-1.92v-1.28h-1.65c-.71,1.39-.71,3.05,0,4.47l1.65-1.28Z"/>
      <path class="cls-12" d="M117.57,17.65c.71,0,1.39.26,1.92.75h0l1.43-1.43c-.9-.83-2.11-1.32-3.31-1.28-1.88,0-3.61,1.05-4.44,2.74l1.65,1.28c.34-1.2,1.47-2.07,2.74-2.07Z"/>
    </g>
  </g>
  <g>
    <path class="cls-2" d="M12.4,23.78h-1.65s-1.34-.29-2.25-1.42L.04,12.93v-7.83h3.92v6.84l6.8,7.39s.61.73,1.61.73h11.75v3.71h-11.73"/>
    <polygon class="cls-7" points="0 15.94 0 23.78 3.96 23.78 3.96 20.32 0 15.94"/>
    <path class="cls-9" d="M5.24,10.36l4.74-4.88s.63-.38,3.09-.38h8.16v3.67h-8.83s-.58-.02-1.65,1.11l-2.94,3.32-2.57-2.84Z"/>
    <path class="cls-13" d="M37.47,4.98c4.23,0,6.04,2.62,6.04,5.63,0,2.34-1.11,4.85-3.98,5.65l4.37,7.52h-3.65l-4.29-7.27h-4.9c-.31,0-.47.14-.47.47v6.8h-3.29v-7.44c0-2.12.89-2.98,2.95-2.98h7.33c1.87,0,2.62-1.28,2.62-2.62s-.81-2.48-2.62-2.48h-10.31v-3.29h10.19Z"/>
    <path class="cls-5" d="M50.5,4.98v18.8h-3.29V4.98h3.29Z"/>
    <path class="cls-4" d="M64.47,4.98c4.23,0,6.04,2.62,6.04,5.63,0,2.84-1.64,5.91-6.04,5.91h-5.85c-.31,0-.47.14-.47.47v6.8h-3.29v-7.44c0-2.12.89-2.98,2.95-2.98h6.77c1.87,0,2.62-1.28,2.62-2.59s-.81-2.51-2.59-2.51h-9.78v-3.29h9.64Z"/>
    <path class="cls-8" d="M73.63,23.78h-3.62l6.6-16.71c.7-1.76,1.98-2.42,3.96-2.42s3.23.67,3.9,2.42l6.35,16.71h-3.65l-5.71-15.13c-.17-.45-.47-.64-.92-.64s-.75.19-.95.64l-5.96,15.13Z"/>
    <path class="cls-10" d="M92.93,4.98l5.26,8.05,5.32-8.05h3.9l-7.58,10.7v8.11h-3.31v-8.11l-7.58-10.7h3.98Z"/>
  </g>
<div xmlns="" id="divScriptsUsed" style="display: none"/><script xmlns="" id="globalVarsDetection" src="moz-extension://619d1745-c125-43ba-8dc7-7f6827c0d446/js/wrs_env.js"/></svg>