<?xml version="1.0" encoding="utf-8"?>
<!-- Generator: Adobe Illustrator 24.0.0, SVG Export Plug-In . SVG Version: 6.00 Build 0)  -->
<svg version="1.1" xmlns="http://www.w3.org/2000/svg" xmlns:xlink="http://www.w3.org/1999/xlink" x="0px" y="0px"
	 viewBox="0 0 436 72" style="enable-background:new 0 0 436 72;" xml:space="preserve">
<style type="text/css">
	.st0{display:none;}
	.st1{display:inline;}
	.st2{fill:#2C3583;}
	.st3{fill:#FBC112;}
	.st4{fill:#FFFFFF;stroke:#231F20;stroke-miterlimit:10;}
	.st5{fill:#FFFFFF;}
	.st6{fill:#056406;}
	.st7{fill:#EA671E;}
	.st8{fill:#333333;}
	.st9{fill:#4374B6;}
	.st10{fill:#4575B6;}
	.st11{fill:#2A8F2C;}
	.st12{fill:#404041;}
	.st13{display:inline;fill:#F7931A;}
	.st14{fill:#4E4E4E;}
	.st15{fill:#005380;}
	.st16{fill:#404040;}
	.st17{display:inline;fill:#CC8800;}
	.st18{fill:#E21A23;}
	.st19{fill:#FFFFFF;stroke:#262321;stroke-miterlimit:10;}
	.st20{fill:#2B6A95;stroke:#262321;stroke-miterlimit:10;}
	.st21{fill:#262321;}
	.st22{display:inline;fill:#FFFFFF;stroke:#262321;stroke-miterlimit:10;}
</style>
<g id="Credit_Card_Logo" class="st0">
	<g class="st1">
		<path class="st2" d="M203.89,40.23c-2.51,0-4.69-0.52-6.54-1.57c-1.86-1.05-3.29-2.53-4.3-4.45c-1.01-1.92-1.52-4.19-1.52-6.82
			v-0.87c0-2.51,0.49-4.73,1.46-6.66c0.98-1.93,2.37-3.45,4.18-4.55c1.81-1.1,3.96-1.65,6.46-1.65c1.75,0,3.39,0.25,4.92,0.74
			c1.53,0.5,2.9,1.25,4.11,2.27v6.24h-3.85L208.27,19c-0.39-0.28-0.82-0.53-1.28-0.73c-0.46-0.2-0.96-0.35-1.5-0.46
			c-0.54-0.11-1.12-0.16-1.75-0.16c-1.47,0-2.73,0.36-3.78,1.08c-1.05,0.72-1.86,1.74-2.42,3.06c-0.56,1.32-0.84,2.88-0.84,4.69v0.9
			c0,1.81,0.3,3.38,0.89,4.7c0.59,1.32,1.43,2.35,2.52,3.08c1.09,0.73,2.38,1.09,3.87,1.09c0.74,0,1.49-0.09,2.24-0.26
			c0.75-0.17,1.43-0.39,2.05-0.67l0.53-3.64h3.85v6.17c-1.01,0.66-2.26,1.22-3.76,1.68C207.39,40,205.72,40.23,203.89,40.23z"/>
		<path class="st2" d="M215.03,39.86v-3.1l2.75-0.53V17.69l-2.75-0.53v-3.12h12.24c1.99,0,3.69,0.31,5.11,0.92
			c1.42,0.61,2.51,1.5,3.27,2.64c0.76,1.15,1.14,2.52,1.14,4.13c0,1.51-0.38,2.87-1.13,4.06c-0.76,1.19-1.81,2.13-3.16,2.82
			c-1.35,0.69-2.9,1.03-4.66,1.05h-4.88v6.56l2.77,0.53v3.1H215.03z M222.96,25.67h4.22c1.49,0,2.6-0.32,3.34-0.95
			c0.74-0.63,1.11-1.55,1.11-2.76c0-1.19-0.37-2.15-1.1-2.86c-0.73-0.72-1.82-1.07-3.26-1.07h-4.31V25.67z M231.65,39.86L227.3,28.7
			l4.66-1.15l3.76,8.69l2.2,0.51v3.1H231.65z"/>
		<path class="st2" d="M240,39.86v-3.1l2.75-0.53V17.69L240,17.16v-3.12h20.04v6.97h-3.97l-0.23-2.98h-7.91v6.49h8.74v3.99h-8.74
			v7.38h8.34l0.23-3.09h3.94v7.06H240z"/>
		<path class="st2" d="M263.2,39.86v-3.1l2.78-0.59V17.76l-2.78-0.6v-3.12h2.78h8.55c2.31,0,4.34,0.54,6.1,1.62
			c1.76,1.08,3.14,2.58,4.12,4.49c0.99,1.91,1.48,4.1,1.48,6.57v0.48c0,2.45-0.49,4.63-1.46,6.54c-0.98,1.91-2.34,3.41-4.09,4.5
			c-1.75,1.09-3.78,1.63-6.08,1.63H263.2z M271.16,35.9h3.17c1.43,0,2.64-0.38,3.64-1.13c0.99-0.75,1.75-1.78,2.28-3.09
			c0.53-1.31,0.79-2.81,0.79-4.49v-0.5c0-1.7-0.26-3.21-0.79-4.51c-0.53-1.31-1.29-2.33-2.28-3.07c-0.99-0.74-2.21-1.11-3.64-1.11
			h-3.17V35.9z"/>
		<path class="st2" d="M288.49,39.86v-3.1l2.75-0.53V17.69l-2.75-0.53v-3.12h10.68v3.12l-2.75,0.53v18.53l2.75,0.53v3.1H288.49z"/>
		<path class="st2" d="M307.1,39.86v-3.1l2.77-0.53v-18.2h-4.7l-0.28,3.09h-3.92v-7.08H324v7.08h-3.94l-0.28-3.09h-4.74v18.2
			l2.78,0.53v3.1H307.1z"/>
	</g>
	<g class="st1">
		<path class="st3" d="M203.89,71.3c-2.51,0-4.69-0.52-6.54-1.57c-1.86-1.05-3.29-2.53-4.3-4.45c-1.01-1.92-1.52-4.19-1.52-6.82
			v-0.87c0-2.51,0.49-4.73,1.46-6.66c0.98-1.93,2.37-3.45,4.18-4.55c1.81-1.1,3.96-1.65,6.46-1.65c1.75,0,3.39,0.25,4.92,0.74
			c1.53,0.5,2.9,1.25,4.11,2.27v6.24h-3.85l-0.53-3.92c-0.39-0.28-0.82-0.53-1.28-0.73c-0.46-0.2-0.96-0.35-1.5-0.46
			c-0.54-0.11-1.12-0.16-1.75-0.16c-1.47,0-2.73,0.36-3.78,1.08c-1.05,0.72-1.86,1.74-2.42,3.06c-0.56,1.32-0.84,2.88-0.84,4.69v0.9
			c0,1.81,0.3,3.38,0.89,4.7c0.59,1.32,1.43,2.35,2.52,3.08c1.09,0.73,2.38,1.09,3.87,1.09c0.74,0,1.49-0.09,2.24-0.26
			c0.75-0.17,1.43-0.39,2.05-0.66l0.53-3.64h3.85v6.17c-1.01,0.66-2.26,1.22-3.76,1.68C207.39,71.07,205.72,71.3,203.89,71.3z"/>
		<path class="st3" d="M214.76,70.92v-3.1l1.84-0.27l8.21-22.45h5.3l8.16,22.45l1.84,0.27v3.1h-8.8v-3.1l1.79-0.32l-1.13-3.55h-9.08
			l-1.14,3.55l1.79,0.32v3.1H214.76z M224.13,60.14h6.63l-3.01-8.85l-0.25-0.78h-0.11l-0.27,0.83L224.13,60.14z"/>
		<path class="st3" d="M241.85,70.92v-3.1l2.75-0.53V48.75l-2.75-0.53V45.1h12.24c1.99,0,3.69,0.31,5.11,0.92
			c1.42,0.62,2.51,1.5,3.27,2.64c0.76,1.15,1.14,2.52,1.14,4.13c0,1.51-0.38,2.87-1.14,4.06c-0.76,1.19-1.81,2.13-3.16,2.82
			c-1.35,0.69-2.9,1.03-4.66,1.05h-4.88v6.56l2.77,0.53v3.1H241.85z M249.77,56.74H254c1.49,0,2.6-0.32,3.34-0.95
			c0.74-0.63,1.11-1.55,1.11-2.76c0-1.19-0.37-2.15-1.1-2.86c-0.73-0.72-1.82-1.07-3.26-1.07h-4.31V56.74z M258.46,70.92
			l-4.35-11.16l4.66-1.15l3.76,8.69l2.2,0.51v3.1H258.46z"/>
		<path class="st3" d="M266.82,70.92v-3.1l2.78-0.59V48.83l-2.78-0.6V45.1h2.78h8.55c2.31,0,4.34,0.54,6.1,1.62
			c1.76,1.08,3.14,2.58,4.12,4.49c0.99,1.91,1.48,4.1,1.48,6.57v0.48c0,2.45-0.49,4.63-1.46,6.54c-0.98,1.91-2.34,3.41-4.09,4.5
			c-1.75,1.09-3.78,1.63-6.08,1.63H266.82z M274.78,66.97h3.17c1.43,0,2.64-0.38,3.64-1.13c0.99-0.75,1.75-1.78,2.28-3.09
			c0.53-1.31,0.79-2.81,0.79-4.49v-0.5c0-1.7-0.26-3.21-0.79-4.51c-0.53-1.31-1.29-2.33-2.28-3.07s-2.21-1.11-3.64-1.11h-3.17V66.97
			z"/>
	</g>
	<g class="st1">
		<path class="st2" d="M158.38,56.8l3.76,2.86l6.04-4.21l3.71,1.97l-4.74,4.11l3.04,2.33l5.01-4.34l4.56,2.55
			c0,0-7.96,9.3-17.53,9.12c-9.57-0.18-11.63-7.07-11-15.38C151.23,55.81,150.15,64.13,158.38,56.8z"/>
		<path class="st2" d="M174.01,19.25L148.6,2.98c-2.97-1.9-6.91-1.24-9.09,1.54c-6.94,8.84-19.95,28.3-14.67,44.32
			c0.02,0.06,0.04,0.11,0.06,0.16c0.22,0.73,3.34,6.45,28.02,19.78c0,0-10.29-12.07,3.67-29.07c9.97-12.14,15.28-16.93,17.5-18.68
			C174.69,20.57,174.65,19.66,174.01,19.25z M143.3,43.92c-2.45,8.85,0,17.08,0,17.08c-1.85-0.63-5.29-2.27-5.76-10.2
			c-0.54-9.06,6.71-21.29,6.71-21.29l4.81,2.68C149.06,32.2,144.98,37.84,143.3,43.92z M152.3,28.98l-5.28-3.31l10.95-11.99
			l5.78,3.4L152.3,28.98z"/>
		<path class="st3" d="M140.05,61.36c0,0-7.24-6.8-4.65-19.68c2.59-12.88,22.58-32.7,22.58-32.7l-7.15-4.58
			c0,0-22.76,19.93-22.5,38.98c0,0-0.74,7.49,5.22,13.67L140.05,61.36z"/>
		<polygon class="st3" points="179.91,34.45 183.56,36.79 178.28,43.19 174.15,40.66 		"/>
		<polygon class="st3" points="180.82,54.06 186,48.06 181.71,45.46 176.76,51.53 		"/>
		<polygon class="st3" points="184.88,56.55 179.09,62.28 175.25,59.13 180.87,54.11 		"/>
		<polygon class="st3" points="171.04,48.82 174.99,51.52 169.21,56.43 165.74,53.74 		"/>
		<polygon class="st3" points="160.35,50.36 163.75,52.95 158.65,56.44 155.38,53.85 		"/>
	</g>
</g>
<g id="P2P">
	<path d="M278,36.93L243.04,0.29v10.25c0,0-4.34-0.19-25.75,0.32c-13.71,0.33-20.62,2.51-23.82,4.04c-5.67-3.96-13.9-8.1-23.41-7.96
		h-20.66v55.86h52.11l0.07-0.01c0.45-0.05,10.51-1.29,15.89-7.62c12.51,9.03,25.55,7.13,25.55,7.13v9.19L278,36.93z M201.37,60.26
		h-49.43V9.46l18.15,0c8.28-0.13,15.66,3.37,20.99,6.92c-0.02,0.02-0.02,0.02-0.02,0.02c5.36,3.57,10.72,17.82,10.72,17.82
		c3.73,9.02,8.61,15.19,13.71,19.39C210.93,58.86,202.22,60.15,201.37,60.26z"/>
	<g>
		<path d="M193.36,33.5c0,1.44-0.18,2.72-0.53,3.85c-0.36,1.13-0.84,2.13-1.44,2.99c-0.61,0.86-1.3,1.6-2.09,2.21
			c-0.79,0.61-1.62,1.11-2.48,1.5c-0.86,0.39-1.73,0.67-2.61,0.85c-0.88,0.18-1.71,0.27-2.48,0.27h-14.23v-6.29h14.23
			c0.81-0.06,1.54-0.23,2.19-0.5c0.65-0.27,1.21-0.62,1.68-1.08c0.47-0.45,0.83-1,1.09-1.63c0.26-0.64,0.39-1.36,0.39-2.17v-2.86
			c-0.08-0.79-0.25-1.52-0.51-2.18c-0.26-0.66-0.61-1.23-1.05-1.69c-0.44-0.47-0.98-0.84-1.61-1.1c-0.63-0.27-1.36-0.4-2.18-0.4
			h-14.18c-0.84,0-1.48,0.22-1.91,0.65c-0.44,0.44-0.65,1.06-0.65,1.89v25.87h-6.29V27.81c0-1.61,0.29-2.98,0.88-4.11
			c0.59-1.13,1.32-2.04,2.2-2.73c0.88-0.69,1.83-1.2,2.87-1.51c1.03-0.31,1.98-0.47,2.86-0.47h14.23c1.42,0,2.69,0.18,3.82,0.54
			c1.13,0.36,2.13,0.85,2.99,1.45c0.86,0.6,1.6,1.3,2.2,2.09c0.61,0.79,1.1,1.62,1.5,2.48c0.4,0.86,0.68,1.73,0.86,2.61
			c0.18,0.88,0.27,1.71,0.27,2.48V33.5z"/>
	</g>
	<g>
		<path class="st4" d="M224.22,50.89h-27.18v-9.93c0-0.51,0.06-1.05,0.18-1.62c0.12-0.57,0.3-1.14,0.55-1.7
			c0.25-0.56,0.57-1.1,0.96-1.61c0.39-0.51,0.87-0.96,1.42-1.35c0.56-0.39,1.2-0.7,1.93-0.94c0.73-0.23,1.55-0.35,2.48-0.35h12.1
			c0.73,0,1.27-0.18,1.62-0.55c0.35-0.36,0.53-0.9,0.53-1.6v-2.37c0-0.73-0.18-1.28-0.54-1.65s-0.88-0.56-1.57-0.56h-17.23V21.3
			h17.23c0.91,0,1.73,0.12,2.46,0.35c0.73,0.23,1.37,0.55,1.93,0.94c0.56,0.39,1.04,0.84,1.43,1.35c0.4,0.51,0.73,1.04,0.98,1.6
			c0.25,0.56,0.44,1.12,0.56,1.69c0.12,0.57,0.18,1.1,0.18,1.6v2.41c0,1.39-0.25,2.56-0.75,3.52c-0.5,0.96-1.13,1.73-1.89,2.33
			c-0.76,0.6-1.57,1.03-2.45,1.3c-0.87,0.27-1.69,0.4-2.45,0.4h-12.14c-0.44,0-0.79,0.06-1.05,0.19c-0.26,0.12-0.46,0.29-0.61,0.5
			c-0.14,0.21-0.25,0.44-0.32,0.7c-0.07,0.26-0.12,0.52-0.17,0.78v4.56h21.82V50.89z"/>
	</g>
	<g>
		<path class="st5" d="M262.63,33.61c0,1.37-0.17,2.6-0.51,3.68c-0.34,1.08-0.8,2.03-1.38,2.86c-0.58,0.82-1.25,1.53-2,2.12
			c-0.76,0.59-1.55,1.06-2.37,1.43c-0.82,0.37-1.66,0.64-2.5,0.81c-0.84,0.17-1.63,0.25-2.37,0.25h-13.6v-6.01h13.6
			c0.77-0.06,1.47-0.22,2.09-0.47c0.62-0.25,1.16-0.6,1.61-1.03c0.45-0.43,0.79-0.95,1.04-1.56c0.25-0.61,0.37-1.3,0.37-2.07v-2.73
			c-0.08-0.76-0.24-1.45-0.49-2.08c-0.25-0.63-0.58-1.17-1.01-1.62c-0.42-0.45-0.94-0.8-1.54-1.05c-0.6-0.25-1.29-0.38-2.08-0.38
			h-13.55c-0.8,0-1.41,0.21-1.83,0.62c-0.42,0.42-0.62,1.02-0.62,1.8v24.72h-6.01V28.17c0-1.54,0.28-2.85,0.84-3.93
			c0.56-1.08,1.26-1.95,2.1-2.61c0.84-0.66,1.75-1.14,2.74-1.45c0.99-0.3,1.9-0.45,2.73-0.45h13.6c1.36,0,2.57,0.17,3.65,0.52
			c1.08,0.35,2.03,0.81,2.86,1.39c0.82,0.58,1.53,1.24,2.1,2c0.58,0.76,1.06,1.55,1.43,2.37c0.38,0.82,0.65,1.66,0.82,2.5
			c0.17,0.84,0.25,1.63,0.25,2.37V33.61z"/>
	</g>
</g>
<g id="Zpay" class="st0">
	<g class="st1">
		<path class="st6" d="M203.56,19.61c-6.04,0-10.52,2.4-13.35,6.53h-0.14l-0.45-5.68h-8.01c0.17,3.36,0.28,7.22,0.28,11.64v37.06
			h9.12V50.9h0.14c2.03,3.14,6.2,4.93,10.99,4.93c8.6,0,17.27-6.22,17.27-18.74C219.42,26.18,211.83,19.61,203.56,19.61z
			 M200.13,48.92c-4.53,0-8.03-3.17-8.92-6.79c-0.13-0.73-0.19-1.45-0.19-2.21v-4.05c0-0.68,0.15-1.41,0.32-2.09
			c1.07-4.35,4.91-7.14,9.06-7.14c6.33,0,9.74,5.08,9.74,10.95C210.13,44.6,206.24,48.92,200.13,48.92z"/>
		<path class="st6" d="M252.25,34.54c0-7.65-3.45-14.93-15.25-14.93c-5.84,0-10.59,1.51-13.5,3.26l1.82,5.83
			c2.51-1.58,6.54-2.8,10.23-2.8c6.9-0.03,7.63,4.16,7.63,5.98v0.46c-14.35-0.09-22.2,4.54-22.2,13.2c0,5,3.93,10.29,11.61,10.29
			c4.95,0,8.91-2.06,11.13-4.81h0.22l0.65,3.96h8.23c-0.39-2.08-0.57-5.18-0.57-8.47V34.54z M243.41,42.4
			c0,0.61-0.06,1.32-0.26,1.94c-0.9,2.48-3.64,5.05-7.65,5.05c-3.12,0-5.39-1.65-5.39-4.86c0-5.01,6.07-6.46,13.3-6.34V42.4z"/>
		<path class="st6" d="M281.07,20.46L275,38.74c-0.73,2.24-1.45,4.95-2.07,6.92h-0.22c-0.56-1.88-1.45-4.72-2.2-6.8l-6.99-18.4
			h-10.13l13.87,31.62c0.44,0.94,0.54,1.48,0.54,1.84c0,0.4-0.22,0.95-0.59,1.51c-1.4,2.64-3.62,4.75-5.39,5.72
			c-1.84,1.12-3.73,1.75-5.15,2l1.81,7.63c2.44-0.22,6.16-1.2,9.83-4.1c4.13-3.18,7.63-8.34,13.31-23.03L291,20.46H281.07z"/>
		<polygon class="st6" points="152.29,47.66 177.96,14.43 177.96,9.66 164.52,9.66 164.52,0.99 157.33,0.99 157.33,9.66 142.7,9.66 
			142.7,16.74 166.36,16.74 166.36,16.98 140.41,50.27 140.41,54.98 157.33,54.98 157.33,64.03 164.52,64.03 164.52,54.98 
			178.43,54.98 178.43,47.9 152.29,47.9 		"/>
	</g>
</g>
<g id="Layer_4" class="st0">
	<g class="st1">
		<g>
			<path class="st7" d="M115.95,34.32c-0.83-0.8-1.8-1.43-2.9-1.9c-1.1-0.47-2.28-0.7-3.53-0.7c-1.27,0-2.46,0.22-3.59,0.67
				c-1.12,0.45-2.1,1.07-2.94,1.87c-0.84,0.8-1.5,1.75-1.99,2.84c-0.49,1.09-0.73,2.28-0.73,3.57s0.24,2.48,0.73,3.57
				c0.49,1.09,1.15,2.04,1.99,2.84c0.84,0.8,1.82,1.43,2.94,1.89c1.12,0.46,2.32,0.69,3.59,0.69c1.66,0,3.18-0.37,4.55-1.1
				c1.38-0.73,2.48-1.71,3.32-2.94l-3.16-2.05c-0.45,0.74-1.11,1.32-1.98,1.74c-0.87,0.42-1.78,0.63-2.74,0.63
				c-1.05,0-2-0.3-2.84-0.91c-0.84-0.6-1.43-1.42-1.79-2.46h13.5c0.08-0.33,0.14-0.65,0.18-0.95c0.04-0.3,0.06-0.62,0.06-0.95
				c0-1.25-0.24-2.42-0.72-3.51C117.43,36.06,116.78,35.12,115.95,34.32z M104.9,38.97c0.35-1.03,0.95-1.85,1.79-2.46
				c0.84-0.6,1.79-0.91,2.84-0.91c1.07,0,2.03,0.3,2.87,0.91c0.84,0.61,1.43,1.42,1.79,2.46H104.9z"/>
			<path class="st7" d="M132.12,38.76c-1.06,0-1.91,0.84-1.91,1.9c-0.01,1.06,0.82,1.92,1.88,1.94c1.04,0.02,1.92-0.83,1.94-1.89
				C134.04,39.64,133.19,38.76,132.12,38.76z"/>
			<path class="st7" d="M117.72,1.67c-18.9,0-34.21,15.32-34.21,34.21S98.82,70.1,117.72,70.1s34.21-15.32,34.21-34.21
				S136.61,1.67,117.72,1.67z M131.12,22.38c-1.11-1.91-2.17-3.72-3.24-5.58C130.04,16.78,131.34,19,131.12,22.38z M121.5,15.13
				c1.08-0.65,1.79-0.46,2.42,0.62c1.21,2.08,2.43,4.16,3.64,6.24c0.08,0.14,0.16,0.28,0.25,0.45c-6.16,0-12.25,0-18.36,0
				c0.07-0.18,0.23-0.22,0.35-0.29C113.7,19.81,117.6,17.47,121.5,15.13z M136.85,53.84c-0.36,1.92-1.94,3.16-4.01,3.16
				c-6.06,0-12.12,0-18.17,0c-4.69,0-9.39,0-14.08,0c-2.83,0-5.08-1.76-5.77-4.49c-0.03-0.12,0.02-0.28-0.14-0.35
				c0-10.2,0-20.4,0-30.6c0.14-0.04,0.11-0.17,0.13-0.26c0.45-2.42,2.71-4.7,6-4.64c3.96,0.07,7.92,0.02,11.88,0.02
				c0.16,0,0.31,0,0.59,0c-0.16,0.11-0.2,0.14-0.25,0.17c-1.96,1.18-3.93,2.35-5.89,3.53c-0.2,0.12-0.39,0.12-0.6,0.12
				c-1.99,0-3.99-0.01-5.98,0c-1.14,0-1.97,0.76-2.02,1.8c-0.06,1.19,0.8,2.04,2.05,2.04c9.37,0,18.74,0,28.12,0
				c1.5,0,3-0.02,4.5,0.01c1.98,0.04,3.63,1.66,3.69,3.64c0.04,1.24,0.01,2.49,0.02,3.73c0,0.24-0.07,0.3-0.3,0.3
				c-0.73-0.01-1.47-0.01-2.2,0c-1.29,0.02-2.58-0.07-3.86,0.15c-4.58,0.77-7.84,5.47-6.93,10.02c0.85,4.26,4.29,7.09,8.63,7.11
				c1.42,0.01,2.85,0.01,4.27-0.01c0.32,0,0.41,0.09,0.4,0.4c-0.02,0.7,0,1.41-0.01,2.11C136.9,52.49,136.97,53.18,136.85,53.84z
				 M140.75,44.87c0,0.98-0.57,1.56-1.56,1.56c-2.35,0.01-4.71,0.02-7.06,0c-3.03-0.03-5.45-2.23-5.76-5.22
				c-0.3-2.89,1.72-5.57,4.65-6.19c0.41-0.09,0.83-0.11,1.25-0.11c2.26,0,4.53,0,6.79,0c1.13,0,1.69,0.56,1.69,1.68
				c0,1.36,0,2.73,0,4.09C140.75,42.08,140.76,43.47,140.75,44.87z"/>
		</g>
	</g>
	<g class="st1">
		<g>
			<path class="st8" d="M185.43,42.16c0,0.5-0.03,0.97-0.09,1.42c-0.06,0.45-0.15,0.93-0.26,1.42h-20.21
				c0.53,1.55,1.42,2.78,2.67,3.68c1.26,0.91,2.67,1.36,4.25,1.36c1.43,0,2.8-0.31,4.1-0.94c1.3-0.63,2.29-1.5,2.96-2.61l4.73,3.07
				c-1.26,1.84-2.91,3.31-4.97,4.4c-2.06,1.1-4.33,1.64-6.82,1.64c-1.9,0-3.69-0.34-5.37-1.03c-1.68-0.69-3.15-1.63-4.4-2.83
				c-1.26-1.2-2.25-2.61-2.98-4.25c-0.73-1.64-1.1-3.42-1.1-5.35s0.37-3.71,1.1-5.35c0.73-1.64,1.72-3.05,2.98-4.25
				c1.26-1.2,2.72-2.13,4.4-2.8c1.68-0.67,3.47-1.01,5.37-1.01c1.87,0,3.63,0.35,5.28,1.05c1.65,0.7,3.1,1.65,4.34,2.85
				c1.24,1.2,2.22,2.62,2.94,4.25C185.08,38.54,185.43,40.29,185.43,42.16z M178.77,39.62c-0.53-1.55-1.42-2.78-2.67-3.68
				c-1.26-0.91-2.69-1.36-4.3-1.36c-1.58,0-3,0.45-4.25,1.36c-1.26,0.91-2.15,2.13-2.67,3.68H178.77z"/>
			<path class="st8" d="M204.5,39.97v4.47h-14.24v-4.47H204.5z"/>
			<path class="st8" d="M214.54,29.5l5.13,15.47h0.09l5.04-15.47h6l5.13,15.47h0.09l5.08-15.47h6.31l-8.5,25.38h-5.92l-5.13-15.43
				h-0.09l-5.13,15.43h-5.96l-8.46-25.38H214.54z"/>
			<path class="st8" d="M272.61,54.88h-5.65v-2.72l-0.13-0.09c-0.91,1.08-2.02,1.94-3.35,2.59c-1.33,0.64-2.74,0.96-4.23,0.96
				c-1.93,0-3.59-0.23-4.98-0.7c-1.39-0.47-2.53-1.11-3.42-1.93c-0.89-0.82-1.54-1.77-1.95-2.87c-0.41-1.1-0.61-2.26-0.61-3.48
				c0-1.31,0.23-2.52,0.68-3.62c0.45-1.1,1.14-2.04,2.06-2.83c0.92-0.79,2.09-1.4,3.51-1.84c1.42-0.44,3.09-0.66,5.02-0.66
				c0.85,0,1.62,0.09,2.32,0.26c0.7,0.18,1.34,0.39,1.91,0.66c0.57,0.26,1.08,0.56,1.53,0.9c0.45,0.34,0.85,0.66,1.21,0.99
				l0.13-0.09v-2.89c0-0.44-0.15-0.85-0.44-1.23c-0.29-0.38-0.69-0.71-1.21-0.99c-0.51-0.28-1.1-0.5-1.78-0.66
				c-0.67-0.16-1.39-0.24-2.15-0.24c-1.84,0-3.5,0.18-4.97,0.53c-1.48,0.35-2.59,0.76-3.35,1.23l-2.63-4.65
				c1.37-0.85,3.02-1.53,4.93-2.04c1.91-0.51,3.92-0.77,6.03-0.77c1.55,0,3.02,0.22,4.4,0.66c1.39,0.44,2.61,1.05,3.66,1.82
				c1.05,0.77,1.89,1.7,2.52,2.78c0.63,1.08,0.94,2.26,0.94,3.55V54.88z M266.65,46.64c0-0.93-0.53-1.75-1.6-2.45
				c-1.07-0.7-2.52-1.05-4.36-1.05c-1.2,0-2.18,0.09-2.96,0.26c-0.77,0.18-1.39,0.42-1.84,0.72c-0.45,0.31-0.77,0.67-0.94,1.1
				c-0.18,0.42-0.26,0.9-0.26,1.42c0,0.53,0.09,1.02,0.26,1.47c0.18,0.45,0.49,0.84,0.94,1.16c0.45,0.32,1.07,0.57,1.84,0.74
				c0.77,0.18,1.76,0.26,2.96,0.26c1.84,0,3.29-0.36,4.36-1.1C266.12,48.45,266.65,47.6,266.65,46.64z"/>
			<path class="st8" d="M277.87,22h6.14v32.87h-6.14V22z"/>
			<path class="st8" d="M289.27,22h6.14v32.87h-6.14V22z"/>
			<path class="st8" d="M327.27,42.16c0,0.5-0.03,0.97-0.09,1.42c-0.06,0.45-0.15,0.93-0.26,1.42h-20.21
				c0.53,1.55,1.42,2.78,2.67,3.68c1.26,0.91,2.67,1.36,4.25,1.36c1.43,0,2.8-0.31,4.1-0.94c1.3-0.63,2.29-1.5,2.96-2.61l4.73,3.07
				c-1.26,1.84-2.91,3.31-4.97,4.4c-2.06,1.1-4.33,1.64-6.82,1.64c-1.9,0-3.69-0.34-5.37-1.03c-1.68-0.69-3.15-1.63-4.4-2.83
				c-1.26-1.2-2.25-2.61-2.98-4.25c-0.73-1.64-1.1-3.42-1.1-5.35s0.37-3.71,1.1-5.35c0.73-1.64,1.72-3.05,2.98-4.25
				c1.26-1.2,2.72-2.13,4.4-2.8c1.68-0.67,3.47-1.01,5.37-1.01c1.87,0,3.63,0.35,5.28,1.05c1.65,0.7,3.1,1.65,4.34,2.85
				c1.24,1.2,2.22,2.62,2.94,4.25C326.91,38.54,327.27,40.29,327.27,42.16z M320.6,39.62c-0.53-1.55-1.42-2.78-2.67-3.68
				c-1.26-0.91-2.69-1.36-4.3-1.36c-1.58,0-3,0.45-4.25,1.36c-1.26,0.91-2.15,2.13-2.67,3.68H320.6z"/>
			<path class="st8" d="M343,54.88h-2.98c-1.05,0-2.04-0.2-2.96-0.59c-0.92-0.39-1.72-0.93-2.41-1.6c-0.69-0.67-1.24-1.46-1.64-2.37
				c-0.41-0.91-0.61-1.88-0.61-2.94V34.93h-2.28V29.5h2.28v-5.74h6.14v5.74h3.73v5.43h-3.73v12.45c0,0.44,0.15,0.8,0.44,1.1
				c0.29,0.29,0.64,0.44,1.05,0.44H343V54.88z"/>
		</g>
	</g>
</g>
<g id="Layer_5" class="st0">
	<g class="st1">
		<g>
			<path class="st9" d="M128.63,19.96c0,1.02-0.28,1.9-0.84,2.64c-0.56,0.74-1.2,1.31-1.91,1.72c-1.33-0.87-2.8-1.66-4.43-2.37
				c-1.63-0.71-3.64-1.07-6.04-1.07c-4.33,0-7.78,1.4-10.36,4.2c-2.57,2.8-3.86,6.85-3.86,12.15c0,5.4,1.32,9.45,3.97,12.15
				c2.65,2.7,6.22,4.05,10.7,4.05c2.34,0,4.37-0.32,6.08-0.96c1.71-0.64,3.22-1.39,4.55-2.25c0.71,0.46,1.3,1.08,1.76,1.87
				c0.46,0.79,0.69,1.69,0.69,2.71c0,0.87-0.23,1.66-0.69,2.37c-0.46,0.71-1.22,1.35-2.29,1.91c-1.02,0.61-2.46,1.18-4.32,1.72
				c-1.86,0.54-4.17,0.8-6.92,0.8c-3.36,0-6.49-0.5-9.36-1.49c-2.88-0.99-5.39-2.5-7.53-4.51c-2.14-2.01-3.82-4.55-5.04-7.61
				c-1.22-3.06-1.83-6.65-1.83-10.78c0-3.97,0.61-7.48,1.83-10.51c1.22-3.03,2.89-5.58,5.01-7.64c2.11-2.06,4.59-3.63,7.41-4.7
				c2.83-1.07,5.82-1.61,8.98-1.61c2.19,0,4.18,0.19,5.96,0.57c1.78,0.38,3.31,0.91,4.59,1.57c1.27,0.66,2.24,1.43,2.9,2.29
				C128.3,18.08,128.63,18.99,128.63,19.96z"/>
			<path class="st9" d="M150.64,23.09c4.99,0,8.98,1.07,11.96,3.21c2.98,2.14,4.47,5.45,4.47,9.94V53.9c0,1.22-0.31,2.19-0.92,2.9
				c-0.61,0.71-1.38,1.35-2.29,1.91c-1.43,0.87-3.24,1.55-5.43,2.06c-2.19,0.51-4.69,0.76-7.49,0.76c-5.1,0-9.11-0.98-12.04-2.94
				c-2.93-1.96-4.4-4.9-4.4-8.83c0-3.41,1.08-6.03,3.25-7.83c2.17-1.81,5.31-2.92,9.44-3.33l10.47-1.07v-1.38
				c0-1.94-0.7-3.36-2.1-4.28c-1.4-0.92-3.38-1.38-5.92-1.38c-1.99,0-3.92,0.24-5.81,0.73c-1.89,0.48-3.57,1.08-5.04,1.8
				c-0.56-0.41-1.03-0.96-1.41-1.64c-0.38-0.69-0.57-1.44-0.57-2.25c0-1.02,0.24-1.85,0.73-2.48c0.48-0.64,1.26-1.21,2.33-1.72
				c1.48-0.61,3.16-1.07,5.04-1.38C146.79,23.25,148.71,23.09,150.64,23.09z M150.95,54.2c1.48,0,2.83-0.14,4.05-0.42
				c1.22-0.28,2.11-0.62,2.68-1.03v-8.48l-7.41,0.69c-2.04,0.2-3.59,0.65-4.66,1.34c-1.07,0.69-1.61,1.77-1.61,3.25
				c0,1.48,0.55,2.63,1.64,3.44C146.73,53.8,148.5,54.2,150.95,54.2z"/>
			<path class="st9" d="M204.76,50.15c0,3.57-1.33,6.36-3.97,8.37c-2.65,2.01-6.52,3.02-11.62,3.02c-2.09,0-3.99-0.15-5.69-0.46
				c-1.71-0.31-3.19-0.75-4.43-1.34c-1.25-0.58-2.22-1.3-2.9-2.14c-0.69-0.84-1.03-1.77-1.03-2.79c0-0.97,0.22-1.81,0.65-2.52
				c0.43-0.71,1.01-1.3,1.72-1.76c1.43,0.92,3.07,1.73,4.93,2.45c1.86,0.71,4.01,1.07,6.46,1.07c2.09,0,3.67-0.34,4.74-1.03
				c1.07-0.69,1.61-1.64,1.61-2.87c0-2.09-1.53-3.46-4.59-4.13l-4.28-0.99c-3.77-0.87-6.56-2.17-8.37-3.9
				c-1.81-1.73-2.71-4.05-2.71-6.96c0-3.31,1.32-6,3.97-8.06c2.65-2.06,6.37-3.1,11.16-3.1c1.83,0,3.53,0.14,5.08,0.42
				c1.55,0.28,2.9,0.69,4.05,1.22c1.15,0.53,2.04,1.17,2.68,1.91c0.64,0.74,0.96,1.59,0.96,2.56c0,0.92-0.2,1.72-0.61,2.41
				c-0.41,0.69-0.89,1.24-1.45,1.64c-0.46-0.31-1.06-0.61-1.8-0.92c-0.74-0.31-1.56-0.59-2.45-0.84c-0.89-0.25-1.83-0.47-2.83-0.65
				c-0.99-0.18-1.98-0.27-2.94-0.27c-1.99,0-3.54,0.32-4.66,0.96c-1.12,0.64-1.68,1.54-1.68,2.71c0,0.87,0.32,1.58,0.96,2.14
				c0.64,0.56,1.74,1.02,3.32,1.38l3.75,0.92c4.23,0.97,7.29,2.38,9.17,4.24C203.81,44.71,204.76,47.15,204.76,50.15z"/>
			<path class="st9" d="M220.5,60.7c-0.76,0.15-1.63,0.23-2.6,0.23c-1.78,0-3.11-0.33-3.97-0.99c-0.87-0.66-1.3-1.84-1.3-3.52V10.71
				c0.41-0.15,1.01-0.29,1.8-0.42c0.79-0.13,1.67-0.19,2.64-0.19c1.78,0,3.11,0.33,3.97,0.99c0.87,0.66,1.3,1.83,1.3,3.52v10.55
				c1.12-0.56,2.41-1.04,3.86-1.45c1.45-0.41,3.07-0.61,4.85-0.61c4.64,0,8.33,1.2,11.08,3.59c2.75,2.4,4.13,6.01,4.13,10.85v22.78
				c-0.41,0.1-1.01,0.23-1.8,0.38c-0.79,0.15-1.64,0.23-2.56,0.23c-1.84,0-3.19-0.33-4.05-0.99c-0.87-0.66-1.3-1.84-1.3-3.52V38
				c0-2.55-0.66-4.4-1.99-5.54c-1.33-1.15-3.06-1.72-5.2-1.72c-1.38,0-2.65,0.22-3.82,0.65c-1.17,0.43-2.24,0.96-3.21,1.57v27.36
				C221.88,60.42,221.27,60.55,220.5,60.7z"/>
			<path class="st9" d="M292.2,19.96c0,1.02-0.28,1.9-0.84,2.64c-0.56,0.74-1.2,1.31-1.91,1.72c-1.33-0.87-2.8-1.66-4.43-2.37
				c-1.63-0.71-3.64-1.07-6.04-1.07c-4.33,0-7.78,1.4-10.36,4.2c-2.57,2.8-3.86,6.85-3.86,12.15c0,5.4,1.32,9.45,3.97,12.15
				c2.65,2.7,6.22,4.05,10.7,4.05c2.34,0,4.37-0.32,6.08-0.96c1.71-0.64,3.22-1.39,4.55-2.25c0.71,0.46,1.3,1.08,1.76,1.87
				c0.46,0.79,0.69,1.69,0.69,2.71c0,0.87-0.23,1.66-0.69,2.37c-0.46,0.71-1.22,1.35-2.29,1.91c-1.02,0.61-2.46,1.18-4.32,1.72
				c-1.86,0.54-4.17,0.8-6.92,0.8c-3.36,0-6.48-0.5-9.36-1.49c-2.88-0.99-5.39-2.5-7.53-4.51c-2.14-2.01-3.82-4.55-5.04-7.61
				c-1.22-3.06-1.83-6.65-1.83-10.78c0-3.97,0.61-7.48,1.83-10.51c1.22-3.03,2.89-5.58,5.01-7.64c2.11-2.06,4.59-3.63,7.41-4.7
				c2.83-1.07,5.82-1.61,8.98-1.61c2.19,0,4.18,0.19,5.96,0.57c1.78,0.38,3.31,0.91,4.59,1.57c1.27,0.66,2.24,1.43,2.9,2.29
				C291.86,18.08,292.2,18.99,292.2,19.96z"/>
			<path class="st9" d="M334.46,42.28c0,2.96-0.45,5.62-1.34,7.99c-0.89,2.37-2.15,4.39-3.78,6.08c-1.63,1.68-3.59,2.97-5.89,3.86
				c-2.29,0.89-4.87,1.34-7.72,1.34s-5.43-0.45-7.72-1.34c-2.29-0.89-4.26-2.17-5.89-3.82c-1.63-1.66-2.89-3.67-3.78-6.04
				c-0.89-2.37-1.34-5.06-1.34-8.06c0-2.95,0.45-5.62,1.34-7.99c0.89-2.37,2.17-4.38,3.82-6.04c1.66-1.66,3.63-2.93,5.92-3.82
				c2.29-0.89,4.84-1.34,7.64-1.34c2.8,0,5.35,0.45,7.64,1.34c2.29,0.89,4.27,2.18,5.92,3.86c1.65,1.68,2.93,3.71,3.82,6.08
				C334.02,36.74,334.46,39.38,334.46,42.28z M315.74,30.74c-2.75,0-4.92,1.01-6.5,3.02c-1.58,2.01-2.37,4.85-2.37,8.52
				c0,3.72,0.78,6.57,2.33,8.56c1.55,1.99,3.73,2.98,6.53,2.98c2.8,0,4.98-1.01,6.54-3.02c1.55-2.01,2.33-4.85,2.33-8.52
				c0-3.67-0.79-6.51-2.37-8.52C320.66,31.74,318.49,30.74,315.74,30.74z"/>
			<path class="st9" d="M375.89,53.36c0,1.17-0.26,2.11-0.76,2.83c-0.51,0.71-1.27,1.4-2.29,2.06c-1.27,0.82-2.96,1.57-5.04,2.26
				c-2.09,0.69-4.51,1.03-7.26,1.03c-6.12,0-10.97-1.57-14.56-4.7s-5.39-7.94-5.39-14.41c0-3.36,0.48-6.25,1.45-8.68
				c0.97-2.42,2.28-4.42,3.94-6c1.66-1.58,3.6-2.75,5.85-3.52c2.24-0.76,4.66-1.15,7.26-1.15c1.38,0,2.68,0.14,3.9,0.42
				c1.22,0.28,2.32,0.62,3.29,1.03V10.71c0.41-0.15,1.01-0.29,1.8-0.42c0.79-0.13,1.64-0.19,2.56-0.19c1.83,0,3.17,0.33,4.01,0.99
				c0.84,0.66,1.26,1.83,1.26,3.52V53.36z M366.26,32.34c-0.76-0.46-1.66-0.84-2.68-1.15c-1.02-0.31-2.12-0.46-3.29-0.46
				c-2.85,0-5.22,0.92-7.11,2.75c-1.89,1.83-2.83,4.84-2.83,9.02c0,3.92,0.9,6.79,2.71,8.6c1.81,1.81,4.27,2.71,7.38,2.71
				c1.32,0,2.46-0.15,3.4-0.46c0.94-0.31,1.74-0.66,2.41-1.07V32.34z"/>
			<path class="st9" d="M393.55,46.64c0.71,2.6,2.04,4.48,3.97,5.66c1.94,1.17,4.33,1.76,7.18,1.76c2.14,0,4.11-0.32,5.92-0.96
				c1.81-0.64,3.27-1.31,4.4-2.03c0.71,0.41,1.3,0.97,1.76,1.68c0.46,0.71,0.69,1.48,0.69,2.29c0,1.02-0.34,1.92-1.03,2.71
				c-0.69,0.79-1.63,1.47-2.83,2.03c-1.2,0.56-2.61,0.99-4.24,1.3c-1.63,0.31-3.39,0.46-5.27,0.46c-3.01,0-5.75-0.41-8.22-1.22
				c-2.47-0.81-4.59-2.05-6.34-3.71c-1.76-1.65-3.13-3.71-4.13-6.15c-0.99-2.45-1.49-5.3-1.49-8.56c0-3.16,0.48-5.91,1.45-8.25
				c0.97-2.34,2.28-4.31,3.94-5.89c1.66-1.58,3.58-2.75,5.77-3.52c2.19-0.76,4.51-1.15,6.96-1.15c2.5,0,4.79,0.4,6.88,1.18
				c2.09,0.79,3.87,1.89,5.35,3.29c1.48,1.4,2.64,3.08,3.48,5.04c0.84,1.96,1.26,4.09,1.26,6.38c0,1.43-0.37,2.5-1.11,3.21
				c-0.74,0.71-1.77,1.17-3.1,1.38L393.55,46.64z M402.03,30.36c-2.5,0-4.59,0.83-6.27,2.48c-1.68,1.66-2.62,4.01-2.83,7.07
				l16.97-2.52c-0.2-1.89-0.94-3.53-2.22-4.93C406.41,31.06,404.53,30.36,402.03,30.36z"/>
		</g>
	</g>
	<g class="st1">
		<g>
			<path class="st10" d="M45.07,2.61c-0.86,0.18-8.16,1.82-11.83,5.22c-1.98,1.83-3.62,3.93-4.76,6.4c-1.16,2.5-1.71,5.14-1.83,7.88
				c-0.08,1.73-0.04,3.46-0.17,5.18c-0.19,2.39-0.39,4.8-0.76,7.17c-0.47,2.94-1.64,5.66-3.17,8.21c-0.57,0.96-1.19,1.89-1.81,2.87
				c17.88,0,35.68,0,53.47,0c0-0.09,0.01-0.12,0-0.13c-0.15-0.23-0.3-0.45-0.46-0.67c-1.89-2.76-3.38-5.71-4.19-8.98
				c-1.11-4.46-1.2-9.01-1.22-13.57c-0.01-1.14-0.11-2.29-0.35-3.4c-0.7-3.27-2.02-6.24-4.21-8.84c-2.18-2.58-4.81-4.51-7.94-5.71
				c-1.82-0.7-4.71-1.76-6.17-1.79C48.82,2.42,46.09,2.35,45.07,2.61z"/>
			<path class="st10" d="M45.68,69.46c-0.87-0.29-1.76-0.55-2.62-0.87c-1.99-0.74-3.53-2.08-4.77-3.77
				c-0.43-0.58-0.75-1.24-1.18-1.97c6.97,0,13.79,0,20.7,0c-0.99,2.15-2.37,3.88-4.39,4.96c-1.3,0.69-2.74,1.11-4.11,1.65
				C48.1,69.46,46.89,69.46,45.68,69.46z"/>
			<path class="st10" d="M80.4,58.25c-21.96,0-43.86,0-65.82,0c-0.11-1.78,0.15-3.47,0.88-5.06c0.37-0.8,0.89-1.54,1.28-2.33
				c0.24-0.49,0.57-0.6,1.07-0.6c7.55,0.01,15.1,0.01,22.65,0.01c12.18,0,24.37,0.01,36.55-0.02c0.63,0,0.99,0.19,1.33,0.71
				C79.75,53.18,80.57,55.53,80.4,58.25z"/>
		</g>
	</g>
</g>
<g id="Layer_6" class="st0">
	<g class="st1">
		<g>
			<g>
				<path class="st11" d="M20.88,12.52L20.88,12.52c1.62,0,3.18,0.65,4.32,1.79l17.22,17.92c0.48,0.53,1.32,0.53,1.81,0l16.25-16.91
					C54.41,7.67,45.05,2.77,34.53,2.77c-18.29,0-33.12,14.83-33.12,33.12C1.41,54.17,16.24,69,34.53,69c8.6,0,16.42-3.28,22.31-8.64
					V37.4c0-0.54-0.66-0.82-1.04-0.43L45.16,49.19c-0.97,1.12-2.71,1.12-3.68,0L30.85,36.97c-0.38-0.39-1.04-0.11-1.04,0.43v23.69
					c-6.63,0-12.01-4.42-12.01-11.05V15.6C17.79,13.9,19.17,12.52,20.88,12.52z"/>
				<path class="st11" d="M73.63,43.91H65.8c-1.03,0-1.87,0.84-1.87,1.87v7.83c0,1.03,0.84,1.87,1.87,1.87h7.83
					c1.03,0,1.87-0.84,1.87-1.87v-7.83C75.5,44.74,74.66,43.91,73.63,43.91z"/>
				<path class="st11" d="M67.69,34.38h5.39c0.94,0,1.69-0.76,1.69-1.69V27.3c0-0.94-0.76-1.69-1.69-1.69h-5.39
					c-0.94,0-1.69,0.76-1.69,1.69v5.39C66,33.62,66.75,34.38,67.69,34.38z"/>
				<path class="st11" d="M81.13,35.38h-4.44c-0.66,0-1.19,0.53-1.19,1.19v4.44c0,0.66,0.53,1.19,1.19,1.19h4.44
					c0.66,0,1.19-0.53,1.19-1.19v-4.44C82.33,35.92,81.79,35.38,81.13,35.38z"/>
				<path class="st11" d="M75.64,23.85h3.17c0.51,0,0.92-0.41,0.92-0.92v-3.17c0-0.51-0.41-0.92-0.92-0.92h-3.17
					c-0.51,0-0.92,0.41-0.92,0.92v3.17C74.71,23.44,75.13,23.85,75.64,23.85z"/>
			</g>
		</g>
	</g>
	<g class="st1">
		<path class="st11" d="M94.02,55.47V11.59h11.64l9.65,20.69c0.45,1.13,0.89,2.27,1.33,3.41s0.86,2.29,1.27,3.44
			c0.41-1.19,0.84-2.37,1.3-3.54c0.46-1.17,0.93-2.27,1.42-3.31l9.63-20.69h11.41v43.89h-8.95c0-5.34,0.05-10.56,0.15-15.65
			c0.1-5.09,0.3-10.19,0.61-15.3c-0.51,1.35-1.04,2.68-1.59,4.01c-0.56,1.33-1.14,2.63-1.74,3.92l-7.4,15.86h-9.83l-7.37-15.8
			c-0.6-1.48-1.19-2.94-1.76-4.37c-0.57-1.43-1.12-2.87-1.67-4.32c0.21,3.39,0.38,6.68,0.51,9.85c0.13,3.17,0.21,6.5,0.26,9.99
			c0.05,3.49,0.07,7.43,0.07,11.82H94.02z"/>
		<path class="st11" d="M148.45,33.53c0-3.3,0.57-6.33,1.7-9.11c1.13-2.78,2.72-5.19,4.77-7.24c2.05-2.05,4.46-3.64,7.24-4.77
			s5.82-1.7,9.11-1.7c3.3,0,6.33,0.57,9.11,1.7c2.78,1.13,5.19,2.72,7.24,4.77c2.05,2.05,3.64,4.46,4.77,7.24
			c1.13,2.78,1.7,5.82,1.7,9.11c0,3.3-0.57,6.33-1.7,9.11c-1.13,2.78-2.72,5.19-4.77,7.24c-2.05,2.05-4.46,3.64-7.24,4.77
			c-2.78,1.13-5.82,1.7-9.11,1.7c-3.3,0-6.33-0.57-9.11-1.7c-2.78-1.13-5.19-2.72-7.24-4.77c-2.05-2.05-3.64-4.46-4.77-7.24
			C149.01,39.86,148.45,36.83,148.45,33.53z M157.52,33.53c0,2.87,0.59,5.42,1.78,7.67c1.19,2.24,2.82,4.01,4.89,5.31
			c2.07,1.3,4.43,1.95,7.08,1.95c2.65,0,5.01-0.65,7.08-1.95c2.07-1.3,3.7-3.07,4.89-5.31c1.19-2.24,1.78-4.8,1.78-7.67
			s-0.6-5.43-1.78-7.68c-1.19-2.25-2.82-4.02-4.89-5.31c-2.07-1.29-4.43-1.93-7.08-1.93c-2.65,0-5.01,0.64-7.08,1.93
			c-2.07,1.29-3.7,3.06-4.89,5.31C158.11,28.1,157.52,30.66,157.52,33.53z"/>
		<path class="st11" d="M200.85,11.59h8.89l22.53,29.49V11.59h8.95v43.89h-9.04l-22.56-29.55v29.55h-8.78V11.59z"/>
		<path class="st11" d="M250.33,11.59h26.16v7.9h-18.08v9.48h16.91v7.9h-16.91v10.71h18.96v7.9h-27.03V11.59z"/>
		<path class="st11" d="M281.5,11.59h9.68l11.18,18.32l10.65-18.32h9.8l-15.8,26.71v17.17h-8.95V38.3L281.5,11.59z"/>
		<path class="st12" d="M328.7,11.59h15.07c4.9,0,8.63,1.2,11.21,3.61c2.57,2.41,3.86,5.59,3.86,9.55c0,3.94-1.29,7.12-3.86,9.54
			c-2.57,2.42-6.31,3.63-11.21,3.63h-9.95v17.55h-5.12V11.59z M333.82,16.27v16.97h9.95c3.2,0,5.63-0.78,7.3-2.34
			c1.67-1.56,2.5-3.61,2.5-6.14c0-2.56-0.83-4.61-2.5-6.16c-1.67-1.55-4.1-2.33-7.3-2.33H333.82z"/>
		<path class="st12" d="M359.16,55.47l17.14-43.89h5.65l17.14,43.89h-5.5l-4.48-11.44h-20.13l-4.48,11.44H359.16z M375.31,27.83
			l-4.51,11.53h16.5l-4.51-11.53c-0.8-2.05-1.49-3.88-2.06-5.5c-0.58-1.62-1.14-3.26-1.68-4.92c-0.53,1.66-1.08,3.3-1.67,4.92
			C376.8,23.94,376.11,25.78,375.31,27.83z"/>
		<path class="st12" d="M396.5,11.59h6.03l13.34,20.22l13.49-20.22H435l-16.76,25.13v18.75h-5.12V36.72L396.5,11.59z"/>
	</g>
</g>
<g id="Layer_7" class="st0">
	<circle class="st13" cx="92.96" cy="35.88" r="34.55"/>
	<g class="st1">
		<path class="st5" d="M83.47,56.07c0.36-1.63,0.71-3.26,1.1-4.89c0.09-0.39-0.01-0.48-0.37-0.56c-2.92-0.65-5.84-1.32-8.76-1.97
			c-0.34-0.07-0.44-0.17-0.35-0.53c0.3-1.22,0.58-2.44,0.83-3.66c0.08-0.37,0.21-0.41,0.55-0.33c0.72,0.18,1.45,0.38,2.2,0.4
			c0.71,0.02,1.22-0.33,1.43-1c0.16-0.52,0.31-1.05,0.44-1.58c1.33-5.84,2.65-11.68,3.97-17.52c0.11-0.5,0.2-1.02,0.28-1.53
			c0.12-0.79-0.18-1.34-0.92-1.65c-0.69-0.29-1.43-0.43-2.16-0.58c-0.29-0.06-0.36-0.16-0.29-0.46c0.3-1.23,0.58-2.47,0.84-3.71
			c0.07-0.35,0.18-0.43,0.54-0.34c2.93,0.68,5.87,1.33,8.8,2.01c0.35,0.08,0.46,0.01,0.53-0.34c0.32-1.51,0.68-3,1.01-4.51
			c0.06-0.29,0.13-0.4,0.47-0.32c1.27,0.31,2.55,0.6,3.83,0.87c0.28,0.06,0.33,0.15,0.27,0.43c-0.36,1.53-0.69,3.06-1.06,4.59
			c-0.08,0.34,0.01,0.44,0.33,0.5c0.69,0.13,1.38,0.29,2.06,0.47c0.34,0.09,0.46,0.04,0.54-0.33c0.32-1.52,0.69-3.03,1.01-4.55
			c0.06-0.3,0.16-0.36,0.46-0.29c1.27,0.31,2.55,0.6,3.83,0.87c0.32,0.07,0.33,0.19,0.27,0.46c-0.37,1.58-0.72,3.17-1.09,4.76
			c-0.07,0.28-0.05,0.42,0.27,0.53c1.98,0.71,3.73,1.77,5.03,3.47c2.62,3.44,1.69,8.36-2,10.64c-1.12,0.69-2.34,1.08-3.63,1.3
			c-0.22,0.04-0.45,0.07-0.74,0.11c0.24,0.24,0.51,0.32,0.75,0.45c1.38,0.77,2.66,1.66,3.55,3c1.06,1.6,1.44,3.35,1.24,5.25
			c-0.43,4.02-3.78,7.08-8.16,7.63c-1.1,0.14-2.21,0.13-3.31,0.03c-0.28-0.03-0.37,0.05-0.43,0.31c-0.39,1.76-0.8,3.51-1.2,5.26
			c-1.52-0.34-3.03-0.69-4.55-1.03c0.39-1.69,0.78-3.39,1.18-5.08c0.04-0.18,0-0.25-0.18-0.29c-0.82-0.18-1.63-0.36-2.44-0.55
			c-0.19-0.04-0.25,0-0.29,0.19c-0.37,1.7-0.75,3.4-1.13,5.09C86.5,56.76,84.99,56.41,83.47,56.07z M89.17,41.12
			c-0.22,1.1-0.61,2.43-0.8,3.8c-0.13,0.92,0.03,1.17,0.92,1.38c1.63,0.4,3.26,0.83,4.94,1.04c0.84,0.11,1.69,0.17,2.52-0.07
			c1.85-0.53,2.99-1.77,3.42-3.63c0.37-1.6,0.03-3.03-1.25-4.14c-0.76-0.66-1.68-1.04-2.63-1.34c-1.88-0.6-3.83-0.92-5.74-1.4
			c-0.34-0.08-0.4,0.02-0.47,0.32C89.81,38.35,89.51,39.61,89.17,41.12z M92.15,27.99c-0.27,1.19-0.54,2.39-0.82,3.58
			c-0.06,0.25-0.05,0.38,0.25,0.44c1.55,0.32,3.09,0.69,4.64,1c1.1,0.22,2.22,0.33,3.34,0.11c2.76-0.52,4.06-3.89,2.33-6.05
			c-0.63-0.79-1.52-1.16-2.44-1.47c-2-0.66-4.07-1.03-6.11-1.53c-0.25-0.06-0.32,0.03-0.37,0.25
			C92.71,25.54,92.43,26.77,92.15,27.99z"/>
	</g>
	<g class="st1">
		<g>
			<path class="st14" d="M154.82,24.18c2.44,0,4.74,0.41,6.91,1.23c2.17,0.82,4.04,2.03,5.64,3.62c1.59,1.59,2.85,3.58,3.77,5.97
				c0.92,2.39,1.38,5.15,1.38,8.29c0,3.14-0.49,5.91-1.46,8.32c-0.97,2.42-2.33,4.44-4.07,6.08c-1.74,1.64-3.87,2.9-6.38,3.77
				c-2.51,0.87-5.29,1.31-8.32,1.31c-3.29,0-6.07-0.39-8.36-1.16c-2.29-0.77-4.23-1.73-5.82-2.87c-2.19-1.54-3.29-3.53-3.29-5.97
				V12.9c0.55-0.15,1.33-0.3,2.35-0.45c1.02-0.15,2.13-0.22,3.32-0.22c2.49,0,4.28,0.41,5.38,1.23c1.09,0.82,1.64,2.4,1.64,4.74
				v7.39c1-0.4,2.1-0.73,3.32-1.01C152.04,24.32,153.37,24.18,154.82,24.18z M152.43,34.11c-1,0-1.9,0.12-2.73,0.37
				c-0.82,0.25-1.58,0.57-2.28,0.97v16.2c0.55,0.3,1.21,0.56,1.98,0.78c0.77,0.22,1.68,0.34,2.73,0.34c2.24,0,4.03-0.8,5.38-2.39
				c1.34-1.59,2.02-3.96,2.02-7.09c0-3.19-0.64-5.51-1.9-6.98C156.35,34.84,154.62,34.11,152.43,34.11z"/>
			<path class="st14" d="M178.41,15.22c0-1.89,0.63-3.48,1.9-4.78c1.27-1.29,2.95-1.94,5.04-1.94c2.09,0,3.77,0.65,5.04,1.94
				c1.27,1.3,1.9,2.89,1.9,4.78s-0.63,3.48-1.9,4.78c-1.27,1.29-2.95,1.94-5.04,1.94c-2.09,0-3.77-0.65-5.04-1.94
				C179.04,18.7,178.41,17.11,178.41,15.22z M179.01,25.82c0.55-0.15,1.33-0.3,2.35-0.45c1.02-0.15,2.13-0.22,3.32-0.22
				c2.49,0,4.28,0.41,5.38,1.23c1.09,0.82,1.64,2.4,1.64,4.74v30.39c-0.55,0.15-1.33,0.3-2.35,0.45c-1.02,0.15-2.13,0.22-3.32,0.22
				c-2.49,0-4.28-0.41-5.38-1.23c-1.1-0.82-1.64-2.4-1.64-4.74V25.82z"/>
			<path class="st14" d="M213.58,62.71c-4.38,0-7.75-1-10.12-2.99s-3.55-5.23-3.55-9.71V16.86c0.55-0.15,1.33-0.31,2.35-0.49
				c1.02-0.17,2.1-0.26,3.25-0.26c2.44,0,4.2,0.42,5.3,1.27c1.09,0.85,1.64,2.42,1.64,4.7v4.03h9.78c0.3,0.55,0.58,1.23,0.86,2.05
				c0.27,0.82,0.41,1.73,0.41,2.72c0,1.74-0.39,3-1.16,3.77c-0.77,0.77-1.8,1.16-3.1,1.16h-6.8v13.29c0,1.29,0.41,2.22,1.23,2.76
				c0.82,0.55,1.98,0.82,3.47,0.82c0.75,0,1.52-0.06,2.31-0.19c0.8-0.12,1.49-0.29,2.09-0.48c0.45,0.55,0.83,1.16,1.16,1.83
				c0.32,0.67,0.49,1.48,0.49,2.43c0,1.89-0.71,3.43-2.13,4.63C219.66,62.11,217.16,62.71,213.58,62.71z"/>
			<path class="st14" d="M249.57,34.18c-1.25,0-2.43,0.2-3.55,0.6c-1.12,0.4-2.09,1-2.91,1.79c-0.82,0.8-1.48,1.78-1.98,2.95
				c-0.5,1.17-0.75,2.53-0.75,4.07c0,3.09,0.87,5.38,2.61,6.87c1.74,1.49,3.91,2.24,6.5,2.24c1.49,0,2.81-0.19,3.96-0.56
				c1.14-0.37,2.14-0.76,2.99-1.16c0.94,0.7,1.65,1.44,2.13,2.24c0.47,0.8,0.71,1.77,0.71,2.91c0,1.99-0.98,3.58-2.95,4.78
				c-1.97,1.19-4.77,1.79-8.4,1.79c-3.14,0-5.96-0.41-8.48-1.23c-2.51-0.82-4.65-2.04-6.42-3.66c-1.77-1.62-3.12-3.61-4.07-5.97
				c-0.94-2.36-1.42-5.11-1.42-8.25c0-3.28,0.53-6.15,1.61-8.59c1.07-2.44,2.53-4.45,4.37-6.05c1.84-1.59,3.97-2.79,6.38-3.58
				c2.41-0.8,4.97-1.19,7.65-1.19c3.58,0,6.35,0.65,8.29,1.94c1.94,1.3,2.91,2.96,2.91,5c0,0.95-0.22,1.83-0.67,2.65
				c-0.45,0.82-0.97,1.53-1.57,2.13c-0.85-0.4-1.87-0.78-3.06-1.16S250.96,34.18,249.57,34.18z"/>
			<path class="st14" d="M302.06,43.44c0,2.99-0.46,5.68-1.38,8.06c-0.92,2.39-2.24,4.42-3.96,6.08c-1.72,1.67-3.77,2.95-6.16,3.85
				c-2.39,0.9-5.08,1.34-8.06,1.34c-2.99,0-5.68-0.44-8.06-1.31c-2.39-0.87-4.44-2.14-6.16-3.81c-1.72-1.67-3.04-3.7-3.96-6.08
				c-0.92-2.39-1.38-5.1-1.38-8.14c0-2.94,0.47-5.6,1.42-7.99c0.95-2.39,2.28-4.42,3.99-6.08c1.72-1.67,3.77-2.95,6.16-3.85
				c2.39-0.9,5.05-1.34,7.99-1.34c2.94,0,5.6,0.46,7.99,1.38c2.39,0.92,4.44,2.22,6.16,3.88s3.05,3.7,3.99,6.08
				C301.58,37.92,302.06,40.55,302.06,43.44z M282.49,34.11c-2.09,0-3.71,0.81-4.85,2.43c-1.14,1.62-1.72,3.92-1.72,6.91
				c0,3.14,0.57,5.49,1.72,7.06c1.14,1.57,2.76,2.35,4.85,2.35c2.09,0,3.71-0.8,4.85-2.39c1.14-1.59,1.72-3.93,1.72-7.02
				c0-2.99-0.57-5.29-1.72-6.91C286.2,34.92,284.58,34.11,282.49,34.11z"/>
			<path class="st14" d="M307.95,15.22c0-1.89,0.63-3.48,1.9-4.78c1.27-1.29,2.95-1.94,5.04-1.94s3.77,0.65,5.04,1.94
				c1.27,1.3,1.9,2.89,1.9,4.78s-0.63,3.48-1.9,4.78s-2.95,1.94-5.04,1.94s-3.77-0.65-5.04-1.94
				C308.59,18.7,307.95,17.11,307.95,15.22z M308.55,25.82c0.55-0.15,1.33-0.3,2.35-0.45c1.02-0.15,2.13-0.22,3.32-0.22
				c2.49,0,4.28,0.41,5.38,1.23c1.09,0.82,1.64,2.4,1.64,4.74v30.39c-0.55,0.15-1.33,0.3-2.35,0.45c-1.02,0.15-2.13,0.22-3.32,0.22
				c-2.49,0-4.28-0.41-5.38-1.23c-1.1-0.82-1.64-2.4-1.64-4.74V25.82z"/>
			<path class="st14" d="M365,61.51c-0.55,0.15-1.33,0.3-2.35,0.45c-1.02,0.15-2.13,0.22-3.32,0.22c-2.49,0-4.28-0.41-5.38-1.23
				c-1.1-0.82-1.64-2.4-1.64-4.74V38.59c0-1.54-0.46-2.68-1.38-3.4c-0.92-0.72-2.13-1.08-3.62-1.08c-1,0-1.93,0.12-2.8,0.37
				c-0.87,0.25-1.71,0.57-2.5,0.97v26.06c-0.55,0.15-1.33,0.3-2.35,0.45c-1.02,0.15-2.13,0.22-3.32,0.22
				c-2.49,0-4.28-0.41-5.38-1.23s-1.64-2.4-1.64-4.74V33.73c0-1.34,0.29-2.44,0.86-3.28c0.57-0.85,1.36-1.62,2.35-2.31
				c1.69-1.19,3.82-2.15,6.38-2.87c2.56-0.72,5.41-1.08,8.55-1.08c5.62,0,9.96,1.23,12.99,3.7S365,33.79,365,38.22V61.51z"/>
		</g>
	</g>
</g>
<g id="Layer_8" class="st0">
	<g class="st1">
		<g>
			<g>
				<path class="st15" d="M226.96,70.24H123.88c-1.66,0-3-1.34-3-3V5.02c0-1.66,1.34-3,3-3h103.08c1.66,0,3,1.34,3,3v62.22
					C229.96,68.9,228.61,70.24,226.96,70.24z M126.88,64.24h97.08V8.02h-97.08V64.24z"/>
			</g>
			<g>
				<path class="st15" d="M175.42,49.41c-0.66,0-1.33-0.22-1.88-0.66L122,7.36c-1.29-1.04-1.5-2.92-0.46-4.22
					c1.04-1.29,2.92-1.5,4.22-0.46l49.66,39.88l49.66-39.88c1.29-1.04,3.18-0.83,4.22,0.46c1.04,1.29,0.83,3.18-0.46,4.22
					L177.3,48.75C176.75,49.19,176.08,49.41,175.42,49.41z"/>
			</g>
			<g>
				<path class="st15" d="M123.88,70.24c-0.85,0-1.7-0.36-2.29-1.06c-1.07-1.26-0.91-3.16,0.35-4.23l37.73-31.92
					c1.26-1.07,3.16-0.91,4.23,0.35c1.07,1.26,0.91,3.16-0.35,4.23l-37.73,31.92C125.25,70.01,124.56,70.24,123.88,70.24z"/>
			</g>
			<g>
				<path class="st15" d="M226.96,70.24c-0.68,0-1.37-0.23-1.94-0.71l-37.73-31.92c-1.26-1.07-1.42-2.96-0.35-4.23
					c1.07-1.26,2.96-1.42,4.23-0.35l37.73,31.92c1.26,1.07,1.42,2.96,0.35,4.23C228.65,69.88,227.81,70.24,226.96,70.24z"/>
			</g>
		</g>
		<g>
			<path class="st15" d="M113.14,8.32H89.91c-1.66,0-3-1.34-3-3c0-1.66,1.34-3,3-3h23.23c1.66,0,3,1.34,3,3
				C116.14,6.97,114.8,8.32,113.14,8.32z"/>
		</g>
		<g>
			<path class="st15" d="M113.14,20.73h-5.87c-1.66,0-3-1.34-3-3c0-1.66,1.34-3,3-3h5.87c1.66,0,3,1.34,3,3
				C116.14,19.38,114.8,20.73,113.14,20.73z"/>
		</g>
		<g>
			<path class="st15" d="M83.77,20.73H55.41c-1.66,0-3-1.34-3-3c0-1.66,1.34-3,3-3h28.36c1.66,0,3,1.34,3,3
				C86.76,19.38,85.42,20.73,83.77,20.73z"/>
		</g>
		<g>
			<path class="st15" d="M113.14,33.14H89.91c-1.66,0-3-1.34-3-3c0-1.66,1.34-3,3-3h23.23c1.66,0,3,1.34,3,3
				C116.14,31.79,114.8,33.14,113.14,33.14z"/>
		</g>
		<g>
			<path class="st15" d="M75.49,33.14H63.87c-1.66,0-3-1.34-3-3c0-1.66,1.34-3,3-3h11.62c1.66,0,3,1.34,3,3
				C78.49,31.79,77.14,33.14,75.49,33.14z"/>
		</g>
		<g>
			<path class="st15" d="M113.14,45.55H84.03c-1.66,0-3-1.34-3-3c0-1.66,1.34-3,3-3h29.11c1.66,0,3,1.34,3,3
				C116.14,44.2,114.8,45.55,113.14,45.55z"/>
		</g>
		<g>
			<path class="st15" d="M113.14,57.96h-7.21c-1.66,0-3-1.34-3-3c0-1.66,1.34-3,3-3h7.21c1.66,0,3,1.34,3,3
				C116.14,56.61,114.8,57.96,113.14,57.96z"/>
		</g>
		<g>
			<path class="st15" d="M97.12,57.96H72.28c-1.66,0-3-1.34-3-3c0-1.66,1.34-3,3-3h24.83c1.66,0,3,1.34,3,3
				C100.12,56.61,98.77,57.96,97.12,57.96z"/>
		</g>
		<g>
			<path class="st15" d="M113.14,70.37H97.12c-1.66,0-3-1.34-3-3c0-1.66,1.34-3,3-3h16.02c1.66,0,3,1.34,3,3
				C116.14,69.02,114.8,70.37,113.14,70.37z"/>
		</g>
	</g>
	<g class="st1">
		<path class="st15" d="M256.56,4.17c1.8,1.85,2.71,4.41,2.71,7.68v3.92l-6.34,0.31v-3.54c0-3.36-1.24-5.04-3.73-5.04
			c-1.2,0-2.13,0.37-2.77,1.12c-0.64,0.75-0.96,1.85-0.96,3.3v23.76c0,1.45,0.32,2.55,0.96,3.3c0.64,0.75,1.56,1.12,2.77,1.12
			c2.49,0,3.73-1.68,3.73-5.04v-4.85l6.34,0.31v5.22c0,3.28-0.9,5.84-2.71,7.68c-1.8,1.85-4.32,2.77-7.56,2.77
			c-3.19,0-5.68-0.91-7.46-2.74c-1.78-1.82-2.67-4.39-2.67-7.71V11.85c0-3.32,0.89-5.89,2.67-7.71c1.78-1.82,4.27-2.74,7.46-2.74
			C252.24,1.4,254.76,2.32,256.56,4.17z"/>
		<path class="st15" d="M282.77,45.55h-6.59V26.59h-7.84v18.97h-6.59V2.02h6.59v18.35h7.84V2.02h6.59V45.55z"/>
		<path class="st15" d="M305.28,8.12h-11.94v12.31h9.64v6.09h-9.64v12.93h11.94v6.09h-18.53V2.02h18.53V8.12z"/>
		<path class="st15" d="M324.78,4.17c1.8,1.85,2.71,4.41,2.71,7.68v3.92l-6.34,0.31v-3.54c0-3.36-1.24-5.04-3.73-5.04
			c-1.2,0-2.13,0.37-2.77,1.12c-0.64,0.75-0.96,1.85-0.96,3.3v23.76c0,1.45,0.32,2.55,0.96,3.3c0.64,0.75,1.56,1.12,2.77,1.12
			c2.49,0,3.73-1.68,3.73-5.04v-4.85l6.34,0.31v5.22c0,3.28-0.9,5.84-2.71,7.68c-1.8,1.85-4.32,2.77-7.56,2.77
			c-3.19,0-5.68-0.91-7.46-2.74c-1.78-1.82-2.67-4.39-2.67-7.71V11.85c0-3.32,0.89-5.89,2.67-7.71c1.78-1.82,4.27-2.74,7.46-2.74
			C320.46,1.4,322.98,2.32,324.78,4.17z"/>
		<path class="st15" d="M343.78,19.31L367,69.63h-7.03l-20.55-43.1l-2.86,5.6v13.43h-6.59V2.02h6.59v18.16h0.12l9.14-18.16h6.9
			L343.78,19.31z"/>
	</g>
	<g class="st1">
		<path class="st16" d="M244.79,62.07l1.63-10.79h3.32v15.2h-2.26v-10.9l-1.65,10.9h-2.26l-1.78-10.75v10.75h-2.08v-15.2h3.32
			L244.79,62.07z"/>
		<path class="st16" d="M259.75,66.48h-2.41l-0.41-2.76H254l-0.41,2.76h-2.19l2.43-15.2h3.5L259.75,66.48z M254.3,61.66h2.3
			l-1.15-7.69L254.3,61.66z"/>
		<path class="st16" d="M261.4,51.28h2.39v15.2h-2.39V51.28z"/>
		<path class="st16" d="M266.07,51.28h2.39v13.03h3.93v2.17h-6.32V51.28z"/>
		<path class="st16" d="M276.35,57.69h3.28v2.17h-3.28v4.45h4.12v2.17h-6.51v-15.2h6.51v2.17h-4.12V57.69z"/>
		<path class="st16" d="M282.5,51.28h3.78c2.39,0,3.56,1.32,3.56,3.76v7.68c0,2.43-1.17,3.76-3.56,3.76h-3.78V51.28z M284.89,53.45
			v10.85h1.35c0.76,0,1.22-0.39,1.22-1.48v-7.9c0-1.09-0.46-1.48-1.22-1.48H284.89z"/>
		<path class="st16" d="M295.11,51.28h7.38v2.17h-2.5v13.03h-2.39V53.45h-2.5V51.28z"/>
		<path class="st16" d="M303.88,54.93c0-2.43,1.28-3.82,3.63-3.82c2.35,0,3.63,1.39,3.63,3.82v7.9c0,2.43-1.28,3.82-3.63,3.82
			c-2.34,0-3.63-1.39-3.63-3.82V54.93z M306.27,62.98c0,1.09,0.48,1.5,1.24,1.5c0.76,0,1.24-0.41,1.24-1.5v-8.21
			c0-1.09-0.48-1.5-1.24-1.5c-0.76,0-1.24,0.41-1.24,1.5V62.98z"/>
		<path class="st16" d="M319.36,61.44l-3.02-10.16h2.5l1.82,6.93l1.82-6.93h2.28l-3.02,10.16v5.04h-2.39V61.44z"/>
		<path class="st16" d="M325.74,54.93c0-2.43,1.28-3.82,3.63-3.82c2.35,0,3.63,1.39,3.63,3.82v7.9c0,2.43-1.28,3.82-3.63,3.82
			c-2.34,0-3.63-1.39-3.63-3.82V54.93z M328.13,62.98c0,1.09,0.48,1.5,1.24,1.5c0.76,0,1.24-0.41,1.24-1.5v-8.21
			c0-1.09-0.48-1.5-1.24-1.5c-0.76,0-1.24,0.41-1.24,1.5V62.98z"/>
		<path class="st16" d="M337.35,51.28v11.72c0,1.09,0.48,1.48,1.24,1.48c0.76,0,1.24-0.39,1.24-1.48V51.28h2.26v11.57
			c0,2.43-1.22,3.82-3.56,3.82c-2.34,0-3.56-1.39-3.56-3.82V51.28H337.35z"/>
	</g>
	<polygon class="st17" points="338.49,1.57 343.77,1.57 338.49,10.96 	"/>
</g>
<g id="Layer_9" class="st0">
	<g class="st1">
		<g>
			<path class="st18" d="M171.99,3.3h15.34c4.56,0,8.01,0.82,10.36,2.45c2.35,1.63,3.53,3.97,3.53,7.02c0,5.7-3.12,9.43-9.35,11.2
				v0.24c1.85,0.57,3.32,1.58,4.41,3.01c1.09,1.44,1.64,3.19,1.64,5.27c0,4.53-1.6,8.04-4.8,10.51c-3.2,2.47-7.74,3.71-13.62,3.71
				h-17.23L171.99,3.3z M178.7,28.54l-2.08,9.12h2.58c1.81,0,3.31-0.48,4.52-1.44c1.21-0.96,1.81-2.16,1.81-3.61
				c0-1.37-0.35-2.39-1.04-3.06c-0.69-0.67-1.91-1.01-3.65-1.01H178.7z M180.56,19.96h2.27c1.85,0,3.24-0.38,4.19-1.13
				c0.94-0.75,1.42-1.96,1.42-3.62c0-2.02-1.33-3.03-4-3.03h-1.98L180.56,19.96z"/>
			<path class="st18" d="M230.03,2.61c5.46,0,9.71,1.47,12.74,4.41c3.03,2.94,4.55,7.04,4.55,12.31c0,5.27-1.04,10.08-3.13,14.45
				c-2.09,4.37-4.97,7.71-8.65,10.04c-3.67,2.33-7.94,3.49-12.79,3.49c-5.65,0-10.01-1.47-13.09-4.42
				c-3.08-2.95-4.61-7.05-4.61-12.29c0-5.25,1.08-10.07,3.24-14.46c2.16-4.4,5.11-7.75,8.83-10.05S225.16,2.61,230.03,2.61z
				 M234.88,19.45c0-2.26-0.5-4.02-1.51-5.3c-1.01-1.28-2.47-1.92-4.38-1.92c-2.08,0-3.99,0.83-5.73,2.49s-3.13,3.95-4.17,6.86
				c-1.04,2.91-1.56,5.89-1.56,8.94c0,4.79,2.1,7.19,6.3,7.19c1.99,0,3.85-0.82,5.56-2.46c1.71-1.64,3.06-3.86,4.03-6.65
				C234.4,25.81,234.88,22.76,234.88,19.45z"/>
			<path class="st18" d="M279.76,33.38c0,4.4-1.54,7.82-4.63,10.26c-3.09,2.45-7.39,3.67-12.91,3.67c-2.31,0-4.49-0.24-6.55-0.73
				c-2.06-0.49-3.83-1.19-5.32-2.12V34.06c1.76,1.05,3.78,1.93,6.06,2.64c2.28,0.71,4.34,1.07,6.19,1.07c1.55,0,2.73-0.31,3.53-0.92
				c0.8-0.61,1.2-1.48,1.2-2.61c0-0.53-0.13-1.03-0.38-1.5c-0.25-0.46-0.61-0.93-1.07-1.4c-0.46-0.46-1.7-1.49-3.72-3.07
				c-2.46-1.86-4.24-3.76-5.35-5.7c-1.11-1.94-1.67-4.07-1.67-6.38c0-2.59,0.69-4.92,2.06-6.99c1.37-2.07,3.32-3.67,5.83-4.81
				c2.51-1.14,5.32-1.71,8.42-1.71c5.02,0,9.53,1.06,13.54,3.18l-4.25,8.82c-3.59-1.74-6.65-2.61-9.17-2.61
				c-1.34,0-2.38,0.28-3.1,0.83c-0.72,0.55-1.09,1.37-1.09,2.44c0,0.97,0.35,1.88,1.06,2.72c0.7,0.84,2.04,1.96,4.02,3.37
				c2.48,1.72,4.31,3.53,5.51,5.43C279.16,28.75,279.76,30.92,279.76,33.38z"/>
			<path class="st18" d="M314.77,33.38c0,4.4-1.54,7.82-4.63,10.26c-3.09,2.45-7.39,3.67-12.91,3.67c-2.31,0-4.49-0.24-6.55-0.73
				c-2.06-0.49-3.83-1.19-5.32-2.12V34.06c1.76,1.05,3.78,1.93,6.06,2.64c2.28,0.71,4.34,1.07,6.19,1.07c1.55,0,2.73-0.31,3.53-0.92
				c0.8-0.61,1.2-1.48,1.2-2.61c0-0.53-0.13-1.03-0.38-1.5c-0.25-0.46-0.61-0.93-1.07-1.4c-0.46-0.46-1.7-1.49-3.72-3.07
				c-2.46-1.86-4.24-3.76-5.35-5.7c-1.11-1.94-1.67-4.07-1.67-6.38c0-2.59,0.69-4.92,2.06-6.99c1.37-2.07,3.32-3.67,5.83-4.81
				c2.51-1.14,5.32-1.71,8.42-1.71c5.02,0,9.53,1.06,13.54,3.18l-4.25,8.82c-3.59-1.74-6.65-2.61-9.17-2.61
				c-1.34,0-2.38,0.28-3.1,0.83c-0.72,0.55-1.09,1.37-1.09,2.44c0,0.97,0.35,1.88,1.06,2.72c0.7,0.84,2.04,1.96,4.02,3.37
				c2.48,1.72,4.31,3.53,5.51,5.43C314.17,28.75,314.77,30.92,314.77,33.38z"/>
		</g>
	</g>
	<g class="st1">
		<g>
			<path class="st18" d="M169.95,62.28v6h-4.45V51.8h5.4c4.48,0,6.72,1.62,6.72,4.87c0,1.91-0.93,3.38-2.79,4.43l4.8,7.18h-5.05
				l-3.49-6H169.95z M169.95,58.93h0.83c1.56,0,2.33-0.69,2.33-2.06c0-1.13-0.76-1.7-2.29-1.7h-0.88V58.93z"/>
			<path class="st18" d="M190.9,68.28h-9.78V51.8h9.78v3.57h-5.33v2.59h4.94v3.57h-4.94v3.11h5.33V68.28z"/>
			<path class="st18" d="M203.04,51.8h4.98l-5.4,16.48h-5.24l-5.38-16.48h5l2.24,8.35c0.47,1.86,0.72,3.15,0.77,3.88
				c0.05-0.53,0.16-1.18,0.32-1.97c0.16-0.79,0.3-1.41,0.42-1.86L203.04,51.8z"/>
			<path class="st18" d="M225.22,60.01c0,2.77-0.68,4.88-2.04,6.32c-1.36,1.44-3.35,2.16-5.97,2.16c-2.58,0-4.57-0.73-5.94-2.18
				c-1.38-1.45-2.07-3.56-2.07-6.33c0-2.74,0.69-4.84,2.06-6.28c1.37-1.45,3.36-2.17,5.98-2.17c2.62,0,4.61,0.72,5.96,2.15
				C224.54,55.13,225.22,57.23,225.22,60.01z M213.88,60.01c0,3.18,1.11,4.78,3.32,4.78c1.13,0,1.96-0.39,2.51-1.16
				c0.54-0.77,0.82-1.98,0.82-3.62c0-1.65-0.28-2.86-0.83-3.65c-0.55-0.78-1.38-1.18-2.47-1.18C215,55.19,213.88,56.8,213.88,60.01z
				"/>
			<path class="st18" d="M228.19,68.28V51.8h4.45v12.88h6.35v3.6H228.19z"/>
			<path class="st18" d="M255.64,51.8v9.92c0,2.16-0.61,3.83-1.83,5.01c-1.22,1.18-2.98,1.78-5.28,1.78c-2.25,0-3.97-0.58-5.18-1.72
				c-1.21-1.15-1.81-2.8-1.81-4.96V51.8h4.47v9.67c0,1.16,0.22,2.01,0.65,2.54c0.44,0.53,1.08,0.79,1.93,0.79
				c0.91,0,1.57-0.26,1.98-0.78c0.41-0.52,0.61-1.38,0.61-2.56V51.8H255.64z"/>
			<path class="st18" d="M266.36,68.28h-4.45V55.44h-4.02V51.8h12.49v3.64h-4.01V68.28z"/>
			<path class="st18" d="M272.73,68.28V51.8h4.47v16.48H272.73z"/>
			<path class="st18" d="M296.18,60.01c0,2.77-0.68,4.88-2.04,6.32c-1.36,1.44-3.35,2.16-5.97,2.16c-2.58,0-4.57-0.73-5.94-2.18
				c-1.38-1.45-2.07-3.56-2.07-6.33c0-2.74,0.69-4.84,2.06-6.28c1.37-1.45,3.36-2.17,5.98-2.17c2.62,0,4.61,0.72,5.96,2.15
				S296.18,57.23,296.18,60.01z M284.85,60.01c0,3.18,1.11,4.78,3.32,4.78c1.13,0,1.96-0.39,2.51-1.16
				c0.54-0.77,0.82-1.98,0.82-3.62c0-1.65-0.28-2.86-0.83-3.65c-0.55-0.78-1.38-1.18-2.47-1.18
				C285.96,55.19,284.85,56.8,284.85,60.01z"/>
			<path class="st18" d="M314.85,68.28h-5.84l-6.02-11.61h-0.1c0.14,1.83,0.21,3.22,0.21,4.18v7.43h-3.94V51.8h5.81l6,11.45h0.07
				c-0.11-1.66-0.16-2.99-0.16-4V51.8h3.97V68.28z"/>
		</g>
	</g>
	<g class="st1">
		<path class="st19" d="M156.93,41.54l-8.5,13.66c-2.09,3.36-6.51,4.39-9.87,2.3L95.52,30.72c-3.36-2.09-4.39-6.51-2.3-9.87
			l8.5-13.66c2.09-3.36,6.51-4.39,9.87-2.3l43.04,26.78C157.99,33.76,159.02,38.18,156.93,41.54z"/>
		<path class="st20" d="M153.3,41.45l-6.55,10.53c-2.09,3.36-6.51,4.39-9.87,2.3L99.16,30.81c-3.36-2.09-4.39-6.51-2.3-9.87
			l6.55-10.53c2.09-3.36,6.51-4.39,9.87-2.3L151,31.58C154.36,33.67,155.39,38.09,153.3,41.45z"/>
		<path class="st21" d="M108.16,15.73l-4.43,7.12c-0.29,0.46-0.89,0.6-1.35,0.31l-0.47-0.29c-0.46-0.29-0.6-0.89-0.31-1.35
			l4.43-7.12c0.29-0.46,0.89-0.6,1.35-0.31l0.47,0.29C108.3,14.67,108.45,15.27,108.16,15.73z"/>
	</g>
	<path class="st22" d="M150.42,33.92l3.59-4.24c0.57-0.68,0.5-1.69-0.17-2.28l-4.31-3.75c-0.78-0.68-1.98-0.47-2.48,0.42l-3.35,5.9
		c-0.29,0.5-0.29,1.12,0,1.62c0.74,1.28,2.52,3.47,5.76,2.89C149.84,34.41,150.17,34.21,150.42,33.92z"/>
	<path class="st22" d="M142.02,15.17l5.17,4.38c1.13,0.96,1.38,2.6,0.59,3.85l-7.04,11.12c-0.12,0.19-0.3,0.32-0.51,0.38
		c-1.52,0.39-7.79,1.54-9.11-5.65c-0.04-0.21,0.01-0.43,0.12-0.61l7.96-13C139.79,14.64,141.13,14.42,142.02,15.17z"/>
	<path class="st22" d="M129.42,10.39l8.42,2.7c1.07,0.34,1.57,1.56,1.05,2.56l-5.39,10.27c-0.37,0.7-1.16,1.08-1.94,0.93l-8.2-1.58
		c-1.15-0.22-1.78-1.45-1.3-2.52l5.18-11.39C127.61,10.53,128.55,10.11,129.42,10.39z"/>
	<path class="st22" d="M121.42,8L126,9.35c1,0.29,1.5,1.4,1.07,2.34l-5.43,11.95c-0.32,0.7-1.07,1.1-1.83,0.98l-7-1.17
		c-1.21-0.2-1.82-1.58-1.15-2.61l7.85-12.13C119.92,8.08,120.69,7.79,121.42,8z"/>
	<path class="st22" d="M137.39,57.9v10.48c0,0.94-0.76,1.71-1.71,1.71h-20.57c-0.94,0-1.71-0.76-1.71-1.71V57.4
		c0-0.28-0.07-0.56-0.2-0.8l-10.22-19.16c-0.27-0.52-0.27-1.14,0.02-1.64l6.64-11.71c0.36-0.63,1.07-0.97,1.79-0.84l20.03,3.61
		c0.87,0.16,1.49,0.95,1.4,1.83c-0.21,2.05-1.31,5.43-6.2,6.1c-0.08,0.01-0.16,0.02-0.25,0.02h-8.43c-1.27,0-2.09,1.33-1.53,2.47
		l4.44,8.88c0.14,0.28,0.35,0.51,0.61,0.67l15.11,9.65C137.1,56.78,137.39,57.32,137.39,57.9z"/>
</g>
</svg>
