<?xml version="1.0" encoding="UTF-8"?>
<svg id="Layer_1" xmlns="http://www.w3.org/2000/svg" version="1.1" viewBox="0 0 448 448">
  <!-- Generator: Adobe Illustrator 29.5.1, SVG Export Plug-In . SVG Version: 2.1.0 Build 141)  -->
  <defs>
    <style>
      .st0 {
        fill: #050505;
      }

      .st1 {
        fill: #fff;
      }

      .st2 {
        fill: #d29f53;
      }
    </style>
  </defs>
  <path class="st1" d="M108.31,346.28c3.28,0,5.94.36,8.04,1.08s3.74,1.59,4.92,2.71c1.18,1.08,2.05,2.3,2.51,3.64s.72,2.66.72,3.94c0,2-.36,3.64-1.08,5.02s-1.74,2.56-3.02,3.69c2.3.72,4.15,1.95,5.48,3.79s2,4.2,2,7.12-.36,3.53-1.13,5.02-1.79,2.76-3.17,3.79-3.02,1.84-4.97,2.41-4.1.87-6.5.87h-13.77v-42.96h10.09l-.1-.1-.02-.02ZM106.52,364.14h1.54c2.97,0,5.02-.51,6.2-1.48s1.74-2.36,1.74-4.04-.2-1.84-.61-2.56c-.41-.67-.97-1.23-1.69-1.64s-1.59-.67-2.56-.87-2.05-.26-3.17-.26h-1.38v10.8h0l-.05.05h-.02ZM106.52,382.32h4.51c1.64,0,3.02-.15,4.1-.51s1.95-.77,2.56-1.33c.67-.56,1.08-1.13,1.33-1.84s.36-1.33.36-2-.1-1.38-.36-2.05-.67-1.28-1.33-1.84-1.54-.97-2.66-1.33-2.61-.51-4.45-.51h-4.04v11.37h0v.05h-.02Z"/>
  <path class="st1" d="M176.92,376.59c-1.18,2.66-2.82,5.02-4.92,7.01-2.1,2-4.51,3.58-7.32,4.71s-5.84,1.69-9.06,1.69-6.25-.56-9.06-1.69c-2.82-1.13-5.27-2.71-7.32-4.71s-3.69-4.35-4.86-7.01-1.79-5.58-1.79-8.7.61-5.94,1.79-8.65c1.18-2.66,2.82-5.02,4.86-7.01,2.05-2,4.51-3.53,7.32-4.71,2.82-1.13,5.84-1.74,9.06-1.74s6.25.56,9.06,1.74,5.27,2.71,7.32,4.71c2.1,2,3.74,4.3,4.92,7.01,1.18,2.71,1.79,5.58,1.79,8.65s-.61,5.99-1.79,8.7ZM169.19,362.05c-.77-1.79-1.79-3.38-3.12-4.71s-2.92-2.36-4.66-3.12c-1.79-.77-3.69-1.13-5.79-1.13s-3.99.36-5.79,1.13-3.33,1.79-4.66,3.12-2.36,2.92-3.12,4.71-1.13,3.74-1.13,5.84.41,4.04,1.13,5.84,1.79,3.38,3.12,4.71,2.87,2.36,4.66,3.12,3.69,1.13,5.79,1.13,3.99-.36,5.79-1.13,3.33-1.79,4.66-3.12,2.36-2.92,3.12-4.71,1.13-3.74,1.13-5.84-.36-4.04-1.13-5.84Z"/>
  <path class="st1" d="M221.77,357.08c-2.97-1.59-5.63-2.66-7.83-3.17-2.25-.56-4.35-.82-6.3-.82s-3.99.36-5.73,1.13-3.28,1.79-4.56,3.07c-1.28,1.33-2.3,2.87-3.02,4.66s-1.08,3.79-1.08,5.94.31,3.74.92,5.48,1.54,3.33,2.82,4.71,2.87,2.51,4.76,3.33,4.15,1.23,6.81,1.23,3.07-.1,4.35-.36,2.51-.61,3.69-1.13v-11.52l8.14-3.69v19.76c-2.92,1.43-5.73,2.51-8.5,3.23-2.76.67-5.32,1.02-7.78,1.02s-6.55-.56-9.42-1.69c-2.92-1.13-5.38-2.66-7.53-4.66s-3.79-4.35-4.97-7.07-1.79-5.68-1.79-8.86.56-6.09,1.74-8.76c1.18-2.71,2.82-5.02,4.86-6.96,2.1-1.95,4.56-3.48,7.42-4.61,2.87-1.13,5.99-1.69,9.37-1.69s2.41.05,3.53.15,2.36.31,3.64.56,2.66.72,4.15,1.23c1.48.51,3.17,1.23,5.07,2.05l-2.71,7.27h0l-.05.15v.02Z"/>
  <path class="st1" d="M272.51,388.57l-7.42,3.33-7.07-15.41h-15.36l-7.17,15.56-7.22-3.48,19.05-41.37,4.86-2.05,20.28,43.47h0l.05-.05h0ZM250.39,359.69l-4.51,9.88h9.06l-4.56-9.88h0Z"/>
  <path class="st1" d="M289.36,346.28c2.82,0,5.22.31,7.17.97s3.53,1.54,4.76,2.61,2.1,2.36,2.66,3.79c.56,1.43.82,2.87.82,4.35,0,5.07-2.25,8.6-6.76,10.65l13,18.53-6.66,4.2-13.93-20.53h-5.48v18.59h-8.19v-43.11h12.54l.05-.05h.02ZM284.95,363.89h3.84c2.56,0,4.45-.46,5.68-1.43,1.23-.97,1.84-2.3,1.84-3.99s-.61-2.82-1.84-3.79-3.17-1.48-5.84-1.48h-3.69v10.65h0v.05h.01Z"/>
  <path class="st1" d="M347.06,353.34h-13.72v36.04h-8.24v-36.04h-15.51l2.56-7.07h37.53l-2.56,7.07h-.06Z"/>
  <path class="st2" d="M142.52,438.9c-2.61.51-5.17.72-7.58.72s-6.25-.56-9.01-1.64c-2.76-1.08-5.17-2.61-7.17-4.51s-3.58-4.2-4.71-6.81-1.69-5.53-1.69-8.6.61-6.2,1.84-8.86c1.23-2.66,2.87-4.97,4.97-6.86,2.05-1.89,4.45-3.38,7.12-4.4s5.48-1.59,8.4-1.59,4.92.26,7.48.77,5.27,1.43,8.24,2.82l-2.51,4.92c-2.1-1.02-4.2-1.89-6.35-2.51-2.15-.61-4.51-.92-7.07-.92s-4.45.41-6.45,1.23-3.69,2-5.17,3.48c-1.43,1.48-2.61,3.28-3.38,5.27s-1.23,4.25-1.23,6.6.41,4.66,1.23,6.66,1.95,3.79,3.43,5.22c1.43,1.43,3.23,2.61,5.27,3.38,2.05.82,4.3,1.23,6.71,1.23s4.15-.26,6.3-.72,4.71-1.43,7.63-2.87l1.84,4.97c-2.82,1.48-5.53,2.51-8.14,2.97h0v.05h0Z"/>
  <path class="st2" d="M187.83,441.1l-7.07-15.46h-17.77l-7.22,15.56-5.02-2.36,19.1-41.27,3.23-1.43,19.92,42.75-5.17,2.3h0v-.1h0ZM171.9,405.98l-6.76,14.75h13.41l-6.66-14.75h0Z"/>
  <path class="st2" d="M219.83,432.5c-.72,1.59-1.74,2.92-2.97,3.99-1.28,1.08-2.71,1.89-4.4,2.41-1.69.56-3.48.82-5.38.82s-4.04-.36-6.04-1.08-4.1-1.79-6.3-3.23l2.15-5.02c1.84,1.23,3.48,2.25,5.02,3.02s3.02,1.23,4.51,1.23c2.51,0,4.56-.61,6.14-1.84s2.36-3.02,2.36-5.38-.31-2.36-.87-3.23c-.61-.87-1.38-1.59-2.3-2.2-.97-.56-2.05-1.08-3.28-1.54-1.23-.41-2.51-.87-3.74-1.28s-2.51-.92-3.74-1.48-2.3-1.23-3.23-2.05c-.97-.82-1.74-1.84-2.3-3.07s-.87-2.71-.87-4.51.36-3.12,1.02-4.61c.67-1.43,1.59-2.66,2.76-3.74,1.18-1.02,2.51-1.89,4.04-2.51,1.54-.61,3.17-.92,4.97-.92,3.69,0,7.32,1.08,10.85,3.23l-2.2,4.81c-1.79-.97-3.28-1.69-4.51-2.2s-2.51-.72-3.84-.72-1.95.15-2.82.51-1.64.77-2.3,1.38c-.67.56-1.13,1.28-1.54,2.05s-.56,1.64-.56,2.56c0,1.64.51,2.87,1.54,3.79,1.02.87,2.3,1.64,3.79,2.25,1.54.61,3.17,1.18,4.97,1.69s3.43,1.23,4.97,2.1,2.76,2,3.74,3.43c.97,1.43,1.48,3.33,1.48,5.68s-.36,3.94-1.08,5.58h0l-.05.05v.03Z"/>
  <path class="st2" d="M226.89,439.1v-41.47l5.73-2.1v43.57h-5.73Z"/>
  <path class="st2" d="M275.07,438.95l-28.67-32.15v32.31h-5.79v-44.19l4.45,2.2,28.57,32.05v-32.15h5.58v44.19l-4.2-2.2h0l.05-.05h.01Z"/>
  <path class="st2" d="M329.04,426.56c-1.18,2.61-2.76,4.92-4.81,6.91-2.05,1.95-4.4,3.48-7.17,4.61-2.76,1.13-5.73,1.69-8.86,1.69s-6.09-.56-8.81-1.69c-2.71-1.13-5.12-2.66-7.12-4.61-2.05-1.95-3.58-4.25-4.76-6.91-1.13-2.61-1.74-5.48-1.74-8.5s.56-5.89,1.74-8.5,2.71-4.92,4.76-6.91c2.05-1.95,4.4-3.48,7.12-4.61,2.71-1.13,5.68-1.69,8.81-1.69s6.09.56,8.86,1.69c2.76,1.13,5.12,2.66,7.17,4.61,2.05,1.95,3.64,4.25,4.81,6.91,1.18,2.61,1.74,5.48,1.74,8.5s-.61,5.89-1.74,8.5ZM323.56,411.56c-.87-2-2-3.74-3.48-5.27-1.48-1.48-3.23-2.66-5.27-3.53-2.05-.87-4.2-1.28-6.5-1.28s-4.45.41-6.5,1.28-3.79,2.05-5.27,3.53-2.66,3.23-3.53,5.27c-.87,2-1.28,4.2-1.28,6.55s.41,4.56,1.28,6.55c.87,2.05,2.05,3.79,3.53,5.27s3.28,2.66,5.27,3.48,4.2,1.28,6.5,1.28,4.45-.41,6.5-1.28,3.79-2,5.27-3.48,2.66-3.23,3.48-5.27c.87-2.05,1.28-4.2,1.28-6.55s-.41-4.51-1.28-6.55Z"/>
  <g>
    <circle class="st0" cx="224" cy="172.44" r="157.08"/>
    <path class="st2" d="M224,15.36c86.79,0,157.08,70.29,157.08,157.08s-70.29,157.08-157.08,157.08-157.08-70.29-157.08-157.08S137.21,15.36,224,15.36M224,9.97c-43.45,0-84.15,16.94-114.84,47.52-30.69,30.69-47.52,71.5-47.52,114.84s16.94,84.15,47.52,114.84c30.69,30.69,71.5,47.63,114.84,47.63s84.15-16.94,114.84-47.52c30.69-30.69,47.52-71.5,47.52-114.84s-16.94-84.15-47.52-114.84c-30.69-30.69-71.5-47.52-114.84-47.52h0v-.11Z"/>
    <circle class="st0" cx="224" cy="172.44" r="120.23"/>
    <path class="st2" d="M332.02,172.44c0,59.62-48.4,107.91-107.91,107.91s-107.91-48.4-107.91-107.91,48.4-107.91,107.91-107.91,107.91,48.4,107.91,107.91ZM224,69.48c-56.87,0-102.96,46.09-102.96,102.96s46.09,102.96,102.96,102.96,102.96-46.09,102.96-102.96-46.09-102.96-102.96-102.96h0Z"/>
    <path class="st0" d="M336.42,172.77l.44-8.91c.22-3.19-1.21-6.38-3.63-8.36-.11-.11-.33-.22-.44-.33l-2.09-2.2c-4.51-4.84-9.24-9.79-13.75-14.63l-2.64-8.58-.99-3.3c-.22-.66-.44-1.32-.77-1.87-.11-.88-.44-1.87-.77-2.75-1.98-4.18-5.39-7.04-9.57-7.81-3.41-.66-6.82.22-9.57,2.31-.66-2.42-1.98-4.29-2.86-5.39-.22-.33-.55-.66-.88-1.21l-.22-.22c.44-1.54.99-3.19,1.76-4.73l.44-.44c6.38-5.39,12.65-10.78,18.37-16.28,2.42-2.31,4.4-4.84,6.05-7.04.66-.88,1.32-1.65,1.98-2.42,3.3-4.07,3.08-9.9-.55-13.64l-1.32-1.43c-1.87-1.98-4.51-3.08-7.26-3.08h0c-2.75,0-5.39,1.1-7.26,2.97s-2.31,2.42-3.52,3.63c-2.42,2.53-4.84,4.95-7.15,7.04-1.32,1.1-2.64,2.2-4.07,3.3-3.63-4.18-7.15-8.03-10.89-11.99l-3.63-3.74c-7.48-7.81-15.29-15.95-23.65-23.43-13.09-11.66-31.35-13.31-46.75-3.96-1.32.77-2.42,1.87-3.3,3.19-1.43-.11-2.86,0-4.29.55-.11,0-.33,0-.44.11-1.1.33-2.86.88-4.73,1.98l-1.32.88c-6.27,3.96-12.87,8.14-19.25,12.32-16.94,11.22-22.99,31.9-14.63,50.05,1.1,2.42,2.09,5.06,3.08,7.92.66,1.87,1.32,3.74,2.09,5.72,3.08,7.7,6.16,15.51,9.24,23.32l3.74,9.46c.55,1.32,1.32,2.53,2.31,3.52,1.43,3.63,3.08,7.7,4.95,12.1-.99-.55-2.09-.99-3.3-1.21-1.54-.33-3.08-.55-4.62-.77-3.19-.55-6.16-.99-9.02-1.76-.22-.22-.55-.44-.88-.66-.66-.55-1.43-1.1-2.31-1.65-2.53-1.65-5.61-2.09-8.47-1.21s-5.28,2.97-6.49,5.72c-1.76,3.96-1.32,8.58,1.21,12.21,5.06,7.26,16.83,8.58,24.64,8.58s3.3,0,4.51-.11c1.87-.11,3.63-.77,5.06-1.76,2.09,5.28,5.06,9.57,7.48,13.09l3.3,5.17c-.66,1.21-1.32,2.42-1.98,3.74-1.21,2.64-2.64,4.29-4.73,5.61-8.8,5.5-17.49,11.44-25.85,17.71l-.99.66c-2.09,1.43-5.5,3.85-7.7,7.92-.99.77-1.76,1.54-2.42,2.42-1.43.99-2.75,2.42-3.74,4.29-1.1,1.76-2.2,3.41-3.41,5.28l-1.43,2.2c-.99,1.54-1.54,3.19-1.65,4.95-.11.33-.22.55-.33.88-.88,1.76-1.65,3.74-2.2,6.05-1.1,4.95-2.2,9.79-3.19,14.63-.44,1.87-.77,3.63-1.21,5.5-.66,2.86,0,5.94,1.87,8.25s4.51,3.85,7.48,4.07l27.83,1.98c3.52.22,6.82-1.32,8.91-4.07,1.76,0,3.52.22,5.28.22,1.65,3.08,4.73,5.17,8.25,5.39l53.68,3.85h.77c2.53,0,4.95-.88,6.71-2.53,1.1-.88,1.87-1.98,2.42-3.3,1.1-.55,1.98-1.32,2.86-2.31,5.39-.11,13.2-.44,19.36-1.54,2.31,1.54,4.62,1.87,6.16,1.98h0c3.3,0,7.81-1.32,11.22-7.7.33-.66.77-1.43,1.1-2.2.22.44.55.88.77,1.32,1.98,3.19,5.28,4.95,8.8,4.95s3.52-.44,5.17-1.43c.99-.55,1.98-1.21,2.75-1.76s1.87-1.21,2.2-1.43c4.95-1.32,11-4.95,11.88-14.19.77-7.92-.66-14.96-2.86-21.45,4.73-20.35,13.2-52.47,11.55-71.39,1.65-1.76,2.64-3.96,2.86-6.49h0l.44-.33h0Z"/>
    <path class="st1" d="M195.29,189.82c-3.74-5.28-7.37-10.67-8.03-17.38.88,1.98,1.65,3.85,2.53,5.83l.66-.22c-.44-2.97-.77-5.94-1.1-8.8l.99-.44c1.1.66,2.09,1.43,3.63,2.42-2.2-7.81,6.05-6.27,7.81-10.56.33,0,.77,0,1.1.11.55,2.09,1.1,4.18,1.43,5.39-1.76,1.43-3.74,2.31-3.96,3.52-.55,3.19,2.2,7.59,4.84,8.8.77.33,1.43.77,2.09,1.32,2.97,2.86,6.38,5.28,5.39,10.45-1.21,5.94,2.64,10.78,5.17,15.62,1.98,3.74,5.61,6.71,8.58,10.01.33-.22.55-.44.88-.55-2.64-5.94-5.28-11.99-7.92-17.93.33-.11.66-.33.99-.44,3.08,2.09,4.18,5.39,5.39,8.69,3.41,8.8,7.04,17.49,13.09,24.75,1.98,2.31,4.51,4.18,6.82,6.16,1.21.99,2.42,1.98,3.41,3.3-19.36-9.57-32.12-25.52-41.69-44.55-.22,0-.55.22-.77.33,0,.99-.22,1.87-.11,2.75.33,1.87-.88,2.42-1.98,3.63-2.31,2.42-3.96,5.61-5.61,8.69-2.2,4.29-3.85,8.91-6.27,13.09-4.73,8.14-7.7,16.83-8.14,26.4-.11,2.75,0,4.51,3.96,4.95,5.17.55,10.23,2.75,15.29,4.4,4.18,1.32,8.36,2.86,12.54,4.29,4.73,1.54,9.68,2.75,14.19,4.73s7.59,5.72,9.02,10.67c.55,1.76,1.32,3.52,2.31,5.72,1.1-1.87,1.87-3.08,3.08-5.28,1.1,2.97,1.87,5.17,2.86,7.59h-4.07c0,1.54-.11,3.08-.22,4.62-17.93-1.32-35.75-2.64-53.68-3.85-.77-6.49,1.21-12.21,4.18-17.93-5.72,1.43-8.03,6.71-12.32,10.23-1.54-4.4-3.41-8.47-4.18-12.76-.77-4.29-.33-8.91-.44-13.31-3.63,5.83-4.29,12.32-4.95,19.25-4.51-2.2-6.71-6.05-8.03-10.34-1.21-4.07-2.2-8.25-3.3-12.43-1.65,7.04-.55,13.86,2.09,20.57-.55.33-1.1.66-1.65.99-1.54-2.42-3.08-4.95-4.51-7.37-.33.22-.66.44-.88.66,1.43,6.05,2.86,12.1,8.47,16.28,1.32.99,2.09,2.97,3.19,4.4-9.24-.66-18.59-1.32-27.83-1.98,1.43-6.6,2.75-13.31,4.29-19.91.44-1.98,1.54-3.85,2.64-6.6.66,2.2,1.1,3.41,1.65,5.06,1.32-2.97,1.87-5.28-1.43-7.04,1.76-2.64,3.3-5.17,4.84-7.59.33-.44.66-1.21.99-1.21,1.54-.22,4.18.88,2.42-2.53,0,0,1.1-.66,1.65-.99.11.44.22.88.44,1.32.11-.22.33-.44.33-.55,0-4.51,3.74-6.38,6.49-8.36,8.14-6.05,16.61-11.77,25.19-17.27,3.96-2.53,6.6-5.72,8.58-9.9,1.43-2.97,3.08-5.72,4.62-8.58-2.2-3.41-4.51-6.93-6.82-10.45,1.43,1.43,2.97,2.86,4.73,4.51.33-1.98.55-3.41.88-5.61,1.43,2.31,2.42,4.07,3.41,5.72.55-.33.99-.55,1.54-.88-5.06-6.93-7.48-15.51-13.86-21.78-.55,1.1-.77,2.2-.66,3.19.33,2.2.88,4.4,1.32,6.49.22.99.44,2.09,1.1,2.75,1.54,1.65,2.09,3.52,1.65,5.61h0l-.33.11h0ZM153.93,249.44c-.55-.22-1.21-.44-1.76-.66-.77,2.09-1.54,4.18-2.31,6.38.44.11.88.33,1.32.55.88-2.09,1.87-4.07,2.75-6.16v-.11h0Z"/>
    <path class="st1" d="M326.3,172.22c-5.72-8.58-11.55-17.16-17.27-25.74-.44,0-.88.22-1.21.22,1.54,8.14,1.76,16.06-2.86,23.21-3.08-2.53-3.52-5.72-1.21-8.69,3.85-4.73,3.3-14.96-.77-19.47-.99-.99-1.43-2.53-2.09-3.85.22-.11.44-.33.66-.44.88.55,1.87,1.21,3.52,2.31-1.1-4.07-1.98-7.26-2.75-10.34.44-.11.77-.22,1.21-.33,1.21,4.18,2.53,8.36,3.85,12.43.33.88.66,1.87,1.32,2.64,5.61,6.05,11.44,12.1,17.05,18.15.33.33.66.55.99.88-.11,2.97-.33,5.94-.44,8.91h0v.11h0Z"/>
    <path class="st1" d="M267.89,186.08c-2.31,1.32-4.4,1.98-5.83,3.3-4.18,3.96-9.02,2.75-10.56-3.08-1.98-7.48-3.41-15.18-5.61-22.55-1.65-5.61-4.07-11-6.16-16.83,7.04-6.05,14.74-12.54,22.44-19.03,1.32-1.21,2.75-2.31,4.18-3.41,4.4-3.08,8.91-6.16,13.75-9.46,1.21,1.87,2.2,2.86,2.42,3.85,1.76,7.7,7.15,13.53,10.67,20.24,1.54,2.86,2.53,6.05,3.3,9.13,2.31,9.79,4.29,19.69,6.38,29.48,1.54,7.26,1.1,14.63-.44,21.78-1.65,7.7-3.85,15.4-6.6,22.77-3.96,10.67-17.16,17.27-26.95,13.75-1.76-.66-3.85-2.2-4.62-3.85-1.32-2.53.88-4.29,2.86-5.28,3.52-1.98,7.26-3.52,10.78-5.5.99-.55,1.65-1.76,2.42-2.75-1.21-.66-2.31-1.65-3.52-1.98-.88-.22-1.87.55-2.86.77-3.74,1.1-7.48,2.31-11.33,3.08-1.21.22-3.08-.77-3.85-1.76-1.1-1.43-.99-3.19,1.54-3.3h.33c5.5-4.29,13.42-3.74,18.48-9.13.77-.88,2.09-1.21,3.19-1.65.88-.33,1.98-.55,2.86-.88.22,0,.44-.44.77-.88-1.21-1.87-2.42-1.98-4.51-1.1-4.29,1.76-8.69,3.41-13.2,4.73-4.07,1.21-8.25,2.09-12.43,3.08-.33-.44-.77-.77-1.1-1.21,1.43-3.19,2.86-6.27,4.51-10.12.55,1.54.55,2.53,1.1,3.19s1.54.99,2.31,1.54c.33-.99.77-1.98.77-2.97,0-.55-.66-1.1-1.1-1.65-3.08-4.07-2.64-5.61,2.42-7.48,2.75-.99,2.97-1.32,2.64-4.95h0l.55.11ZM287.36,137.35c-1.87-1.21-3.3-2.31-4.84-3.08-1.1-.55-2.53-.88-3.74-.99-1.32-.11-2.75,0-4.07.22-5.06.66-10.12,1.32-15.07,1.98-.44,0-.77.44-1.1.66-4.51,2.53-5.5,6.71-5.06,11.11,2.09,1.32,3.96,2.64,6.16,3.96.33-1.76.55-2.97.77-3.96,1.98-.99,3.96-1.87,6.38-2.97-1.76,2.64-3.08,4.51-4.4,6.6,4.51,1.21,4.07-3.96,6.71-4.73,3.85,4.4,6.27,3.96,9.24-.99,2.75-.22,5.06-.55,7.37-.77-2.31-3.19-4.84-4.07-8.03-3.85-2.86.22-5.72,0-8.58,0,2.75-1.54,5.5-2.42,8.36-2.97,1.32-.22,2.86,0,4.07.55,2.64,1.32,4.4.66,5.83-.88h0v.11h0Z"/>
    <path class="st1" d="M226.97,171.34c-1.98-.33-3.08-.55-4.62-.88.66-1.32,1.21-2.31,1.65-3.41-1.21,0-2.42,0-3.52.11l-.44-1.1c1.32-.55,2.75-1.1,4.07-1.65s2.64-.99,3.85-1.76c.88-.55,1.54-2.09,2.2-2.09,1.98,0,4.18.33,5.94,1.21.88.44,1.21,2.2,1.43,3.52.11,1.1-.22,2.31-.66,3.3-2.2,5.17-.44,10.01,1.65,14.74,1.21,2.86,1.54,5.61.77,8.69-.88,3.19-1.32,6.49-2.2,9.57-.33.99-1.54,1.98-2.53,2.2-.66.11-1.98-.88-2.53-1.65-2.86-4.29-5.61-8.58-8.14-13.09-.99-1.65-.99-3.96-1.21-5.94-.11-.99.22-2.09,0-3.08-.99-3.74-.22-6.71,4.29-8.8h0v.11h0Z"/>
    <path class="st1" d="M304.19,204.23c-.55,4.62-.55,9.46-1.65,13.86-3.85,15.4-8.36,30.58-12.1,45.98-1.54,6.38-4.18,12.1-7.15,17.82-1.54,2.86-2.64,3.08-4.18.22-2.09-4.07-3.85-8.36-4.84-12.76-.44-1.87.99-5.06,2.64-6.27,8.03-6.05,12.1-14.63,15.4-23.65,3.63-10.12,6.71-20.35,9.9-30.69.44-1.54.55-3.19.88-4.84.44,0,.77.11,1.21.22h0l-.11.11h0Z"/>
    <path class="st1" d="M303.09,232.39c4.95,12.65,13.09,24.2,11.77,38.72-.33,3.08-1.32,4.51-4.4,5.28-2.64.77-4.95,2.75-7.48,4.18-5.94-9.68-1.87-19.91-1.65-30.03,0-3.41.33-6.82.44-10.23.11-2.64.33-5.28.44-7.92h.88Z"/>
    <path class="st0" d="M224,15.47c-86.9,0-157.3,70.4-157.3,157.3s70.4,157.3,157.3,157.3,157.3-70.4,157.3-157.3S310.9,15.47,224,15.47h0ZM224,296.19c-67.76,0-122.65-54.89-122.65-122.65s54.89-122.65,122.65-122.65,122.65,54.89,122.65,122.65-54.89,122.65-122.65,122.65Z"/>
    <path class="st1" d="M302.32,125.91c-4.29,3.85-2.31,9.13-2.42,14.08-5.5-4.18-5.17-12.1-1.76-15.4,1.43-1.43,3.08-.88,4.18,1.32h0Z"/>
    <path class="st1" d="M298.25,146.26c4.95,2.97,4.84,6.93,4.07,11.55-3.41-3.3-3.41-7.26-4.07-11.55Z"/>
    <path class="st1" d="M173.62,173.98c-12.87.88-22.11-2.42-20.46-6.27,1.76,1.1,3.52,2.86,5.5,3.41,4.84,1.21,9.79,1.87,14.96,2.86h0Z"/>
    <path class="st1" d="M206.29,42.75c11.11-6.71,24.75-6.05,34.65,2.86,9.35,8.36,17.93,17.6,26.73,26.62,5.61,5.83,10.89,12.1,16.72,18.59,3.96-2.97,8.36-5.83,12.32-9.24s7.48-7.48,11.22-11.22c.44.44.88.99,1.32,1.43-2.31,2.86-4.4,6.05-7.15,8.58-5.83,5.5-11.77,10.78-17.93,15.84-6.82,5.72-13.64,11.44-20.9,16.5-13.31,9.46-26.84,18.48-40.37,27.61-.55.44-1.32.55-2.2.99,2.97-7.48,9.02-11.11,15.18-14.85,7.7-4.73,14.96-10.34,22.33-15.51,2.53-1.76,4.95-3.74,7.26-5.83-12.32,4.18-22,13.97-35.64,17.05.22-4.07,1.21-7.48,3.85-9.24,8.25-5.61,16.72-11,25.3-16.06,3.19-1.87,7.15-2.53,10.67-3.85,1.21-.44,2.31-1.32,3.41-1.98-.22-.55-.55-.99-.88-1.54-4.29.22-8.8-.33-12.87.77-8.58,2.42-15.51.11-21.56-6.16-4.07-4.29-8.91-6.82-14.3-8.91-9.68-3.74-18.92-8.47-25.85-16.72-1.21-1.43-2.86-2.42-4.4-3.63,2.97,1.32,6.05,2.42,8.91,3.96,4.84,2.42,9.57,4.07,14.96,2.75,3.96-.99,8.25-1.1,12.21-2.2,3.96-.99,8.14-2.09,11.55-4.29,3.63-2.2,2.75-6.27-.99-8.47-2.31-1.32-4.62-2.86-6.82-4.4-2.86-1.98-5.72-3.41-9.46-2.53-5.72,1.32-11.66,2.2-17.49,3.19h0l.22-.11h0Z"/>
    <path class="st1" d="M153.93,249.44c-.88,2.09-1.87,4.07-2.75,6.16-.44-.11-.88-.33-1.32-.55.77-2.09,1.54-4.18,2.31-6.38.55.22,1.21.44,1.76.66v.11h0Z"/>
    <path class="st1" d="M196.83,47.37c-1.43.88-2.97,1.76-4.4,2.75-.99.66-1.98,1.54-3.3,2.64,1.87.88,3.19,1.43,4.4,1.98-5.39-1.65-10.01,0-13.86,3.74-4.07,3.96-8.36,7.81-12.21,12.1-6.27,7.04-6.49,15.18-2.64,23.54,3.08,6.49,6.6,12.76,10.01,19.14.33.66,1.54.99,2.42,1.21,5.61,4.95,3.52,12.43,6.27,18.92,1.21-1.98,2.2-3.63,3.74-6.16.77,3.41,4.4,5.17,1.98,8.69-.11.22.66,1.1,1.21,1.87-2.97,2.42-5.94,4.95-9.46,7.92-4.4-11.11-8.8-21.89-13.09-32.78-1.87-4.62-3.3-9.57-5.39-14.08-6.49-14.19-1.21-29.15,11-37.29,6.71-4.51,13.53-8.8,20.35-13.09.88-.55,2.09-.77,3.08-1.1,0,0-.11,0-.11,0Z"/>
    <path class="st2" d="M90.35,189.49c-1.32.88-2.75,1.76-3.96,2.75-2.09,1.76-4.73,2.31-7.15,1.1-2.31-1.1-3.74-3.74-3.41-6.16.33-2.53,2.31-4.73,4.95-5.28,2.2-.44,4.07.33,5.72,1.76,1.21.99,2.42,1.76,3.74,2.64l.33-.33c-.44-.55-.88-1.1-1.32-1.65-2.2-2.64-2.09-6.05.44-8.25,2.42-2.09,6.27-1.98,8.69.22s2.42,5.5.22,8.03c-.66.88-1.43,1.65-1.98,2.64,3.74-.33,7.26-.77,9.46-4.29v10.12c-1.21-.77-2.64-2.09-4.18-2.75s-3.52-.99-5.28-1.43c0,.11-.11.33-.22.44.66.77,1.32,1.54,2.09,2.2,2.09,2.09,2.53,4.84.99,7.15-1.43,2.31-4.51,3.52-7.37,2.64-2.75-.88-4.73-3.41-4.29-6.27.22-1.21.99-2.42,1.65-3.52.33-.55.77-.99,1.21-1.43l-.33-.44h0v.11h0Z"/>
    <path class="st2" d="M123.24,111.5c-2.2,3.3-4.18,6.38-6.27,9.79-.22-3.96-2.97-6.49-6.05-9.24.44,2.53,0,4.4-1.32,6.16-2.86,3.85-8.03,3.63-10.45-.88-.99-1.65-1.54-3.63-1.98-5.5s-.66-3.74-.99-5.61c-.33-1.87-.55-3.74-.88-5.28,3.41-.99,7.26-2.09,11.11-2.86,2.09-.44,4.29-.66,6.38-.44,3.96.44,6.05,3.74,5.06,7.15-.77,2.75-2.64,4.4-5.83,5.28,3.85,1.43,7.26,2.86,11.22,1.32h0s0,.11,0,.11Z"/>
    <path class="st2" d="M105.64,154.73c-8.69-.22-12.65.77-19.47,5.17-1.54-7.92-3.19-11.55-8.58-18.59,8.91-.22,12.87-1.21,20.02-4.73.77,7.92,2.53,11.55,8.03,18.15h0Z"/>
    <path class="st2" d="M143.04,86.31c-4.18-1.54-8.58-2.97-13.09-4.4-2.97-.88-5.72-2.2-8.14-4.29-3.85-3.3-3.96-9.13,0-11.55,2.42-1.43,4.84-1.1,7.26.33.44.33.88.55,1.43.99-.22-.88-.33-1.65-.44-2.42-.22-2.97,1.54-5.61,4.29-6.49s6.05.33,7.92,2.75c1.76,2.42,2.31,5.06,2.2,7.92,0,1.98-.22,3.85-.44,5.72-.44,3.96-.88,7.81-1.1,11.44h.11Z"/>
    <path class="st2" d="M339.06,245.81l-.44.22c.11.55.44,1.21.44,1.76,0,1.32.33,2.75,0,3.85-.88,2.64-3.74,4.18-6.6,3.63-2.86-.44-5.17-2.97-5.39-5.61-.22-2.75,1.32-5.06,4.18-5.94.99-.33,1.87-.66,2.75-1.1v-.55c-1.76-.33-3.52-.99-5.28-1.1-1.76,0-3.52.44-4.95.66,1.43-2.75,2.97-5.72,4.51-9.13.44,4.07,3.41,6.16,6.6,8.03,0-1.1-.33-2.2-.66-3.19-.88-3.19.66-6.16,3.85-7.04,3.08-.88,6.6.66,7.92,3.63,1.32,3.08,0,6.27-3.3,7.59-.66.22-1.32.55-1.87.88,0,.22,0,.33.11.44,1.54-.22,3.08-.33,4.51-.77,2.09-.55,4.07-.33,5.83.99,2.2,1.65,2.97,4.51,2.09,6.93-.88,2.31-3.3,3.96-5.83,3.96-2.75,0-4.84-1.54-5.94-4.18-.66-1.43-1.43-2.75-2.31-4.18h0l-.22.22h0Z"/>
    <path class="st2" d="M344.23,161.22c2.86,3.19,6.6,3.41,10.67,3.74-2.53-2.2-3.41-4.62-2.86-7.37.66-3.52,3.96-5.61,7.7-4.18,1.98.77,3.85,1.87,5.5,3.19,3.19,2.42,6.05,5.06,8.69,7.48-.99,1.32-2.09,2.86-3.08,4.4-1.1,1.54-2.2,3.19-3.41,4.62s-2.64,2.97-4.18,4.07c-4.29,2.86-8.91.88-9.79-3.85-.33-2.09,0-3.96,1.54-6.05-4.07,1.1-7.48,2.09-9.57,5.61-.33-3.96-.77-7.59-1.32-11.55h0l.11-.11h0Z"/>
    <path class="st2" d="M356.11,195.1c4.84,6.38,7.92,9.02,15.84,13.2-7.92,3.96-11,6.49-15.95,12.76-4.18-6.93-7.26-9.57-15.18-13.2,7.92-3.52,11-6.05,15.29-12.76Z"/>
    <path class="st2" d="M337.74,129.98c1.32-3.3,2.75-7.04,4.18-10.78.66-1.76,1.32-3.63,2.2-5.39,1.21-2.53,2.86-4.73,5.5-6.05s6.16-.99,8.25,1.1c2.09,1.98,2.42,5.17.99,7.7-.44.66-.88,1.21-1.43,1.98.66,0,1.21-.22,1.76-.22,2.75-.22,5.06.55,6.6,2.86,2.53,3.96,0,9.13-5.06,10.34-3.19.77-6.16.66-9.24.22-4.62-.66-9.35-1.32-13.64-1.87h0l-.11.11h0Z"/>
  </g>
</svg>