<?xml version="1.0" encoding="utf-8"?>
<!-- Generator: Adobe Illustrator 27.6.1, SVG Export Plug-In . SVG Version: 6.00 Build 0)  -->
<svg version="1.1" id="Design" xmlns="http://www.w3.org/2000/svg" xmlns:xlink="http://www.w3.org/1999/xlink" x="0px" y="0px"
	 viewBox="0 0 55 55" style="enable-background:new 0 0 55 55;" xml:space="preserve">
<style type="text/css">
	.st0{fill:url(#SVGID_1_);}
</style>
<radialGradient id="SVGID_1_" cx="22.0237" cy="44.3521" r="38.0255" gradientTransform="matrix(1 0 0 -1 0 57)" gradientUnits="userSpaceOnUse">
	<stop  offset="0.19" style="stop-color:#FFFFFF"/>
	<stop  offset="0.59" style="stop-color:#DDE7ED"/>
	<stop  offset="0.65" style="stop-color:#CAD6DF"/>
	<stop  offset="0.78" style="stop-color:#9AABBD"/>
	<stop  offset="0.9" style="stop-color:#677E9A"/>
	<stop  offset="1" style="stop-color:#758BA5"/>
</radialGradient>
<circle class="st0" cx="27.5" cy="27.6" r="27.5"/>
<path d="M17.3,26.8c0-3.9,0.6-7.1,1.7-9.6c1.1-2.4,2.8-4.2,5-5.4s4.9-1.7,8.1-1.7c1.1,0,2.5,0.1,4,0.3v6c-1.3-0.2-2.7-0.4-4.2-0.4
	c-2.6,0-4.4,0.6-5.7,1.7c-1.2,1.1-1.9,2.9-2,5.5h0.2c1.2-2.2,3-3.3,5.6-3.3s4.5,0.8,5.8,2.4c1.4,1.6,2.1,3.9,2.1,6.7
	c0,3.1-0.9,5.6-2.6,7.3c-1.8,1.8-4.2,2.7-7.3,2.7c-3.3,0-5.9-1.1-7.8-3.2C18.2,33.8,17.3,30.7,17.3,26.8L17.3,26.8z M27.7,33.1
	c0.8,0,1.5-0.3,2-0.9c0.5-0.6,0.8-1.6,0.8-2.9c0-2.3-0.9-3.4-2.7-3.4c-0.9,0-1.6,0.3-2.1,0.9c-0.5,0.6-0.8,1.3-0.8,2.2
	c0,1.2,0.3,2.2,0.8,3C26.2,32.7,26.9,33.1,27.7,33.1L27.7,33.1z"/>
</svg>
