<?xml version="1.0" encoding="utf-8"?>
<!-- Generator: Adobe Illustrator 27.6.1, SVG Export Plug-In . SVG Version: 6.00 Build 0)  -->
<svg version="1.1" id="Design" xmlns="http://www.w3.org/2000/svg" xmlns:xlink="http://www.w3.org/1999/xlink" x="0px" y="0px"
	 viewBox="0 0 55 55" style="enable-background:new 0 0 55 55;" xml:space="preserve">
<style type="text/css">
	.st0{fill:url(#SVGID_1_);}
</style>
<radialGradient id="SVGID_1_" cx="22.2676" cy="802.5183" r="38.0271" gradientTransform="matrix(1 0 0 1 0 -790)" gradientUnits="userSpaceOnUse">
	<stop  offset="0.19" style="stop-color:#FFFFFF"/>
	<stop  offset="0.59" style="stop-color:#DDE7ED"/>
	<stop  offset="0.65" style="stop-color:#CAD6DF"/>
	<stop  offset="0.78" style="stop-color:#9AABBD"/>
	<stop  offset="0.9" style="stop-color:#677E9A"/>
	<stop  offset="1" style="stop-color:#758BA5"/>
</radialGradient>
<circle class="st0" cx="27.7" cy="27.5" r="27.5"/>
<g>
	<g>
		<path d="M36.9,16.5c0,1.8-0.5,3.3-1.6,4.5c-1.1,1.3-2.6,2.2-4.6,2.7v0.1c4.7,0.6,7.1,2.8,7.1,6.7c0,2.6-1,4.7-3.1,6.2
			c-2.1,1.5-5,2.3-8.7,2.3c-1.5,0-2.9-0.1-4.2-0.3c-1.3-0.2-2.7-0.6-4.2-1.2v-6.3c1.2,0.6,2.5,1.1,3.8,1.4c1.3,0.3,2.5,0.5,3.5,0.5
			c1.7,0,2.9-0.2,3.7-0.7c0.8-0.5,1.2-1.2,1.2-2.2c0-0.8-0.2-1.4-0.6-1.8c-0.4-0.4-1-0.7-1.9-0.9c-0.9-0.2-2-0.3-3.5-0.3h-1.7v-5.7
			h1.8c3.9,0,5.8-1,5.8-3c0-0.7-0.3-1.3-0.9-1.7c-0.6-0.4-1.3-0.5-2.3-0.5c-1.8,0-3.7,0.6-5.6,1.8l-3.2-5.1c1.5-1,3-1.8,4.6-2.2
			c1.6-0.4,3.4-0.7,5.4-0.7c2.9,0,5.2,0.6,6.9,1.7C36.1,12.9,36.9,14.5,36.9,16.5L36.9,16.5z"/>
	</g>
</g>
</svg>
