<?xml version="1.0" encoding="utf-8"?>
<!-- Generator: Adobe Illustrator 27.6.1, SVG Export Plug-In . SVG Version: 6.00 Build 0)  -->
<svg version="1.1" id="Design" xmlns="http://www.w3.org/2000/svg" xmlns:xlink="http://www.w3.org/1999/xlink" x="0px" y="0px"
	 viewBox="0 0 55 55" style="enable-background:new 0 0 55 55;" xml:space="preserve">
<style type="text/css">
	.st0{fill:url(#SVGID_1_);}
</style>
<radialGradient id="SVGID_1_" cx="22.0237" cy="802.5183" r="38.0271" gradientTransform="matrix(1 0 0 1 0 -790)" gradientUnits="userSpaceOnUse">
	<stop  offset="0.19" style="stop-color:#FFFFFF"/>
	<stop  offset="0.59" style="stop-color:#DDE7ED"/>
	<stop  offset="0.65" style="stop-color:#CAD6DF"/>
	<stop  offset="0.78" style="stop-color:#9AABBD"/>
	<stop  offset="0.9" style="stop-color:#677E9A"/>
	<stop  offset="1" style="stop-color:#758BA5"/>
</radialGradient>
<circle class="st0" cx="27.5" cy="27.5" r="27.5"/>
<g>
	<g>
		<path d="M37.6,38.6H17.1v-5l6.9-7c2-2.1,3.3-3.5,3.9-4.2c0.6-0.8,1-1.4,1.3-1.9c0.2-0.5,0.4-1.1,0.4-1.7c0-0.7-0.2-1.3-0.7-1.7
			c-0.5-0.4-1.1-0.6-2-0.6c-0.9,0-1.8,0.3-2.7,0.8c-0.9,0.5-1.9,1.3-3.1,2.2l-4.2-4.9c1.5-1.3,2.7-2.2,3.7-2.8c1-0.6,2.1-1,3.2-1.3
			s2.5-0.4,3.9-0.4c1.8,0,3.5,0.3,4.9,1c1.4,0.6,2.6,1.6,3.3,2.8c0.8,1.2,1.2,2.5,1.2,4c0,1.1-0.1,2.1-0.4,3.1
			c-0.3,0.9-0.7,1.9-1.3,2.8S34,25.4,33,26.4c-1,1-3,2.9-6.1,5.7v0.2h10.7L37.6,38.6L37.6,38.6z"/>
	</g>
</g>
</svg>
